<svg xmlns="http://www.w3.org/2000/svg" viewBox="0 0 851.61 273.46"><defs><style>.cls-1{fill:#efd2e5;}.cls-2{fill:#be80a7;}.cls-3{fill:#fbb040;}.cls-4{fill:none;stroke:#231f20;stroke-linecap:round;stroke-linejoin:round;stroke-width:0.99px;}</style></defs><title>Asset 1</title><g id="Layer_2" data-name="Layer 2"><g id="Layer_2-2" data-name="Layer 2"><path class="cls-1" d="M850.9,559.21v8H664c7.26-2.7,24-10.31,31.49-11.11a131.71,131.71,0,0,1,19.46-.55c14.07.61,27.6,4.52,41.72,5.47A657.24,657.24,0,0,0,850.9,559.21Z" transform="translate(0 -294.3)"/><path class="cls-1" d="M79.38,385.36c-.32,11.08-2.55,22.61-9.7,31-3.16,3.73-7.55,6.82-12.43,6.88s-9.93-3.9-9.68-8.78c.19-3.54,2.88-6.4,5.58-8.71s5.68-4.6,6.89-7.94c.59-1.64.7-3.42,1.24-5.08s1.7-3.31,3.41-3.64c-6.94-3.65-18.54-4.12-25.92-1.47s-14.08,6.9-21.31,9.92C12.23,399.76,6.09,401.28.51,401V375.18c3.42.69,7-3.4,9.26-6.09s4.06-5.88,7.06-7.66c1.5-.89,3.25-1.39,4.57-2.54,1.94-1.69,2.55-4.42,3-7a104.63,104.63,0,0,0,1.33-16.58c0-3.33,0-7.07,2.39-9.4,2.81-2.75,7.4-2.07,11.2-1a5.78,5.78,0,0,0,3.71.16c2.91-1.26,1.94-6.15,4.45-8.09,1.37-1.05,3.29-.85,5-.91s3.79-.73,4.14-2.42c.18-.84-.13-1.72,0-2.57a3.84,3.84,0,0,1,3-2.77c1.39-.37,2.86-.33,4.26-.67,4.8-1.17,7.36-6.27,11.15-9.42,4.14-3.44,8.52-4.78,15.15-1.67,5.07,2.28,8.94,6.3,12.48,10.58s6.57,9,10.07,13.3A41.51,41.51,0,0,0,123,329.94c4.15,2.53,9.08,4.22,13.66,5.81,9.87,3.42,20.09,5.63,30.16,8.31l3.33.9c9.92,2.76,19.8,6.25,28.56,11.75,2.18,1.37,24.31,12.59,26.73,13.79a29.85,29.85,0,0,1,5.06,2.69,71.26,71.26,0,0,0,50,.66l.08,0c32.34-7.12,90.08-4.21,100.59.53,5.53,10.35,23.77,14.78,25.45,14.56.47-.05,1-.24,1.11-.71a.88.88,0,0,0,0-.36c7.21,5.57,12,12.06,15.87,20.31,2.4,5.1,4.28,11.06,9,14.55,4.86,3.61,11.1,5.56,15.49,9.75,2.27,2.17,12.91,8.47,15.8,10.24a177.2,177.2,0,0,1,18.45,13c4.1,3.31,8.1,6.83,12.8,9.19s10.33,3.46,15.27,1.63c19.33-11.94,44.19-20.42,66.21-26,36-9.09,132-5.45,274.36,19.34v.17c-.19.06-.37.12,0,.18v99A657.24,657.24,0,0,1,756.67,561c-14.12-1-27.65-4.86-41.72-5.47a131.71,131.71,0,0,0-19.46.55c-7.49.8-24.23,8.41-31.49,11.11H219.5c-10.52-3.69-20.57-9.66-29.83-15.86l-.28-.1a68.68,68.68,0,0,0-3.48,16H111c.12-13.39-4.93-27.84-7.92-41.13a134.84,134.84,0,0,1,7.35-81.63c3.23-7.63,7.26-15.07,13.12-20.93.73-.73,1.49-1.43,2.27-2.1l0,0c-5.89-19.22-26.06-34.7-46.13-36ZM363.07,472.6c4.33-4.13,5.35-11.69,1.42-16.2-2.69-3.94-7.89-7.63-12.64-8.11s-10.3,1.65-14.57,6.92a13,13,0,0,0-1.16,13.16,16.86,16.86,0,0,0,10.13,7.6C352,477.65,358.74,476.74,363.07,472.6Z" transform="translate(0 -294.3)"/><path class="cls-2" d="M407.66,387.84a.88.88,0,0,1,0,.36c-.09.47-.64.66-1.11.71-1.68.22-19.92-4.21-25.45-14.56.79-.83,6.21,1.29,10.08,1.66a.65.65,0,0,0,.71-.55,7.54,7.54,0,0,1,2.45-3,3.86,3.86,0,0,1,2.2.13c1.92.51,3.12,1.63,4.87,2.57a2,2,0,0,1,1.13,1.1,2,2,0,0,1-.16,1.15c-.24.64-.1,1.4-.26,1.89a1.72,1.72,0,0,0,.36,1.72c2,2.16,3.7,3.84,5,6.48A2.75,2.75,0,0,1,407.66,387.84Z" transform="translate(0 -294.3)"/><path class="cls-2" d="M364.49,456.4c3.93,4.51,2.91,12.07-1.42,16.2s-11.07,5-16.82,3.37a16.86,16.86,0,0,1-10.13-7.6,13,13,0,0,1,1.16-13.16c4.27-5.27,9.82-7.4,14.57-6.92S361.8,452.46,364.49,456.4Zm-17.27,7.68c3,5.61,9.95,2.69,9.62-1.52C356.37,456.53,346,456,347.22,464.08Z" transform="translate(0 -294.3)"/><path class="cls-2" d="M356.84,462.56c.33,4.21-6.65,7.13-9.62,1.52C346,456,356.37,456.53,356.84,462.56Z" transform="translate(0 -294.3)"/><path class="cls-1" d="M280.44,373.8l0,.05a71.26,71.26,0,0,1-50-.66c8.06-3.75,16.68-6.76,25.57-7.14a38.25,38.25,0,0,1,14.77,2.18,30.46,30.46,0,0,1,6.75,3.44c.84.57,1.85,1.8,2.79,2.11Z" transform="translate(0 -294.3)"/><path class="cls-3" d="M219.5,567.17H185.91a68.68,68.68,0,0,1,3.48-16l.28.1C198.93,557.51,209,563.48,219.5,567.17Z" transform="translate(0 -294.3)"/><path class="cls-3" d="M125.79,421.36l0,0c-.78.67-1.54,1.37-2.27,2.1-5.86,5.86-9.89,13.3-13.12,20.93A134.84,134.84,0,0,0,103.07,526c3,13.29,8,27.74,7.92,41.13H.51V401c5.58.29,11.72-1.23,17-3.41,7.23-3,13.94-7.26,21.31-9.92s19-2.18,25.92,1.47c-1.71.33-2.87,2-3.41,3.64s-.65,3.44-1.24,5.08c-1.21,3.34-4.2,5.63-6.89,7.94s-5.39,5.17-5.58,8.71c-.25,4.88,4.79,8.85,9.68,8.78s9.27-3.15,12.43-6.88c7.15-8.43,9.38-20,9.7-31h.28C99.73,386.66,119.9,402.14,125.79,421.36Z" transform="translate(0 -294.3)"/><path class="cls-4" d="M381.13,374.35c.79-.83,6.21,1.29,10.08,1.66a.65.65,0,0,0,.71-.55,7.54,7.54,0,0,1,2.45-3,3.86,3.86,0,0,1,2.2.13c1.92.51,3.12,1.63,4.87,2.57a2,2,0,0,1,1.13,1.1,2,2,0,0,1-.16,1.15c-.24.64-.1,1.4-.26,1.89a1.72,1.72,0,0,0,.36,1.72c2,2.16,3.7,3.84,5,6.48a2.75,2.75,0,0,1,.15.36" transform="translate(0 -294.3)"/><path class="cls-4" d="M280.54,373.82c32.34-7.12,90.08-4.21,100.59.53" transform="translate(0 -294.3)"/><path class="cls-4" d="M280.44,373.8l-.06,0c-.94-.31-1.95-1.54-2.79-2.11a30.46,30.46,0,0,0-6.75-3.44,38.25,38.25,0,0,0-14.77-2.18c-8.89.38-17.51,3.39-25.57,7.14a29.85,29.85,0,0,0-5.06-2.69c-2.42-1.2-24.55-12.42-26.73-13.79-8.76-5.5-18.64-9-28.56-11.75l-3.33-.9c-10.07-2.68-20.29-4.89-30.16-8.31-4.58-1.59-9.51-3.28-13.66-5.81a41.51,41.51,0,0,1-10.31-9.52c-3.5-4.32-6.53-9-10.07-13.3s-7.41-8.3-12.48-10.58c-6.63-3.11-11-1.77-15.15,1.67-3.79,3.15-6.35,8.25-11.15,9.42-1.4.34-2.87.3-4.26.67a3.84,3.84,0,0,0-3,2.77c-.12.85.19,1.73,0,2.57-.35,1.69-2.41,2.37-4.14,2.42s-3.65-.14-5,.91c-2.51,1.94-1.54,6.83-4.45,8.09a5.78,5.78,0,0,1-3.71-.16c-3.8-1-8.39-1.71-11.2,1-2.38,2.33-2.38,6.07-2.39,9.4a104.63,104.63,0,0,1-1.33,16.58c-.41,2.55-1,5.28-3,7-1.32,1.15-3.07,1.65-4.57,2.54-3,1.78-4.83,5-7.06,7.66S3.92,375.87.5,375.18" transform="translate(0 -294.3)"/><path class="cls-4" d="M407.66,387.84a.88.88,0,0,1,0,.36c-.09.47-.64.66-1.11.71-1.68.22-19.92-4.21-25.45-14.56" transform="translate(0 -294.3)"/><path class="cls-4" d="M337.28,455.21a13,13,0,0,0-1.16,13.16,16.86,16.86,0,0,0,10.13,7.6c5.75,1.68,12.49.77,16.82-3.37s5.35-11.69,1.42-16.2" transform="translate(0 -294.3)"/><path class="cls-4" d="M347.22,464.08c3,5.61,9.95,2.69,9.62-1.52C356.37,456.53,346,456,347.22,464.08Z" transform="translate(0 -294.3)"/><path class="cls-4" d="M526.42,516.34c4.05.19,8.22-1,12,1.14,3,1.72,4.5,5.11,3.1,8.38s-5.39,4.31-8.58,3.57-5.85-3.91-7.47-6.71a99.44,99.44,0,0,0-8.27-12.17,100.53,100.53,0,0,0-21.4-20.09" transform="translate(0 -294.3)"/><path class="cls-4" d="M695.49,556.06c-13.36-2-27.88-12-38.78-20l-17.18-12.6c-16-11.76-32.39-23.84-43.65-40.22" transform="translate(0 -294.3)"/><path class="cls-4" d="M695.49,556.06c-7.49.8-24.23,8.41-31.49,11.11l-.24.09" transform="translate(0 -294.3)"/><path class="cls-4" d="M756.67,561c-14.12-1-27.65-4.86-41.72-5.47a131.71,131.71,0,0,0-19.46.55" transform="translate(0 -294.3)"/><path class="cls-4" d="M850.9,460.23c-.37-.06-.19-.12,0-.18s.37-.11,0-.17" transform="translate(0 -294.3)"/><path class="cls-4" d="M407.66,387.84l-.05,0" transform="translate(0 -294.3)"/><path class="cls-4" d="M407.66,387.84c7.21,5.57,12,12.06,15.87,20.31,2.4,5.1,4.28,11.06,9,14.55,4.86,3.61,11.1,5.56,15.49,9.75,2.27,2.17,12.91,8.47,15.8,10.24a177.2,177.2,0,0,1,18.45,13c4.1,3.31,8.1,6.83,12.8,9.19s10.33,3.46,15.27,1.63c19.33-11.94,44.19-20.42,66.21-26,36-9.09,132-5.45,274.36,19.34" transform="translate(0 -294.3)"/><path class="cls-4" d="M756.67,561a657.24,657.24,0,0,0,94.23-1.77" transform="translate(0 -294.3)"/><path class="cls-4" d="M203.87,508.46c4.53,12.37-1.44,20.92-8.23,30.34a49.3,49.3,0,0,0-6.25,12.41,68.68,68.68,0,0,0-3.48,16" transform="translate(0 -294.3)"/><path class="cls-4" d="M189.67,551.31c9.26,6.2,19.31,12.17,29.83,15.86" transform="translate(0 -294.3)"/><path class="cls-4" d="M270.19,399.79c-3.51-2.48-8.09-3.08-12.35-2.46a42.81,42.81,0,0,0-12.14,4.21,179.52,179.52,0,0,0-19.81,11.52c-7.09,6.54-17.75,7.33-27.24,5.59s-18.45-5.7-27.91-7.6c-15.59-3.13-32.94,0-44.93,10.33-.78.67-1.54,1.37-2.27,2.1-5.86,5.86-9.89,13.3-13.12,20.93A134.84,134.84,0,0,0,103.07,526c3,13.29,8,27.74,7.92,41.13" transform="translate(0 -294.3)"/><path class="cls-4" d="M70.75,382.5c.81-2.5,2.52-5.43,5.13-5.11a4,4,0,0,1,3,2.69,11,11,0,0,1,.49,4.2c0,.36,0,.72,0,1.08-.32,11.08-2.55,22.61-9.7,31-3.16,3.73-7.55,6.82-12.43,6.88s-9.93-3.9-9.68-8.78c.19-3.54,2.88-6.4,5.58-8.71s5.68-4.6,6.89-7.94c.59-1.64.7-3.42,1.24-5.08s1.7-3.31,3.41-3.64c-6.94-3.65-18.54-4.12-25.92-1.47s-14.08,6.9-21.31,9.92C12.23,399.76,6.09,401.28.51,401" transform="translate(0 -294.3)"/><path class="cls-4" d="M79.66,385.37c20.07,1.29,40.24,16.77,46.13,36" transform="translate(0 -294.3)"/><path class="cls-4" d="M230.5,373.19a71.26,71.26,0,0,0,50,.66l.08,0" transform="translate(0 -294.3)"/><path class="cls-4" d="M363.4,521.63A89.6,89.6,0,0,1,251.57,496.8" transform="translate(0 -294.3)"/><path class="cls-4" d="M496.17,490.24a303.4,303.4,0,0,0-76.76-39.91" transform="translate(0 -294.3)"/><path class="cls-4" d="M100.57,337a62.79,62.79,0,0,0,18.62,25.29C131,370.1,143.89,377,158,378.74c9.48,1.2,19.06-.09,28.59-.82s19.28-1.25,28.21,2.14c12.13,4.55,24.31,8.74,37.17,10.29,6.61.79,13.6.85,19.4,4.14" transform="translate(0 -294.3)"/><path class="cls-4" d="M364.49,456.4c-2.69-3.94-7.89-7.63-12.64-8.11s-10.3,1.65-14.57,6.92" transform="translate(0 -294.3)"/></g></g></svg>