<svg xmlns="http://www.w3.org/2000/svg" viewBox="0 0 332.57 246.41"><defs><style>.cls-1{fill:#00a651;}.cls-2{fill:none;stroke:#fff;stroke-linecap:round;stroke-linejoin:round;stroke-width:0.99px;}</style></defs><title>Asset 4</title><g id="Layer_2" data-name="Layer 2"><g id="Layer_3" data-name="Layer 3"><path class="cls-1" d="M42,108.37a234.59,234.59,0,0,1-4.87,61.7c0,.09,0,.19,0,.29a6.51,6.51,0,0,1-1.83,3.21,3.48,3.48,0,0,1-2.41,1v0c4.66-4,5.83-22,6.26-31.61.61-13.8,1.83-45-1.78-46.87v0a2.56,2.56,0,0,1,.66.09c1.81.46,2.65,2.5,3.06,4.32A49.48,49.48,0,0,1,42,108.37Z"/><path class="cls-1" d="M37.37,96c3.61,1.88,2.39,33.07,1.78,46.87-.43,9.65-1.6,27.65-6.26,31.61v0a2.59,2.59,0,0,1-.48,0,4.13,4.13,0,0,1-2.78-2h0c2.65-2.26,4.7-10.86,5.3-16.12C37.11,137.47,34.38,97.65,37.37,96Z"/><path class="cls-1" d="M38.36,245.54v0c-1.57-.08-3.14-.15-4.7-.19v0c-.7-22.18-1.92-48.67-1.25-70.86a2.59,2.59,0,0,0,.48,0,3.48,3.48,0,0,0,2.41-1,6.51,6.51,0,0,0,1.83-3.21C37.56,194.76,37.91,221.14,38.36,245.54Z"/><path class="cls-1" d="M34,98.26A4,4,0,0,1,37.37,96v0c-3,1.62-.26,41.44-2.41,60.38-.6,5.26-2.65,13.86-5.3,16.12h0a5.26,5.26,0,0,1-.63-1.36,12.29,12.29,0,0,1-.46-3.25,14.9,14.9,0,0,1,.16-2.71c1.22-7.24,2.12-14.83,2.74-22.41.48-5.86.8-11.71,1-17.37q.36-11.18.7-22.34A11.1,11.1,0,0,1,34,98.27Z"/><path class="cls-1" d="M34,98.26h0a11.1,11.1,0,0,0-.88,4.83q-.34,11.16-.7,22.34c-.18,5.66-.5,11.51-1,17.37-.26-7.72-1.09-109.18-2.71-111.75C37.46,31,33.24,75.58,34,98.26Z"/><path class="cls-1" d="M33.66,245.35v0c-1.11,0-2.23-.05-3.34-.05-.64-9-1.87-40.91-2.78-77.37l1,0a12.29,12.29,0,0,0,.46,3.25,5.26,5.26,0,0,0,.63,1.36,4.13,4.13,0,0,0,2.78,2C31.74,196.68,33,223.17,33.66,245.35Z"/><path class="cls-1" d="M31.44,142.81c-.62,7.58-1.52,15.17-2.74,22.41a14.9,14.9,0,0,0-.16,2.71l-1,0c0-.22,0-.45,0-.68-.34-13.57-.63-27.76-.84-41.64-.33-22.37.05-44.64,0-61.71,0-11-2.33-28.59,1.66-32.77v-.06h0l.32,0C30.35,33.63,31.18,135.09,31.44,142.81Z"/><path class="cls-1" d="M27.54,168c.91,36.46,2.14,68.34,2.78,77.37-1,0-2,0-3,.05-2.17-23.31-3.78-49.18-3.72-72.59a7.14,7.14,0,0,0,2.62-3.3,6,6,0,0,0,.44-2.18l.9,0C27.53,167.5,27.54,167.73,27.54,168Z"/><path class="cls-1" d="M28.37,31.09v.06c-4,4.18-1.66,21.79-1.66,32.77,0,17.07-.37,39.34,0,61.71.21,13.88.5,28.07.84,41.64l-.9,0v-.08a5.49,5.49,0,0,0-.34-1.75,7.31,7.31,0,0,0-2.91-3.55c-.33-38.13,0-77.3-.31-115.43A33.64,33.64,0,0,1,23.72,38C24.42,35.23,25.57,31.5,28.37,31.09Z"/><path class="cls-1" d="M26.62,167.22v.08a6,6,0,0,1-.44,2.18l0,0c-4.15.19-10.39-1.6-13.08-4.77-2.95-3.48-4.19-8.07-5.18-12.53C4.23,135.71.59,97.46,4.61,96.56c2.59,0,.78,22.79,5.22,49.55a37.72,37.72,0,0,0,4.31,12.41c2.18,3.88,6.42,8.09,12.13,6.95h0A5.49,5.49,0,0,1,26.62,167.22Z"/><path class="cls-1" d="M26.28,165.47h0c-5.71,1.14-9.95-3.07-12.13-6.95a37.72,37.72,0,0,1-4.31-12.41C5.39,119.35,7.2,96.56,4.61,96.56v0a4.34,4.34,0,0,1,.51,0A3.87,3.87,0,0,1,8,99.05a11.54,11.54,0,0,1,.6,3.93,314.33,314.33,0,0,0,3.88,39.1c.94,5.76,2.1,11.65,5.2,16.59,1.2,1.92,3.49,3.85,5.68,3.25A7.31,7.31,0,0,1,26.28,165.47Z"/><path class="cls-1" d="M26.16,169.46l0,0a7.14,7.14,0,0,1-2.62,3.3,17.25,17.25,0,0,1-13.81-6.85c-2.4-3.37-3.45-7.49-4.34-11.52A216.49,216.49,0,0,1,.6,102.08,8.33,8.33,0,0,1,2,98a3.79,3.79,0,0,1,2.6-1.44v0c-4,.9-.38,39.15,3.29,55.6,1,4.46,2.23,9.05,5.18,12.53C15.77,167.86,22,169.65,26.16,169.46Z"/><path class="cls-2" d="M20.72,245.92a65.43,65.43,0,0,1,6.56-.55c1,0,2-.05,3-.05s2.23,0,3.34.05c1.56,0,3.13.11,4.7.19,2.37.11,4.73.25,7.1.36"/><path class="cls-2" d="M27.28,245.41v0c-2.17-23.31-3.78-49.18-3.72-72.59"/><path class="cls-2" d="M37.12,170.07c0,.09,0,.19,0,.29.43,24.4.78,50.78,1.23,75.18"/><path class="cls-2" d="M32.41,174.49c-.67,22.19.55,48.68,1.25,70.86"/><path class="cls-2" d="M28.38,31.15c-4,4.18-1.66,21.79-1.66,32.77,0,17.07-.37,39.34,0,61.71.21,13.88.5,28.07.84,41.64,0,.23,0,.46,0,.68.91,36.46,2.14,68.34,2.78,77.37v0"/><path class="cls-2" d="M23.56,172.78a17.25,17.25,0,0,1-13.81-6.85c-2.4-3.37-3.45-7.49-4.34-11.52A216.49,216.49,0,0,1,.6,102.08,8.33,8.33,0,0,1,2,98a3.79,3.79,0,0,1,2.6-1.44,4.34,4.34,0,0,1,.51,0A3.87,3.87,0,0,1,8,99.05a11.54,11.54,0,0,1,.6,3.93,314.33,314.33,0,0,0,3.88,39.1c.94,5.76,2.1,11.65,5.2,16.59,1.2,1.92,3.49,3.85,5.68,3.25a7.31,7.31,0,0,1,2.91,3.55,5.49,5.49,0,0,1,.34,1.75v.08a6,6,0,0,1-.44,2.18A7.14,7.14,0,0,1,23.56,172.78Z"/><path class="cls-2" d="M4.61,96.56c2.59,0,.78,22.79,5.22,49.55a37.72,37.72,0,0,0,4.31,12.41c2.18,3.88,6.42,8.09,12.13,6.95"/><path class="cls-2" d="M4.61,96.56c-4,.9-.38,39.15,3.29,55.6,1,4.46,2.23,9.05,5.18,12.53,2.69,3.17,8.93,5,13.08,4.77"/><path class="cls-2" d="M37.12,170.07A234.59,234.59,0,0,0,42,108.37a49.48,49.48,0,0,0-.9-8c-.41-1.82-1.25-3.86-3.06-4.32a2.56,2.56,0,0,0-.66-.09A4,4,0,0,0,34,98.26h0a11.1,11.1,0,0,0-.88,4.83q-.34,11.16-.7,22.34c-.18,5.66-.5,11.51-1,17.37-.62,7.58-1.52,15.17-2.74,22.41a14.9,14.9,0,0,0-.16,2.71,12.29,12.29,0,0,0,.46,3.25,5.26,5.26,0,0,0,.63,1.36,4.13,4.13,0,0,0,2.78,2,2.59,2.59,0,0,0,.48,0,3.48,3.48,0,0,0,2.41-1,6.51,6.51,0,0,0,1.83-3.21A2.71,2.71,0,0,0,37.12,170.07Z"/><path class="cls-2" d="M37.37,96c-3,1.62-.26,41.44-2.41,60.38-.6,5.26-2.65,13.86-5.3,16.12"/><path class="cls-2" d="M37.37,96c3.61,1.88,2.39,33.07,1.78,46.87-.43,9.65-1.6,27.65-6.26,31.61"/><path class="cls-2" d="M23.37,161.92c-.33-38.13,0-77.3-.31-115.43A33.64,33.64,0,0,1,23.72,38c.7-2.75,1.85-6.48,4.65-6.89h0l.32,0c8.73-.1,4.51,44.52,5.28,67.2,0,.11,0,.23,0,.34"/><path class="cls-2" d="M28.73,31.05h0c1.62,2.57,2.45,104,2.71,111.75,0,.14,0,.25,0,.32"/><path class="cls-1" d="M329.93,48.3a145.1,145.1,0,0,1-3,38.16c0,.06,0,.12,0,.18a4,4,0,0,1-1.14,2,2.15,2.15,0,0,1-1.48.59h0c2.87-2.45,3.6-13.58,3.86-19.55.38-8.53,1.14-27.82-1.1-29v0a1.4,1.4,0,0,1,.41.05c1.12.28,1.64,1.55,1.89,2.67A30.26,30.26,0,0,1,329.93,48.3Z"/><path class="cls-1" d="M327.07,40.68c2.24,1.16,1.48,20.45,1.1,29-.26,6-1,17.1-3.86,19.55h0l-.3,0A2.56,2.56,0,0,1,322.29,88h0c1.64-1.39,2.91-6.71,3.28-10C326.91,66.3,325.23,41.68,327.07,40.68Z"/><path class="cls-1" d="M327.69,133.13h0c-1,0-1.94-.09-2.91-.11v0c-.43-13.71-1.19-30.09-.77-43.81l.3,0a2.15,2.15,0,0,0,1.48-.59,4,4,0,0,0,1.14-2C327.19,101.73,327.41,118,327.69,133.13Z"/><path class="cls-1" d="M325,42.05a2.49,2.49,0,0,1,2.07-1.4v0c-1.84,1-.16,25.62-1.49,37.34-.37,3.25-1.64,8.57-3.28,10h0a3.37,3.37,0,0,1-.39-.84,7.77,7.77,0,0,1-.29-2,9.48,9.48,0,0,1,.1-1.68c.76-4.47,1.31-9.17,1.7-13.86.3-3.62.49-7.24.6-10.74q.23-6.91.44-13.81a6.88,6.88,0,0,1,.54-3Z"/><path class="cls-1" d="M325,42.05h0a6.88,6.88,0,0,0-.54,3q-.22,6.9-.44,13.81c-.11,3.5-.3,7.12-.6,10.74-.16-4.77-.68-67.51-1.68-69.1C327.13.43,324.52,28,325,42.05Z"/><path class="cls-1" d="M324.78,133v0c-.69,0-1.38,0-2.07,0-.39-5.58-1.15-25.29-1.72-47.84h.62a7.77,7.77,0,0,0,.29,2,3.37,3.37,0,0,0,.39.84A2.56,2.56,0,0,0,324,89.2C323.59,102.92,324.35,119.3,324.78,133Z"/><path class="cls-1" d="M323.41,69.6c-.39,4.69-.94,9.39-1.7,13.86a9.48,9.48,0,0,0-.1,1.68H321c0-.14,0-.28,0-.42-.21-8.39-.39-17.17-.51-25.75-.21-13.83,0-27.6,0-38.16,0-6.79-1.44-17.68,1-20.27v0h0a.71.71,0,0,1,.2,0C322.73,2.09,323.25,64.83,323.41,69.6Z"/><path class="cls-1" d="M321,85.15c.57,22.55,1.33,42.26,1.72,47.84-.63,0-1.25,0-1.88,0-1.34-14.42-2.33-30.41-2.29-44.89a4.4,4.4,0,0,0,1.61-2,3.57,3.57,0,0,0,.27-1.35l.56,0C321,84.87,321,85,321,85.15Z"/><path class="cls-1" d="M321.51.52v0c-2.46,2.59-1,13.48-1,20.27,0,10.56-.23,24.33,0,38.16.12,8.58.3,17.36.51,25.75l-.56,0v0a3.33,3.33,0,0,0-.2-1.08,4.5,4.5,0,0,0-1.81-2.2c-.2-23.58,0-47.8-.18-71.38a20.58,20.58,0,0,1,.4-5.26C319.07,3.08,319.78.77,321.51.52Z"/><path class="cls-1" d="M320.42,84.7v0a3.57,3.57,0,0,1-.27,1.35h0c-2.57.11-6.42-1-8.08-3-1.83-2.15-2.6-5-3.21-7.74-2.27-10.18-4.52-33.83-2-34.38,1.6,0,.48,14.09,3.23,30.64a23.26,23.26,0,0,0,2.66,7.67c1.34,2.4,4,5,7.5,4.3h0A3.33,3.33,0,0,1,320.42,84.7Z"/><path class="cls-1" d="M320.22,83.62h0c-3.53.7-6.16-1.9-7.5-4.3a23.26,23.26,0,0,1-2.66-7.67C307.3,55.1,308.42,41,306.82,41v0a1.61,1.61,0,0,1,.31,0,2.4,2.4,0,0,1,1.79,1.55,7.16,7.16,0,0,1,.37,2.44,191.88,191.88,0,0,0,2.4,24.17c.58,3.56,1.3,7.21,3.21,10.26.75,1.19,2.16,2.38,3.51,2A4.5,4.5,0,0,1,320.22,83.62Z"/><path class="cls-1" d="M320.14,86.09h0a4.4,4.4,0,0,1-1.61,2A10.67,10.67,0,0,1,310,83.9a19.2,19.2,0,0,1-2.68-7.12,134.15,134.15,0,0,1-3-32.37,5.2,5.2,0,0,1,.88-2.53,2.35,2.35,0,0,1,1.61-.89v0c-2.49.55-.24,24.2,2,34.38.61,2.75,1.38,5.59,3.21,7.74C313.72,85.09,317.57,86.2,320.14,86.09Z"/><path class="cls-2" d="M316.78,133.36c1.35-.18,2.7-.28,4.05-.33.63,0,1.25,0,1.88,0s1.38,0,2.07,0c1,0,1.94.06,2.91.11,1.46.07,2.92.16,4.38.22"/><path class="cls-2" d="M320.84,133.05s0,0,0,0c-1.34-14.42-2.33-30.41-2.29-44.89"/><path class="cls-2" d="M326.92,86.46c0,.06,0,.12,0,.18.26,15.09.48,31.4.76,46.49"/><path class="cls-2" d="M324,89.2c-.42,13.72.34,30.1.77,43.81"/><path class="cls-2" d="M321.51.55c-2.46,2.59-1,13.48-1,20.27,0,10.56-.23,24.33,0,38.16.12,8.58.3,17.36.51,25.75,0,.14,0,.28,0,.42.57,22.55,1.33,42.26,1.72,47.84v0"/><path class="cls-2" d="M318.54,88.14A10.67,10.67,0,0,1,310,83.9a19.2,19.2,0,0,1-2.68-7.12,134.15,134.15,0,0,1-3-32.37,5.2,5.2,0,0,1,.88-2.53,2.35,2.35,0,0,1,1.61-.89,1.61,1.61,0,0,1,.31,0,2.4,2.4,0,0,1,1.79,1.55,7.16,7.16,0,0,1,.37,2.44,191.88,191.88,0,0,0,2.4,24.17c.58,3.56,1.3,7.21,3.21,10.26.75,1.19,2.16,2.38,3.51,2a4.5,4.5,0,0,1,1.81,2.2,3.33,3.33,0,0,1,.2,1.08v0a3.57,3.57,0,0,1-.27,1.35A4.4,4.4,0,0,1,318.54,88.14Z"/><path class="cls-2" d="M306.82,41c1.6,0,.48,14.09,3.23,30.64a23.26,23.26,0,0,0,2.66,7.67c1.34,2.4,4,5,7.5,4.3"/><path class="cls-2" d="M306.82,41c-2.49.55-.24,24.2,2,34.38.61,2.75,1.38,5.59,3.21,7.74,1.66,2,5.51,3.07,8.08,3"/><path class="cls-2" d="M326.92,86.46a145.1,145.1,0,0,0,3-38.16,30.26,30.26,0,0,0-.56-4.93c-.25-1.12-.77-2.39-1.89-2.67a1.4,1.4,0,0,0-.41-.05,2.49,2.49,0,0,0-2.07,1.4h0a6.88,6.88,0,0,0-.54,3q-.22,6.9-.44,13.81c-.11,3.5-.3,7.12-.6,10.74-.39,4.69-.94,9.39-1.7,13.86a9.48,9.48,0,0,0-.1,1.68,7.77,7.77,0,0,0,.29,2,3.37,3.37,0,0,0,.39.84A2.56,2.56,0,0,0,324,89.2l.3,0a2.15,2.15,0,0,0,1.48-.59,4,4,0,0,0,1.14-2A1.09,1.09,0,0,0,326.92,86.46Z"/><path class="cls-2" d="M327.07,40.68c-1.84,1-.16,25.62-1.49,37.34-.37,3.25-1.64,8.57-3.28,10"/><path class="cls-2" d="M327.07,40.68c2.24,1.16,1.48,20.45,1.1,29-.26,6-1,17.1-3.86,19.55"/><path class="cls-2" d="M318.41,81.42c-.2-23.58,0-47.8-.18-71.38a20.58,20.58,0,0,1,.4-5.26c.44-1.7,1.15-4,2.88-4.26h0a.71.71,0,0,1,.2,0C327.13.43,324.52,28,325,42.05v.22"/><path class="cls-2" d="M321.73.5h0c1,1.59,1.52,64.33,1.68,69.1a1.22,1.22,0,0,0,0,.21"/></g></g></svg>