<svg xmlns="http://www.w3.org/2000/svg" viewBox="0 0 825.4 380.47"><defs><style>.cls-1{fill:#00a651;}.cls-2{fill:none;stroke:#fff;stroke-linecap:round;stroke-linejoin:round;stroke-width:0.99px;}</style></defs><title>Asset 2</title><g id="Layer_2" data-name="Layer 2"><g id="Layer_3" data-name="Layer 3"><path class="cls-1" d="M64.4,119.55a361.49,361.49,0,0,1-7.5,95c0,.14,0,.29,0,.44-.12,1.61-1.76,3.91-2.82,4.95a5.36,5.36,0,0,1-3.7,1.47v0c7.16-6.09,9-33.81,9.63-48.68.94-21.24,2.83-69.28-2.75-72.17v-.07a4,4,0,0,1,1,.12c2.78.71,4.09,3.86,4.71,6.66A76.57,76.57,0,0,1,64.4,119.55Z"/><path class="cls-1" d="M57.27,100.56c5.58,2.89,3.69,50.93,2.75,72.17-.66,14.87-2.47,42.59-9.63,48.68v0a4.74,4.74,0,0,1-.75-.06,6.37,6.37,0,0,1-4.28-3l0,0c4.09-3.47,7.24-16.72,8.16-24.82C56.88,164.38,52.68,103.06,57.27,100.56Z"/><path class="cls-1" d="M58.81,330.79v0c-2.42-.12-4.83-.23-7.24-.3v0c-1.09-34.17-3-74.95-1.93-109.13a4.74,4.74,0,0,0,.75.06,5.36,5.36,0,0,0,3.7-1.47c1.06-1,2.7-3.34,2.82-4.95C57.58,252.6,58.12,293.23,58.81,330.79Z"/><path class="cls-1" d="M52.1,104a6.23,6.23,0,0,1,5.17-3.5v.07c-4.59,2.5-.39,63.82-3.71,93-.92,8.1-4.07,21.35-8.16,24.82l0,0a8.66,8.66,0,0,1-1-2.09,19.64,19.64,0,0,1-.7-5,24.21,24.21,0,0,1,.24-4.18c1.88-11.14,3.27-22.83,4.23-34.5.74-9,1.23-18,1.51-26.76l1.08-34.39c.08-2.54.19-5.19,1.36-7.44Z"/><path class="cls-1" d="M52.1,104v0c-1.17,2.25-1.28,4.9-1.36,7.44l-1.08,34.39c-.28,8.73-.77,17.73-1.51,26.76C47.75,160.71,46.47,4.46,44,.51,57.42.34,50.93,69.07,52.1,104Z"/><path class="cls-1" d="M51.57,330.51v0c-1.72,0-3.44-.07-5.15-.07-1-13.9-2.87-63-4.28-119.15l1.54,0a19.64,19.64,0,0,0,.7,5,8.66,8.66,0,0,0,1,2.09,6.37,6.37,0,0,0,4.28,3C48.6,255.56,50.48,296.34,51.57,330.51Z"/><path class="cls-1" d="M48.15,172.6c-1,11.67-2.35,23.36-4.23,34.5a24.21,24.21,0,0,0-.24,4.18l-1.54,0c0-.34,0-.7,0-1-.52-20.91-1-42.76-1.28-64.12-.51-34.45.07-68.75.05-95,0-16.91-3.58-44,2.56-50.47V.55h0l.5,0C46.47,4.46,47.75,160.71,48.15,172.6Z"/><path class="cls-1" d="M42.14,211.31c1.41,56.16,3.3,105.25,4.28,119.15-1.57,0-3.12,0-4.68.08C38.4,294.65,35.93,254.81,36,218.76a11,11,0,0,0,4-5.1,9.18,9.18,0,0,0,.67-3.35l1.39,0C42.13,210.61,42.14,211,42.14,211.31Z"/><path class="cls-1" d="M43.43.55V.64C37.3,7.08,40.87,34.2,40.88,51.11c0,26.29-.56,60.59-.05,95,.31,21.36.76,43.21,1.28,64.12l-1.39,0v-.12a8.35,8.35,0,0,0-.52-2.7A11.06,11.06,0,0,0,35.71,202c-.49-58.72,0-119-.47-177.77,0-4.39-.06-8.84,1-13.1S39.11,1.18,43.43.55Z"/><path class="cls-1" d="M40.72,210.19v.12a9.18,9.18,0,0,1-.67,3.35l0,0c-6.39.29-16-2.47-20.13-7.35-4.55-5.36-6.46-12.43-8-19.3C6.25,161.66.64,102.76,6.84,101.38c4,0,1.2,35.09,8,76.3a58.35,58.35,0,0,0,6.63,19.1c3.36,6,9.9,12.47,18.69,10.71h0A8.35,8.35,0,0,1,40.72,210.19Z"/><path class="cls-1" d="M40.2,207.49h0c-8.79,1.76-15.33-4.73-18.69-10.71a58.35,58.35,0,0,1-6.63-19.1c-6.83-41.21-4-76.3-8-76.3v0a4,4,0,0,1,.77,0,5.9,5.9,0,0,1,4.45,3.86,17.83,17.83,0,0,1,.93,6.06,482.37,482.37,0,0,0,6,60.21c1.45,8.86,3.23,17.93,8,25.54,1.86,3,5.38,5.93,8.74,5A11.06,11.06,0,0,1,40.2,207.49Z"/><path class="cls-1" d="M40,213.64l0,0a11,11,0,0,1-4,5.1c-8.16,0-16.54-3.92-21.28-10.56-3.68-5.19-5.31-11.53-6.67-17.74A333.45,333.45,0,0,1,.65,109.87a12.88,12.88,0,0,1,2.18-6.32,5.85,5.85,0,0,1,4-2.22v0c-6.2,1.38-.59,60.28,5.05,85.61,1.53,6.87,3.44,13.94,8,19.3C24,211.17,33.62,213.93,40,213.64Z"/><path class="cls-2" d="M31.64,331.38a100.62,100.62,0,0,1,10.1-.84c1.56-.05,3.11-.08,4.68-.08s3.43,0,5.15.07c2.41.07,4.82.18,7.24.3,3.64.17,7.29.38,10.92.55"/><path class="cls-2" d="M41.75,330.6a.13.13,0,0,0,0-.06C38.4,294.65,35.93,254.81,36,218.76"/><path class="cls-2" d="M56.9,214.58c0,.14,0,.29,0,.44.67,37.58,1.21,78.21,1.9,115.77"/><path class="cls-2" d="M49.64,221.38c-1,34.18.84,75,1.93,109.13"/><path class="cls-2" d="M43.44.64C37.3,7.08,40.87,34.2,40.88,51.11c0,26.29-.56,60.59-.05,95,.31,21.36.76,43.21,1.28,64.12,0,.34,0,.7,0,1,1.41,56.16,3.3,105.25,4.28,119.15v.05"/><path class="cls-2" d="M36,218.76c-8.16,0-16.54-3.92-21.28-10.56-3.68-5.19-5.31-11.53-6.67-17.74A333.45,333.45,0,0,1,.65,109.87a12.88,12.88,0,0,1,2.18-6.32,5.85,5.85,0,0,1,4-2.22,4,4,0,0,1,.77,0,5.9,5.9,0,0,1,4.45,3.86,17.83,17.83,0,0,1,.93,6.06,482.37,482.37,0,0,0,6,60.21c1.45,8.86,3.23,17.93,8,25.54,1.86,3,5.38,5.93,8.74,5a11.06,11.06,0,0,1,4.49,5.46,8.35,8.35,0,0,1,.52,2.7v.12a9.18,9.18,0,0,1-.67,3.35A11,11,0,0,1,36,218.76Z"/><path class="cls-2" d="M6.84,101.38c4,0,1.2,35.09,8,76.3a58.35,58.35,0,0,0,6.63,19.1c3.36,6,9.9,12.47,18.69,10.71"/><path class="cls-2" d="M6.84,101.38c-6.2,1.38-.59,60.28,5.05,85.61,1.53,6.87,3.44,13.94,8,19.3,4.14,4.88,13.74,7.64,20.13,7.35"/><path class="cls-2" d="M56.9,214.58a361.49,361.49,0,0,0,7.5-95A76.57,76.57,0,0,0,63,107.27c-.62-2.8-1.93-6-4.71-6.66a4,4,0,0,0-1-.12A6.23,6.23,0,0,0,52.1,104v0c-1.17,2.25-1.28,4.9-1.36,7.44l-1.08,34.39c-.28,8.73-.77,17.73-1.51,26.76-1,11.67-2.35,23.36-4.23,34.5a24.21,24.21,0,0,0-.24,4.18,19.64,19.64,0,0,0,.7,5,8.66,8.66,0,0,0,1,2.09,6.37,6.37,0,0,0,4.28,3,4.74,4.74,0,0,0,.75.06,5.36,5.36,0,0,0,3.7-1.47c1.06-1,2.7-3.34,2.82-4.95A2.11,2.11,0,0,0,56.9,214.58Z"/><path class="cls-2" d="M57.27,100.56c-4.59,2.5-.39,63.82-3.71,93-.92,8.1-4.07,21.35-8.16,24.82"/><path class="cls-2" d="M57.27,100.56c5.58,2.89,3.69,50.93,2.75,72.17-.66,14.87-2.47,42.59-9.63,48.68"/><path class="cls-2" d="M35.71,202c-.49-58.72,0-119-.47-177.77,0-4.39-.06-8.84,1-13.1s2.85-10,7.17-10.61h0l.5,0C57.42.34,50.93,69.07,52.1,104c0,.17,0,.35,0,.52"/><path class="cls-2" d="M44,.5a0,0,0,0,0,0,0c2.49,4,3.77,160.2,4.17,172.09,0,.21,0,.38,0,.5"/><path class="cls-1" d="M610.06,96.46a206.05,206.05,0,0,1-4.27,54.1v.25a5.67,5.67,0,0,1-1.6,2.81,3,3,0,0,1-2.11.84h0c4.08-3.47,5.11-19.25,5.48-27.71.54-12.1,1.61-39.44-1.56-41.08v0a2.44,2.44,0,0,1,.59.07c1.58.41,2.32,2.2,2.68,3.79A44.26,44.26,0,0,1,610.06,96.46Z"/><path class="cls-1" d="M606,85.66c3.17,1.64,2.1,29,1.56,41.08-.37,8.46-1.4,24.24-5.48,27.71h0l-.42,0a3.62,3.62,0,0,1-2.44-1.71h0c2.33-2,4.12-9.52,4.65-14.13C605.78,122,603.39,87.07,606,85.66Z"/><path class="cls-1" d="M606.88,216.71v0c-1.38-.07-2.76-.13-4.13-.17h0c-.61-19.45-1.68-42.67-1.09-62.12l.42,0a3,3,0,0,0,2.11-.84,5.67,5.67,0,0,0,1.6-2.81C606.18,172.2,606.48,195.33,606.88,216.71Z"/><path class="cls-1" d="M603.06,87.6a3.56,3.56,0,0,1,2.94-2v0c-2.61,1.41-.22,36.32-2.11,52.92-.53,4.61-2.32,12.16-4.65,14.13h0a5.18,5.18,0,0,1-.56-1.19,10.78,10.78,0,0,1-.39-2.85,12.5,12.5,0,0,1,.13-2.38c1.07-6.34,1.86-13,2.41-19.64.42-5.14.7-10.26.86-15.23q.3-9.8.61-19.58a9.89,9.89,0,0,1,.77-4.23S603.06,87.61,603.06,87.6Z"/><path class="cls-1" d="M603.06,87.6s0,0,0,0a9.89,9.89,0,0,0-.77,4.23q-.3,9.8-.61,19.58c-.16,5-.44,10.09-.86,15.23-.23-6.77-1-95.71-2.38-98C606.08,28.61,602.39,67.73,603.06,87.6Z"/><path class="cls-1" d="M602.75,216.55h0c-1,0-2,0-2.93,0-.56-7.91-1.63-35.86-2.43-67.82l.88,0a10.78,10.78,0,0,0,.39,2.85,5.18,5.18,0,0,0,.56,1.19,3.62,3.62,0,0,0,2.44,1.71C601.07,173.88,602.14,197.1,602.75,216.55Z"/><path class="cls-1" d="M600.81,126.66c-.55,6.64-1.34,13.3-2.41,19.64a12.5,12.5,0,0,0-.13,2.38l-.88,0c0-.2,0-.4,0-.6-.29-11.9-.55-24.33-.73-36.5-.29-19.61,0-39.13,0-54.09,0-9.63-2-25.07,1.45-28.74v0h0a1.32,1.32,0,0,1,.28,0C599.85,31,600.58,119.89,600.81,126.66Z"/><path class="cls-1" d="M597.39,148.7c.8,32,1.87,59.91,2.43,67.82-.89,0-1.77,0-2.66,0-1.9-20.43-3.31-43.11-3.26-63.63a6.3,6.3,0,0,0,2.3-2.9,5.37,5.37,0,0,0,.38-1.91l.79,0C597.38,148.3,597.39,148.5,597.39,148.7Z"/><path class="cls-1" d="M598.12,28.73v0c-3.49,3.67-1.45,19.11-1.45,28.74,0,15-.32,34.48,0,54.09.18,12.17.44,24.6.73,36.5l-.79,0v-.07a4.84,4.84,0,0,0-.3-1.54,6.34,6.34,0,0,0-2.55-3.11c-.28-33.42,0-67.76-.27-101.19a29.12,29.12,0,0,1,.58-7.46C594.66,32.36,595.66,29.08,598.12,28.73Z"/><path class="cls-1" d="M596.58,148.06v.07a5.37,5.37,0,0,1-.38,1.91h0c-3.63.16-9.1-1.41-11.45-4.19-2.6-3.05-3.68-7.08-4.55-11-3.21-14.41-6.41-47.94-2.88-48.73,2.27,0,.68,20,4.58,43.43a32.83,32.83,0,0,0,3.77,10.88c1.91,3.4,5.63,7.1,10.64,6.09h0A4.84,4.84,0,0,1,596.58,148.06Z"/><path class="cls-1" d="M596.28,146.52h0c-5,1-8.73-2.69-10.64-6.09a32.83,32.83,0,0,1-3.77-10.88c-3.9-23.45-2.31-43.43-4.58-43.43v0a3.2,3.2,0,0,1,.44,0,3.37,3.37,0,0,1,2.54,2.2,10.24,10.24,0,0,1,.52,3.45A275.43,275.43,0,0,0,584.2,126c.82,5,1.84,10.21,4.55,14.55,1.06,1.68,3.06,3.37,5,2.84A6.34,6.34,0,0,1,596.28,146.52Z"/><path class="cls-1" d="M596.17,150h0a6.3,6.3,0,0,1-2.3,2.9,15.14,15.14,0,0,1-12.11-6c-2.1-3-3-6.57-3.8-10.1A189.54,189.54,0,0,1,573.77,91a7.33,7.33,0,0,1,1.24-3.6,3.36,3.36,0,0,1,2.28-1.26v0c-3.53.79-.33,34.32,2.88,48.73.87,3.91,2,7.94,4.55,11C587.07,148.62,592.54,150.19,596.17,150Z"/><path class="cls-2" d="M591.41,217c1.91-.26,3.83-.4,5.75-.47.89,0,1.77,0,2.66,0s2,0,2.93,0c1.37,0,2.75.1,4.13.17,2.07.1,4.14.22,6.21.31"/><path class="cls-2" d="M597.16,216.6v0c-1.9-20.43-3.31-43.11-3.26-63.63"/><path class="cls-2" d="M605.79,150.56v.25c.39,21.39.69,44.52,1.09,65.9"/><path class="cls-2" d="M601.66,154.43c-.59,19.45.48,42.67,1.09,62.12"/><path class="cls-2" d="M598.12,28.77c-3.49,3.67-1.45,19.11-1.45,28.74,0,15-.32,34.48,0,54.09.18,12.17.44,24.6.73,36.5,0,.2,0,.4,0,.6.8,32,1.87,59.91,2.43,67.82v0"/><path class="cls-2" d="M593.9,152.94a15.14,15.14,0,0,1-12.11-6c-2.1-3-3-6.57-3.8-10.1A189.54,189.54,0,0,1,573.77,91a7.33,7.33,0,0,1,1.24-3.6,3.36,3.36,0,0,1,2.28-1.26,3.2,3.2,0,0,1,.44,0,3.37,3.37,0,0,1,2.54,2.2,10.24,10.24,0,0,1,.52,3.45A275.43,275.43,0,0,0,584.2,126c.82,5,1.84,10.21,4.55,14.55,1.06,1.68,3.06,3.37,5,2.84a6.34,6.34,0,0,1,2.55,3.11,4.84,4.84,0,0,1,.3,1.54v.07a5.37,5.37,0,0,1-.38,1.91A6.3,6.3,0,0,1,593.9,152.94Z"/><path class="cls-2" d="M577.29,86.12c2.27,0,.68,20,4.58,43.43a32.83,32.83,0,0,0,3.77,10.88c1.91,3.4,5.63,7.1,10.64,6.09"/><path class="cls-2" d="M577.29,86.12c-3.53.79-.33,34.32,2.88,48.73.87,3.91,2,7.94,4.55,11,2.35,2.78,7.82,4.35,11.45,4.19"/><path class="cls-2" d="M605.79,150.56a206.05,206.05,0,0,0,4.27-54.1,44.26,44.26,0,0,0-.79-7c-.36-1.59-1.1-3.38-2.68-3.79a2.44,2.44,0,0,0-.59-.07,3.56,3.56,0,0,0-2.94,2s0,0,0,0a9.89,9.89,0,0,0-.77,4.23q-.3,9.8-.61,19.58c-.16,5-.44,10.09-.86,15.23-.55,6.64-1.34,13.3-2.41,19.64a12.5,12.5,0,0,0-.13,2.38,10.78,10.78,0,0,0,.39,2.85,5.18,5.18,0,0,0,.56,1.19,3.62,3.62,0,0,0,2.44,1.71l.42,0a3,3,0,0,0,2.11-.84,5.67,5.67,0,0,0,1.6-2.81A1,1,0,0,0,605.79,150.56Z"/><path class="cls-2" d="M606,85.66c-2.61,1.41-.22,36.32-2.11,52.92-.53,4.61-2.32,12.16-4.65,14.13"/><path class="cls-2" d="M606,85.66c3.17,1.64,2.1,29,1.56,41.08-.37,8.46-1.4,24.24-5.48,27.71"/><path class="cls-2" d="M593.73,143.41c-.28-33.42,0-67.76-.27-101.19a29.12,29.12,0,0,1,.58-7.46c.62-2.4,1.62-5.68,4.08-6h0a1.32,1.32,0,0,1,.28,0c7.65-.09,4,39,4.63,58.9a2.91,2.91,0,0,0,0,.3"/><path class="cls-2" d="M598.43,28.69h0c1.42,2.25,2.15,91.19,2.38,98,0,.12,0,.22,0,.28"/><path class="cls-1" d="M818.8,137.27a415.05,415.05,0,0,1-8.59,108.87c0,.17,0,.35,0,.51-.15,1.85-2,4.48-3.23,5.67a6.08,6.08,0,0,1-4.24,1.69v0c8.2-7,10.28-38.75,11-55.78,1.07-24.34,3.24-79.38-3.15-82.68v-.09a4.81,4.81,0,0,1,1.18.14c3.19.81,4.68,4.42,5.4,7.63A87.21,87.21,0,0,1,818.8,137.27Z"/><path class="cls-1" d="M810.63,115.52c6.39,3.3,4.22,58.34,3.15,82.68-.75,17-2.83,48.8-11,55.78v0a6.11,6.11,0,0,1-.86-.06,7.34,7.34,0,0,1-4.9-3.44l0,0c4.68-4,8.3-19.16,9.35-28.43C810.18,188.63,805.37,118.37,810.63,115.52Z"/><path class="cls-1" d="M812.39,379.3v0c-2.77-.14-5.54-.26-8.29-.34v0c-1.24-39.14-3.4-85.87-2.21-125a6.17,6.17,0,0,0,5.1-1.63c1.22-1.19,3.08-3.82,3.23-5.67C811,289.71,811.6,336.26,812.39,379.3Z"/><path class="cls-1" d="M804.71,119.44a7.15,7.15,0,0,1,5.92-4v.09c-5.26,2.85-.45,73.11-4.25,106.53-1,9.27-4.67,24.46-9.35,28.43l0,0a9.53,9.53,0,0,1-1.12-2.4,22.31,22.31,0,0,1-.81-5.75,26.84,26.84,0,0,1,.28-4.78c2.15-12.76,3.75-26.16,4.85-39.53.84-10.34,1.4-20.66,1.72-30.66q.63-19.71,1.24-39.4c.09-2.91.21-5.95,1.55-8.53C804.7,119.45,804.71,119.45,804.71,119.44Z"/><path class="cls-1" d="M804.71,119.44s0,0,0,0c-1.34,2.58-1.46,5.62-1.55,8.53q-.63,19.7-1.24,39.4c-.32,10-.88,20.32-1.72,30.66C799.72,184.42,798.25,5.4,795.41.88,810.8.69,803.36,79.43,804.71,119.44Z"/><path class="cls-1" d="M804.1,379v0c-2-.05-3.94-.09-5.9-.09-1.12-15.92-3.29-72.17-4.9-136.5l1.76,0a22.31,22.31,0,0,0,.81,5.75,9.53,9.53,0,0,0,1.12,2.4,7.34,7.34,0,0,0,4.9,3.44C800.7,293.1,802.86,339.83,804.1,379Z"/><path class="cls-1" d="M800.19,198.05c-1.1,13.37-2.7,26.77-4.85,39.53a26.84,26.84,0,0,0-.28,4.78l-1.76,0c0-.4,0-.8,0-1.2-.59-24-1.11-49-1.47-73.47-.58-39.47.09-78.76.07-108.88,0-19.38-4.11-50.46,2.92-57.83V.93h.06a3.77,3.77,0,0,1,.58,0C798.25,5.4,799.72,184.42,800.19,198.05Z"/><path class="cls-1" d="M793.3,242.41c1.61,64.33,3.78,120.58,4.9,136.5-1.79,0-3.58,0-5.37.1-3.82-41.12-6.65-86.77-6.55-128.07a12.68,12.68,0,0,0,4.62-5.84,10.61,10.61,0,0,0,.77-3.85l1.59,0C793.28,241.61,793.3,242,793.3,242.41Z"/><path class="cls-1" d="M794.77.93V1c-7,7.37-2.94,38.45-2.92,57.83,0,30.12-.65,69.41-.07,108.88.36,24.49.88,49.52,1.47,73.47l-1.59,0v-.13a9.73,9.73,0,0,0-.59-3.1,12.76,12.76,0,0,0-5.15-6.25c-.57-67.28,0-136.39-.54-203.68,0-5-.07-10.13,1.17-15S789.82,1.65,794.77.93Z"/><path class="cls-1" d="M791.67,241.12v.13a10.61,10.61,0,0,1-.77,3.85l0,0c-7.32.33-18.32-2.84-23.07-8.43-5.22-6.14-7.4-14.24-9.15-22.11-6.46-29-12.89-96.51-5.79-98.09,4.57,0,1.37,40.21,9.21,87.42a66.45,66.45,0,0,0,7.59,21.89c3.84,6.85,11.34,14.29,21.41,12.26h0A9.73,9.73,0,0,1,791.67,241.12Z"/><path class="cls-1" d="M791.08,238h0c-10.07,2-17.57-5.41-21.41-12.26a66.45,66.45,0,0,1-7.59-21.89c-7.84-47.21-4.64-87.42-9.21-87.42v0a3.8,3.8,0,0,1,.89,0,6.78,6.78,0,0,1,5.1,4.42,20.47,20.47,0,0,1,1,6.94,553.91,553.91,0,0,0,6.86,69c1.66,10.16,3.7,20.55,9.16,29.28,2.13,3.38,6.17,6.79,10,5.73A12.76,12.76,0,0,1,791.08,238Z"/><path class="cls-1" d="M790.86,245.08l0,0a12.68,12.68,0,0,1-4.62,5.84c-9.35,0-18.95-4.49-24.38-12.1-4.22-6-6.09-13.21-7.65-20.32a381.89,381.89,0,0,1-8.49-92.34,14.92,14.92,0,0,1,2.49-7.25,6.73,6.73,0,0,1,4.6-2.53v0c-7.1,1.58-.67,69.07,5.79,98.09,1.75,7.87,3.93,16,9.15,22.11C772.54,242.24,783.54,245.41,790.86,245.08Z"/><path class="cls-2" d="M781.26,380a115.43,115.43,0,0,1,11.57-1c1.79-.06,3.58-.1,5.37-.1,2,0,3.93,0,5.9.09,2.75.08,5.52.2,8.29.34,4.18.2,8.35.44,12.52.63"/><path class="cls-2" d="M792.84,379.08a.2.2,0,0,0,0-.07c-3.82-41.12-6.65-86.77-6.55-128.07"/><path class="cls-2" d="M810.21,246.14c0,.17,0,.35,0,.51.77,43.06,1.38,89.61,2.17,132.65"/><path class="cls-2" d="M801.89,254c-1.19,39.15,1,85.88,2.21,125"/><path class="cls-2" d="M794.78,1c-7,7.37-2.94,38.45-2.92,57.83,0,30.12-.65,69.41-.07,108.88.36,24.49.88,49.52,1.47,73.47,0,.4,0,.8,0,1.2,1.61,64.33,3.78,120.58,4.9,136.5V379"/><path class="cls-2" d="M786.28,250.94c-9.35,0-18.95-4.49-24.38-12.1-4.22-6-6.09-13.21-7.65-20.32a381.89,381.89,0,0,1-8.49-92.34,14.92,14.92,0,0,1,2.49-7.25,6.73,6.73,0,0,1,4.6-2.53,3.8,3.8,0,0,1,.89,0,6.78,6.78,0,0,1,5.1,4.42,20.47,20.47,0,0,1,1,6.94,553.91,553.91,0,0,0,6.86,69c1.66,10.16,3.7,20.55,9.16,29.28,2.13,3.38,6.17,6.79,10,5.73a12.76,12.76,0,0,1,5.15,6.25,9.73,9.73,0,0,1,.59,3.1v.13a10.61,10.61,0,0,1-.77,3.85A12.68,12.68,0,0,1,786.28,250.94Z"/><path class="cls-2" d="M752.85,116.45c4.57,0,1.37,40.21,9.21,87.42a66.45,66.45,0,0,0,7.59,21.89c3.84,6.85,11.34,14.29,21.41,12.26"/><path class="cls-2" d="M752.85,116.45c-7.1,1.58-.67,69.07,5.79,98.09,1.75,7.87,3.93,16,9.15,22.11,4.75,5.59,15.75,8.76,23.07,8.43"/><path class="cls-2" d="M810.21,246.14a415.05,415.05,0,0,0,8.59-108.87,87.21,87.21,0,0,0-1.59-14.07c-.72-3.21-2.21-6.82-5.4-7.63a4.81,4.81,0,0,0-1.18-.14,7.15,7.15,0,0,0-5.92,4s0,0,0,0c-1.34,2.58-1.46,5.62-1.55,8.53q-.63,19.7-1.24,39.4c-.32,10-.88,20.32-1.72,30.66-1.1,13.37-2.7,26.77-4.85,39.53a26.84,26.84,0,0,0-.28,4.78,22.31,22.31,0,0,0,.81,5.75,9.53,9.53,0,0,0,1.12,2.4,7.34,7.34,0,0,0,4.9,3.44,6.17,6.17,0,0,0,5.1-1.63c1.22-1.19,3.08-3.82,3.23-5.67A2.86,2.86,0,0,0,810.21,246.14Z"/><path class="cls-2" d="M810.63,115.52c-5.26,2.85-.45,73.11-4.25,106.53-1,9.27-4.67,24.46-9.35,28.43"/><path class="cls-2" d="M810.63,115.52c6.39,3.3,4.22,58.34,3.15,82.68-.75,17-2.83,48.8-11,55.78"/><path class="cls-2" d="M785.93,231.77c-.57-67.28,0-136.39-.54-203.68,0-5-.07-10.13,1.17-15S789.82,1.65,794.77.93h.06a3.77,3.77,0,0,1,.58,0c15.39-.19,8,78.55,9.3,118.56,0,.2,0,.41,0,.6"/><path class="cls-2" d="M795.39.87s0,0,0,0c2.84,4.52,4.31,183.54,4.78,197.17,0,.24,0,.44,0,.57"/></g></g></svg>