<svg xmlns="http://www.w3.org/2000/svg" viewBox="0 0 656.69 462.37"><defs><style>.cls-1{fill:#00a651;}.cls-2{fill:none;stroke:#fff;stroke-linecap:round;stroke-linejoin:round;stroke-width:0.99px;}</style></defs><title>Asset 3</title><g id="Layer_2" data-name="Layer 2"><g id="Layer_3" data-name="Layer 3"><path class="cls-1" d="M67.13,237.82a377.21,377.21,0,0,1-7.82,99.08c0,.15,0,.31,0,.46-.13,1.68-1.83,4.08-2.94,5.16a5.55,5.55,0,0,1-3.86,1.54v0c7.47-6.35,9.36-35.26,10-50.76,1-22.15,3-72.24-2.86-75.25v-.08a4.41,4.41,0,0,1,1.07.13c2.9.74,4.26,4,4.91,6.94A79.63,79.63,0,0,1,67.13,237.82Z"/><path class="cls-1" d="M59.7,218c5.81,3,3.84,53.1,2.86,75.25-.68,15.5-2.57,44.41-10,50.76v0a5.12,5.12,0,0,1-.78-.06,6.67,6.67,0,0,1-4.46-3.13l0,0c4.26-3.62,7.55-17.44,8.51-25.88C59.29,284.56,54.91,220.62,59.7,218Z"/><path class="cls-1" d="M61.3,458.08v0c-2.52-.13-5-.24-7.55-.31v0c-1.13-35.62-3.09-78.15-2-113.78a5.12,5.12,0,0,0,.78.06,5.55,5.55,0,0,0,3.86-1.54c1.11-1.08,2.81-3.48,2.94-5.16C60,376.55,60.58,418.91,61.3,458.08Z"/><path class="cls-1" d="M54.31,221.59a6.49,6.49,0,0,1,5.39-3.65V218c-4.79,2.6-.41,66.54-3.87,97-1,8.44-4.25,22.26-8.51,25.88l0,0a9,9,0,0,1-1-2.18,20.35,20.35,0,0,1-.73-5.23,24.1,24.1,0,0,1,.25-4.35c2-11.62,3.41-23.81,4.41-36,.77-9.41,1.28-18.8,1.57-27.9q.57-17.94,1.13-35.86c.08-2.65.19-5.41,1.41-7.76C54.3,221.6,54.31,221.6,54.31,221.59Z"/><path class="cls-1" d="M54.31,221.59s0,0,0,0c-1.22,2.35-1.33,5.11-1.41,7.76q-.57,17.92-1.13,35.86c-.29,9.1-.8,18.49-1.57,27.9-.42-12.4-1.76-175.32-4.35-179.44C59.85,113.52,53.08,185.18,54.31,221.59Z"/><path class="cls-1" d="M53.75,457.78v0c-1.79-.05-3.58-.08-5.37-.08-1-14.49-3-65.68-4.46-124.23l1.61,0a20.35,20.35,0,0,0,.73,5.23,9,9,0,0,0,1,2.18A6.67,6.67,0,0,0,51.74,344C50.66,379.63,52.62,422.16,53.75,457.78Z"/><path class="cls-1" d="M50.19,293.13c-1,12.17-2.45,24.36-4.41,36a24.1,24.1,0,0,0-.25,4.35l-1.61,0c0-.36,0-.73,0-1.09-.54-21.8-1-44.58-1.34-66.86-.53-35.92.08-71.68.06-99.09,0-17.64-3.74-45.92,2.66-52.63v-.09h.06a3,3,0,0,1,.52,0C48.43,117.81,49.77,280.73,50.19,293.13Z"/><path class="cls-1" d="M43.92,333.5c1.47,58.55,3.44,109.74,4.46,124.23-1.63,0-3.25,0-4.88.09-3.48-37.43-6.06-79-6-116.56a11.53,11.53,0,0,0,4.2-5.31,9.58,9.58,0,0,0,.7-3.5l1.45,0C43.91,332.77,43.92,333.14,43.92,333.5Z"/><path class="cls-1" d="M45.26,113.74v.09c-6.4,6.71-2.67,35-2.66,52.63,0,27.41-.59,63.17-.06,99.09.33,22.28.8,45.06,1.34,66.86l-1.45,0v-.12a8.81,8.81,0,0,0-.54-2.82,11.59,11.59,0,0,0-4.68-5.69c-.52-61.23,0-124.13-.49-185.36,0-4.58-.07-9.22,1.06-13.66S40.76,114.39,45.26,113.74Z"/><path class="cls-1" d="M42.44,332.33v.12a9.58,9.58,0,0,1-.7,3.5l0,0c-6.66.3-16.67-2.58-21-7.67-4.75-5.59-6.74-13-8.33-20.12C6.5,281.73.65,220.31,7.11,218.87c4.16,0,1.25,36.59,8.38,79.56a60.76,60.76,0,0,0,6.91,19.92c3.5,6.23,10.32,13,19.49,11.16h0A8.81,8.81,0,0,1,42.44,332.33Z"/><path class="cls-1" d="M41.9,329.51h0c-9.17,1.84-16-4.93-19.49-11.16a60.76,60.76,0,0,1-6.91-19.92c-7.13-43-4.22-79.56-8.38-79.56v-.05a4.39,4.39,0,0,1,.81,0,6.17,6.17,0,0,1,4.64,4,18.65,18.65,0,0,1,1,6.32A504.41,504.41,0,0,0,19.76,292c1.51,9.24,3.37,18.7,8.34,26.64,1.94,3.08,5.61,6.18,9.12,5.22A11.59,11.59,0,0,1,41.9,329.51Z"/><path class="cls-1" d="M41.7,335.93l0,0a11.53,11.53,0,0,1-4.2,5.31c-8.51,0-17.25-4.08-22.19-11-3.84-5.41-5.54-12-7-18.49a347.75,347.75,0,0,1-7.73-84,13.42,13.42,0,0,1,2.27-6.59,6.09,6.09,0,0,1,4.18-2.31v.05c-6.46,1.44-.61,62.86,5.27,89.27C14,315.3,16,322.67,20.71,328.26,25,333.35,35,336.23,41.7,335.93Z"/><path class="cls-2" d="M33,458.69a103.31,103.31,0,0,1,10.53-.87c1.63-.06,3.25-.09,4.88-.09,1.79,0,3.58,0,5.37.08,2.51.07,5,.18,7.55.31,3.8.18,7.6.4,11.39.57"/><path class="cls-2" d="M43.51,457.88a.13.13,0,0,0,0-.06c-3.48-37.43-6.06-79-6-116.56"/><path class="cls-2" d="M59.31,336.9c0,.15,0,.31,0,.46.7,39.19,1.26,81.55,2,120.72"/><path class="cls-2" d="M51.74,344c-1.08,35.63.88,78.16,2,113.78"/><path class="cls-2" d="M45.27,113.83c-6.4,6.71-2.67,35-2.66,52.63,0,27.41-.59,63.17-.06,99.09.33,22.28.8,45.06,1.34,66.86,0,.36,0,.73,0,1.09,1.47,58.55,3.44,109.74,4.46,124.23v0"/><path class="cls-2" d="M37.54,341.26c-8.51,0-17.25-4.08-22.19-11-3.84-5.41-5.54-12-7-18.49a347.75,347.75,0,0,1-7.73-84,13.42,13.42,0,0,1,2.27-6.59,6.09,6.09,0,0,1,4.18-2.31,4.39,4.39,0,0,1,.81,0,6.17,6.17,0,0,1,4.64,4,18.65,18.65,0,0,1,1,6.32A504.41,504.41,0,0,0,19.76,292c1.51,9.24,3.37,18.7,8.34,26.64,1.94,3.08,5.61,6.18,9.12,5.22a11.59,11.59,0,0,1,4.68,5.69,8.81,8.81,0,0,1,.54,2.82v.12a9.58,9.58,0,0,1-.7,3.5A11.53,11.53,0,0,1,37.54,341.26Z"/><path class="cls-2" d="M7.11,218.87c4.16,0,1.25,36.59,8.38,79.56a60.76,60.76,0,0,0,6.91,19.92c3.5,6.23,10.32,13,19.49,11.16"/><path class="cls-2" d="M7.11,218.87c-6.46,1.44-.61,62.86,5.27,89.27C14,315.3,16,322.67,20.71,328.26c4.32,5.09,14.33,8,21,7.67"/><path class="cls-2" d="M59.31,336.9a377.21,377.21,0,0,0,7.82-99.08A79.63,79.63,0,0,0,65.68,225c-.65-2.92-2-6.2-4.91-6.94a4.41,4.41,0,0,0-1.07-.13,6.49,6.49,0,0,0-5.39,3.65s0,0,0,0c-1.22,2.35-1.33,5.11-1.41,7.76q-.57,17.92-1.13,35.86c-.29,9.1-.8,18.49-1.57,27.9-1,12.17-2.45,24.36-4.41,36a24.1,24.1,0,0,0-.25,4.35,20.35,20.35,0,0,0,.73,5.23,9,9,0,0,0,1,2.18A6.67,6.67,0,0,0,51.74,344a5.12,5.12,0,0,0,.78.06,5.55,5.55,0,0,0,3.86-1.54c1.11-1.08,2.81-3.48,2.94-5.16A2.32,2.32,0,0,0,59.31,336.9Z"/><path class="cls-2" d="M59.7,218c-4.79,2.6-.41,66.54-3.87,97-1,8.44-4.25,22.26-8.51,25.88"/><path class="cls-2" d="M59.7,218c5.81,3,3.84,53.1,2.86,75.25-.68,15.5-2.57,44.41-10,50.76"/><path class="cls-2" d="M37.22,323.82c-.52-61.23,0-124.13-.49-185.36,0-4.58-.07-9.22,1.06-13.66s3-10.41,7.47-11.06h.06a3,3,0,0,1,.52,0c14-.17,7.24,71.49,8.47,107.9,0,.18,0,.37,0,.55"/><path class="cls-2" d="M45.83,113.68h0c2.59,4.12,3.93,167,4.35,179.44,0,.22,0,.4,0,.52"/><path class="cls-1" d="M236.49,93.13a162,162,0,0,1-3.36,42.53v.19a4.46,4.46,0,0,1-1.26,2.22,2.43,2.43,0,0,1-1.66.66h0c3.21-2.73,4-15.14,4.31-21.79.42-9.51,1.27-31-1.22-32.3v0a1.88,1.88,0,0,1,.46.06c1.24.31,1.82,1.72,2.1,3A33.94,33.94,0,0,1,236.49,93.13Z"/><path class="cls-1" d="M233.3,84.63c2.49,1.3,1.64,22.79,1.22,32.3-.29,6.65-1.1,19.06-4.31,21.79h0a1.84,1.84,0,0,1-.33,0,2.82,2.82,0,0,1-1.91-1.34h0c1.83-1.55,3.24-7.48,3.66-11.11C233.12,113.19,231.24,85.75,233.3,84.63Z"/><path class="cls-1" d="M234,187.67h0c-1.08-.05-2.16-.1-3.24-.13h0c-.48-15.29-1.32-33.54-.86-48.84a1.84,1.84,0,0,0,.33,0,2.43,2.43,0,0,0,1.66-.66,4.46,4.46,0,0,0,1.26-2.22C233.43,152.67,233.67,170.85,234,187.67Z"/><path class="cls-1" d="M231,86.17a2.78,2.78,0,0,1,2.32-1.57v0c-2.06,1.12-.18,28.56-1.66,41.61-.42,3.63-1.83,9.56-3.66,11.11h0a3.66,3.66,0,0,1-.44-.94,8.93,8.93,0,0,1-.32-2.24,11.76,11.76,0,0,1,.11-1.87c.84-5,1.47-10.22,1.89-15.44.34-4,.55-8.07.68-12l.48-15.4a7.68,7.68,0,0,1,.61-3.33Z"/><path class="cls-1" d="M231,86.17h0a7.68,7.68,0,0,0-.61,3.33l-.48,15.4c-.13,3.9-.34,7.93-.68,12-.18-5.32-.75-75.25-1.86-77C233.36,39.78,230.45,70.54,231,86.17Z"/><path class="cls-1" d="M230.74,187.54h0c-.77,0-1.53,0-2.3,0-.44-6.22-1.29-28.19-1.92-53.32l.69,0a8.93,8.93,0,0,0,.32,2.24,3.66,3.66,0,0,0,.44.94,2.82,2.82,0,0,0,1.91,1.34C229.42,154,230.26,172.25,230.74,187.54Z"/><path class="cls-1" d="M229.21,116.87c-.42,5.22-1.05,10.46-1.89,15.44a11.76,11.76,0,0,0-.11,1.87l-.69,0c0-.16,0-.32,0-.47-.23-9.36-.43-19.13-.57-28.7-.23-15.41,0-30.76,0-42.53,0-7.57-1.6-19.7,1.14-22.58v0h.25C228.46,41.62,229,111.55,229.21,116.87Z"/><path class="cls-1" d="M226.52,134.2c.63,25.13,1.48,47.1,1.92,53.32q-1,0-2.1,0c-1.49-16.06-2.6-33.89-2.55-50a5,5,0,0,0,1.8-2.28,4.18,4.18,0,0,0,.3-1.5l.62,0C226.52,133.88,226.52,134,226.52,134.2Z"/><path class="cls-1" d="M227.1,39.88v0c-2.74,2.88-1.14,15-1.14,22.58,0,11.77-.25,27.12,0,42.53.14,9.57.34,19.34.57,28.7l-.62,0v-.06a3.93,3.93,0,0,0-.23-1.21,5,5,0,0,0-2-2.44c-.23-26.28,0-53.27-.21-79.55a23.06,23.06,0,0,1,.45-5.87C224.38,42.73,225.17,40.16,227.1,39.88Z"/><path class="cls-1" d="M225.89,133.69v.06a4.18,4.18,0,0,1-.3,1.5h0c-2.86.13-7.15-1.11-9-3.29-2-2.4-2.89-5.56-3.57-8.64C210.46,112,208,85.62,210.72,85c1.79,0,.54,15.7,3.6,34.15a25.92,25.92,0,0,0,3,8.54c1.5,2.68,4.43,5.58,8.36,4.79h0A3.93,3.93,0,0,1,225.89,133.69Z"/><path class="cls-1" d="M225.66,132.48h0c-3.93.79-6.86-2.11-8.36-4.79a25.92,25.92,0,0,1-3-8.54C211.26,100.7,212.51,85,210.72,85v0a1.36,1.36,0,0,1,.35,0,2.63,2.63,0,0,1,2,1.72,8,8,0,0,1,.42,2.71,217.45,217.45,0,0,0,2.67,27c.65,4,1.45,8,3.58,11.43.84,1.32,2.41,2.65,3.92,2.24A5,5,0,0,1,225.66,132.48Z"/><path class="cls-1" d="M225.57,135.24h0a5,5,0,0,1-1.8,2.28,11.88,11.88,0,0,1-9.53-4.73,21.36,21.36,0,0,1-3-7.93A149,149,0,0,1,208,88.8a5.68,5.68,0,0,1,1-2.83,2.58,2.58,0,0,1,1.79-1v0c-2.77.62-.26,27,2.27,38.31.68,3.08,1.53,6.24,3.57,8.64C218.42,134.13,222.71,135.37,225.57,135.24Z"/><path class="cls-2" d="M221.82,187.93c1.51-.21,3-.32,4.52-.38q1,0,2.1,0c.77,0,1.53,0,2.3,0,1.08,0,2.16.08,3.24.13l4.89.25"/><path class="cls-2" d="M226.35,187.58a0,0,0,0,0,0,0c-1.49-16.06-2.6-33.89-2.55-50"/><path class="cls-2" d="M233.13,135.66v.19c.3,16.82.54,35,.85,51.82"/><path class="cls-2" d="M229.88,138.7c-.46,15.3.38,33.55.86,48.84"/><path class="cls-2" d="M227.1,39.92c-2.74,2.88-1.14,15-1.14,22.58,0,11.77-.25,27.12,0,42.53.14,9.57.34,19.34.57,28.7,0,.15,0,.31,0,.47.63,25.13,1.48,47.1,1.92,53.32v0"/><path class="cls-2" d="M223.79,137.53a11.88,11.88,0,0,1-9.53-4.73,21.36,21.36,0,0,1-3-7.93A149,149,0,0,1,208,88.8a5.68,5.68,0,0,1,1-2.83,2.58,2.58,0,0,1,1.79-1,1.36,1.36,0,0,1,.35,0,2.63,2.63,0,0,1,2,1.72,8,8,0,0,1,.42,2.71,217.45,217.45,0,0,0,2.67,27c.65,4,1.45,8,3.58,11.43.84,1.32,2.41,2.65,3.92,2.24a5,5,0,0,1,2,2.44,3.93,3.93,0,0,1,.23,1.21v.06a4.18,4.18,0,0,1-.3,1.5A5,5,0,0,1,223.79,137.53Z"/><path class="cls-2" d="M210.72,85c1.79,0,.54,15.7,3.6,34.15a25.92,25.92,0,0,0,3,8.54c1.5,2.68,4.43,5.58,8.36,4.79"/><path class="cls-2" d="M210.72,85c-2.77.62-.26,27,2.27,38.31.68,3.08,1.53,6.24,3.57,8.64,1.86,2.18,6.15,3.42,9,3.29"/><path class="cls-2" d="M233.13,135.66a162,162,0,0,0,3.36-42.53,33.94,33.94,0,0,0-.63-5.5c-.28-1.25-.86-2.66-2.1-3a1.88,1.88,0,0,0-.46-.06A2.78,2.78,0,0,0,231,86.17h0a7.68,7.68,0,0,0-.61,3.33l-.48,15.4c-.13,3.9-.34,7.93-.68,12-.42,5.22-1.05,10.46-1.89,15.44a11.76,11.76,0,0,0-.11,1.87,8.93,8.93,0,0,0,.32,2.24,3.66,3.66,0,0,0,.44.94,2.82,2.82,0,0,0,1.91,1.34,1.84,1.84,0,0,0,.33,0,2.43,2.43,0,0,0,1.66-.66,4.46,4.46,0,0,0,1.26-2.22A.6.6,0,0,0,233.13,135.66Z"/><path class="cls-2" d="M233.3,84.63c-2.06,1.12-.18,28.56-1.66,41.61-.42,3.63-1.83,9.56-3.66,11.11"/><path class="cls-2" d="M233.3,84.63c2.49,1.3,1.64,22.79,1.22,32.3-.29,6.65-1.1,19.06-4.31,21.79"/><path class="cls-2" d="M223.65,130c-.23-26.28,0-53.27-.21-79.55a23.06,23.06,0,0,1,.45-5.87c.49-1.89,1.28-4.46,3.21-4.74h.25c6-.08,3.1,30.68,3.63,46.31a1.69,1.69,0,0,1,0,.23"/><path class="cls-2" d="M227.34,39.85h0c1.11,1.76,1.68,71.69,1.86,77a1.94,1.94,0,0,1,0,.22"/><path class="cls-1" d="M648.76,166.51A504.37,504.37,0,0,1,638.3,299c0,.2,0,.41,0,.61-.18,2.25-2.45,5.46-3.94,6.9a7.35,7.35,0,0,1-5.16,2.06v0c10-8.49,12.52-47.15,13.43-67.88C644,211,646.59,144.05,638.82,140v-.11a5.9,5.9,0,0,1,1.43.18c3.88,1,5.7,5.37,6.57,9.28A106.71,106.71,0,0,1,648.76,166.51Z"/><path class="cls-1" d="M638.82,140c7.77,4,5.14,71,3.83,100.63-.91,20.73-3.44,59.39-13.43,67.88v0a7.28,7.28,0,0,1-1-.08,8.92,8.92,0,0,1-6-4.18l.06,0c5.69-4.84,10.09-23.32,11.38-34.61C638.28,229,632.42,143.51,638.82,140Z"/><path class="cls-1" d="M641,461.06v.05c-3.37-.17-6.74-.32-10.09-.41v0c-1.51-47.64-4.14-104.51-2.69-152.16a7.38,7.38,0,0,0,6.2-2c1.49-1.44,3.76-4.65,3.94-6.9C639.25,352,640,408.68,641,461.06Z"/><path class="cls-1" d="M631.62,144.8c1.4-2.71,4.25-4.88,7.2-4.88V140c-6.4,3.48-.54,89-5.17,129.65-1.29,11.29-5.69,29.77-11.38,34.61l-.06,0a12.31,12.31,0,0,1-1.36-2.92,27.26,27.26,0,0,1-1-7,32.26,32.26,0,0,1,.34-5.82c2.62-15.54,4.56-31.84,5.9-48.12,1-12.58,1.71-25.14,2.1-37.31q.75-24,1.51-47.95c.1-3.55.25-7.24,1.88-10.38C631.6,144.82,631.62,144.82,631.62,144.8Z"/><path class="cls-1" d="M631.62,144.8s0,0,0,0c-1.63,3.14-1.78,6.83-1.88,10.38q-.76,24-1.51,47.95c-.39,12.17-1.07,24.73-2.1,37.31-.57-16.58-2.36-234.45-5.82-240C639,.28,630,96.11,631.62,144.8Z"/><path class="cls-1" d="M630.87,460.66v0q-3.6-.1-7.18-.11c-1.37-19.38-4-87.83-6-166.13l2.15,0a27.26,27.26,0,0,0,1,7,12.31,12.31,0,0,0,1.36,2.92,8.92,8.92,0,0,0,6,4.18C626.73,356.15,629.36,413,630.87,460.66Z"/><path class="cls-1" d="M626.11,240.47c-1.34,16.28-3.28,32.58-5.9,48.12a32.26,32.26,0,0,0-.34,5.82l-2.15,0c0-.48,0-1,0-1.46-.72-29.15-1.35-59.61-1.79-89.41-.71-48,.11-95.86.08-132.51,0-23.59-5-61.41,3.56-70.38l0-.12.08,0a4.12,4.12,0,0,1,.7-.05C623.75,6,625.54,223.89,626.11,240.47Z"/><path class="cls-1" d="M617.72,294.46c2,78.3,4.6,146.75,6,166.13-2.18,0-4.35,0-6.53.12-4.65-50-8.1-105.6-8-155.87a15.47,15.47,0,0,0,5.62-7.1,12.88,12.88,0,0,0,.93-4.68l1.94-.06C617.71,293.48,617.72,294,617.72,294.46Z"/><path class="cls-1" d="M619.51.58l0,.12C611,9.67,616,47.49,616,71.08c0,36.65-.79,84.48-.08,132.51.44,29.8,1.07,60.26,1.79,89.41l-1.94.06v-.16a12,12,0,0,0-.72-3.78,15.56,15.56,0,0,0-6.26-7.61c-.69-81.88,0-166-.65-247.88-.06-6.12-.1-12.33,1.41-18.26S613.5,1.45,619.51.58Z"/><path class="cls-1" d="M615.74,292.9v.16a12.88,12.88,0,0,1-.93,4.68l-.06,0c-8.9.4-22.29-3.45-28.07-10.26-6.35-7.47-9-17.33-11.14-26.9-7.86-35.32-15.68-117.46-7-119.38,5.56,0,1.67,48.93,11.2,106.39a81.5,81.5,0,0,0,9.24,26.64c4.68,8.33,13.8,17.38,26.07,14.92h0A12,12,0,0,1,615.74,292.9Z"/><path class="cls-1" d="M615,289.12h0c-12.27,2.46-21.39-6.59-26.07-14.92a81.5,81.5,0,0,1-9.24-26.64c-9.53-57.46-5.64-106.39-11.2-106.39v-.07a5.57,5.57,0,0,1,1.08,0c2.85.34,5.13,2.71,6.2,5.37a25,25,0,0,1,1.29,8.45,675.28,675.28,0,0,0,8.34,84c2,12.36,4.51,25,11.15,35.62,2.6,4.12,7.51,8.27,12.2,7A15.56,15.56,0,0,1,615,289.12Z"/><path class="cls-1" d="M614.75,297.71l.06,0a15.47,15.47,0,0,1-5.62,7.1c-11.38,0-23.07-5.46-29.68-14.73-5.13-7.23-7.4-16.07-9.3-24.72A464.94,464.94,0,0,1,559.87,153a17.94,17.94,0,0,1,3-8.81,8.11,8.11,0,0,1,5.59-3.09v.07c-8.64,1.92-.82,84.06,7,119.38,2.13,9.57,4.79,19.43,11.14,26.9C592.46,294.26,605.85,298.11,614.75,297.71Z"/><path class="cls-2" d="M603.08,461.88a135.66,135.66,0,0,1,14.08-1.17c2.18-.08,4.35-.12,6.53-.12q3.59,0,7.18.11c3.35.09,6.72.24,10.09.41,5.08.24,10.17.54,15.23.77"/><path class="cls-2" d="M617.17,460.79a.25.25,0,0,0,0-.08c-4.65-50-8.1-105.6-8-155.87"/><path class="cls-2" d="M638.3,299c0,.2,0,.41,0,.61C639.25,352,640,408.68,641,461.06"/><path class="cls-2" d="M628.18,308.5c-1.45,47.65,1.18,104.52,2.69,152.16"/><path class="cls-2" d="M619.53.7C611,9.67,616,47.49,616,71.08c0,36.65-.79,84.48-.08,132.51.44,29.8,1.07,60.26,1.79,89.41,0,.48,0,1,0,1.46,2,78.3,4.6,146.75,6,166.13v.07"/><path class="cls-2" d="M609.19,304.84c-11.38,0-23.07-5.46-29.68-14.73-5.13-7.23-7.4-16.07-9.3-24.72A464.94,464.94,0,0,1,559.87,153a17.94,17.94,0,0,1,3-8.81,8.11,8.11,0,0,1,5.59-3.09,5.57,5.57,0,0,1,1.08,0c2.85.34,5.13,2.71,6.2,5.37a25,25,0,0,1,1.29,8.45,675.28,675.28,0,0,0,8.34,84c2,12.36,4.51,25,11.15,35.62,2.6,4.12,7.51,8.27,12.2,7a15.56,15.56,0,0,1,6.26,7.61,12,12,0,0,1,.72,3.78v.16a12.88,12.88,0,0,1-.93,4.68A15.47,15.47,0,0,1,609.19,304.84Z"/><path class="cls-2" d="M568.5,141.17c5.56,0,1.67,48.93,11.2,106.39a81.5,81.5,0,0,0,9.24,26.64c4.68,8.33,13.8,17.38,26.07,14.92"/><path class="cls-2" d="M568.5,141.17c-8.64,1.92-.82,84.06,7,119.38,2.13,9.57,4.79,19.43,11.14,26.9,5.78,6.81,19.17,10.66,28.07,10.26"/><path class="cls-2" d="M638.3,299a504.37,504.37,0,0,0,10.46-132.5,106.71,106.71,0,0,0-1.94-17.13c-.87-3.91-2.69-8.29-6.57-9.28a5.9,5.9,0,0,0-1.43-.18c-3,0-5.8,2.17-7.2,4.88,0,0,0,0,0,0-1.63,3.14-1.78,6.83-1.88,10.38q-.76,24-1.51,47.95c-.39,12.17-1.07,24.73-2.1,37.31-1.34,16.28-3.28,32.58-5.9,48.12a32.26,32.26,0,0,0-.34,5.82,27.26,27.26,0,0,0,1,7,12.31,12.31,0,0,0,1.36,2.92,8.92,8.92,0,0,0,6,4.18,7.38,7.38,0,0,0,6.2-2c1.49-1.44,3.76-4.65,3.94-6.9A3,3,0,0,0,638.3,299Z"/><path class="cls-2" d="M638.82,140c-6.4,3.48-.54,89-5.17,129.65-1.29,11.29-5.69,29.77-11.38,34.61"/><path class="cls-2" d="M638.82,140c7.77,4,5.14,71,3.83,100.63-.91,20.73-3.44,59.39-13.43,67.88"/><path class="cls-2" d="M608.76,281.51c-.69-81.88,0-166-.65-247.88-.06-6.12-.1-12.33,1.41-18.26s4-13.92,10-14.79l.08,0a4.12,4.12,0,0,1,.7-.05C639,.28,630,96.11,631.62,144.8c0,.24,0,.5,0,.74"/><path class="cls-2" d="M620.28.5a0,0,0,0,0,0,0c3.46,5.51,5.25,223.38,5.82,240,0,.3,0,.54,0,.7"/></g></g></svg>