<svg xmlns="http://www.w3.org/2000/svg" viewBox="0 0 259.22 102.95"><defs><style>.cls-1{fill:#fff;}</style></defs><title>Asset 4</title><g id="Layer_2" data-name="Layer 2"><g id="Layer_3" data-name="Layer 3"><path class="cls-1" d="M13.13,95.28a1.08,1.08,0,0,1,.58.32.88.88,0,0,1,0,.79.91.91,0,0,1-.52.62,1.07,1.07,0,0,1-.66-.1L2.66,93.55,1.54,96.83a1,1,0,0,1-.33.56.76.76,0,0,1-.67,0A.75.75,0,0,1,0,97a1.09,1.09,0,0,1,.08-.65l2.78-8.21a1.13,1.13,0,0,1,.34-.55.75.75,0,0,1,.67,0A.71.71,0,0,1,4.4,88a1.08,1.08,0,0,1-.07.65L3.21,91.91Z"/><path class="cls-1" d="M19.82,79.4a1.15,1.15,0,0,1,.55.38,1.08,1.08,0,0,1-.63,1.35A1.1,1.1,0,0,1,19.1,81l-4.81-2.22-2.95,6.38,4.81,2.22a1.07,1.07,0,0,1,.55.39.89.89,0,0,1,0,.79.91.91,0,0,1-.59.56,1.1,1.1,0,0,1-.64-.17L5.27,84.22a1.06,1.06,0,0,1-.55-.38.89.89,0,0,1,0-.79.87.87,0,0,1,.58-.56,1.1,1.1,0,0,1,.65.16l4,1.83,3-6.38-4-1.83a1,1,0,0,1-.54-.38.86.86,0,0,1,0-.79A.9.9,0,0,1,9,74.54a1.15,1.15,0,0,1,.65.17Z"/><path class="cls-1" d="M16.76,70.92l1.58-2.69a1.15,1.15,0,0,1,.44-.48.74.74,0,0,1,.66.09.72.72,0,0,1,.42.55,1.13,1.13,0,0,1-.2.62l-1.58,2.68,4,2.35,2.24-3.8a1.15,1.15,0,0,1,.44-.48.74.74,0,0,1,.66.09.77.77,0,0,1,.42.55,1.07,1.07,0,0,1-.21.62l-2.67,4.55a.71.71,0,0,1-1.15.29l-9.63-5.67a.71.71,0,0,1-.29-1.14l2.39-4a1,1,0,0,1,.44-.48.71.71,0,0,1,.66.09.73.73,0,0,1,.41.54,1,1,0,0,1-.2.62l-1.94,3.3Z"/><path class="cls-1" d="M31.31,61.33a1.11,1.11,0,0,1,.46.49.88.88,0,0,1-.2.76.91.91,0,0,1-.69.43,1.07,1.07,0,0,1-.6-.3l-9-6.69a1.14,1.14,0,0,1-.45-.49.9.9,0,0,1,.2-.77.92.92,0,0,1,.69-.42,1.15,1.15,0,0,1,.6.29Z"/><path class="cls-1" d="M34.83,56.81a1.08,1.08,0,0,1,.41.52.81.81,0,0,1-.23.72.85.85,0,0,1-.7.34,1.11,1.11,0,0,1-.57-.35l-8.55-7.57a.68.68,0,0,1,0-1.08C25.55,49,26,49,26.66,49l11.63.66-6.77-6a1.23,1.23,0,0,1-.41-.53.82.82,0,0,1,.24-.72.81.81,0,0,1,.7-.33,1.16,1.16,0,0,1,.57.34L41.18,50a.67.67,0,0,1,0,1c-.35.39-.72.39-1.46.35L28,50.76Z"/><path class="cls-1" d="M47.7,43a5.09,5.09,0,0,0,1.24-1.65c.38-.79.37-1.27.65-1.52a.8.8,0,0,1,1,.15c.24.27.21.64.07,1.14a6.83,6.83,0,0,1-2,3c-2.49,2.25-6.29,2.74-9.36-.66s-2.12-7,.39-9.25a6.82,6.82,0,0,1,3.19-1.67c.56-.11.95-.09,1.18.16a.86.86,0,0,1,.06,1.12c-.24.21-.65.18-1.59.5a5.15,5.15,0,0,0-1.88,1.08c-1.71,1.54-2.5,4.13-.07,6.82S46,44.55,47.7,43Z"/><path class="cls-1" d="M54.92,37.6a1.07,1.07,0,0,1,.3.6,1.07,1.07,0,0,1-1.18.87c-.21-.07-.32-.23-.49-.46l-6.44-8.73c-.32-.43-.54-.73,0-1.4a9.48,9.48,0,0,1,1.43-1.27,6.84,6.84,0,0,1,2.81-1.34,3.24,3.24,0,0,1,3.25,1.4,3.61,3.61,0,0,1,.07,4.34l5.81,1.85c.51.16.77.64,0,1.18a1.3,1.3,0,0,1-1.46.12l-3.85-1.3c-1-.34-1.61-.61-1.61-.61a7.86,7.86,0,0,1-.79.66,4,4,0,0,1-.62.4Zm-3.55-4.82a5.21,5.21,0,0,0,.63-.42c1.7-1.26,2.25-2.59,1.25-3.95s-2.49-1-3.74-.08a8.91,8.91,0,0,0-.88.75Z"/><path class="cls-1" d="M60.87,25.18l2.66-1.63a1.09,1.09,0,0,1,.61-.21.72.72,0,0,1,.54.39.75.75,0,0,1,.12.68,1.14,1.14,0,0,1-.47.45l-2.66,1.62,2.41,3.95,3.76-2.3a1.09,1.09,0,0,1,.61-.21.7.7,0,0,1,.54.39.71.71,0,0,1,.11.68,1.06,1.06,0,0,1-.47.44l-4.5,2.76A.71.71,0,0,1,63,31.91l-5.82-9.54a.7.7,0,0,1,.28-1.14l4-2.45a1.11,1.11,0,0,1,.61-.22.72.72,0,0,1,.54.39.75.75,0,0,1,.12.68,1,1,0,0,1-.47.45l-3.27,2Z"/><path class="cls-1" d="M79.32,22.68A9.83,9.83,0,0,1,75,26.16a10.45,10.45,0,0,1-2.51.93c-.51.07-.7-.15-.94-.65L67,16.92c-.28-.57-.25-.89.37-1.37a14.48,14.48,0,0,1,2.31-1.33,8.9,8.9,0,0,1,5.26-1.15,6,6,0,0,1,4.44,3.65A6,6,0,0,1,79.32,22.68ZM73,25.41a14.14,14.14,0,0,0,1.65-.69c1.59-.76,5.26-2.79,3.18-7.12a4.8,4.8,0,0,0-3.34-2.9,6.38,6.38,0,0,0-4.1.8,11.68,11.68,0,0,0-1.69,1Z"/><path class="cls-1" d="M86.4,20.16a1.1,1.1,0,0,1,.12.66.87.87,0,0,1-.58.54.93.93,0,0,1-.81,0,1.11,1.11,0,0,1-.35-.57l-4-10.45a1.07,1.07,0,0,1-.12-.65A1.08,1.08,0,0,1,82,9.15a1.1,1.1,0,0,1,.35.56Z"/><path class="cls-1" d="M96.08,17.36a7.79,7.79,0,0,1-3,1.51,7.9,7.9,0,0,1-1.79.38c-.8,0-1-.35-1.12-.86L87.06,8.3c-.19-.61-.1-1,.62-1.35a12.77,12.77,0,0,1,1.73-.66c2.07-.63,4.36-.65,5.06,1.61a3,3,0,0,1-1.2,3.39,3.47,3.47,0,0,1,3.83,2.42A3.35,3.35,0,0,1,96.08,17.36Zm-6.21-5.63.63-.19a3.69,3.69,0,0,0,2.07-1.24,1.83,1.83,0,0,0,.26-1.63c-.4-1.33-1.79-1.4-3-1a10.16,10.16,0,0,0-1,.41Zm1.85,6a5.19,5.19,0,0,0,1-.23c2.22-.68,3.08-1.8,2.62-3.32a2.2,2.2,0,0,0-1.79-1.63,5.63,5.63,0,0,0-2.77.31l-.55.17Z"/><path class="cls-1" d="M106.83,13.69a1,1,0,0,1,.65,0,.89.89,0,0,1,.26,1.22,1,1,0,0,1-.59.27L102,16.29c-.62.14-.87-.09-1-.63L98.64,4.72a1.11,1.11,0,0,1,0-.67,1.1,1.1,0,0,1,1.46-.31,1.14,1.14,0,0,1,.25.61l2.21,10.26Z"/><path class="cls-1" d="M111.26,6.76l3.09-.41a1,1,0,0,1,.64.06.69.69,0,0,1,.34.57.76.76,0,0,1-.17.67,1.14,1.14,0,0,1-.61.22l-3.09.41.61,4.58,4.36-.58a1.15,1.15,0,0,1,.65.05.75.75,0,0,1,.34.58.73.73,0,0,1-.17.66,1.11,1.11,0,0,1-.62.23l-5.23.69c-.63.08-.86-.15-.93-.72L109,2.7c-.08-.59.12-.86.71-.94l4.66-.61a1,1,0,0,1,.65.05.71.71,0,0,1,.34.58.74.74,0,0,1-.17.66,1.07,1.07,0,0,1-.61.22l-3.8.5Z"/><path class="cls-1" d="M130,12.19c-.23.65-.46,1-1.09,1s-.89-.44-1.07-1.16l-2.65-11a1.78,1.78,0,0,1-.09-.52c0-.35.25-.56.87-.55s.8.28.93.84l2.22,9.62,3.25-8.75c.26-.69.43-1,1.06-1s.79.33,1,1l2.75,8.93L140,1.17c.15-.55.3-.81.95-.79s.83.24.82.6a1.93,1.93,0,0,1-.11.53l-3.35,10.83c-.22.69-.47,1.1-1.1,1.09s-.86-.46-1.07-1.08L133.31,3.4Z"/><path class="cls-1" d="M151.55,1.67c4,.64,6.07,3.81,5.45,7.67s-3.64,6.25-7.64,5.61-6.06-3.81-5.44-7.67S147.56,1,151.55,1.67Zm-1.89,11.84c2.89.46,5-1.14,5.57-4.42s-1-5.51-4-6-5,1.14-5.57,4.41S146.74,13,149.66,13.51Z"/><path class="cls-1" d="M160.69,16.14a1,1,0,0,1-.29.6.83.83,0,0,1-.78.1.85.85,0,0,1-.63-.48,1.07,1.07,0,0,1,.06-.67l2.87-10.46c.14-.52.24-.88,1.11-.85a9.6,9.6,0,0,1,1.89.33,6.73,6.73,0,0,1,2.79,1.39,3.23,3.23,0,0,1,.91,3.41,3.6,3.6,0,0,1-3.36,2.74L167.39,18c.19.51,0,1-.9.76-.69-.19-.82-.55-1-1.08l-1.36-3.82c-.36-1-.52-1.65-.52-1.65a8.64,8.64,0,0,1-1-.21,4.45,4.45,0,0,1-.7-.24Zm1.59-5.77a5.76,5.76,0,0,0,.71.23c2,.57,3.44.16,3.88-1.46s-.75-2.58-2.25-3a9.09,9.09,0,0,0-1.13-.22Z"/><path class="cls-1" d="M176.15,20.44a1.06,1.06,0,0,1,.54.35.73.73,0,0,1,0,.67.71.71,0,0,1-.46.5,1.06,1.06,0,0,1-.64-.09l-5-1.83a.71.71,0,0,1-.49-1.07l3.88-10.5a1.17,1.17,0,0,1,.34-.57.86.86,0,0,1,.79,0,.88.88,0,0,1,.61.54,1.07,1.07,0,0,1-.12.65L172,18.92Z"/><path class="cls-1" d="M187.06,25.87a9.81,9.81,0,0,1-5.41-1.21,10.29,10.29,0,0,1-2.28-1.4c-.38-.36-.33-.64-.08-1.14l4.62-9.52c.27-.57.54-.75,1.3-.55a13.87,13.87,0,0,1,2.48,1,8.92,8.92,0,0,1,4.17,3.41,6,6,0,0,1-.1,5.76A6,6,0,0,1,187.06,25.87ZM181,22.59a13.69,13.69,0,0,0,1.56.87c1.59.77,5.46,2.38,7.56-1.94a4.8,4.8,0,0,0,.2-4.42,6.33,6.33,0,0,0-3.18-2.71,11.53,11.53,0,0,0-1.81-.73Z"/><path class="cls-1" d="M208.33,24.85c3.31,2.34,3.76,6.09,1.51,9.29a6.35,6.35,0,0,1-9.33,1.67c-3.3-2.34-3.76-6.09-1.5-9.29A6.34,6.34,0,0,1,208.33,24.85Zm-6.92,9.79c2.4,1.7,5,1.2,7-1.5s1.49-5.41-.93-7.12-5-1.2-6.94,1.5S199,32.93,201.41,34.64Z"/><path class="cls-1" d="M210.18,41.92a1.12,1.12,0,0,1-.52.42.9.9,0,0,1-.75-.26.88.88,0,0,1-.37-.72,1,1,0,0,1,.34-.57l7.37-8.47c.35-.41.69-.43,1.14,0l3.82,3.32a1.08,1.08,0,0,1,.38.52.7.7,0,0,1-.21.64.73.73,0,0,1-.61.31,1.14,1.14,0,0,1-.57-.32L217.06,34l-2.58,3,2.68,2.33a1.15,1.15,0,0,1,.39.53.74.74,0,0,1-.21.63.76.76,0,0,1-.61.31,1,1,0,0,1-.57-.31l-2.68-2.34Z"/><path class="cls-1" d="M227.33,58.3c-.47.41-.8.49-1.75,0a9,9,0,0,1-2.55-2c-2.49-2.86-2.8-6.63.55-9.55,3.6-3.14,7.33-1.71,9.5.79a7.4,7.4,0,0,1,1.68,3.17c.14.64.12,1-.14,1.2a.85.85,0,0,1-1.11,0c-.22-.26-.19-.7-.46-1.47a6.51,6.51,0,0,0-1.21-2.05,4.64,4.64,0,0,0-7-.4c-2.65,2.31-2.44,5.18-.62,7.25a6.17,6.17,0,0,0,2.16,1.64l1.7-1.48a1.14,1.14,0,0,1,.58-.34.85.85,0,0,1,.7.36.86.86,0,0,1,.27.76,1,1,0,0,1-.41.52Z"/><path class="cls-1" d="M242.11,59.17c2.29,3.34,1.42,7-1.81,9.23A6.34,6.34,0,0,1,231,66.72c-2.29-3.34-1.42-7,1.81-9.22A6.33,6.33,0,0,1,242.11,59.17Zm-9.89,6.77c1.66,2.43,4.3,2.88,7,1s3.28-4.55,1.61-7-4.31-2.87-7-1S230.55,63.5,232.22,65.94Z"/><path class="cls-1" d="M237.93,75.8a1.13,1.13,0,0,1-.64.2.85.85,0,0,1-.6-.51.89.89,0,0,1-.1-.8,1.12,1.12,0,0,1,.52-.42L247,69a1.12,1.12,0,0,1,.63-.21.89.89,0,0,1,.61.51.9.9,0,0,1,.09.81,1.11,1.11,0,0,1-.52.41Zm3.66,6.7a.86.86,0,0,1-.33.47c-.25.13-.59,0-.88-.55s-.2-.92.07-1.61L243,74.38a1.41,1.41,0,0,1,.6-.82,1.31,1.31,0,0,1,.94,0l5.71,1.29a1.74,1.74,0,0,1,1.41.92c.27.5.2.81,0,.94a1,1,0,0,1-.63,0l-6.51-1.59Z"/><path class="cls-1" d="M249.54,83.9l1.22,2.87a1.09,1.09,0,0,1,.12.64.9.9,0,0,1-1.16.48,1,1,0,0,1-.37-.53l-1.21-2.87-4.26,1.8,1.71,4.06a1.09,1.09,0,0,1,.12.64.74.74,0,0,1-.46.48.76.76,0,0,1-.69,0,1.17,1.17,0,0,1-.38-.54l-2.05-4.86c-.25-.58-.09-.87.44-1.09l10.3-4.35a.71.71,0,0,1,1.09.45l1.83,4.33a1.09,1.09,0,0,1,.12.64.9.9,0,0,1-1.16.48,1.08,1.08,0,0,1-.37-.53l-1.49-3.52Z"/><path class="cls-1" d="M246.91,96a1.23,1.23,0,0,1-.66.09,1.05,1.05,0,0,1-.45-1.4,1.15,1.15,0,0,1,.59-.32l10.33-3.32c.51-.16.87-.28,1.32.47a9.26,9.26,0,0,1,.75,1.76,6.63,6.63,0,0,1,.37,3.09A3.23,3.23,0,0,1,256.8,99a3.6,3.6,0,0,1-4.13-1.32l-3.61,4.91c-.32.44-.86.53-1.14-.34a1.32,1.32,0,0,1,.36-1.43l2.46-3.23c.64-.85,1.09-1.33,1.09-1.33a9.54,9.54,0,0,1-.37-1,4.68,4.68,0,0,1-.19-.71Zm5.71-1.84a5.39,5.39,0,0,0,.19.73c.65,2,1.74,3,3.35,2.45s1.74-2,1.27-3.51a8.76,8.76,0,0,0-.43-1.07Z"/></g></g></svg>