<svg xmlns="http://www.w3.org/2000/svg" viewBox="0 0 349.6 328.59"><defs><style>.cls-1,.cls-2,.cls-3{font-size:25.51px;font-family:DomusTitling, Domus Titling;}.cls-1{fill:#231f20;}.cls-2{fill:#00aeef;}.cls-3{fill:#da1c5c;}</style></defs><title>elAsset 1</title><g id="Layer_2" data-name="Layer 2"><g id="Layer_1-2" data-name="Layer 1"><text class="cls-1" transform="translate(33.34 235.37) rotate(-111.76)">I</text><text class="cls-1" transform="translate(30.45 228.51) rotate(-107.65)">T</text><text class="cls-1" transform="translate(26.14 214.46) rotate(-103.79)">&apos;</text><text class="cls-1" transform="translate(24.72 209.13) rotate(-100.48)">S</text><text class="cls-1" transform="translate(22.55 197) rotate(-96.9)"> </text><text class="cls-1" transform="translate(21.63 190.17) rotate(-93.32)">L</text><text class="cls-1" transform="translate(20.94 177.82) rotate(-89.07)">I</text><text class="cls-1" transform="translate(20.87 170.38) rotate(-85.49)">K</text><text class="cls-1" transform="translate(22.11 155.05) rotate(-80.22)">E</text><text class="cls-1" transform="translate(24.41 142.23) rotate(-76.5)"> </text><text class="cls-1" transform="translate(25.84 135.51) rotate(-72.23)">A</text><text class="cls-1" transform="translate(30.82 120.48) rotate(-67.98)"> </text><text class="cls-1" transform="translate(33.14 114.07) rotate(-63.27)">D</text><text class="cls-1" transform="translate(41.43 97.77) rotate(-57.12)">R</text><text class="cls-1" transform="translate(49.47 85.38) rotate(-51.98)">E</text><text class="cls-1" transform="matrix(0.69, -0.73, 0.73, 0.69, 57.39, 75.12)">A</text><text class="cls-1" transform="matrix(0.77, -0.64, 0.64, 0.77, 67.96, 63.56)">M</text><text class="cls-1" transform="matrix(0.83, -0.56, 0.56, 0.83, 85.66, 49.39)"> </text><text class="cls-1" transform="translate(91.21 45.4) rotate(-29.79)">C</text><text class="cls-1" transform="translate(105.16 37.26) rotate(-23.16)">O</text><text class="cls-1" transform="translate(123.02 29.47) rotate(-15.29)">M</text><text class="cls-1" transform="translate(144.88 23.75) rotate(-8.65)">E</text><text class="cls-1" transform="translate(157.79 21.88) rotate(-4.95)"> </text><text class="cls-2" transform="matrix(1, -0.02, 0.02, 1, 164.65, 21.15)">T</text><text class="cls-2" transform="translate(179.02 20.87) rotate(4.33)">R</text><text class="cls-2" transform="translate(193.55 21.81) rotate(10.54)">U</text><text class="cls-2" transform="translate(212.26 25.44) rotate(16.53)">E</text><text class="cls-1" transform="matrix(0.94, 0.34, -0.34, 0.94, 224.75, 29.26)">,</text><text class="cls-1" transform="translate(229.85 31.09) rotate(22.31)"> </text><text class="cls-1" transform="matrix(0.91, 0.42, -0.42, 0.91, 236.26, 33.71)">I</text><text class="cls-1" transform="translate(243.11 36.93) rotate(27.51)">&apos;</text><text class="cls-1" transform="matrix(0.84, 0.54, -0.54, 0.84, 247.93, 38.97)">M</text><text class="cls-1" transform="translate(266.83 51.5) rotate(38.11)"> </text><text class="cls-1" transform="matrix(0.75, 0.66, -0.66, 0.75, 272.31, 55.68)">L</text><text class="cls-1" transform="translate(281.51 63.97) rotate(45.35)">I</text><text class="cls-1" transform="matrix(0.65, 0.76, -0.76, 0.65, 286.85, 69.12)">V</text><text class="cls-1" transform="translate(297.11 81.46) rotate(54.05)">I</text><text class="cls-1" transform="translate(301.67 87.28) rotate(58.99)">N</text><text class="cls-1" transform="matrix(0.41, 0.91, -0.91, 0.41, 311.49, 103.67)">G</text><text class="cls-1" transform="translate(318.45 119.63) rotate(70.32)"> </text><text class="cls-1" transform="translate(320.9 126.03) rotate(74.32)">T</text><text class="cls-1" transform="matrix(0.17, 0.99, -0.99, 0.17, 324.9, 139.81)">H</text><text class="cls-1" transform="translate(327.85 158.15) rotate(86.33)">E</text><text class="cls-1" transform="translate(328.54 171.16) rotate(89.07)"> </text><text class="cls-3" transform="matrix(-0.08, 1, -1, -0.08, 328.85, 177.99)">D</text><text class="cls-3" transform="translate(327.3 196.23) rotate(100.76)">R</text><text class="cls-3" transform="translate(324.53 210.72) rotate(105.94)">E</text><text class="cls-3" transform="matrix(-0.36, 0.93, -0.93, -0.36, 321.05, 223.2)">A</text><text class="cls-3" transform="matrix(-0.48, 0.88, -0.88, -0.48, 315.58, 237.88)">M</text><text class="cls-3" transform="matrix(-0.56, 0.83, -0.83, -0.56, 304.46, 257.63)"> </text><text class="cls-1" transform="matrix(-0.61, 0.79, -0.79, -0.61, 300.73, 263.41)">B</text><text class="cls-1" transform="translate(292.02 274.65) rotate(133.26)">R</text><text class="cls-1" transform="matrix(-0.76, 0.65, -0.65, -0.76, 282.12, 285.38)">U</text></g></g></svg>