<svg xmlns="http://www.w3.org/2000/svg" viewBox="0 0 192.03 119.65"><defs><style>.cls-1{fill:#faaf40;}.cls-2{fill:#d91c5c;}.cls-3{fill:#fff;}.cls-4{fill:#231f20;}.cls-5,.cls-6,.cls-7{fill:none;stroke:#231f20;stroke-linecap:round;stroke-linejoin:round;}.cls-5{stroke-width:0.99px;}.cls-6{stroke-width:0.75px;}</style></defs><title>Asset 2</title><g id="Layer_2" data-name="Layer 2"><g id="Layer_1-2" data-name="Layer 1"><path class="cls-1" d="M138.87,95a51.81,51.81,0,0,1-6.52,2.45c-9.13,2.94-18.29,5.09-27.79,8.51-.9.33-2.38,0-2.69-.87a2.32,2.32,0,0,1,1-2.48,5.29,5.29,0,0,1,1.85-.76,82.52,82.52,0,0,0,12.33-10.93,2.47,2.47,0,0,0,.85-2.06c-.28-1.14-1.81-1.29-3-1.21A86.37,86.37,0,0,1,78.53,82.2c-3.88,1.94-7.43,5.47-11.1,7.79A21.65,21.65,0,0,1,50,92.45c-1-.29-2.19-.9-2.2-2,0-.79.66-1.41,1.25-1.94a22.54,22.54,0,0,0,7.31-15.08l-.1-.55a17.73,17.73,0,0,0-2.29.54c-2.78.87-6.5,1.84-9.16,2.91a57.16,57.16,0,0,1-21.16,4.26C16.91,80.66,10.45,80,5,76.8a.71.71,0,0,1,.3-1.32c5.18-.75,11.59-4.78,16.45-6.1,3.33-.91,6.83-2.18,8.86-5a2.57,2.57,0,0,0,.6-2.21,2.7,2.7,0,0,0-.73-1c-7.37-7.6-20.85-11-29.4-14.59a1,1,0,0,1,.33-1.9c4.47-.32,8.94-1.2,13.41-.88,5.83.42,11.84,1.48,17.67,1.9,11.13.8,23.19,3,34.27,4.45-2-2.58-1.67-5.68-4.52-8.22-.52-.47-.13-1.39.52-1.65,3.32-1.28,6.72-1,10.42-.54,3.35.4,6.57,1.62,9.92,2.06a31,31,0,0,0,11-.78l0-.14c-2.16-1.74-3.74-6.41-3.22-9.14a16.7,16.7,0,0,1,3.87-7.29c1.78-2.14,3.79-4.09,5.42-6.34,3.58-5,5.24-11.45,5.61-17.58,10.8,5.83,15.35,18.84,24.48,27C138.58,35,148.61,35,157.92,41.2c10.63,7,21,16.83,26,27.75a1.8,1.8,0,0,1,3.06-.58,2,2,0,0,1-1.2,3.07c4.13,7.43,5.59,16.43,5.26,24.93-.49-.09-1.56.74-1.71,1.22a3,3,0,0,0,0,1.49,27.3,27.3,0,0,0,2.17,6.34,12.48,12.48,0,0,1-4.22-5.31,12.76,12.76,0,0,0-2.7,6.73,22.4,22.4,0,0,0,.55,7.29,22.88,22.88,0,0,1-3-7.94,35.7,35.7,0,0,0-1.94,13,36.5,36.5,0,0,1,3.11-23.3l0,0c-3-1.53-7.51-1.41-10.8-.92A131.89,131.89,0,0,1,138.87,95ZM169,70.44a4.67,4.67,0,0,0,.12-5.29,4.54,4.54,0,0,0-8.28,2.58A4.54,4.54,0,0,0,169,70.44Z"/><path class="cls-2" d="M169.14,65.15a4.54,4.54,0,1,1-8.28,2.58,4.54,4.54,0,0,1,8.28-2.58Zm-1,2.47a3.05,3.05,0,0,0-2.05-2.93,2.93,2.93,0,0,0-3.32,1.25,3,3,0,0,0-.06,2.9,3.14,3.14,0,0,0,3.46,1.52A2.87,2.87,0,0,0,168.12,67.62Z"/><path class="cls-3" d="M166.07,64.69a3.05,3.05,0,0,1,2.05,2.93,2.87,2.87,0,0,1-2,2.74,3.14,3.14,0,0,1-3.46-1.52,3,3,0,0,1,.06-2.9A2.93,2.93,0,0,1,166.07,64.69Zm.67,2.72a1.76,1.76,0,0,0-1.21-2,1.59,1.59,0,0,0-1.52.55,1.56,1.56,0,0,0-.14,1.56,1.92,1.92,0,0,0,1.24.89C165.49,68.51,166.65,68.28,166.74,67.41Z"/><path class="cls-4" d="M165.53,65.39a1.76,1.76,0,0,1,1.21,2c-.09.87-1.25,1.1-1.63,1a1.92,1.92,0,0,1-1.24-.89,1.56,1.56,0,0,1,.14-1.56A1.59,1.59,0,0,1,165.53,65.39Z"/><path class="cls-5" d="M180,69.44a1.69,1.69,0,0,0-2.11.31,1.59,1.59,0,0,0,.11,2.11,1.49,1.49,0,0,0,2.07-.11"/><path class="cls-5" d="M164.05,63.38a4.81,4.81,0,0,1,5.09,1.77,4.54,4.54,0,1,1-8.28,2.58A4.81,4.81,0,0,1,164.05,63.38Z"/><path class="cls-6" d="M165.53,65.39a1.59,1.59,0,0,0-1.52.55,1.56,1.56,0,0,0-.14,1.56,1.92,1.92,0,0,0,1.24.89c.38.12,1.54-.11,1.63-1A1.76,1.76,0,0,0,165.53,65.39Z"/><path class="cls-5" d="M138.85,95h0a131.89,131.89,0,0,0,33.63-.09c3.29-.49,7.84-.61,10.8.92"/><path class="cls-5" d="M139.3,87.37a96.46,96.46,0,0,1-33.72,14.3l-.84.19a5.29,5.29,0,0,0-1.85.76,2.32,2.32,0,0,0-1,2.48c.31.91,1.79,1.2,2.69.87,9.5-3.42,18.66-5.57,27.79-8.51A51.81,51.81,0,0,0,138.87,95a16.14,16.14,0,0,0,6.44-5"/><path class="cls-5" d="M56.39,73.47a22.54,22.54,0,0,1-7.31,15.08c-.59.53-1.26,1.15-1.25,1.94,0,1.06,1.18,1.67,2.2,2A21.65,21.65,0,0,0,67.43,90c3.67-2.32,7.22-5.85,11.1-7.79a86.37,86.37,0,0,0,36.41,5.46c1.17-.08,2.7.07,3,1.21a2.47,2.47,0,0,1-.85,2.06,82.52,82.52,0,0,1-12.33,10.93l-.23.17"/><path class="cls-5" d="M101.81,38.84c-2.53.78-5.09,1.57-7.68,2.15a31,31,0,0,1-11,.78c-3.35-.44-6.57-1.66-9.92-2.06-3.7-.45-7.1-.74-10.42.54-.65.26-1,1.18-.52,1.65,2.85,2.54,2.49,5.64,4.52,8.22-11.08-1.4-23.14-3.65-34.27-4.45-5.83-.42-11.84-1.48-17.67-1.9-4.47-.32-8.94.56-13.41.88a1,1,0,0,0-.33,1.9c8.55,3.56,22,7,29.4,14.59a2.7,2.7,0,0,1,.73,1,2.57,2.57,0,0,1-.6,2.21c-2,2.81-5.53,4.08-8.86,5-4.86,1.32-11.27,5.35-16.45,6.1A.71.71,0,0,0,5,76.8c5.43,3.22,11.89,3.86,18.66,3.83a57.16,57.16,0,0,0,21.16-4.26c2.66-1.07,6.38-2,9.16-2.91a17.73,17.73,0,0,1,2.29-.54,19,19,0,0,1,14.35,3.39"/><path class="cls-5" d="M94.11,40.85c-2.16-1.74-3.74-6.41-3.22-9.14a16.7,16.7,0,0,1,3.87-7.29c1.78-2.14,3.79-4.09,5.42-6.34,3.58-5,5.24-11.45,5.61-17.58,10.8,5.83,15.35,18.84,24.48,27C138.58,35,148.61,35,157.92,41.2c10.63,7,21,16.83,26,27.75a1.8,1.8,0,0,1,3.06-.58,2,2,0,0,1-1.2,3.07c4.13,7.43,5.59,16.43,5.26,24.93-.49-.09-1.56.74-1.71,1.22a3,3,0,0,0,0,1.49,27.3,27.3,0,0,0,2.17,6.34,12.48,12.48,0,0,1-4.22-5.31,12.76,12.76,0,0,0-2.7,6.73,22.4,22.4,0,0,0,.55,7.29,22.88,22.88,0,0,1-3-7.94,35.7,35.7,0,0,0-1.94,13,36.5,36.5,0,0,1,3.11-23.3,33.54,33.54,0,0,1,2-3.5"/><path class="cls-5" d="M145.39,75.42a13.63,13.63,0,0,0,12.42,14.11"/><path class="cls-5" d="M51.49,55.42a6.84,6.84,0,0,0-.79,2,2.39,2.39,0,0,0,.49,2c.47.51,1.25.73,1.57,1.35a2.1,2.1,0,0,1,0,1.63A4.44,4.44,0,0,0,52.35,64c0,.56.48,1.14,1,1.1"/><path class="cls-5" d="M107.3,33.86a4.91,4.91,0,0,1,5-1.67,12.29,12.29,0,0,1,4.9,2.71,22.56,22.56,0,0,0,4.61,3.24,9.54,9.54,0,0,0,10.25-1.69"/><path class="cls-7" d="M162.69,68.84a3,3,0,0,1,.06-2.9,2.93,2.93,0,0,1,3.32-1.25,3.05,3.05,0,0,1,2.05,2.93,2.87,2.87,0,0,1-2,2.74A3.14,3.14,0,0,1,162.69,68.84Z"/></g></g></svg>