<svg xmlns="http://www.w3.org/2000/svg" viewBox="0 0 190.69 99.23"><defs><style>.cls-1{fill:#faaf40;}.cls-2{fill:#d91c5c;}.cls-3{fill:#fff;}.cls-4{fill:#231f20;}.cls-5,.cls-6{fill:none;stroke:#231f20;stroke-linecap:round;stroke-linejoin:round;}.cls-5{stroke-width:0.99px;}</style></defs><title>Asset 5</title><g id="Layer_2" data-name="Layer 2"><g id="Layer_1-2" data-name="Layer 1"><path class="cls-1" d="M49.15,71.6c-.71.6-1.39,1.23-2.08,1.84A71.88,71.88,0,0,1,25.72,86.53a10.63,10.63,0,0,1-4,1,3.92,3.92,0,0,1-3.47-2,5.35,5.35,0,0,1,0-3.64,31.25,31.25,0,0,1,4.19-9.66c1.54-2.36,3.41-4.55,4.44-7.17s1-5.93-1-7.93c-1.81-1.83-14.91-4.44-21.38-7-1-.4-3.71-1.59-3.92-2.66A2.6,2.6,0,0,1,1.92,44.9a7.22,7.22,0,0,1,3-.73c18.52-1.56,39.3,3.57,57.8,1.83-3.06-.93-3.65-2.3-4.69-5.33-.45-1.33-.54-3,.52-3.93A4.32,4.32,0,0,1,61,36a110.17,110.17,0,0,1,15.2-.38,33.66,33.66,0,0,0,9.65-1.26h0l0,0c-1.13-3.18-.18-9.87,1.59-12.75s4.82-7.65,7.23-10,2.5-7.87,3.77-11c8.87,5.58,21,17.24,27.15,25.32,7.61-.71,42.12,18.7,48.21,28.88-.09-.6.41-1.06.95-1.33a2.12,2.12,0,0,1,2,0,1.34,1.34,0,0,1,.54,1.53,2.86,2.86,0,0,1-.62.93.81.81,0,0,0-.29.73,1,1,0,0,0,.21.38c.46.59,1,1.72,1.42,2.3a42.19,42.19,0,0,1,6.62,15.46,6.8,6.8,0,0,0,1.06,2.94c1.24,1.56,3.88,1.85,4.51,3.74a7.8,7.8,0,0,0-4.39-1c.16,1.72,1.27,3.18,2,4.73s1.19,3.56.08,4.88c-1.1-1.7-2.19-3.41-3.29-5.12-.43-.67-1.14-1.44-1.87-1.12-.54.23-.68.91-.78,1.48a17.59,17.59,0,0,1-7.65,11.53,33.75,33.75,0,0,0,5.82-11.59L165.25,98.74a48.75,48.75,0,0,0,7.5-8.49,18,18,0,0,0,2.87-7.8h-.1c-4.8-1-9.25,1.5-14.12,2.14A217.7,217.7,0,0,1,131.88,86h0a71.16,71.16,0,0,1-14.47,3,185.24,185.24,0,0,1-22.53,2.14,7.08,7.08,0,0,1-2.71-.34,2.53,2.53,0,0,1-1.68-2c-.13-1.54,1.55-2.57,3-3a25.76,25.76,0,0,1,8.32-.51v-.11l5.88-2.62c.83-.37,1.79-.93,1.81-1.84a1.67,1.67,0,0,0-1.21-1.49,5,5,0,0,0-2-.1,112.22,112.22,0,0,1-25-.69c-1.51-.21-2-.22-3-1.33-4.26,1.68-7.13,4.21-10.82,6.93A20.39,20.39,0,0,1,64,86.45a5.61,5.61,0,0,1-4.11.4c-1.92-.67-3-2.63-4-4.43-1.6-3.09-5.11-7.73-6.71-10.81ZM164.51,60.74a4.6,4.6,0,0,0-.67-3.47c-1.54-2.2-4.29-3.66-6.89-3a5.8,5.8,0,0,0,.79,11.38A6.17,6.17,0,0,0,163,64.19,6.5,6.5,0,0,0,164.51,60.74Z"/><path class="cls-2" d="M163.84,57.27a4.6,4.6,0,0,1,.67,3.47A6.5,6.5,0,0,1,163,64.19a6.17,6.17,0,0,1-5.28,1.46A5.8,5.8,0,0,1,157,54.27C159.55,53.61,162.3,55.07,163.84,57.27Zm-4.22,6.53a3.54,3.54,0,0,0,2.52-3.71,4.09,4.09,0,0,0-3-3.36,3.73,3.73,0,0,0-3.69,1.5,3.54,3.54,0,0,0,0,3.89A3.94,3.94,0,0,0,159.62,63.8Z"/><path class="cls-3" d="M162.14,60.09a3.54,3.54,0,0,1-2.52,3.71,3.94,3.94,0,0,1-4.24-1.68,3.54,3.54,0,0,1,0-3.89,3.73,3.73,0,0,1,3.69-1.5A4.09,4.09,0,0,1,162.14,60.09Zm-2.75.09a1.6,1.6,0,0,0-.75-2,1.41,1.41,0,0,0-1.62-.26,1.65,1.65,0,0,0-.84,1.42,1.81,1.81,0,0,0,1.27,1.75A1.7,1.7,0,0,0,159.39,60.18Z"/><path class="cls-4" d="M158.64,58.19a1.6,1.6,0,0,1,.75,2,1.7,1.7,0,0,1-1.94.92,1.81,1.81,0,0,1-1.27-1.75,1.65,1.65,0,0,1,.84-1.42A1.41,1.41,0,0,1,158.64,58.19Z"/><path class="cls-5" d="M74.11,74.89c-3.16-1.23-5.92-3.3-8.9-4.92s-6.44-2.82-9.75-2.06a14.92,14.92,0,0,0-6.31,3.69c-.71.6-1.39,1.23-2.08,1.84A71.88,71.88,0,0,1,25.72,86.53a10.63,10.63,0,0,1-4,1,3.92,3.92,0,0,1-3.47-2,5.35,5.35,0,0,1,0-3.64,31.25,31.25,0,0,1,4.19-9.66c1.54-2.36,3.41-4.55,4.44-7.17s1-5.93-1-7.93c-1.81-1.83-14.91-4.44-21.38-7-1-.4-3.71-1.59-3.92-2.66A2.6,2.6,0,0,1,1.92,44.9a7.22,7.22,0,0,1,3-.73c18.52-1.56,39.3,3.57,57.8,1.83-3.06-.93-3.65-2.3-4.69-5.33-.45-1.33-.54-3,.52-3.93A4.32,4.32,0,0,1,61,36a110.17,110.17,0,0,1,15.2-.38,33.66,33.66,0,0,0,9.65-1.26h0a15.24,15.24,0,0,0,3.64-1.47"/><path class="cls-5" d="M49.16,71.61c1.6,3.08,5.11,7.72,6.71,10.81.94,1.8,2.05,3.76,4,4.43a5.61,5.61,0,0,0,4.11-.4,20.39,20.39,0,0,0,3.52-2.32c3.69-2.72,6.56-5.25,10.82-6.93,1,1.11,1.51,1.12,3,1.33a112.22,112.22,0,0,0,25,.69,5,5,0,0,1,2,.1,1.67,1.67,0,0,1,1.21,1.49c0,.91-1,1.47-1.81,1.84l-5.88,2.62"/><path class="cls-5" d="M132.67,80.09a55.49,55.49,0,0,1-26.6,5.54c-1.4-.06-2.81-.17-4.22-.25a25.76,25.76,0,0,0-8.32.51c-1.49.4-3.17,1.43-3,3a2.53,2.53,0,0,0,1.68,2,7.08,7.08,0,0,0,2.71.34,185.24,185.24,0,0,0,22.53-2.14,71.16,71.16,0,0,0,14.47-3,27.82,27.82,0,0,0,6.46-3.21"/><path class="cls-5" d="M131.88,86a217.7,217.7,0,0,0,29.52-1.46c4.87-.64,9.32-3.17,14.12-2.14"/><path class="cls-5" d="M141.51,61.22a22.15,22.15,0,0,0,.08,10.21,12.37,12.37,0,0,0,6.13,7.89"/><path class="cls-5" d="M171.66,57.21a3.31,3.31,0,0,0-2,1.26,2,2,0,0,0-.07,2.28,1.47,1.47,0,0,0,2.13.26"/><path class="cls-5" d="M163.84,57.27c-1.54-2.2-4.29-3.66-6.89-3a5.8,5.8,0,0,0,.79,11.38A6.17,6.17,0,0,0,163,64.19a6.5,6.5,0,0,0,1.49-3.45A4.6,4.6,0,0,0,163.84,57.27Z"/><path class="cls-5" d="M159.1,56.73a3.73,3.73,0,0,0-3.69,1.5,3.54,3.54,0,0,0,0,3.89,3.94,3.94,0,0,0,4.24,1.68,3.54,3.54,0,0,0,2.52-3.71A4.09,4.09,0,0,0,159.1,56.73Z"/><path class="cls-5" d="M158.64,58.19a1.41,1.41,0,0,0-1.62-.26,1.65,1.65,0,0,0-.84,1.42,1.81,1.81,0,0,0,1.27,1.75,1.7,1.7,0,0,0,1.94-.92A1.6,1.6,0,0,0,158.64,58.19Z"/><path class="cls-5" d="M96.33,31a10.69,10.69,0,0,1,11.48-4.27,25.58,25.58,0,0,1,5.52,2.68,13.34,13.34,0,0,0,5.76,2,5.41,5.41,0,0,0,5.17-2.66"/><path class="cls-5" d="M85.85,34.27c-1.13-3.18-.18-9.87,1.59-12.75s4.82-7.65,7.23-10,2.5-7.87,3.77-11c8.87,5.58,21,17.24,27.15,25.32,7.61-.71,42.12,18.7,48.21,28.88-.09-.6.41-1.06.95-1.33a2.12,2.12,0,0,1,2,0,1.34,1.34,0,0,1,.54,1.53,2.86,2.86,0,0,1-.62.93.81.81,0,0,0-.29.73,1,1,0,0,0,.21.38c.46.59,1,1.72,1.42,2.3a42.19,42.19,0,0,1,6.62,15.46,6.8,6.8,0,0,0,1.06,2.94c1.24,1.56,3.88,1.85,4.51,3.74a7.8,7.8,0,0,0-4.39-1c.16,1.72,1.27,3.18,2,4.73s1.19,3.56.08,4.88c-1.1-1.7-2.19-3.41-3.29-5.12-.43-.67-1.14-1.44-1.87-1.12-.54.23-.68.91-.78,1.48a17.59,17.59,0,0,1-7.65,11.53,33.75,33.75,0,0,0,5.82-11.59L165.25,98.74a48.75,48.75,0,0,0,7.5-8.49,18,18,0,0,0,2.87-7.8,12.66,12.66,0,0,0,0-3"/><path class="cls-6" d="M54.84,52.12c-.06,1.5-.13,3-.2,4.48.74-.46,1.71.37,1.83,1.23A7.86,7.86,0,0,1,56,60.39a2.06,2.06,0,0,0,.77,2.31"/></g></g></svg>