<svg xmlns="http://www.w3.org/2000/svg" viewBox="0 0 190.7 99.24"><defs><style>.cls-1{fill:#faaf40;}.cls-2{fill:#d91c5c;}.cls-3{fill:#fff;}.cls-4{fill:#231f20;}.cls-5,.cls-6{fill:none;stroke:#231f20;stroke-linecap:round;stroke-linejoin:round;}.cls-5{stroke-width:0.99px;}</style></defs><title>Asset 3</title><g id="Layer_2" data-name="Layer 2"><g id="Layer_1-2" data-name="Layer 1"><g id="_Group_" data-name="&lt;Group&gt;"><path class="cls-1" d="M131.88,86a71,71,0,0,1-14.47,3,183.09,183.09,0,0,1-22.52,2.13,6.93,6.93,0,0,1-2.72-.33,2.53,2.53,0,0,1-1.68-2c-.13-1.54,1.56-2.57,3.05-3a25.7,25.7,0,0,1,8.31-.52v-.11l5.88-2.62c.83-.37,1.79-.92,1.82-1.83a1.68,1.68,0,0,0-1.22-1.49,5,5,0,0,0-2-.1,112.31,112.31,0,0,1-25-.69c-1.51-.21-2-.22-3-1.33-4.26,1.68-7.14,4.21-10.82,6.93A20.86,20.86,0,0,1,64,86.46a5.61,5.61,0,0,1-4.11.4c-1.92-.67-3-2.63-4-4.43-1.61-3.09-5.11-7.73-6.72-10.82h0c-.71.62-1.39,1.24-2.08,1.85A71.88,71.88,0,0,1,25.72,86.54a10.39,10.39,0,0,1-4,.95,3.91,3.91,0,0,1-3.47-1.95,5.44,5.44,0,0,1,0-3.65,31.7,31.7,0,0,1,4.19-9.66c1.54-2.36,3.42-4.54,4.45-7.16s1-5.93-1-7.93c-1.81-1.83-14.91-4.45-21.38-7-1-.4-3.71-1.58-3.92-2.65a2.59,2.59,0,0,1,1.39-2.58,7,7,0,0,1,3-.73c18.52-1.56,39.3,3.57,57.8,1.83-3.06-.93-3.65-2.3-4.68-5.33-.46-1.33-.55-3,.51-3.93A4.27,4.27,0,0,1,61,36a108.63,108.63,0,0,1,15.2-.38,33.24,33.24,0,0,0,9.64-1.27v0c-1.13-3.18-.18-9.87,1.59-12.75s4.82-7.65,7.23-10,2.5-7.87,3.78-11c8.87,5.59,21,17.25,27.14,25.33,7.62-.72,42.12,18.69,48.22,28.87-.1-.59.4-1.06.94-1.33a2.17,2.17,0,0,1,2,0,1.34,1.34,0,0,1,.53,1.53,2.9,2.9,0,0,1-.62.94.83.83,0,0,0-.29.73,1,1,0,0,0,.22.38c.45.58,1,1.72,1.41,2.3a42.12,42.12,0,0,1,6.62,15.46,6.86,6.86,0,0,0,1.07,2.94c1.24,1.55,3.87,1.85,4.51,3.73a7.93,7.93,0,0,0-4.4-1c.17,1.72,1.27,3.18,2,4.72s1.19,3.56.08,4.89c-1.09-1.71-2.19-3.41-3.29-5.12-.43-.67-1.14-1.44-1.87-1.12-.53.23-.68.91-.78,1.48a17.55,17.55,0,0,1-7.65,11.52,33.44,33.44,0,0,0,5.82-11.58L165.25,98.75a48.75,48.75,0,0,0,7.5-8.49,17.88,17.88,0,0,0,2.87-7.8h-.1c-4.8-1-9.25,1.5-14.11,2.14a217.85,217.85,0,0,1-29.53,1.46Zm32.63-25.29a4.56,4.56,0,0,0-.67-3.47c-1.53-2.2-4.29-3.67-6.89-3a5.8,5.8,0,0,0,.79,11.38A6.17,6.17,0,0,0,163,64.2,6.43,6.43,0,0,0,164.51,60.75Z"/><path class="cls-2" d="M163.84,57.28a4.56,4.56,0,0,1,.67,3.47A6.43,6.43,0,0,1,163,64.2a6.17,6.17,0,0,1-5.28,1.46A5.8,5.8,0,0,1,157,54.28C159.55,53.61,162.31,55.08,163.84,57.28Zm-4.22,6.53a3.56,3.56,0,0,0,2.53-3.71,4.1,4.1,0,0,0-3-3.36,3.72,3.72,0,0,0-3.7,1.5,3.53,3.53,0,0,0,0,3.89A3.93,3.93,0,0,0,159.62,63.81Z"/><path class="cls-3" d="M162.15,60.1a3.56,3.56,0,0,1-2.53,3.71,3.93,3.93,0,0,1-4.23-1.68,3.53,3.53,0,0,1,0-3.89,3.72,3.72,0,0,1,3.7-1.5A4.1,4.1,0,0,1,162.15,60.1Zm-1.68,0a1.63,1.63,0,0,0-.75-2,1.41,1.41,0,0,0-1.62-.25,1.64,1.64,0,0,0-.84,1.41A1.8,1.8,0,0,0,158.53,61,1.68,1.68,0,0,0,160.47,60.12Z"/><path class="cls-4" d="M159.72,58.12a1.63,1.63,0,0,1,.75,2,1.68,1.68,0,0,1-1.94.91,1.8,1.8,0,0,1-1.27-1.75,1.64,1.64,0,0,1,.84-1.41A1.41,1.41,0,0,1,159.72,58.12Z"/><path class="cls-5" d="M74.12,74.9C71,73.67,68.19,71.6,65.21,70s-6.43-2.82-9.74-2.07a15.06,15.06,0,0,0-6.32,3.69c-.71.62-1.39,1.24-2.08,1.85A71.88,71.88,0,0,1,25.72,86.54a10.39,10.39,0,0,1-4,.95,3.91,3.91,0,0,1-3.47-1.95,5.44,5.44,0,0,1,0-3.65,31.7,31.7,0,0,1,4.19-9.66c1.54-2.36,3.42-4.54,4.45-7.16s1-5.93-1-7.93c-1.81-1.83-14.91-4.45-21.38-7-1-.4-3.71-1.58-3.92-2.65a2.59,2.59,0,0,1,1.39-2.58,7,7,0,0,1,3-.73c18.52-1.56,39.3,3.57,57.8,1.83-3.06-.93-3.65-2.3-4.68-5.33-.46-1.33-.55-3,.51-3.93A4.27,4.27,0,0,1,61,36a108.63,108.63,0,0,1,15.2-.38,33.24,33.24,0,0,0,9.64-1.27,15.57,15.57,0,0,0,3.65-1.48"/><path class="cls-5" d="M49.16,71.61c1.61,3.09,5.11,7.73,6.72,10.82.93,1.8,2,3.76,4,4.43a5.61,5.61,0,0,0,4.11-.4,20.86,20.86,0,0,0,3.53-2.32c3.68-2.72,6.56-5.25,10.82-6.93,1,1.11,1.5,1.12,3,1.33a112.31,112.31,0,0,0,25,.69,5,5,0,0,1,2,.1,1.68,1.68,0,0,1,1.22,1.49c0,.91-1,1.46-1.82,1.83l-5.88,2.62"/><path class="cls-5" d="M132.67,80.1a55.56,55.56,0,0,1-26.6,5.54c-1.4-.06-2.81-.18-4.22-.26a25.7,25.7,0,0,0-8.31.52c-1.49.4-3.18,1.43-3.05,3a2.53,2.53,0,0,0,1.68,2,6.93,6.93,0,0,0,2.72.33,183.09,183.09,0,0,0,22.52-2.13,71,71,0,0,0,14.47-3,27.62,27.62,0,0,0,6.46-3.21"/><path class="cls-5" d="M131.88,86.05a217.85,217.85,0,0,0,29.53-1.46c4.86-.64,9.31-3.17,14.11-2.14"/><path class="cls-5" d="M141.51,61.23a22.28,22.28,0,0,0,.08,10.21,12.42,12.42,0,0,0,6.13,7.89"/><path class="cls-5" d="M170.66,56.21a3.37,3.37,0,0,0-2,1.27,2,2,0,0,0-.07,2.28,1.47,1.47,0,0,0,2.13.26"/><path class="cls-5" d="M163.84,57.28c-1.53-2.2-4.29-3.67-6.89-3a5.8,5.8,0,0,0,.79,11.38A6.17,6.17,0,0,0,163,64.2a6.43,6.43,0,0,0,1.49-3.45A4.56,4.56,0,0,0,163.84,57.28Z"/><path class="cls-5" d="M159.11,56.74a3.72,3.72,0,0,0-3.7,1.5,3.53,3.53,0,0,0,0,3.89,3.93,3.93,0,0,0,4.23,1.68,3.56,3.56,0,0,0,2.53-3.71A4.1,4.1,0,0,0,159.11,56.74Z"/><path class="cls-5" d="M159.72,58.12a1.41,1.41,0,0,0-1.62-.25,1.64,1.64,0,0,0-.84,1.41A1.8,1.8,0,0,0,158.53,61a1.68,1.68,0,0,0,1.94-.91A1.63,1.63,0,0,0,159.72,58.12Z"/><path class="cls-5" d="M96.34,31.05a10.68,10.68,0,0,1,11.47-4.27,25.43,25.43,0,0,1,5.53,2.68,13.43,13.43,0,0,0,5.75,2,5.41,5.41,0,0,0,5.17-2.66"/><path class="cls-5" d="M85.85,34.28c-1.13-3.18-.18-9.87,1.59-12.75s4.82-7.65,7.23-10,2.5-7.87,3.78-11c8.87,5.59,21,17.25,27.14,25.33,7.62-.72,42.12,18.69,48.22,28.87-.1-.59.4-1.06.94-1.33a2.17,2.17,0,0,1,2,0,1.34,1.34,0,0,1,.53,1.53,2.9,2.9,0,0,1-.62.94.83.83,0,0,0-.29.73,1,1,0,0,0,.22.38c.45.58,1,1.72,1.41,2.3a42.12,42.12,0,0,1,6.62,15.46,6.86,6.86,0,0,0,1.07,2.94c1.24,1.55,3.87,1.85,4.51,3.73a7.93,7.93,0,0,0-4.4-1c.17,1.72,1.27,3.18,2,4.72s1.19,3.56.08,4.89c-1.09-1.71-2.19-3.41-3.29-5.12-.43-.67-1.14-1.44-1.87-1.12-.53.23-.68.91-.78,1.48a17.55,17.55,0,0,1-7.65,11.52,33.44,33.44,0,0,0,5.82-11.58L165.25,98.75a48.75,48.75,0,0,0,7.5-8.49,17.88,17.88,0,0,0,2.87-7.8,12.66,12.66,0,0,0,0-2.95"/><path class="cls-6" d="M52.12,52a6,6,0,0,0,.48,4.34c.47.78,1.21,1.39,1.61,2.22s.27,2-.59,2.37"/></g></g></g></svg>