<svg xmlns="http://www.w3.org/2000/svg" viewBox="0 0 114.57 109.55"><defs><style>.cls-1{fill:#da1c5c;}.cls-2{fill:#fbb040;}.cls-3{fill:#00aeef;}.cls-4{fill:#fff;}.cls-5{fill:#231f20;}.cls-6{fill:none;stroke:#231f20;stroke-linecap:round;stroke-linejoin:round;stroke-width:0.99px;}</style></defs><title>Asset 6</title><g id="Layer_2" data-name="Layer 2"><g id="Layer_2-2" data-name="Layer 2"><path class="cls-1" d="M87.23,88.35l0,0a3.42,3.42,0,0,1-1.39.24,13.07,13.07,0,0,0-2.57-.1c-1.49.25-2.58,1.5-3.74,2.46a7.87,7.87,0,0,1-3.39,1.69,4.68,4.68,0,0,1-3.64-.74,3.84,3.84,0,0,1-.71-4.46v0a9.6,9.6,0,0,0,2.76-1.58C84.61,82.37,95.1,76.49,101.57,68a12.34,12.34,0,0,0,2.57-4.94,26.82,26.82,0,0,0,4-11.56,35.74,35.74,0,0,1,5.67,13.31,17.65,17.65,0,0,1-1.2,9.85c-1.27,3.16-3.4,6.56-6.79,6.83A12.45,12.45,0,0,1,99.34,89c-2.18.89-4.7,1-6.59,2.4-1.12.83-2,2.09-3.36,2.41a2.81,2.81,0,0,1-3-1.23C85.8,91.64,86.21,88.87,87.23,88.35Z"/><path class="cls-1" d="M107.56,40.31a33.77,33.77,0,0,1,.59,11.21c-.16-5.75-5.1-12.35-10.56-14.13-1.79-.57-3.67-.79-5.46-1.34-4.86-1.47-8.65-5.2-12.24-8.79s-8.77-8.42-12.38-12h0a16.61,16.61,0,0,0-2.32-5.57,20.72,20.72,0,0,0-2.4-3.2C70.39,6,79.24,5.65,86,9.21c4.27,2.25,7.63,5.88,10.6,9.67C101.61,25.25,105.81,32.41,107.56,40.31Z"/><path class="cls-2" d="M97.59,37.39c5.46,1.78,10.4,8.38,10.56,14.13a26.82,26.82,0,0,1-4,11.56c0-.23.07-.47.09-.71.23-2.82-1.44-5.44-3.33-7.54a14.54,14.54,0,0,0-6.52-4.56,28,28,0,0,0-9.08-.52c-3.85.46-4.75.33-8.35.74,4.16-.82,5.13-4.91,5.1-7.46a10,10,0,0,0-3.2-6.91C77,34.3,73,32.85,69.64,27.82h0c-.78-2.42-1.84-4.69-3.09-5.77h0A10.38,10.38,0,0,0,67.67,18a11.43,11.43,0,0,0-.2-2.74h0c3.61,3.62,8.77,8.41,12.38,12s7.38,7.32,12.24,8.79C93.92,36.6,95.8,36.82,97.59,37.39Z"/><path class="cls-1" d="M104.14,63.08A12.34,12.34,0,0,1,101.57,68c-6.47,8.47-17,14.35-27,17.78-.37-5.5-6.9-9.22-7.36-14.72,3.6.28,7.12-1.2,10.21-3.06s5.93-4.17,9.14-5.83A19.05,19.05,0,0,1,91,60.51l0-.08c-4.3.94-19.89,2.21-16.51-9.27a17.21,17.21,0,0,1-4.12-.63,3.45,3.45,0,0,1-2.57-1.76A5.86,5.86,0,0,1,67,46.49a40.22,40.22,0,0,1-.07-7.68l0-.14h0a4.25,4.25,0,0,0,1.84.11c1.64-.37,2.24-2.43,2.18-4.12a29.2,29.2,0,0,0-1.35-6.84h0c3.35,5,7.33,6.48,9.21,8.3A10,10,0,0,1,82.05,43c0,2.55-.94,6.64-5.1,7.46,3.6-.41,4.5-.28,8.35-.74a28,28,0,0,1,9.08.52,14.54,14.54,0,0,1,6.52,4.56c1.89,2.1,3.56,4.72,3.33,7.54C104.21,62.61,104.18,62.85,104.14,63.08Z"/><path class="cls-3" d="M91,60.43l0,.08a19.05,19.05,0,0,0-4.52,1.68c-3.21,1.66-6.05,4-9.14,5.83s-6.61,3.34-10.21,3.06c-3.88-2.26-12.3-2.42-17.1-2-1.61.14-3.35.33-4.75-.48a16.9,16.9,0,0,0-2.16-1.44A2.48,2.48,0,0,0,41.83,67v0c-3-.28-6.94-.11-9.9-.57-3.77-4.25-12.21-6.88-17.77-14.18l0,0a18.23,18.23,0,0,1-.61-11.19V41a131.77,131.77,0,0,0,15.32-.27c6.61-.43,18.27-1.94,24.15-5,4.74.15,9.29,2,13.93,2.94l0,.14A40.22,40.22,0,0,0,67,46.49a5.86,5.86,0,0,0,.86,2.28,3.45,3.45,0,0,0,2.57,1.76,17.21,17.21,0,0,0,4.12.63C71.12,62.64,86.71,61.37,91,60.43Z"/><path class="cls-1" d="M49.83,89.32a22.87,22.87,0,0,0-5.41,2.88,22.18,22.18,0,0,0-2.88,2.43A4.22,4.22,0,0,1,37.85,96a3.17,3.17,0,0,1-2.66-1.86c-.07-.13-.13-.26-.19-.4a7.72,7.72,0,0,1-.67-2.52,3,3,0,0,1,.84-2.38A3.28,3.28,0,0,1,36.92,88c.67-.1,1.37-.11,2-.16a7.87,7.87,0,0,0,1-.13,18.5,18.5,0,0,0,6.53-2.86c3.6-2.27,7.11-5,11.08-5.47L41.88,78.34l-.5,0c-1.86-.11-3.83-.1-5.36.93-.9.61-1.56,1.51-2.43,2.17a4.48,4.48,0,0,1-3.65.84h0a3.57,3.57,0,0,1-1.83-1.16,3,3,0,0,1-.69-1.52,3.06,3.06,0,0,1,.15-1.44,4,4,0,0,1,.93-1.54,7.46,7.46,0,0,1,2.76-1.69A14.68,14.68,0,0,1,37.65,74a31.64,31.64,0,0,0,5.3.47c2.16-.17,4.13-1.22,6.16-2a20,20,0,0,1,2.13-.63c-2.84-.82-5.92.22-8.82-.34a3.21,3.21,0,0,1-2.24-1.3,2.35,2.35,0,0,1-.19-.43,2.23,2.23,0,0,1,.57-2.14A2.3,2.3,0,0,1,41.83,67a2.48,2.48,0,0,1,1.32.14,16.9,16.9,0,0,1,2.16,1.44c1.4.81,3.14.62,4.75.48,4.8-.44,13.22-.28,17.1,2,.46,5.5,7,9.22,7.36,14.72a9.6,9.6,0,0,1-2.76,1.58,16.25,16.25,0,0,1-5.68.9c-3,0-6-.49-8.95-.41A23.06,23.06,0,0,0,49.83,89.32Z"/><path class="cls-1" d="M25.07,6.53a36.88,36.88,0,0,1,16.74-.74h0a17.38,17.38,0,0,1,2.26-2.35A12.36,12.36,0,0,1,55.86,1.71a17.17,17.17,0,0,1,6.89,4.75,20.72,20.72,0,0,1,2.4,3.2,16.61,16.61,0,0,1,2.32,5.57,11.43,11.43,0,0,1,.2,2.74,10.38,10.38,0,0,1-1.14,4.09h0c1.25,1.08,2.31,3.35,3.09,5.77A29.2,29.2,0,0,1,71,34.67c.06,1.69-.54,3.75-2.18,4.12A4.25,4.25,0,0,1,67,38.68h0c-4.64-1-9.19-2.79-13.93-2.94-3.66-.11-22.62,2.59-26.27,2.91A77.56,77.56,0,0,1,11.48,39,18.65,18.65,0,0,1,5.77,37.6a9.1,9.1,0,0,1-4.34-3.85,9,9,0,0,1-.76-5.88A27.83,27.83,0,0,1,3.3,21.13l.09,0C4.65,19.89,5.84,18.6,7,17.26a2.8,2.8,0,0,0,.78-1.45,2.87,2.87,0,0,0-.59-1.73A18.29,18.29,0,0,0,3.65,9.44a2,2,0,0,0-2-.59H1.54a5.75,5.75,0,0,1,.15-2.21A8,8,0,0,1,4.44,2.78,12.86,12.86,0,0,1,13.19.54a6.14,6.14,0,0,1,3.65,1.2,13.13,13.13,0,0,1,1.29,1.49C19.7,5,22.69,6.89,25.07,6.53Zm36.61,16a8.58,8.58,0,0,0,3-9.09A8.16,8.16,0,0,0,57,7.8a10,10,0,0,0-7.66,3.8A12.94,12.94,0,0,1,44,15.32c-1.66.72-1.18,2.25-.41,2.4,4.42.88,5.57,4.43,8.54,6.06S59,24.58,61.68,22.53ZM28.16,19.79a1.83,1.83,0,0,1,.93-1.42,2.11,2.11,0,0,1-2.1.08,5.67,5.67,0,0,1-.62-.58,1,1,0,0,0-.76-.33.86.86,0,0,0-.69.62,2.49,2.49,0,0,0-.07,1A4.66,4.66,0,0,0,25,20.32a1.74,1.74,0,0,0,.66,1,2.18,2.18,0,0,0,1,.27,1.42,1.42,0,0,0,1-.25C28.1,20.94,28,20.3,28.16,19.79ZM9.46,19a1.57,1.57,0,0,0,.32-1.3.6.6,0,0,0-.35-.4c-.51-.22-1,.07-1.48.62a2,2,0,0,0,.63,1.24A.65.65,0,0,0,9.46,19Z"/><path class="cls-3" d="M64.65,13.44a8.58,8.58,0,0,1-3,9.09c-2.7,2-6.59,2.89-9.56,1.25S48,18.6,43.58,17.72c-.77-.15-1.25-1.68.41-2.4a12.94,12.94,0,0,0,5.36-3.72A10,10,0,0,1,57,7.8,8.16,8.16,0,0,1,64.65,13.44ZM63.1,13a1.37,1.37,0,0,0-.25-.75,8,8,0,0,0-5-3.36,1.3,1.3,0,0,0-.7-.06c-.23.06-.44.27-.4.49s.55.43.88.4a3.83,3.83,0,0,1,2.45,1.35c.61.7,1.1,1.52,1.75,2.18a.9.9,0,0,0,.81.37A.63.63,0,0,0,63.1,13Zm-3.23,1.73a2.19,2.19,0,0,0-.94-2.41,4.26,4.26,0,0,0-2.67-.57,5.51,5.51,0,0,0-2.29.59c-.69.37-1.69,1-1.6,1.79.13,1.11,1.53,1.74,2.59,2.08a5,5,0,0,0,3.3-.07A2.55,2.55,0,0,0,59.87,14.76Z"/><path class="cls-4" d="M62.85,12.28a1.37,1.37,0,0,1,.25.75.63.63,0,0,1-.41.62.9.9,0,0,1-.81-.37c-.65-.66-1.14-1.48-1.75-2.18a3.83,3.83,0,0,0-2.45-1.35c-.33,0-.85-.07-.88-.4s.17-.43.4-.49a1.3,1.3,0,0,1,.7.06A8,8,0,0,1,62.85,12.28Z"/><path class="cls-1" d="M61.12,98.36a4.09,4.09,0,0,1,.13,4.29A4.88,4.88,0,0,1,57.57,105a3.62,3.62,0,0,1-3-.92,7.51,7.51,0,0,1-1.28-2.76c-1.27-3.56-5.79-6.83-8.82-9.09v0a22.87,22.87,0,0,1,5.41-2.88A13.57,13.57,0,0,0,54,94.06a33.25,33.25,0,0,0,4.44,2.29A6.85,6.85,0,0,1,61.12,98.36Z"/><path class="cls-5" d="M58.93,12.35a2.19,2.19,0,0,1,.94,2.41,2.55,2.55,0,0,1-1.61,1.41,5,5,0,0,1-3.3.07c-1.06-.34-2.46-1-2.59-2.08-.09-.78.91-1.42,1.6-1.79a5.51,5.51,0,0,1,2.29-.59A4.26,4.26,0,0,1,58.93,12.35Z"/><path class="cls-1" d="M26.71,38.64c3.65-.32,22.61-3,26.27-2.91-5.88,3.06-17.54,4.57-24.15,5A131.77,131.77,0,0,1,13.51,41c-1,0-2.11-.11-3.21-.19a14.07,14.07,0,0,1-4.87-1.73c-1.36-.75-3.41-4-4-5.33A9.1,9.1,0,0,0,5.77,37.6,18.65,18.65,0,0,0,11.48,39,77.56,77.56,0,0,0,26.71,38.64Z"/><path class="cls-1" d="M51.24,71.86a20,20,0,0,0-2.13.63c-2,.73-4,1.78-6.16,2a31.64,31.64,0,0,1-5.3-.47,14.68,14.68,0,0,0-6.43.92,7.46,7.46,0,0,0-2.76,1.69,4,4,0,0,0-.93,1.54l-1.36-.35a4.61,4.61,0,0,0,.46-1.59l0-.07a15.56,15.56,0,0,0,5-3,5.7,5.7,0,0,0,.91-2l.22.07a16.08,16.08,0,0,1,7.2-1.42l.09,0a2.35,2.35,0,0,0,.19.43,3.21,3.21,0,0,0,2.24,1.3C45.32,72.08,48.4,71,51.24,71.86Z"/><path class="cls-1" d="M46.41,84.8l.06.09a18.5,18.5,0,0,1-6.53,2.86l0-.1-2-.89a1,1,0,0,0-.66-.12.66.66,0,0,0-.43.54,2.12,2.12,0,0,0,.07.71V88a3.28,3.28,0,0,0-1.75.77,3,3,0,0,0-.84,2.38A7.72,7.72,0,0,0,35,93.71c.06.14.12.27.19.4l-.09,0a18.22,18.22,0,0,0-2.9,6.37c-.36,1.39-.54,2.82-1,4.19A6.69,6.69,0,0,1,29,108.3a3.52,3.52,0,0,1-4,.23,3.69,3.69,0,0,1-1-4.11,9.68,9.68,0,0,1,2.6-3.66,14.55,14.55,0,0,0,2.91-3.46c1.09-2.08,1.76-8.49.72-10.6a7.25,7.25,0,0,1-.41-2.5c0-.58.14-1.16.12-1.74l0-.21a4.48,4.48,0,0,0,3.65-.84c.87-.66,1.53-1.56,2.43-2.17,1.53-1,3.5-1,5.36-.93A55.77,55.77,0,0,1,46.41,84.8Z"/><path class="cls-1" d="M39.92,87.65l0,.1a7.87,7.87,0,0,1-1,.13c-.66.05-1.36.06-2,.16v-.15a2.12,2.12,0,0,1-.07-.71.66.66,0,0,1,.43-.54,1,1,0,0,1,.66.12Z"/><path class="cls-1" d="M31.93,66.44a5.23,5.23,0,0,1,.73,4.11c0,.19-.1.4-.18.62a5.7,5.7,0,0,1-.91,2,15.56,15.56,0,0,1-5,3l-.14.06c-3.89-2.39-3.7-8.89-5.81-12.31s-4.48-6.7-6.06-10.4c-.17-.38-.32-.78-.46-1.18l0,0C19.72,59.56,28.16,62.19,31.93,66.44Z"/><path class="cls-1" d="M29.9,82.24h0l0,.21c-.42,1.3-1.53,4.38-1.26,5.73a2.83,2.83,0,0,1,0,2,1.81,1.81,0,0,1-1.54.68,1.74,1.74,0,0,1-1.8-1c-.19-.65.25-1.29.56-1.89.72-1.34.36-3.4,0-4.88a2.73,2.73,0,0,1,1.47-1.19l.75-.82A3.57,3.57,0,0,0,29.9,82.24Z"/><path class="cls-5" d="M29.09,18.37a1.83,1.83,0,0,0-.93,1.42c-.15.51-.06,1.15-.46,1.52a1.42,1.42,0,0,1-1,.25,2.18,2.18,0,0,1-1-.27,1.74,1.74,0,0,1-.66-1,4.66,4.66,0,0,1-.15-1.18,2.49,2.49,0,0,1,.07-1,.86.86,0,0,1,.69-.62,1,1,0,0,1,.76.33,5.67,5.67,0,0,0,.62.58A2.11,2.11,0,0,0,29.09,18.37Z"/><path class="cls-1" d="M25.85,83.09l-.17.27c-.36.66-.57,1.39-.88,2.07a2.62,2.62,0,0,1-1.16,1.5,1.73,1.73,0,0,1-2.09-.09c-.6-.65,0-2.37.43-3.15a10.13,10.13,0,0,1,1.94-2.36,16.65,16.65,0,0,0,2.25-3.56l1.36.35a3.06,3.06,0,0,0-.15,1.44,3,3,0,0,0,.69,1.52l-.75.82A2.73,2.73,0,0,0,25.85,83.09Z"/><path class="cls-5" d="M9.78,17.68A1.57,1.57,0,0,1,9.46,19a.65.65,0,0,1-.88.16A2,2,0,0,1,8,17.9c.47-.55,1-.84,1.48-.62A.6.6,0,0,1,9.78,17.68Z"/><path class="cls-3" d="M7.17,14.08a2.87,2.87,0,0,1,.59,1.73A2.8,2.8,0,0,1,7,17.26c-1.14,1.34-2.33,2.63-3.59,3.85l-.09,0A2.54,2.54,0,0,1,1.73,19.7,4.17,4.17,0,0,1,2.49,17a.66.66,0,0,0,.25.13.9.9,0,0,0,.91-.44,4,4,0,0,0,.38-1,1.38,1.38,0,0,1,.56-.82c-.43-.87-.89-1.69-1.32-2.57a1.61,1.61,0,0,0-.3-.48.58.58,0,0,0-.51-.18l0,0a7,7,0,0,1-.87-2.84H1.6a2,2,0,0,1,2.05.59A18.29,18.29,0,0,1,7.17,14.08Z"/><path class="cls-5" d="M2.41,11.69l0,0a.58.58,0,0,1,.51.18,1.61,1.61,0,0,1,.3.48c.43.88.89,1.7,1.32,2.57a1.38,1.38,0,0,0-.56.82,4,4,0,0,1-.38,1,.9.9,0,0,1-.91.44A.66.66,0,0,1,2.49,17a1.71,1.71,0,0,1-.47-1,6.77,6.77,0,0,1,0-3.86A.84.84,0,0,1,2.41,11.69Z"/><path class="cls-6" d="M17.49,9.84a29.69,29.69,0,0,1,7.58-3.31,36.88,36.88,0,0,1,16.74-.74"/><path class="cls-6" d="M34.5,12.27c3.28-.69,5.13-3.79,7.31-6.48a17.38,17.38,0,0,1,2.26-2.35A12.36,12.36,0,0,1,55.86,1.71a17.17,17.17,0,0,1,6.89,4.75,20.72,20.72,0,0,1,2.4,3.2,16.61,16.61,0,0,1,2.32,5.57,11.43,11.43,0,0,1,.2,2.74,10.38,10.38,0,0,1-1.14,4.09,12.14,12.14,0,0,1-6.92,5.85A15.08,15.08,0,0,1,46.68,25.7"/><path class="cls-6" d="M43.58,17.72c-.77-.15-1.25-1.68.41-2.4a12.94,12.94,0,0,0,5.36-3.72A10,10,0,0,1,57,7.8a8.16,8.16,0,0,1,7.64,5.64,8.58,8.58,0,0,1-3,9.09c-2.7,2-6.59,2.89-9.56,1.25S48,18.6,43.58,17.72Z"/><path class="cls-6" d="M52.37,14.16c-.09-.78.91-1.42,1.6-1.79a5.51,5.51,0,0,1,2.29-.59,4.26,4.26,0,0,1,2.67.57,2.19,2.19,0,0,1,.94,2.41,2.55,2.55,0,0,1-1.61,1.41,5,5,0,0,1-3.3.07C53.9,15.9,52.5,15.27,52.37,14.16Z"/><path class="cls-6" d="M29.09,18.37a2.11,2.11,0,0,1-2.1.08,5.67,5.67,0,0,1-.62-.58,1,1,0,0,0-.76-.33.86.86,0,0,0-.69.62,2.49,2.49,0,0,0-.07,1A4.66,4.66,0,0,0,25,20.32a1.74,1.74,0,0,0,.66,1,2.18,2.18,0,0,0,1,.27,1.42,1.42,0,0,0,1-.25c.4-.37.31-1,.46-1.52A1.83,1.83,0,0,1,29.09,18.37Z"/><path class="cls-6" d="M2.49,17a.66.66,0,0,0,.25.13.9.9,0,0,0,.91-.44,4,4,0,0,0,.38-1,1.38,1.38,0,0,1,.56-.82c-.43-.87-.89-1.69-1.32-2.57a1.61,1.61,0,0,0-.3-.48.58.58,0,0,0-.51-.18l0,0a.84.84,0,0,0-.42.5,6.77,6.77,0,0,0,0,3.86A1.71,1.71,0,0,0,2.49,17Z"/><path class="cls-6" d="M2.41,11.7h0a7,7,0,0,1-.87-2.84,5.75,5.75,0,0,1,.15-2.21A8,8,0,0,1,4.44,2.78,12.86,12.86,0,0,1,13.19.54a6.14,6.14,0,0,1,3.65,1.2,13.13,13.13,0,0,1,1.29,1.49c1.57,1.8,4.56,3.66,6.94,3.3l.2,0"/><path class="cls-6" d="M2.49,17a4.17,4.17,0,0,0-.76,2.67A2.54,2.54,0,0,0,3.3,21.13,27.83,27.83,0,0,0,.67,27.87a9,9,0,0,0,.76,5.88A9.1,9.1,0,0,0,5.77,37.6,18.65,18.65,0,0,0,11.48,39a77.56,77.56,0,0,0,15.23-.34c3.65-.32,22.61-3,26.27-2.91,4.74.15,9.29,2,13.93,2.94h0a4.25,4.25,0,0,0,1.84.11c1.64-.37,2.24-2.43,2.18-4.12a29.2,29.2,0,0,0-1.35-6.84c-.78-2.42-1.84-4.69-3.09-5.77"/><path class="cls-6" d="M62.73,6.46h0C70.39,6,79.24,5.65,86,9.21c4.27,2.25,7.63,5.88,10.6,9.67,5,6.37,9.2,13.53,11,21.43a33.77,33.77,0,0,1,.59,11.21,26.82,26.82,0,0,1-4,11.56c-.11.18-.23.35-.34.52"/><path class="cls-6" d="M97,60.55a11.79,11.79,0,0,0-5.93,0,19.05,19.05,0,0,0-4.52,1.68c-3.21,1.66-6.05,4-9.14,5.83s-6.61,3.34-10.21,3.06c.46,5.5,7,9.22,7.36,14.72C84.61,82.37,95.1,76.49,101.57,68a12.34,12.34,0,0,0,2.57-4.94c0-.23.07-.47.09-.71.23-2.82-1.44-5.44-3.33-7.54a14.54,14.54,0,0,0-6.52-4.56,28,28,0,0,0-9.08-.52c-3.85.46-4.75.33-8.35.74l-.49.06"/><path class="cls-6" d="M13.51,41.09a18.23,18.23,0,0,0,.61,11.19c.14.4.29.8.46,1.18,1.58,3.7,3.94,7,6.06,10.4s1.92,9.92,5.81,12.31l.14-.06a15.56,15.56,0,0,0,5-3,5.7,5.7,0,0,0,.91-2c.08-.22.13-.43.18-.62a5.23,5.23,0,0,0-.73-4.11c-3.77-4.25-12.21-6.88-17.77-14.18"/><path class="cls-6" d="M66.88,38.81A40.22,40.22,0,0,0,67,46.49a5.86,5.86,0,0,0,.86,2.28,3.45,3.45,0,0,0,2.57,1.76,17.21,17.21,0,0,0,4.12.63C71.12,62.64,86.71,61.37,91,60.43"/><path class="cls-6" d="M69.64,27.82c3.35,5,7.33,6.48,9.21,8.3A10,10,0,0,1,82.05,43c0,2.55-.94,6.64-5.1,7.46l-.3.06"/><path class="cls-6" d="M8,17.9a2,2,0,0,0,.63,1.24A.65.65,0,0,0,9.46,19a1.57,1.57,0,0,0,.32-1.3.6.6,0,0,0-.35-.4C8.92,17.06,8.42,17.35,8,17.9Z"/><path class="cls-6" d="M1.43,33.75c.59,1.34,2.64,4.58,4,5.33a14.07,14.07,0,0,0,4.87,1.73c1.1.08,2.17.14,3.21.19a131.77,131.77,0,0,0,15.32-.27c6.61-.43,18.27-1.94,24.15-5"/><path class="cls-6" d="M44.43,92.22c3,2.26,7.55,5.53,8.82,9.09a7.51,7.51,0,0,0,1.28,2.76,3.62,3.62,0,0,0,3,.92,4.88,4.88,0,0,0,3.68-2.34,4.09,4.09,0,0,0-.13-4.29,6.85,6.85,0,0,0-2.72-2A33.25,33.25,0,0,1,54,94.06a13.57,13.57,0,0,1-4.13-4.74s0,0,0,0"/><path class="cls-6" d="M61.49,72a20.8,20.8,0,0,0-10.25-.13,20,20,0,0,0-2.13.63c-2,.73-4,1.78-6.16,2a31.64,31.64,0,0,1-5.3-.47,14.68,14.68,0,0,0-6.43.92,7.46,7.46,0,0,0-2.76,1.69,4,4,0,0,0-.93,1.54,3.06,3.06,0,0,0-.15,1.44,3,3,0,0,0,.69,1.52,3.57,3.57,0,0,0,1.83,1.16h0a4.48,4.48,0,0,0,3.65-.84c.87-.66,1.53-1.56,2.43-2.17,1.53-1,3.5-1,5.36-.93l.5,0,15.67,1.08c-4,.43-7.48,3.2-11.08,5.47a18.5,18.5,0,0,1-6.53,2.86,7.87,7.87,0,0,1-1,.13c-.66.05-1.36.06-2,.16a3.28,3.28,0,0,0-1.75.77,3,3,0,0,0-.84,2.38A7.72,7.72,0,0,0,35,93.71c.06.14.12.27.19.4A3.17,3.17,0,0,0,37.85,96a4.22,4.22,0,0,0,3.69-1.34,22.18,22.18,0,0,1,2.88-2.43,23.24,23.24,0,0,1,12.71-4.33c3-.08,6,.41,8.95.41a16.25,16.25,0,0,0,5.68-.9,9.6,9.6,0,0,0,2.76-1.58"/><path class="cls-6" d="M46.41,84.8a55.77,55.77,0,0,0-5-6.49l0,0"/><path class="cls-6" d="M26.63,76.18a4.61,4.61,0,0,1-.46,1.59,16.65,16.65,0,0,1-2.25,3.56A10.13,10.13,0,0,0,22,83.69c-.42.78-1,2.5-.43,3.15a1.73,1.73,0,0,0,2.09.09,2.62,2.62,0,0,0,1.16-1.5c.31-.68.52-1.41.88-2.07l.17-.27a2.73,2.73,0,0,1,1.47-1.19"/><path class="cls-6" d="M25.84,83.06s0,0,0,0c.35,1.48.71,3.54,0,4.88-.31.6-.75,1.24-.56,1.89a1.74,1.74,0,0,0,1.8,1,1.81,1.81,0,0,0,1.54-.68,2.83,2.83,0,0,0,0-2c-.27-1.35.84-4.43,1.26-5.73"/><path class="cls-6" d="M67.16,71.08c-3.88-2.26-12.3-2.42-17.1-2-1.61.14-3.35.33-4.75-.48a16.9,16.9,0,0,0-2.16-1.44A2.48,2.48,0,0,0,41.83,67a2.3,2.3,0,0,0-1.27.61A2.23,2.23,0,0,0,40,69.79a2.35,2.35,0,0,0,.19.43,3.21,3.21,0,0,0,2.24,1.3c2.9.56,6-.48,8.82.34l.1,0"/><path class="cls-6" d="M31.93,66.44c3,.46,6.91.29,9.9.57"/><path class="cls-6" d="M71.77,87.4a3.84,3.84,0,0,0,.71,4.46,4.68,4.68,0,0,0,3.64.74,7.87,7.87,0,0,0,3.39-1.69c1.16-1,2.25-2.21,3.74-2.46a13.07,13.07,0,0,1,2.57.1,3.42,3.42,0,0,0,1.39-.24,1.68,1.68,0,0,0,.87-.72"/><path class="cls-6" d="M86.74,83a2.59,2.59,0,0,1,1.76,2.44"/><path class="cls-6" d="M98.11,84.72a10.45,10.45,0,0,1-4.78,3.08c-1.82.61-4.4-.34-6.1.55-1,.52-1.43,3.29-.82,4.27a2.81,2.81,0,0,0,3,1.23c1.35-.32,2.24-1.58,3.36-2.41,1.89-1.39,4.41-1.51,6.59-2.4a12.45,12.45,0,0,0,6.49-7.53c3.39-.27,5.52-3.67,6.79-6.83a17.65,17.65,0,0,0,1.2-9.85,35.74,35.74,0,0,0-5.67-13.31c-.16-5.75-5.1-12.35-10.56-14.13-1.79-.57-3.67-.79-5.46-1.34-4.86-1.47-8.65-5.2-12.24-8.79s-8.77-8.42-12.38-12"/><path class="cls-6" d="M89.15,81.35a16.68,16.68,0,0,0,4.33-2.1"/><path class="cls-6" d="M1.6,8.85a2,2,0,0,1,2.05.59,18.29,18.29,0,0,1,3.52,4.64,2.87,2.87,0,0,1,.59,1.73A2.8,2.8,0,0,1,7,17.26c-1.14,1.34-2.33,2.63-3.59,3.85"/><path class="cls-6" d="M32.7,71.24a16.08,16.08,0,0,1,7.2-1.42"/><path class="cls-6" d="M36.92,87.89a2.12,2.12,0,0,1-.07-.71.66.66,0,0,1,.43-.54,1,1,0,0,1,.66.12l2,.89"/><path class="cls-6" d="M29.9,82.46c0,.58-.11,1.16-.12,1.74a7.25,7.25,0,0,0,.41,2.5c1,2.11.37,8.52-.72,10.6a14.55,14.55,0,0,1-2.91,3.46,9.68,9.68,0,0,0-2.6,3.66,3.69,3.69,0,0,0,1,4.11,3.52,3.52,0,0,0,4-.23,6.69,6.69,0,0,0,2.24-3.58c.41-1.37.59-2.8,1-4.19a18.22,18.22,0,0,1,2.9-6.37"/></g></g></svg>