<svg xmlns="http://www.w3.org/2000/svg" viewBox="0 0 327.04 368.1"><defs><style>.cls-1{fill:#efd1e4;}.cls-2{fill:#03a550;}.cls-3{fill:#231f20;}.cls-4{fill:#bc80a6;}.cls-5,.cls-6,.cls-7{fill:none;stroke:#231f20;stroke-linecap:round;stroke-linejoin:round;}.cls-5{stroke-width:0.99px;}.cls-6{stroke-width:1.07px;}</style></defs><title>Asset 8</title><g id="Layer_2" data-name="Layer 2"><g id="Layer_1-2" data-name="Layer 1"><g id="_Group_" data-name="&lt;Group&gt;"><path class="cls-1" d="M187.31,311.14h.12c10,21.38,19.14,28.56,23.6,48.11,0,0-59.69,8.6-79.73,8.34-50-.64-82-11.92-82-11.92,2.08-18,8.08-25.15,7.08-41.28-1.95-31.26-14.07-54.47-17-80.58l.07,0A247.44,247.44,0,0,0,54,265.72a57.59,57.59,0,0,0,9.86,13.37,22.76,22.76,0,0,0,14.61,6.23c13,.79,12-9.86,14.64-14.63C106.18,247,113.6,224.62,119,199.62c2.69-11.8,6.26-24.39,9.59-36.75l.87.24a107.32,107.32,0,0,0,22.29,51.48c2.92,3.66,6.54,7.36,11.19,7.82a76.07,76.07,0,0,1-25.54-53.19c-.39-9,1.41-23.83,2.74-35.68,2.79,4.76,7.54,9.11,12.45,9.4s9.28-2.53,11.87-6.72c2-3.23,7.69-6.52,11.42-7.25l0-.08c1.74,1,3.9,1.64,5.44.46a5.78,5.78,0,0,0,1.73-3.34,16.92,16.92,0,0,0,5.78-1.32v0c11,.91,26,7,34.74,13.95l.43.34c31.65,25.83,61.87,51.41,90.69,79.46,3.56,3.47,7.15,7,9.57,11.35A17.16,17.16,0,0,1,325.59,244c-1.48,4.21-.57,5.77-4.63,7.62s-10.83,2-15.11,3.27c-29.41,8.58-69.06,15.25-98.44,20.68-5.56,1.26-12.5,4.89-15.26,9.88-2.26,4.1-2.78,8.88-3.78,13.45C187.49,302.88,187.71,307.06,187.31,311.14Zm-8.79,14.39c-.05.69-.07,1.28-.15,2.22a1.62,1.62,0,0,0,.15,1.09c.33.51,3.66.91,3.87.33a31.17,31.17,0,0,0,1.62-8.53c.11-1.8-2.82-1.79-3.4-1.3a6.47,6.47,0,0,0-2,4.87C178.57,324.73,178.54,325.15,178.52,325.53Zm6-110.62c1.09,8,2,15.62-1.05,22.68a28.17,28.17,0,0,1-9.37,11.66l0,.07a96.92,96.92,0,0,0-1.54,25.8c.47-5.42,5.51-12.46,10.33-15,4-2.13,7.86-2,12.34-2.84,23.07-4.44,44.57-16.28,65.86-22.9A112.13,112.13,0,0,1,279.53,230c-17.39-10.48-41.26-24.25-58.81-41.73a111.16,111.16,0,0,1-8.71-9.7c-2.44-3.08-5.69-6.64-9.61-6.54-5.36.14-15.9,12.06-17.21,15.76C181.9,197.11,183.29,206.23,184.5,214.91Zm-18.18,17.35a6.13,6.13,0,0,0-2-4.09,8.37,8.37,0,0,0-5.13-2.66c-2-.17-5.05,1.74-6,3.44a7.44,7.44,0,0,0-.76,6.36,6.19,6.19,0,0,0,4.86,3.76,10,10,0,0,0,6-1A7.3,7.3,0,0,0,166.32,232.26Z"/><path class="cls-2" d="M122.48,51.05c-1.88,4.62-3.41,11.55-4.56,17.66.8-4.25-.8-8.91-.84-13.23s0-8,3.76-12.23a19.61,19.61,0,0,0,2.51-3.43,7.34,7.34,0,0,0,.93-4.23c5.55-6.63,12.55-14.17,18.51-20.41,4.59-4.8,9.46-9.59,15.6-12.1C164.26.69,170.77.59,177.11.52c6.14-.06,12.34-.12,18.36,1.13,4.19-1.08,11.67-.87,15.67.79s8.3,7.05,10.49,10.78h0a9.2,9.2,0,0,1,2.13,2.71,18.82,18.82,0,0,1,1.62,8.35l0,0a16.35,16.35,0,0,1,4.1,7.34,38,38,0,0,1,.89,11.11l0,0a18.59,18.59,0,0,1,3.53,11.66c-.2,6.3-3.39,12.43-6,18.16,0,2.22-.14,4.44-.23,6.65-.83,20.65-2.06,38.82-4,59.4l0,0c-8.76-7-23.72-13-34.74-13.95v0a22.06,22.06,0,0,0,8.55-6c3-3.76,4.79-8.39,6.09-13,2.45-.77,1.94-.72,4.4-1.35a5.43,5.43,0,0,0,2.51-.84,4.76,4.76,0,0,0,1.11-2.77c1-5.36,4.6-10.6,8.76-14.14,1-.84,1.81-2.64,1.21-3.79a7,7,0,0,0-2.87-2.61A16.35,16.35,0,0,1,215.33,78a8.05,8.05,0,0,1-2-6.66c-1.3,2.6-4.6,3.16-7.5,3.32s-5.75-.69-8.53-1.53a179.41,179.41,0,0,1-17.54-6,92.89,92.89,0,0,1-25.22-15.56c-.34-.28-.68-.59-1-.89-.81-.73-1.59-1.47-2.36-2.24l-.54-.53c-.62-.62-1.23-1.26-1.83-1.9-1.85-2-4.14-3.7-6.87-3.89-2.48-.17-3.37,1.25-5.29,2.83s-4.45,5.6-6.11,7.44c1.49-2.29,3.13-7.06,4.62-9.36-5.05,1.55-9.64,4.14-12.71,8Z"/><path class="cls-3" d="M152.13,51.75a3.25,3.25,0,0,1-2.07-1.88c-.15-.54.51-1,1.14-1.39.77.77,1.55,1.51,2.36,2.24h0C153.16,51.14,152.69,51.79,152.13,51.75Z"/><path class="cls-1" d="M154.57,51.61a5.59,5.59,0,0,1-3.34,3.92,3.75,3.75,0,0,0-1.79,1,9.58,9.58,0,0,0-.69,1.83c-.58,1.61-1.27,2.58-1.79,4.1a10,10,0,0,0-.1,4.52c.52,4,1.1,9.31,1.62,13.27,1.29,10.91-1.52,24.44-3.7,35.21-.47,2.33-2.1,5.28-3.63,7.95-.81,1.42-1.59,2.76-2.16,3.89a60.12,60.12,0,0,0-5.3,15.24c-1.5,6.58-3.28,13.39-5.13,20.28-3.33,12.36-6.9,24.95-9.59,36.75-5.37,25-12.79,47.38-25.88,71.07-2.63,4.77-1.66,15.42-14.64,14.63a22.76,22.76,0,0,1-14.61-6.23A57.59,57.59,0,0,1,54,265.72a247.44,247.44,0,0,1-14.55-31.93c-8.67-23.11-13.82-46.42-18.8-70.71-1.44-7.07-4.08-16.74-3.49-23.94s1.63-11,6.86-16l0,0a17.45,17.45,0,0,1,7.49-2.34h0a6.63,6.63,0,0,0-1.42,3.87c-.07,3.23,1.78,6.18,3.84,8.67s4.44,4.8,5.75,7.76,1.26,6.83-1.15,9c3.3-.81,4.52-5.1,3.6-8.36s-3.25-5.92-4.84-8.91-2.35-7-.2-9.59c2.63-3.23,7.63-2.45,11.77-1.89a49.63,49.63,0,0,0,28.26-4.53,51.7,51.7,0,0,0-9.38,39.55c2.45,13.74,10.64,28.67,8.9,42.51l0,0q1.5-2.39,2.94-4.79c.28-.46.55-.93.82-1.4,8-13.73,14.71-29.73,20.93-44.26,2.27-6.2,5-13.9,7.29-20.1,1.23-3.35,2.48-6.79,2.49-10.36,0-4.92-2.31-9.47-4.9-13.72l-1-1.68a28.34,28.34,0,0,1-3.59-7,13.58,13.58,0,0,1-.85-5.36,48,48,0,0,0,.21-8.25,33,33,0,0,1,.4-5.83v0c0-1.14,0-5.46-.46-6.5a10.46,10.46,0,0,1-.33-1.22h0a7.25,7.25,0,0,1,5.89,4.15,14,14,0,0,1,1.39,4.62,88.67,88.67,0,0,0,0-18.57c-.92-8.78-.32-8.81,4.47-15.24a27.49,27.49,0,0,1,3-4.42,31.67,31.67,0,0,1,3.39-3l0,0c.94,1,3.4-.19,5.16-1.43l0,0a3,3,0,0,1,.33,1.05,7.34,7.34,0,0,1-.93,4.23,19.61,19.61,0,0,1-2.51,3.43c-3.74,4.26-3.79,7.92-3.76,12.23s1.64,9,.84,13.23c1.15-6.11,2.68-13,4.56-17.66h0c3.07-3.83,7.66-6.42,12.71-8-1.49,2.3-3.13,7.07-4.62,9.36,1.66-1.84,4.18-5.86,6.11-7.44s2.81-3,5.29-2.83c2.73.19,5,1.88,6.87,3.89-1.62,1.78-4.36,2.05-6.26,3.54a11,11,0,0,0-2.18,2.56,25.29,25.29,0,0,0-3.19,7.36c-1.44,4.86-.91,10.16,0,15.16,0-2.42.12-4.69.2-7.11A27.16,27.16,0,0,1,139,58.47a33.93,33.93,0,0,1,3.68-6.36,4.26,4.26,0,0,1,1.4-1.49,6.49,6.49,0,0,1,2.46-.47,7.72,7.72,0,0,0,4.17-2.2l.54.53c-.63.35-1.29.85-1.14,1.39a3.25,3.25,0,0,0,2.07,1.88c.56,0,1-.61,1.42-1h0C153.89,51,154.23,51.33,154.57,51.61Z"/><path class="cls-1" d="M175.89,128.89l0,.08c-3.73.73-9.43,4-11.42,7.25-2.59,4.19-7,7-11.87,6.72s-9.66-4.64-12.45-9.4c.42-3.76.8-7.22,1-10.08,1.53-2.67,3.16-5.62,3.63-7.95,2.18-10.77,5-24.3,3.7-35.21-.52-4-1.1-9.31-1.62-13.27a10,10,0,0,1,.1-4.52c.52-1.52,1.21-2.49,1.79-4.1a9.58,9.58,0,0,1,.69-1.83,3.75,3.75,0,0,1,1.79-1,5.59,5.59,0,0,0,3.34-3.92,92.89,92.89,0,0,0,25.22,15.56,179.41,179.41,0,0,0,17.54,6c2.78.84,5.63,1.7,8.53,1.53s6.2-.72,7.5-3.32a8.05,8.05,0,0,0,2,6.66,16.35,16.35,0,0,0,3.27,2.15,7,7,0,0,1,2.87,2.61c.6,1.15-.21,3-1.21,3.79-4.16,3.54-7.73,8.78-8.76,14.14a4.76,4.76,0,0,1-1.11,2.77,5.43,5.43,0,0,1-2.51.84c-2.46.63-1.95.58-4.4,1.35-1.3,4.66-3,9.29-6.09,13a22.06,22.06,0,0,1-8.55,6,16.92,16.92,0,0,1-5.78,1.32,5.78,5.78,0,0,1-1.73,3.34C179.79,130.53,177.63,129.87,175.89,128.89Zm25.23-20.46a8.45,8.45,0,0,1-4.66-.68c-.56-.27-1.05-.67-1.61-.92-1.25-.55-2.67.22-4,.46,1.08,1.7,3,3.39,5,3.58A6.78,6.78,0,0,0,201.12,108.43Zm-24.89-6.32a12.66,12.66,0,0,1-8.79-2.33c-2.4-2-3.52-5-6.28-6.42.36,3.59,2.06,7.6,5.11,9.54A8.63,8.63,0,0,0,176.23,102.11Z"/><path class="cls-2" d="M220.72,188.28c1.47,14.22-.78,32.76-6.46,45.85.65-8.14-2.32-21.93-4.46-29.81-1.58,10.13-3.05,34.48-8.51,43.16.9-6.42-3.16-30.22-5.25-36.35-3,5.29-4.54,27.4-7.58,32.7-.08-5.77-2.46-19.81-4-28.92-1.21-8.68-2.6-17.8.69-27.11C186.5,184.1,197,172.18,202.4,172c3.92-.1,7.17,3.46,9.61,6.54A111.16,111.16,0,0,0,220.72,188.28Z"/><path class="cls-3" d="M196.46,107.75a8.45,8.45,0,0,0,4.66.68,6.78,6.78,0,0,1-5.3,2.44c-2-.19-3.9-1.88-5-3.58,1.34-.24,2.76-1,4-.46C195.41,107.08,195.9,107.48,196.46,107.75Z"/><path class="cls-3" d="M180.61,319.34c.58-.49,3.51-.5,3.4,1.3a31.17,31.17,0,0,1-1.62,8.53c-.21.58-3.54.18-3.87-.33a1.62,1.62,0,0,1-.15-1.09c.08-.94.1-1.53.15-2.22,0-.38,0-.8.1-1.32A6.47,6.47,0,0,1,180.61,319.34Z"/><path class="cls-3" d="M167.44,99.78a12.66,12.66,0,0,0,8.79,2.33,8.63,8.63,0,0,1-10,.79c-3.05-1.94-4.75-6-5.11-9.54C163.92,94.79,165,97.81,167.44,99.78Z"/><path class="cls-4" d="M164.34,228.17a6.13,6.13,0,0,1,2,4.09,7.3,7.3,0,0,1-3.07,5.77,10,10,0,0,1-6,1,6.19,6.19,0,0,1-4.86-3.76,7.44,7.44,0,0,1,.76-6.36c1-1.7,4.08-3.61,6-3.44A8.37,8.37,0,0,1,164.34,228.17Zm-3.43,5.15a2,2,0,0,0-.12-1.54,1.68,1.68,0,0,0-1.53-.79,1.88,1.88,0,0,0-1.62,1.22A2,2,0,0,0,158,234a1.91,1.91,0,0,0,1.51.54A1.66,1.66,0,0,0,160.91,233.32Z"/><path class="cls-4" d="M160.79,231.78a2,2,0,0,1,.12,1.54,1.66,1.66,0,0,1-1.43,1.21A1.91,1.91,0,0,1,158,234a2,2,0,0,1-.33-1.78,1.88,1.88,0,0,1,1.62-1.22A1.68,1.68,0,0,1,160.79,231.78Z"/><path class="cls-2" d="M140.11,133.54c-1.33,11.85-3.13,26.72-2.74,35.68a76.07,76.07,0,0,0,25.54,53.19c-4.65-.46-8.27-4.16-11.19-7.82a107.32,107.32,0,0,1-22.29-51.48l-.87-.24c1.85-6.89,3.63-13.7,5.13-20.28a60.12,60.12,0,0,1,5.3-15.24c.57-1.13,1.35-2.47,2.16-3.89C140.91,126.32,140.53,129.78,140.11,133.54Z"/><path class="cls-1" d="M148.83,46.05c.6.64,1.21,1.28,1.83,1.9a7.72,7.72,0,0,1-4.17,2.2,6.49,6.49,0,0,0-2.46.47,4.26,4.26,0,0,0-1.4,1.49A33.93,33.93,0,0,0,139,58.47a27.16,27.16,0,0,0-1.58,9.09c-.08,2.42-.25,4.69-.2,7.11-.88-5-1.41-10.3,0-15.16a25.29,25.29,0,0,1,3.19-7.36,11,11,0,0,1,2.18-2.56C144.47,48.1,147.21,47.83,148.83,46.05Z"/><path class="cls-3" d="M125.71,32.56c.46,0-.47,1-1.8,1.93-1.76,1.24-4.22,2.44-5.16,1.43l0,0C121.28,33.93,124,32.48,125.71,32.56Z"/><path class="cls-1" d="M106.21,104.21c2.59,4.25,4.91,8.8,4.9,13.72,0,3.57-1.26,7-2.49,10.36-2.27,6.2-5,13.9-7.29,20.1-6.22,14.53-12.92,30.53-20.93,44.26h0c-2.53-16.74-7.91-27.86-7.65-44.78.09-6.11,3.59-19,7.35-23.8,6.77-8.66,21.75-9.35,25.72-19.6Z"/><path class="cls-2" d="M31.48,120.76h0A17.45,17.45,0,0,0,24,123.09C8.72,131.84,2.35,162.7,4.58,180.77,1.69,170.65-.28,160.09.8,149.62s5.5-20.9,13.61-27.6c7.42-6.13,17.14-8.65,26.64-10.13s19.23-2.09,28.34-5.16c11.75-4,24.83-14.37,31.54-24.82a48,48,0,0,1-.21,8.25,13.58,13.58,0,0,0,.85,5.36,28.34,28.34,0,0,0,3.59,7l1,1.68-.4.25c-4,10.25-19,10.94-25.72,19.6-3.76,4.82-7.26,17.69-7.35,23.8-.26,16.92,5.12,28,7.65,44.78h0c-.27.47-.54.94-.82,1.4q-1.44,2.4-2.94,4.79l0,0c1.74-13.84-6.45-28.77-8.9-42.51a51.7,51.7,0,0,1,9.38-39.55,49.63,49.63,0,0,1-28.26,4.53c-4.14-.56-9.14-1.34-11.77,1.89-2.15,2.63-1.4,6.59.2,9.59s3.92,5.64,4.84,8.91-.3,7.55-3.6,8.36c2.41-2.15,2.46-6,1.15-9S36,135.79,33.9,133.3s-3.91-5.44-3.84-8.67A6.63,6.63,0,0,1,31.48,120.76Z"/><path class="cls-3" d="M100.87,69.54c.46,1,.42,5.36.46,6.5-.64-1-2.13-8.59-2.13-8.59s1.2.24,1.27.55c0,.1,0,.21.07.32A10.46,10.46,0,0,0,100.87,69.54Z"/><path class="cls-5" d="M101.33,76.08a33,33,0,0,0-.4,5.83,48,48,0,0,1-.21,8.25,13.58,13.58,0,0,0,.85,5.36,28.34,28.34,0,0,0,3.59,7l1,1.68c2.59,4.25,4.91,8.8,4.9,13.72,0,3.57-1.26,7-2.49,10.36-2.27,6.2-5,13.9-7.29,20.1-6.22,14.53-12.92,30.53-20.93,44.26-.27.47-.54.94-.82,1.4q-1.44,2.4-2.94,4.79C68.21,212.3,58.72,225.48,55.74,241"/><path class="cls-5" d="M141.17,123.24c0,.07,0,.14,0,.22-.24,2.86-.62,6.32-1,10.08-1.33,11.85-3.13,26.72-2.74,35.68a76.07,76.07,0,0,0,25.54,53.19c-4.65-.46-8.27-4.16-11.19-7.82a107.32,107.32,0,0,1-22.29-51.48"/><path class="cls-5" d="M187.82,107.8q-2.37,9.11-4.76,18.21a5.78,5.78,0,0,1-1.73,3.34c-1.54,1.18-3.7.52-5.44-.46-.17-.09-.33-.19-.49-.29a31.66,31.66,0,0,1-9.45-9.1"/><path class="cls-5" d="M140.1,133.52v0c2.79,4.76,7.54,9.11,12.45,9.4s9.28-2.53,11.87-6.72c2-3.23,7.69-6.52,11.42-7.25"/><path class="cls-5" d="M119.09,57.84a17.4,17.4,0,0,1,3.38-6.8c3.07-3.83,7.66-6.42,12.71-8,7.61-2.35,17.33-4.75,25.08-6.59,12.31-2.93,23.26-9.82,35-14.53,4.58-1.84,9.94-3.31,14.26-.93"/><path class="cls-5" d="M124.26,35.61l0,0c5.55-6.63,12.55-14.17,18.51-20.41,4.59-4.8,9.46-9.59,15.6-12.1C164.26.69,170.77.59,177.11.52c6.14-.06,12.34-.12,18.36,1.13s11.91,3.92,16,8.54"/><path class="cls-5" d="M125.21,39.68c2.12-2.73,5.56-4.13,9-4.68s6.89-.36,10.34-.56c10.95-.62,21.28-5,31.35-9.35l24.83-10.7"/><path class="cls-5" d="M153.85,46.91a140.89,140.89,0,0,0,37.42,8.85"/><path class="cls-5" d="M153.1,41.9a179.45,179.45,0,0,0,45.43,1"/><path class="cls-5" d="M226,49.61c1.72,7.51,2,15.26,1.78,23,0,2.22-.14,4.44-.23,6.65-.83,20.65-2.06,38.82-4,59.4"/><path class="cls-5" d="M225.29,38.77a12.48,12.48,0,0,1,5,4,18.59,18.59,0,0,1,3.53,11.66c-.2,6.3-3.39,12.43-6,18.16a.3.3,0,0,0,0,.08"/><path class="cls-5" d="M223.69,22.9a11.41,11.41,0,0,1,1.68,1.41,16.35,16.35,0,0,1,4.1,7.34,38,38,0,0,1,.89,11.11"/><path class="cls-5" d="M221.64,13.23a9.2,9.2,0,0,1,2.13,2.71,18.82,18.82,0,0,1,1.62,8.35"/><path class="cls-5" d="M217,11.4a6.85,6.85,0,0,1,4.64,1.82"/><path class="cls-5" d="M221.64,13.23h0c-2.19-3.73-6.49-9.11-10.49-10.78S199.66.57,195.47,1.65"/><path class="cls-5" d="M101,81.77l-.09.14c-6.71,10.45-19.79,20.86-31.54,24.82-9.11,3.07-18.84,3.69-28.34,5.16s-19.22,4-26.64,10.13C6.3,128.72,1.88,139.16.8,149.62s.89,21,3.78,31.15C2.35,162.7,8.72,131.84,24,123.09a17.45,17.45,0,0,1,7.49-2.34"/><path class="cls-5" d="M36.14,118.6a5,5,0,0,0-4.66,2.16,6.63,6.63,0,0,0-1.42,3.87c-.07,3.23,1.78,6.18,3.84,8.67s4.44,4.8,5.75,7.76,1.26,6.83-1.15,9c3.3-.81,4.52-5.1,3.6-8.36s-3.25-5.92-4.84-8.91-2.35-7-.2-9.59c2.63-3.23,7.63-2.45,11.77-1.89a49.63,49.63,0,0,0,28.26-4.53,51.7,51.7,0,0,0-9.38,39.55c2.45,13.74,10.64,28.67,8.9,42.51"/><path class="cls-5" d="M80.39,192.64c-2.53-16.74-7.91-27.86-7.65-44.78.09-6.11,3.59-19,7.35-23.8,6.77-8.66,21.75-9.35,25.72-19.6"/><path class="cls-5" d="M294.64,228.55c-6.17.46-10.79.84-15.11,1.46a112.13,112.13,0,0,0-18.41,4.38c-21.29,6.62-42.79,18.46-65.86,22.9-4.48.86-8.3.71-12.34,2.84-4.82,2.53-9.86,9.57-10.33,15a.09.09,0,0,0,0,.05"/><path class="cls-5" d="M128.93,244.68c7.11,8,18.3,11.11,28.95,10.29a31.47,31.47,0,0,0,16.2-5.72,28.17,28.17,0,0,0,9.37-11.66c3.07-7.06,2.14-14.68,1.05-22.68-1.21-8.68-2.6-17.8.69-27.11C186.5,184.1,197,172.18,202.4,172c3.92-.1,7.17,3.46,9.61,6.54a111.16,111.16,0,0,0,8.71,9.7c17.55,17.48,41.42,31.25,58.81,41.73h0"/><path class="cls-5" d="M103.23,252.78c6,1.42,15.11-3.38,17.6-9"/><path class="cls-5" d="M174.13,249.32a96.92,96.92,0,0,0-1.54,25.8A78.92,78.92,0,0,0,178,299.34"/><path class="cls-5" d="M39.36,233.82c3,26.11,15.1,49.32,17,80.58,1,16.13-5,23.28-7.08,41.28,0,0,32,11.28,82,11.92,20,.26,79.73-8.34,79.73-8.34-4.46-19.55-13.57-26.73-23.6-48.11"/><path class="cls-6" d="M131.32,321.57c-1.87-.81-4.13,1.52-3.67,3.79s3.38,3.16,4.74,1.46"/><path class="cls-5" d="M153.17,229a7.44,7.44,0,0,0-.76,6.36,6.19,6.19,0,0,0,4.86,3.76,10,10,0,0,0,6-1,7.3,7.3,0,0,0,3.07-5.77,6.13,6.13,0,0,0-2-4.09,8.37,8.37,0,0,0-5.13-2.66C157.25,225.34,154.16,227.25,153.17,229Z"/><path class="cls-5" d="M159.26,231a1.88,1.88,0,0,0-1.62,1.22A2,2,0,0,0,158,234a1.91,1.91,0,0,0,1.51.54,1.66,1.66,0,0,0,1.43-1.21,2,2,0,0,0-.12-1.54A1.68,1.68,0,0,0,159.26,231Z"/><path class="cls-5" d="M101.33,76c-.64-1-2.13-8.59-2.13-8.59s1.2.24,1.27.55c0,.1,0,.21.07.32a10.46,10.46,0,0,0,.33,1.22C101.33,70.58,101.29,74.9,101.33,76Z"/><path class="cls-5" d="M107.84,77.1a17.36,17.36,0,0,1,.14,2.51c0,2.52.62,6.72.83,9.23"/><path class="cls-5" d="M100.56,68.32a7.25,7.25,0,0,1,5.89,4.15,14,14,0,0,1,1.39,4.62"/><path class="cls-5" d="M107.84,77.1h0a88.67,88.67,0,0,0,0-18.57c-.92-8.78-.32-8.81,4.47-15.24a27.49,27.49,0,0,1,3-4.42,31.67,31.67,0,0,1,3.39-3c2.56-2,5.29-3.4,7-3.32.46,0-.47,1-1.8,1.93-1.76,1.24-4.22,2.44-5.16,1.43"/><path class="cls-5" d="M124,34.54a3,3,0,0,1,.33,1.05,7.34,7.34,0,0,1-.93,4.23,19.61,19.61,0,0,1-2.51,3.43c-3.74,4.26-3.79,7.92-3.76,12.23s1.64,9,.84,13.23c1.15-6.11,2.68-13,4.56-17.66"/><path class="cls-5" d="M135.18,43.07c-1.49,2.3-3.13,7.07-4.62,9.36,1.66-1.84,4.18-5.86,6.11-7.44s2.81-3,5.29-2.83c2.73.19,5,1.88,6.87,3.89.6.64,1.21,1.28,1.83,1.9l.54.53c.77.77,1.55,1.51,2.36,2.24.33.3.67.61,1,.89a92.89,92.89,0,0,0,25.22,15.56,179.41,179.41,0,0,0,17.54,6c2.78.84,5.63,1.7,8.53,1.53s6.2-.72,7.5-3.32a8.05,8.05,0,0,0,2,6.66,16.35,16.35,0,0,0,3.27,2.15,7,7,0,0,1,2.87,2.61c.6,1.15-.21,3-1.21,3.79-4.16,3.54-7.73,8.78-8.76,14.14a4.76,4.76,0,0,1-1.11,2.77,5.43,5.43,0,0,1-2.51.84c-2.46.63-1.95.58-4.4,1.35-1.3,4.66-3,9.29-6.09,13a22.06,22.06,0,0,1-8.55,6,16.92,16.92,0,0,1-5.78,1.32"/><path class="cls-5" d="M150.67,47.94h0a7.72,7.72,0,0,1-4.17,2.2,6.49,6.49,0,0,0-2.46.47,4.26,4.26,0,0,0-1.4,1.49A33.93,33.93,0,0,0,139,58.47a27.16,27.16,0,0,0-1.58,9.09c-.08,2.42-.25,4.69-.2,7.11-.88-5-1.41-10.3,0-15.16a25.29,25.29,0,0,1,3.19-7.36,11,11,0,0,1,2.18-2.56c1.9-1.49,4.64-1.76,6.26-3.54"/><path class="cls-5" d="M154.57,51.6h0a5.59,5.59,0,0,1-3.34,3.92,3.75,3.75,0,0,0-1.79,1,9.58,9.58,0,0,0-.69,1.83c-.58,1.61-1.27,2.58-1.79,4.1a10,10,0,0,0-.1,4.52c.52,4,1.1,9.31,1.62,13.27,1.29,10.91-1.52,24.44-3.7,35.21-.47,2.33-2.1,5.28-3.63,7.95-.81,1.42-1.59,2.76-2.16,3.89a60.12,60.12,0,0,0-5.3,15.24c-1.5,6.58-3.28,13.39-5.13,20.28-3.33,12.36-6.9,24.95-9.59,36.75-5.37,25-12.79,47.38-25.88,71.07-2.63,4.77-1.66,15.42-14.64,14.63a22.76,22.76,0,0,1-14.61-6.23A57.59,57.59,0,0,1,54,265.72a247.44,247.44,0,0,1-14.55-31.93c-8.67-23.11-13.82-46.42-18.8-70.71-1.44-7.07-4.08-16.74-3.49-23.94s1.63-11,6.86-16"/><path class="cls-5" d="M161.16,93.36c.36,3.59,2.06,7.6,5.11,9.54a8.63,8.63,0,0,0,10-.79,12.66,12.66,0,0,1-8.79-2.33C165,97.81,163.92,94.79,161.16,93.36Z"/><path class="cls-5" d="M201.12,108.43a6.78,6.78,0,0,1-5.3,2.44c-2-.19-3.9-1.88-5-3.58,1.34-.24,2.76-1,4-.46.56.25,1.05.65,1.61.92A8.45,8.45,0,0,0,201.12,108.43Z"/><path class="cls-5" d="M130.56,52.43c-2.78,5.26-2.41,9.73-2.66,16.29"/><path class="cls-5" d="M151.21,48.47h0c-.63.35-1.29.85-1.14,1.39a3.25,3.25,0,0,0,2.07,1.88c.56,0,1-.61,1.42-1"/><path class="cls-5" d="M183.52,324.87a11.3,11.3,0,0,0,1.19-3.16c.47-2.9,1.88-5.63,2.34-8.53.11-.68.19-1.36.26-2,.4-4.08.18-8.26,1.06-12.29,1-4.57,1.52-9.35,3.78-13.45,2.76-5,9.7-8.62,15.26-9.88,29.38-5.43,69-12.1,98.44-20.68,4.28-1.25,11-1.41,15.11-3.27s3.15-3.41,4.63-7.62a17.16,17.16,0,0,0-1.31-14.13c-2.42-4.34-6-7.88-9.57-11.35-28.82-28.05-59-53.63-90.69-79.46l-.43-.34c-8.76-7-23.72-13-34.74-13.95"/><path class="cls-5" d="M179.63,271.68c-2.43,8.43-3.92,20-1.59,27.66,1.09,3.56.88,9,.52,13.16-.27,3-1,5.13-1.13,7.8a10,10,0,0,0,.47,4.29,4.5,4.5,0,0,0,.62.94"/><path class="cls-5" d="M178.62,324.21a6.47,6.47,0,0,1,2-4.87c.58-.49,3.51-.5,3.4,1.3a31.17,31.17,0,0,1-1.62,8.53c-.21.58-3.54.18-3.87-.33a1.62,1.62,0,0,1-.15-1.09c.08-.94.1-1.53.15-2.22C178.54,325.15,178.57,324.73,178.62,324.21Z"/><path class="cls-7" d="M220.71,188.12a.86.86,0,0,1,0,.16c1.47,14.22-.78,32.76-6.46,45.85.65-8.14-2.32-21.93-4.46-29.81-1.58,10.13-3.05,34.48-8.51,43.16.9-6.42-3.16-30.22-5.25-36.35-3,5.29-4.54,27.4-7.58,32.7-.08-5.77-2.46-19.81-4-28.92-.09-.5-.16-1-.24-1.44"/></g></g></g></svg>