<svg xmlns="http://www.w3.org/2000/svg" viewBox="0 0 479.22 522.14"><defs><style>.cls-1{fill:#231f20;}.cls-2{fill:#da1c5c;}.cls-3{fill:#fbb040;}.cls-4{fill:none;stroke:#fff;stroke-linecap:round;stroke-linejoin:round;stroke-width:0.62px;}</style></defs><title>Asset 2</title><g id="Layer_2" data-name="Layer 2"><g id="Layer_3" data-name="Layer 3"><path class="cls-1" d="M830.72,221.2a48.77,48.77,0,0,1,15.79,25.22,84.35,84.35,0,0,0-52.19-15.71,38.45,38.45,0,0,0-2.42-17.64l.24-.1a52.15,52.15,0,0,0,6.29-4.25l.19.24C808.67,209.69,823,214.72,830.72,221.2Z" transform="translate(-367.6 -110.71)"/><path class="cls-1" d="M804.85,197.75a4.09,4.09,0,0,1,1.24,2.92,4,4,0,0,1-1.17,2,53.09,53.09,0,0,1-6.49,6.05,52.15,52.15,0,0,1-6.29,4.25l-.24.1c-.21-.55-.44-1.09-.68-1.63a38.54,38.54,0,0,0-15.77-17.33l.14-.25c.71-2.51,3.82-4.68,6.2-5.76a62.26,62.26,0,0,1,12.1-3.87C798,188.31,801.21,193.2,804.85,197.75Z" transform="translate(-367.6 -110.71)"/><path class="cls-1" d="M686.69,258.73c3.69,0,6.33,4.26,9.27,6.6,4.21,3.37,9.93,4.18,15.33,4s10.75-1.21,16.13-1c6,.21,11.85-.07,17,3l0,0c.79.75,1.56,1.53,2.29,2.34-.32-6.83-3-13.41-6.69-19.14s-9-10.4-14-15.1a20.25,20.25,0,0,1-12,11.12,19,19,0,0,1-15.66-1.82C697.19,254,692.11,258.62,686.69,258.73ZM753,241.32l-.21,1.81c6.29,19.51-.19,43.3-8.86,61.88a118,118,0,0,0,.61-17.52h-.13c-.25,6.23-4,14.77-8.24,19.32,4.23-10.74,2.18-23.51-2.84-33.9,1,6.11-4.09,14.26-9.1,17.89l-.37.16a30.17,30.17,0,0,1,1.75,17.63c0,.21-.09.43-.14.64l.49.18c10.68,4.39,22.22,15.81,28.11,26.18l.11-.06c7.17,3.83,16.86,13.22,20.67,20.4,9.81,6.38,17.72,20.88,17.81,32.58,7.32,8,12.68,22.48,12.31,33.34,8.13,14.78,4.5,31.78-2.38,47.17,3.49,20.64-7.41,39.39-17.26,53.43,8.52-13.11,9.76-27.14,8.9-42.75h0a33,33,0,0,1-2.88,12.74,43,43,0,0,0-4-19.81l-.11.05c3.28,12.27,4.12,21.71-.68,33.76a41.92,41.92,0,0,0-8.43-26.18c7.68,12.28,6.53,26.8,2.46,40.7a89.57,89.57,0,0,0-6.4-22.59l-.15.06c.14,17.08-3.78,38,0,54.61,2.64,11.56,5.51,22.7,1.24,33.77a24.56,24.56,0,0,1-4.13,7.18,12.39,12.39,0,0,1-6.16,4.07c-3.26.86-6.56.09-9.64-1.42a32.72,32.72,0,0,1-6-3.92c-5.63-4.51-9.12-11.72-12.47-18.11-7.14-13.62-21-27-29.15-40-2.26,7.84-4.8,14-5.37,22.16,1.66,14.05,0,32.29-9.57,40a16.71,16.71,0,0,1-9.27,3.65,17.06,17.06,0,0,1-6.93-.83c-8.31-2.74-14.8-11.38-18.48-19.82-5-11.56-9-25.67-18.2-34.3a59.79,59.79,0,0,1-18.3-8.44,51.81,51.81,0,0,1-14.41-14.69c-8.37,4.15-22-2.31-29.09-8.36C566.21,505.2,557,489.8,562.93,471.9l.07,0a37.52,37.52,0,0,1-2.74-10.32c-.63-6.81,3.29-15,6.94-20.83h0c.15-4.64,1-10.08,1.2-13.34,0-.09-.09-.18-.12-.27a39.81,39.81,0,0,1-3.74-13.68c-1.15-12.05,2.69-25.57,14.14-34.58h0c.12-11.41,5.43-27.73,12.38-36.46a24.52,24.52,0,0,1,1.86-2.11l.41,0c-1.47-18.88,6.13-41.56,18.14-54.49l.08,0c-.68-2.12-1.24-4.19-1.68-6.12l.1-.07c-4-5.71-6.38-13.22-6-19.78a54.5,54.5,0,0,0-6.14,13.39c-1.52-7.07-.84-14.18,1-21.18.35,1.48.77,2.89,1.21,4.17a54.86,54.86,0,0,1,22-34.71l1.43-.12c8.5-10.27,17.76-21.05,30.53-24.92a56.36,56.36,0,0,0-8,14c5.38-4.1,10.8-8.23,16.91-11.12s13-4.48,19.68-3.22l.42.05a71.71,71.71,0,0,1,2.38-11.62c1-3.23,2.23-6.56,4.77-8.77l.21-.17s0,0,0,0h0c-4.69-11.16-15.8-14.88-27.91-14.64a44.06,44.06,0,0,0-13.87,2.64,57.12,57.12,0,0,0-6.16,2.61h0a73.94,73.94,0,0,0-13,8.34,43.53,43.53,0,0,1,6.25-8.05,42.13,42.13,0,0,1,3.41-3.14,45.55,45.55,0,0,1,24-10.36,47.24,47.24,0,0,1,38.16,13.89l.12,0a60.87,60.87,0,0,0-3.46-11.29c-3.23-7.56-8.8-14.48-16.44-17.52,10,1.52,18.68,8.49,23.93,17.17s7.41,18.89,8.08,29c.18-12.14-.94-24.55-5.79-35.69S694,127.52,682.38,124a64.66,64.66,0,0,1,23.51,9.77v0c-.72,0-1.47.07-2.24.15a47,47,0,0,1,12.94,10.22q-1.43-4.58-3.14-9.05A158.38,158.38,0,0,0,701.91,111c6.48,2.33,10.64,8.58,13.75,14.71a109.49,109.49,0,0,1,6,14.09,13.6,13.6,0,0,1,1.8,1.76c5.06,5.53,7.87,12.82,9.18,20.2.36,2,.61,4.1.78,6.16l.41,0c5.9-3.86,14.77-4.46,21-1.24s10.6,8.17,10.89,15.21l.08.06c-1.57,2.09-3.24,4.1-5,6l-.14,1.3a38.84,38.84,0,0,0-26.51,7.07l1,1.34c5.6-.76,11.24-1.51,16.88-1.17s11.33,1.84,15.86,5.22c6.1,4.54,9.37,11.85,12.39,18.83q3.53,8.12,7,16.24h0A75.91,75.91,0,0,1,753,241.32Z" transform="translate(-367.6 -110.71)"/><path class="cls-1" d="M794.32,230.71a37.46,37.46,0,0,1-3.82,13.43c-1.07-2.44-2.13-4.9-3.19-7.34q-3.51-8.13-7-16.24c-3-7-6.29-14.29-12.39-18.83-4.53-3.38-10.23-4.88-15.86-5.22s-11.28.41-16.88,1.17l-1-1.34a38.84,38.84,0,0,1,26.51-7.07,35.94,35.94,0,0,1,5.63,1,36.37,36.37,0,0,1,7.6,3c.53.27,1.06.57,1.58.87a38.54,38.54,0,0,1,15.77,17.33c.24.54.47,1.08.68,1.63A38.45,38.45,0,0,1,794.32,230.71Z" transform="translate(-367.6 -110.71)"/><path class="cls-1" d="M776.87,161.87c1.28,5.4,2.28,10.92,2,16.45S777.68,188.88,774,193l-.12.23a36.37,36.37,0,0,0-7.6-3,35.94,35.94,0,0,0-5.63-1l.14-1.3c1.75-1.93,3.42-3.94,5-6A82.87,82.87,0,0,0,776.87,161.87Z" transform="translate(-367.6 -110.71)"/><path class="cls-2" d="M773.33,632.3v.37H762.08v-.37c-2.3-8.31-4.4-27.33-6.71-35.65,3.08,1.51,6.38,2.28,9.64,1.42a12.39,12.39,0,0,0,6.16-4.07C771.17,603.73,773.33,622.57,773.33,632.3Z" transform="translate(-367.6 -110.71)"/><path class="cls-1" d="M766.15,269.63a79.66,79.66,0,0,1-6.81,15.1,34.8,34.8,0,0,0,1.68-26.6c-1.88-5.4-5.06-10.23-8.21-15l.21-1.81a71.49,71.49,0,0,0,17.14-.25l.05.44c5.13,12.48,5.4,29.29.41,41.82a36.49,36.49,0,0,0-4-13.56Z" transform="translate(-367.6 -110.71)"/><path class="cls-3" d="M744.42,271.29l0,0c-5.12-3.08-11-2.8-17-3-5.38-.19-10.74.84-16.13,1s-11.12-.63-15.33-4c-2.94-2.34-5.58-6.57-9.27-6.6,5.42-.11,10.5-4.75,11.75-10a19,19,0,0,0,15.66,1.82,20.25,20.25,0,0,0,12-11.12c5,4.7,10.23,9.36,14,15.1s6.37,12.31,6.69,19.14C746,272.82,745.21,272,744.42,271.29Z" transform="translate(-367.6 -110.71)"/><path class="cls-1" d="M713.45,135.14q1.71,4.47,3.14,9.05A47,47,0,0,0,703.65,134c.77-.08,1.52-.13,2.24-.15A20.4,20.4,0,0,1,713.45,135.14Z" transform="translate(-367.6 -110.71)"/><path class="cls-2" d="M693.62,632.54v.13h-8.38v-.13c-1.73-4.81-8.12-27.53-8.6-32.91a17.06,17.06,0,0,0,6.93.83,16.71,16.71,0,0,0,9.27-3.65l.06.06C692.9,605.57,693.62,623.84,693.62,632.54Z" transform="translate(-367.6 -110.71)"/><path class="cls-1" d="M654.09,196.39A58.29,58.29,0,0,1,672,180.82a47.79,47.79,0,0,1,5.43-2.55,40.66,40.66,0,0,1,8.3-2.31,37,37,0,0,1,4.81-.47l-.21.17c-2.54,2.21-3.82,5.54-4.77,8.77a71.71,71.71,0,0,0-2.38,11.62l-.42-.05c-6.64-1.26-13.57.33-19.68,3.22s-11.53,7-16.91,11.12A56.36,56.36,0,0,1,654.09,196.39Z" transform="translate(-367.6 -110.71)"/><path class="cls-1" d="M685.7,175.91V176a40.66,40.66,0,0,0-8.3,2.31l0,0c-9-5.74-19.54-10.55-30.11-11.8a30.65,30.65,0,0,0-4.69-.34,57.12,57.12,0,0,1,6.16-2.61c1.42.07,1,.07,2.43.19C663.58,164.7,676.59,167.43,685.7,175.91Z" transform="translate(-367.6 -110.71)"/><path class="cls-1" d="M671.93,180.75l0,.07a58.29,58.29,0,0,0-17.88,15.57c-12.77,3.87-22,14.65-30.53,24.92A45.63,45.63,0,0,1,636,193.87a43.16,43.16,0,0,1,3.18-3C648,183.24,660.26,179.92,671.93,180.75Z" transform="translate(-367.6 -110.71)"/><path class="cls-1" d="M648.43,180.15a75.85,75.85,0,0,1,23.5.6c-11.67-.83-23.92,2.49-32.8,10.1a43.16,43.16,0,0,0-3.18,3l-1.16-.19a58.9,58.9,0,0,0-24.62,32.86,26.17,26.17,0,0,1-1-7.82,32.7,32.7,0,0,1,3.5-13.89c3.32-6.68,8.57-12.25,14.45-16.84C632.62,183.69,640.35,181.21,648.43,180.15Z" transform="translate(-367.6 -110.71)"/><path class="cls-1" d="M639.25,163.23h0a42.13,42.13,0,0,0-3.41,3.14,38.47,38.47,0,0,0-19.08,6.86c-8.6,5.91-14.59,15.9-14.64,26.32a1.43,1.43,0,0,0-.15.18c-2.66-7.52-.58-16.27,4.33-22.56s12.62-10.48,20.55-12.38A52.32,52.32,0,0,1,639.25,163.23Z" transform="translate(-367.6 -110.71)"/><path class="cls-1" d="M598.9,252a33.84,33.84,0,0,1-1-7.67v-.05a54.75,54.75,0,0,1,2.87-15.11l.44-.07a37.23,37.23,0,0,0,1.6,5.9,166.25,166.25,0,0,1,5.51-16.26h.86a26.17,26.17,0,0,0,1,7.82,58.9,58.9,0,0,1,24.62-32.86l1.16.19a45.63,45.63,0,0,0-12.39,27.44l-1.43.12a54.86,54.86,0,0,0-22,34.71C599.67,254.86,599.25,253.45,598.9,252Z" transform="translate(-367.6 -110.71)"/><path class="cls-1" d="M648.43,180.15c-8.08,1.06-15.81,3.54-21.32,7.84-5.88,4.59-11.13,10.16-14.45,16.84a32.7,32.7,0,0,0-3.5,13.89h-.86A166.25,166.25,0,0,0,602.79,235a37.23,37.23,0,0,1-1.6-5.9,40.21,40.21,0,0,1-.14-15.14q.23-1,.54-2c3.95-12.18,12.86-19.87,22.16-24.64A69.74,69.74,0,0,1,648.43,180.15Z" transform="translate(-367.6 -110.71)"/><path class="cls-1" d="M623.68,187.15l.07.13c-9.3,4.77-18.21,12.46-22.16,24.64q-.32,1-.54,2l-1.06-.18-5,14.85c-.33,1-.64,1.92-1,2.88a44.27,44.27,0,0,1,5.3-28,24.81,24.81,0,0,1,2.65-3.77c0,.15.1.3.16.45,0-.22,0-.43,0-.63C607.38,193.48,615.46,189.59,623.68,187.15Z" transform="translate(-367.6 -110.71)"/><path class="cls-1" d="M515.31,206.51l.18-1.1A36.8,36.8,0,0,1,529,198.5l0,.09c6.58,1.27,13.57,6.85,16.2,13-2.1-.49-5.55-.63-7.68-1.1a47.09,47.09,0,0,1,24,26.76c-2.95-1.84-6.88-3.81-9.84-5.66l-.05,0a37.53,37.53,0,0,1,3.75,17.87c-2.94-5-8.77-7.26-14.44-8.44,6.27,2.25,10.88,8.35,13.89,14.28a3.09,3.09,0,0,1,.37,2.74c-.48.91-1.67,1.13-2.69,1.2a32.61,32.61,0,0,1-9.24-.68c2.74,1.09,6.28,5.93,7.82,8.31a25.62,25.62,0,0,1,3,7.9,12.38,12.38,0,0,1,.35,2.08h.08c4.55.79,11.17,3.32,14,7s4.6,8,6.38,12.22a117.82,117.82,0,0,0-15.45-10.24l0,.08c6.69,6.45,12.19,17.86,15.73,26.46-.73-.49-1.45-1-2.17-1.49v0a9.75,9.75,0,0,1,2.78,4.76,14.23,14.23,0,0,1-2,0v.1c1.23.63,2.32,3,2.8,4.3a15.5,15.5,0,0,1-1.77.5v0c5.87,5,12.91,14.79,16.25,21.73l.05.05c-7,8.73-12.26,25.05-12.38,36.46h0c-11.45,9-15.29,22.53-14.14,34.58a39.81,39.81,0,0,0,3.74,13.68c0,.09.08.18.12.27-.19,3.26-1,8.7-1.2,13.34h0c-3.65,5.79-7.57,14-6.94,20.83A37.52,37.52,0,0,0,563,471.87l-.07,0c-5.91,17.9,3.28,33.3,15.23,42.12,7.11,6.05,20.72,12.51,29.09,8.36a51.81,51.81,0,0,0,14.41,14.69l-.1.15c-1.57,10.1-3.89,23.18-5.46,33.29-.71,4.59-1.47,9.31-3.79,13.33a15.65,15.65,0,0,1-4.15,4.69,10.92,10.92,0,0,1-7.09,2.31,19.31,19.31,0,0,1-8.38-2.48,12.79,12.79,0,0,1-3.12-2.52c-5.35-6-8-14.69-9.69-22.57-.9-4.13-1.44-8.75-4.6-11.56-3-2.69-7.39-2.87-11.4-2.81-3.39.05-6.93.21-9.88,1.87-4.32,2.42-6.41,7.44-7.7,12.21s-2.1,9.81-4,14.45c-1.63,4-4.26,7.86-8,10.06a12.84,12.84,0,0,1-1.74.87c-4.17,1.75-8.83,1.15-12.92-.88a21.58,21.58,0,0,1-7.18-5.78c-4.74-5.91-4.18-15.73-6.95-22.78-3.77-9.6-9.29-20.29-11.75-30.3-3.13.51-7.76-.82-10.72-2l-.11,0c-.17.57-.35,1.13-.53,1.69-12.12-.39-21-10.5-25.6-21.73l.14-.16a13.83,13.83,0,0,1-1.34-1.2c-3.42-3.49-6.4-13.58-5.41-18.38l.14-.18a21.87,21.87,0,0,1-6-7.32c-2.51-4.95-1.64-14.12,0-19.43l.12,0c-2.71-8.64-2.3-20,1-27.38,4.1-5.26,8.49-15.56,10.05-22.17a48.41,48.41,0,0,1-.78-7.49c-2.4,6.18-5.25,12.66-7.05,16.21a31.9,31.9,0,0,1-1.43-7.56c-.76-10,1.87-22.06,5.41-30.15h.06a112.81,112.81,0,0,0,1,12.73c2.94-4.82,6.19-16.93,6.37-31L459,363c-.41,1.15-.83,2.28-1.25,3.42a28.67,28.67,0,0,1-1.83-10.17l-1.07-.2h0q-.48,2.64-.94,5.27c-.24-1.12-.46-2.26-.65-3.39a75.17,75.17,0,0,1-.57-21l-.44-.2c-1,2.08-1.83,4.21-2.6,6.37-1.81-5.24-1.63-11-.42-16.4a90.56,90.56,0,0,1,5.57-15.62,16.34,16.34,0,0,0-5.73,7c-2.2-5.5-.81-11.7.61-17.45l-4.79,4.79c.05-2.53-.06-6.13,0-8.67h0L443,299.42l-1.11-8.94a10.1,10.1,0,0,0-3.15,4.52,18,18,0,0,1-1.76-8.88l-3.25,4.15c-1.58-2.4-4.45-7.64-4.72-10.5l0,0a46.61,46.61,0,0,0-23.66,21.44,15.17,15.17,0,0,1-2.36-6.88h0c-4.24-3.19-7.42-10.67-6.41-15.88l0-.16a43.05,43.05,0,0,1-25.77-1.49,39.6,39.6,0,0,1,13.9-10.7c6.92-3.24,15.88-5.15,27.05-3.94l.16-1.4c-7.27-2.62-23.38-8.12-29.81-12.36a40.64,40.64,0,0,1-4.16-3.12,30.52,30.52,0,0,1-9.95-14.63,60.4,60.4,0,0,1,11.6,1.64l0-.14c-1.64-2-6.11-6.27-7.75-8.24a23.32,23.32,0,0,1,6.39-.68v-.06c-1.23-3.57-3.75-8.79-3.68-12.56a1.58,1.58,0,0,1,.5-1.37,1.56,1.56,0,0,1,1.13-.08,22.38,22.38,0,0,1,5.62,2.44l.26-.12a52.65,52.65,0,0,1-4.29-20.85,46.84,46.84,0,0,0,8.23,7.34c-4-9.06-1.94-22.71,4.58-30.13-.17,4.26,4,11.54,6.13,15.23a28,28,0,0,1,9.52-25.68c-1,8.07.37,17,2,25-1.26-6.67,1.1-13,2.44-19.67.77,5.13,4.14,11.41,6.7,15.93h0a28.39,28.39,0,0,1,3.07-11,54.37,54.37,0,0,0,3.45,12.4l.34-.13c2.59-12,13.91-28,25.44-32.29-7.18,5.65-10.25,15.15-12,24.14a43.55,43.55,0,0,1,3.84-5.35c.2,2.09.38,4.18.58,6.27q.74,8.08,1.48,16.17l1.79.53A52.07,52.07,0,0,1,473,169.13a21.9,21.9,0,0,1-1,3.73l.2,0c6.31-5.67,18.89-10.57,26.79-7.47l-10.58,10.75a21.93,21.93,0,0,1,27.95-3,26.49,26.49,0,0,0-12.63,6.36c9.16-3.15,19.55-.76,27.79,4.32s14.7,12.59,20.58,20.28c-5.07-3.72-13.33-6.06-19.61-6.4v0a35.59,35.59,0,0,1,5.55-.53c-5.17-4.56-17.44-9-24-6l0,.7a51.49,51.49,0,0,1,7.87,0,96.22,96.22,0,0,0-15.14,12.24l.07,1.87a47.82,47.82,0,0,1,5.74.11C513.49,206.24,514.4,206.35,515.31,206.51Zm-50.88,63.25a4.39,4.39,0,0,0,1.49-3,5.88,5.88,0,0,0-1.32-3.24,6.46,6.46,0,0,0-1.8-1.49,5.4,5.4,0,0,0-3.47-.73,3.58,3.58,0,0,1-1.46.28c-.75-.14-1.11-.95-1.45-1.63a10.36,10.36,0,0,0-8.19-5.53,9.13,9.13,0,0,0-4.56,4.34,10.1,10.1,0,0,0-.32,6.58,16.47,16.47,0,0,0-3.17,11.05,9.61,9.61,0,0,0,.94,3.64,6.15,6.15,0,0,0,2.89,2.63,10.43,10.43,0,0,1,.28-2.36l.27.06a26.57,26.57,0,0,0,11.14-4A41.37,41.37,0,0,0,464.43,269.76Z" transform="translate(-367.6 -110.71)"/><path class="cls-2" d="M608.16,588.53l0,0c-.31,12.66-2.74,30.76-4.48,43.39v.72h-6.94v-.57c-1.24-13.74-3.79-30.67-4.08-43.72v0a19.31,19.31,0,0,0,8.38,2.48A10.92,10.92,0,0,0,608.16,588.53Z" transform="translate(-367.6 -110.71)"/><path class="cls-1" d="M597.88,244.25v.05c0,.52,0,1,0,1.57-3.15-4.66-4.48-11.9-2.83-17.27h0l5-14.85,1.06.18a40.21,40.21,0,0,0,.14,15.14l-.44.07A54.75,54.75,0,0,0,597.88,244.25Z" transform="translate(-367.6 -110.71)"/><path class="cls-2" d="M535.75,632.51v.16h-8.61v-.49a305.2,305.2,0,0,1-7.46-44.61l0-.09c4.09,2,8.75,2.63,12.92.88a12.84,12.84,0,0,0,1.74-.87l.1.15C536.44,602.39,535.59,617.89,535.75,632.51Z" transform="translate(-367.6 -110.71)"/><path class="cls-1" d="M538,197.2a35.59,35.59,0,0,0-5.55.53,32.78,32.78,0,0,0-3.4.77,36.8,36.8,0,0,0-13.52,6.91l-.18,1.1c-.91-.16-1.82-.27-2.73-.34a47.82,47.82,0,0,0-5.74-.11l-.07-1.87A96.22,96.22,0,0,1,521.91,192a51.49,51.49,0,0,0-7.87,0l0-.7C520.52,188.16,532.79,192.64,538,197.2Z" transform="translate(-367.6 -110.71)"/><path class="cls-3" d="M444.29,280.27a10.43,10.43,0,0,0-.28,2.36,6.15,6.15,0,0,1-2.89-2.63,9.61,9.61,0,0,1-.94-3.64,16.47,16.47,0,0,1,3.17-11.05,10.1,10.1,0,0,1,.32-6.58,9.13,9.13,0,0,1,4.56-4.34,10.36,10.36,0,0,1,8.19,5.53c.34.68.7,1.49,1.45,1.63a3.58,3.58,0,0,0,1.46-.28,5.4,5.4,0,0,1,3.47.73,6.46,6.46,0,0,1,1.8,1.49,5.88,5.88,0,0,1,1.32,3.24,4.39,4.39,0,0,1-1.49,3,41.37,41.37,0,0,1-8.73,6.57,26.57,26.57,0,0,1-11.14,4Z" transform="translate(-367.6 -110.71)"/><path class="cls-1" d="M459,363l.16.06c-.18,14-3.43,26.13-6.37,31a112.81,112.81,0,0,1-1-12.73A117.83,117.83,0,0,1,453.23,358h0c.19,1.13.41,2.27.65,3.39q.47-2.62.94-5.27h0l1.07.2a28.67,28.67,0,0,0,1.83,10.17C458.15,365.31,458.57,364.18,459,363Z" transform="translate(-367.6 -110.71)"/><path class="cls-1" d="M467.81,154.46c-8.88,5.74-13.64,16.6-15.87,26.93l.07.08a51.27,51.27,0,0,0-6.62,7.79l-1.79-.53q-.74-8.08-1.48-16.17l.34,0C448.27,164.44,458.19,157,467.81,154.46Z" transform="translate(-367.6 -110.71)"/><path class="cls-1" d="M454.73,402.81a48.41,48.41,0,0,0,.78,7.49c-1.56,6.61-5.95,16.91-10.05,22.17-3.44-7.17,0-15.74.51-21l.28,0a31.9,31.9,0,0,0,1.43,7.56C449.48,415.47,452.33,409,454.73,402.81Z" transform="translate(-367.6 -110.71)"/><path class="cls-1" d="M380.55,255.27a18.81,18.81,0,0,1-10.83-3.61,19,19,0,0,1,8.09-6.37l.05,0a40.64,40.64,0,0,0,4.16,3.12c6.43,4.24,22.54,9.74,29.81,12.36l-.16,1.4c-11.17-1.21-20.13.7-27.05,3.94l0-.09c-4.55.29-10.84-1.74-14.19-4.84A40.78,40.78,0,0,1,380.55,255.27Z" transform="translate(-367.6 -110.71)"/><path class="cls-4" d="M611.51,285.76c-12,12.93-19.61,35.61-18.14,54.49a49.36,49.36,0,0,0,1.92,10.48C602,335.13,609.11,319,622,307.85" transform="translate(-367.6 -110.71)"/><path class="cls-4" d="M716.59,144.19q-1.43-4.58-3.14-9.05A158.38,158.38,0,0,0,701.91,111c6.48,2.33,10.64,8.58,13.75,14.71a109.49,109.49,0,0,1,6,14.09,111.18,111.18,0,0,1,5.91,41.74" transform="translate(-367.6 -110.71)"/><path class="cls-4" d="M723.6,181.54a160.46,160.46,0,0,0-7-37.35" transform="translate(-367.6 -110.71)"/><path class="cls-4" d="M726.37,159.11A44.6,44.6,0,0,1,730.72,181" transform="translate(-367.6 -110.71)"/><path class="cls-4" d="M703.65,134a47,47,0,0,1,12.94,10.22h0" transform="translate(-367.6 -110.71)"/><path class="cls-4" d="M721.61,139.82a13.6,13.6,0,0,1,1.8,1.76c5.06,5.53,7.87,12.82,9.18,20.2.36,2,.61,4.1.78,6.16.46,5.39.39,10.84.31,16.26" transform="translate(-367.6 -110.71)"/><path class="cls-4" d="M703.65,134c.77-.08,1.52-.13,2.24-.15a20.4,20.4,0,0,1,7.56,1.32h0" transform="translate(-367.6 -110.71)"/><path class="cls-4" d="M733.78,167.91c5.9-3.86,14.77-4.46,21-1.24s10.6,8.17,10.89,15.21" transform="translate(-367.6 -110.71)"/><path class="cls-4" d="M739.21,179.65a18.45,18.45,0,0,1,5.79-5.39,24.66,24.66,0,0,1,5.8-3.13,9.21,9.21,0,0,1,6.46,0,5.72,5.72,0,0,1,3.58,5.1,28.8,28.8,0,0,0-10.52,13.34c-.15.38-.3.78-.43,1.18" transform="translate(-367.6 -110.71)"/><path class="cls-4" d="M734.13,196.34a38.84,38.84,0,0,1,26.51-7.07,35.94,35.94,0,0,1,5.63,1,36.37,36.37,0,0,1,7.6,3c.53.27,1.06.57,1.58.87a38.54,38.54,0,0,1,15.77,17.33c.24.54.47,1.08.68,1.63a38.45,38.45,0,0,1,2.42,17.64,37.46,37.46,0,0,1-3.82,13.43c-1.07-2.44-2.13-4.9-3.19-7.34q-3.51-8.13-7-16.24c-3-7-6.29-14.29-12.39-18.83-4.53-3.38-10.23-4.88-15.86-5.22s-11.28.41-16.88,1.17" transform="translate(-367.6 -110.71)"/><path class="cls-4" d="M735.19,200.06a25.11,25.11,0,0,1,15,1.14c4.67,2,8.57,6.13,9.68,11.1s-.93,10.68-5.32,13.26a40.15,40.15,0,0,0,.53-10.93c-.48-3.63-2.09-7.26-5.06-9.41a13.06,13.06,0,0,0-8.15-2.17,28.68,28.68,0,0,0-8.34,1.89" transform="translate(-367.6 -110.71)"/><path class="cls-4" d="M690.52,175.48c2.56-2.07,6.56-2.66,9-.53" transform="translate(-367.6 -110.71)"/><path class="cls-4" d="M726.76,195.91a39.81,39.81,0,0,0-7.27-7.51,12.09,12.09,0,0,0-18.24,2.83,41.1,41.1,0,0,0-4.62,9.29L686.22,227a71.78,71.78,0,0,1-.69-42.55c1-3.23,2.23-6.56,4.77-8.77l.21-.17" transform="translate(-367.6 -110.71)"/><path class="cls-4" d="M693.21,192.1a9.69,9.69,0,0,1,12.66-9.26" transform="translate(-367.6 -110.71)"/><path class="cls-4" d="M703.65,179.42c-.6-4.24-1.21-8.49-2.11-12.67a60.87,60.87,0,0,0-3.46-11.29c-3.23-7.56-8.8-14.48-16.44-17.52,10,1.52,18.68,8.49,23.93,17.17s7.41,18.89,8.08,29c.18-12.14-.94-24.55-5.79-35.69S694,127.52,682.38,124a64.66,64.66,0,0,1,23.51,9.77" transform="translate(-367.6 -110.71)"/><path class="cls-4" d="M642.58,166.09a57.12,57.12,0,0,1,6.16-2.61,44.06,44.06,0,0,1,13.87-2.64c12.11-.24,23.22,3.48,27.91,14.64h0" transform="translate(-367.6 -110.71)"/><path class="cls-4" d="M701.42,166.77a47.24,47.24,0,0,0-38.16-13.89,45.55,45.55,0,0,0-24,10.36,42.13,42.13,0,0,0-3.41,3.14,43.53,43.53,0,0,0-6.25,8.05,73.94,73.94,0,0,1,13-8.34" transform="translate(-367.6 -110.71)"/><path class="cls-4" d="M676.16,158.47a37.8,37.8,0,0,1,23.07,14.16" transform="translate(-367.6 -110.71)"/><path class="cls-4" d="M648.73,163.48h0c1.42.07,1,.07,2.43.19,12.41,1,25.42,3.76,34.53,12.24" transform="translate(-367.6 -110.71)"/><path class="cls-4" d="M635.85,166.38a38.47,38.47,0,0,0-19.08,6.86c-8.6,5.91-14.59,15.9-14.64,26.32,0,.2,0,.41,0,.63-.06-.15-.11-.3-.16-.45-2.66-7.52-.58-16.27,4.33-22.56s12.62-10.48,20.55-12.38a52.32,52.32,0,0,1,12.39-1.57" transform="translate(-367.6 -110.71)"/><path class="cls-4" d="M677.38,178.23c-9-5.74-19.54-10.55-30.11-11.8a30.65,30.65,0,0,0-4.69-.34h0" transform="translate(-367.6 -110.71)"/><path class="cls-4" d="M690.52,175.49s0,0,0,0a37,37,0,0,0-4.81.47,40.66,40.66,0,0,0-8.3,2.31,47.79,47.79,0,0,0-5.43,2.55,58.29,58.29,0,0,0-17.88,15.57,56.36,56.36,0,0,0-8,14c5.38-4.1,10.8-8.23,16.91-11.12s13-4.48,19.68-3.22" transform="translate(-367.6 -110.71)"/><path class="cls-4" d="M634.79,193.68a58.9,58.9,0,0,0-24.62,32.86,26.17,26.17,0,0,1-1-7.82,32.7,32.7,0,0,1,3.5-13.89c3.32-6.68,8.57-12.25,14.45-16.84,5.51-4.3,13.24-6.78,21.32-7.84a75.85,75.85,0,0,1,23.5.6c-11.67-.83-23.92,2.49-32.8,10.1a43.16,43.16,0,0,0-3.18,3,45.63,45.63,0,0,0-12.39,27.44c8.5-10.27,17.76-21.05,30.53-24.92l0,0" transform="translate(-367.6 -110.71)"/><path class="cls-4" d="M608.3,218.71A166.25,166.25,0,0,0,602.79,235a37.23,37.23,0,0,1-1.6-5.9,40.21,40.21,0,0,1-.14-15.14q.23-1,.54-2c3.95-12.18,12.86-19.87,22.16-24.64a69.74,69.74,0,0,1,24.68-7.13c.13,0,.27,0,.41,0" transform="translate(-367.6 -110.71)"/><path class="cls-4" d="M623.68,187.15c-8.22,2.44-16.3,6.33-21.55,12.41a1.43,1.43,0,0,0-.15.18,24.81,24.81,0,0,0-2.65,3.77,44.27,44.27,0,0,0-5.3,28c.33-1,.64-1.92,1-2.88l5-14.85" transform="translate(-367.6 -110.71)"/><path class="cls-4" d="M597.88,244.25a54.75,54.75,0,0,1,2.87-15.11" transform="translate(-367.6 -110.71)"/><path class="cls-4" d="M595,228.6c-1.65,5.37-.32,12.61,2.83,17.27,0-.53,0-1.05,0-1.57" transform="translate(-367.6 -110.71)"/><path class="cls-4" d="M597.93,242.91c0,.43,0,.88,0,1.34v.05a33.84,33.84,0,0,0,1,7.67c.35,1.48.77,2.89,1.21,4.17a54.86,54.86,0,0,1,22-34.71" transform="translate(-367.6 -110.71)"/><path class="cls-4" d="M630.45,216.6c-.49,4.21-1,8.47-1.2,12.73-.37,7.17,0,14.31,2.29,21.07a58.88,58.88,0,0,1,19.53-42.08" transform="translate(-367.6 -110.71)"/><path class="cls-4" d="M621.25,224.7a32.29,32.29,0,0,0-1.79,27.9c2.21-8.18,4.55-16.62,9.79-23.27a1,1,0,0,1,.13-.16" transform="translate(-367.6 -110.71)"/><path class="cls-4" d="M615,247.26a54.71,54.71,0,0,0-17,25.89c-1.52-7.07-.84-14.18,1-21.18,0-.06,0-.12,0-.18" transform="translate(-367.6 -110.71)"/><path class="cls-4" d="M604.81,247.87a45.44,45.44,0,0,1,11.46-12.59" transform="translate(-367.6 -110.71)"/><path class="cls-4" d="M674.51,216.57a61.71,61.71,0,0,0-28.11,38.8,38.28,38.28,0,0,1,13-35.05" transform="translate(-367.6 -110.71)"/><path class="cls-4" d="M634.71,235.31A30.94,30.94,0,0,0,637,251.1a61,61,0,0,1,26-39.81" transform="translate(-367.6 -110.71)"/><path class="cls-4" d="M640.44,240.58q.09,6.13.16,12.25l5.7-11.73" transform="translate(-367.6 -110.71)"/><path class="cls-4" d="M648.29,250.39a39.09,39.09,0,0,1,35.46-15.82" transform="translate(-367.6 -110.71)"/><path class="cls-4" d="M695.08,208.12a37.84,37.84,0,0,1,23.26-2.38,35.63,35.63,0,0,0-16.84-9.65" transform="translate(-367.6 -110.71)"/><path class="cls-4" d="M730.53,215.54a33.71,33.71,0,0,0,16.46-8" transform="translate(-367.6 -110.71)"/><path class="cls-4" d="M738.27,231A103.72,103.72,0,0,1,754.16,214" transform="translate(-367.6 -110.71)"/><path class="cls-4" d="M760.78,188c1.75-1.93,3.42-3.94,5-6a82.87,82.87,0,0,0,11.1-20.07c1.28,5.4,2.28,10.92,2,16.45S777.68,188.88,774,193" transform="translate(-367.6 -110.71)"/><path class="cls-4" d="M792.14,213a52.15,52.15,0,0,0,6.29-4.25,53.09,53.09,0,0,0,6.49-6.05,4,4,0,0,0,1.17-2,4.09,4.09,0,0,0-1.24-2.92c-3.64-4.55-6.81-9.44-11-13.52a62.26,62.26,0,0,0-12.1,3.87c-2.38,1.08-5.49,3.25-6.2,5.76" transform="translate(-367.6 -110.71)"/><path class="cls-4" d="M798.62,209c10,.73,24.38,5.76,32.1,12.24a48.77,48.77,0,0,1,15.79,25.22,84.35,84.35,0,0,0-52.19-15.71h-.15" transform="translate(-367.6 -110.71)"/><path class="cls-4" d="M770.21,241.51c5.13,12.48,5.4,29.29.41,41.82a36.49,36.49,0,0,0-4-13.56" transform="translate(-367.6 -110.71)"/><path class="cls-4" d="M747.59,240.41a50.8,50.8,0,0,0,5.43.91,75.91,75.91,0,0,0,34.27-4.52" transform="translate(-367.6 -110.71)"/><path class="cls-4" d="M739.63,241c9.13-2,18.71-4.28,25.56-10.64" transform="translate(-367.6 -110.71)"/><path class="cls-4" d="M759.43,222.34a29.94,29.94,0,0,0,19.23-2.93" transform="translate(-367.6 -110.71)"/><path class="cls-4" d="M761.14,211.11a11.92,11.92,0,0,0,5.86-6.17" transform="translate(-367.6 -110.71)"/><path class="cls-4" d="M721.88,230.08a32.2,32.2,0,0,1,6.37-17" transform="translate(-367.6 -110.71)"/><path class="cls-4" d="M686.36,258.73h.33c5.42-.11,10.5-4.75,11.75-10a19,19,0,0,0,15.66,1.82,20.25,20.25,0,0,0,12-11.12c5,4.7,10.23,9.36,14,15.1s6.37,12.31,6.69,19.14c-.73-.81-1.5-1.59-2.29-2.34a44,44,0,0,0-33-11.79" transform="translate(-367.6 -110.71)"/><path class="cls-4" d="M744.39,271.32c-5.12-3.08-11-2.8-17-3-5.38-.19-10.74.84-16.13,1s-11.12-.63-15.33-4c-2.94-2.34-5.58-6.57-9.27-6.6" transform="translate(-367.6 -110.71)"/><path class="cls-4" d="M741.94,274.92a41.88,41.88,0,0,1,2.62,12.57A118,118,0,0,1,744,305c8.67-18.58,15.15-42.37,8.86-61.88,3.15,4.77,6.33,9.6,8.21,15a34.8,34.8,0,0,1-1.68,26.6,79.66,79.66,0,0,0,6.81-15.1,42.59,42.59,0,0,0,1.27-5c1.37-7.11.78-14.8-2.85-21.07" transform="translate(-367.6 -110.71)"/><path class="cls-4" d="M604.06,259.66s0,.07,0,.1c-.42,6.56,1.94,14.07,6,19.78a26.27,26.27,0,0,0,4.31,4.81A48.39,48.39,0,0,1,618.47,261" transform="translate(-367.6 -110.71)"/><path class="cls-4" d="M616.27,276.07A29.69,29.69,0,0,0,629,294.55a74.23,74.23,0,0,1-5-27.5" transform="translate(-367.6 -110.71)"/><path class="cls-4" d="M629.89,293.31a32.67,32.67,0,0,0,10.93,13.86l-1.63-3.48a70.25,70.25,0,0,1-3-7.09,36.07,36.07,0,0,1-1.87-14.39" transform="translate(-367.6 -110.71)"/><path class="cls-4" d="M627.09,257.12c-.7,4.7.71,9.52,3,13.66s5.55,7.7,8.74,11.22a50.24,50.24,0,0,1-.3-26.38" transform="translate(-367.6 -110.71)"/><path class="cls-4" d="M625,295.7a37.06,37.06,0,0,0,4,17l2.13-14.88" transform="translate(-367.6 -110.71)"/><path class="cls-4" d="M609.91,279.61c.44,1.93,1,4,1.68,6.12,2.24,7.1,5.75,14.76,10.22,19.67" transform="translate(-367.6 -110.71)"/><path class="cls-4" d="M634.89,310.13a11,11,0,0,1-4.31,7.94,32.63,32.63,0,0,1-8.15,4.43l-13.5,5.74" transform="translate(-367.6 -110.71)"/><path class="cls-4" d="M645.58,315c3.44,8,9.12,14.82,14.71,21.5a35.43,35.43,0,0,0,3.41-18.13" transform="translate(-367.6 -110.71)"/><path class="cls-4" d="M665.39,329.38c1.5,4.06,3,8.11,4.5,12.17a37.23,37.23,0,0,0,6.25-21.47" transform="translate(-367.6 -110.71)"/><path class="cls-4" d="M677.68,326a22.38,22.38,0,0,0,3.53,14.41,40.25,40.25,0,0,0,4.52-26" transform="translate(-367.6 -110.71)"/><path class="cls-4" d="M695.36,311.7a24.14,24.14,0,0,1-2,24.18,79,79,0,0,0-4.66-12.41" transform="translate(-367.6 -110.71)"/><path class="cls-4" d="M715.05,297c3.23,12.43-1.14,30.8-17,36.94,4-3.29,6.21-8.28,7.16-13.33s.73-10.25.5-15.4" transform="translate(-367.6 -110.71)"/><path class="cls-4" d="M722.72,288.54c.42.8.81,1.61,1.16,2.43a30.17,30.17,0,0,1,1.75,17.63c0,.21-.09.43-.14.64-1.64,6.69-7.7,15.51-14.87,18.51" transform="translate(-367.6 -110.71)"/><path class="cls-4" d="M593,340.28a24.52,24.52,0,0,0-1.86,2.11c-7,8.73-12.26,25.05-12.38,36.46a31.83,31.83,0,0,0,.13,3.45,256.59,256.59,0,0,0,26.58-36.82" transform="translate(-367.6 -110.71)"/><path class="cls-4" d="M586.52,377.88a43.1,43.1,0,0,0,3.75,11.33,173.42,173.42,0,0,1,19.84-36.75" transform="translate(-367.6 -110.71)"/><path class="cls-4" d="M594.42,383.82c.63,2.56,1.27,5.13,1.9,7.69a80.63,80.63,0,0,0,16.85-35.26" transform="translate(-367.6 -110.71)"/><path class="cls-4" d="M626.12,333.27a40.78,40.78,0,0,1-11.46,37.17" transform="translate(-367.6 -110.71)"/><path class="cls-4" d="M611.06,349.3c-.37-4.34,1.54-8.63,4.3-12s6.31-6,9.83-8.57" transform="translate(-367.6 -110.71)"/><path class="cls-4" d="M635.1,323.08a54.39,54.39,0,0,1,1.08,51.49" transform="translate(-367.6 -110.71)"/><path class="cls-4" d="M625.7,362.08a21.37,21.37,0,0,0,7.61,13.78" transform="translate(-367.6 -110.71)"/><path class="cls-4" d="M642.79,338.91a33.53,33.53,0,0,0,14,14.6,28.75,28.75,0,0,0,.39-15.74" transform="translate(-367.6 -110.71)"/><path class="cls-4" d="M687,339.89c3.21,9.16,2.17,19.33-1.05,28.47-10-3.82-18.83-13-21.1-23.45" transform="translate(-367.6 -110.71)"/><path class="cls-4" d="M710.23,331a55.38,55.38,0,0,1-4.43,27.48c-6.7-3.61-12.07-9-14.46-16.27" transform="translate(-367.6 -110.71)"/><path class="cls-4" d="M672.75,364.49c.4,4.32.8,8.71-.07,13a14.49,14.49,0,0,1-7.21,10.07,40.78,40.78,0,0,1-9.88-29" transform="translate(-367.6 -110.71)"/><path class="cls-4" d="M654.49,364.51c.47,4.42-1.71,8.86-5,11.79a12.56,12.56,0,0,1-7.39-9.32" transform="translate(-367.6 -110.71)"/><path class="cls-4" d="M646.81,383.88c-1.59,9.07-8.4,15.8-16.8,19.57-1.12-7.75-.79-17.14,1.92-24.49" transform="translate(-367.6 -110.71)"/><path class="cls-4" d="M629,375.21a28.36,28.36,0,0,1-10.58,18.07,63.89,63.89,0,0,1-.89-21.68" transform="translate(-367.6 -110.71)"/><path class="cls-4" d="M616.79,393.16a13.43,13.43,0,0,1-6.71,7.56c-4.23-3.73-6.43-10.15-6.34-15.79" transform="translate(-367.6 -110.71)"/><path class="cls-4" d="M627.94,405.64a16.11,16.11,0,0,1-6.68,11.58A19.46,19.46,0,0,1,616.52,400" transform="translate(-367.6 -110.71)"/><path class="cls-4" d="M726,309.42c10.68,4.39,22.22,15.81,28.11,26.18.28.51.56,1,.82,1.51" transform="translate(-367.6 -110.71)"/><path class="cls-4" d="M726.72,321.91a105.3,105.3,0,0,0,28.19,15.2" transform="translate(-367.6 -110.71)"/><path class="cls-4" d="M754.2,335.54c7.17,3.83,16.86,13.22,20.67,20.4-9.13-4.91-21-12.66-28.82-19.43" transform="translate(-367.6 -110.71)"/><path class="cls-4" d="M774.87,355.94c9.81,6.38,17.72,20.88,17.81,32.58" transform="translate(-367.6 -110.71)"/><path class="cls-4" d="M772.13,361.23c1,10.77,11.27,21.71,20.55,27.29" transform="translate(-367.6 -110.71)"/><path class="cls-4" d="M785.75,392.53c3.66,11,11,22.55,19.24,29.33" transform="translate(-367.6 -110.71)"/><path class="cls-4" d="M792.68,388.52c7.32,8,12.68,22.48,12.31,33.34" transform="translate(-367.6 -110.71)"/><path class="cls-4" d="M739.93,336.71c13.86,9.57,22.38,23.23,27,39.45-14.16-12.44-28.15-28.08-37.56-44.41" transform="translate(-367.6 -110.71)"/><path class="cls-4" d="M763.08,352.31a54.32,54.32,0,0,1,9.26,25" transform="translate(-367.6 -110.71)"/><path class="cls-4" d="M733.6,346.63C742,357.72,746,370.49,746.43,384.4a349.67,349.67,0,0,1-25-48.24" transform="translate(-367.6 -110.71)"/><path class="cls-4" d="M751.08,365.43a68.62,68.62,0,0,1,4.54,18.2,55.87,55.87,0,0,1-8.71-13.31" transform="translate(-367.6 -110.71)"/><path class="cls-4" d="M728.57,357.4a90,90,0,0,1-.77,24,150.63,150.63,0,0,1-14.38-35.73" transform="translate(-367.6 -110.71)"/><path class="cls-4" d="M722.53,375.23c0,4-2.29,8.84-5.91,10.63A34.41,34.41,0,0,1,701.72,363" transform="translate(-367.6 -110.71)"/><path class="cls-4" d="M703.74,375.31a12.78,12.78,0,0,1-4.45,6.16A30.57,30.57,0,0,1,687.77,371" transform="translate(-367.6 -110.71)"/><path class="cls-4" d="M693.07,383.27A22,22,0,0,1,689.22,397a31.76,31.76,0,0,1-12-17.92" transform="translate(-367.6 -110.71)"/><path class="cls-4" d="M707.12,389a48,48,0,0,1-4.54,15.88A22.82,22.82,0,0,1,692.51,397" transform="translate(-367.6 -110.71)"/><path class="cls-4" d="M725.37,384.68c4.94,7.13,5.71,17.28,3.31,25.61-7.69-2.5-15.17-7.13-19.24-14.11" transform="translate(-367.6 -110.71)"/><path class="cls-4" d="M733.52,396.15a21.41,21.41,0,0,0,7.64-14.85" transform="translate(-367.6 -110.71)"/><path class="cls-4" d="M748.44,390.31a45.91,45.91,0,0,1,.45,22.43c-6.1-2.47-11.21-8.47-14.66-14.07" transform="translate(-367.6 -110.71)"/><path class="cls-4" d="M763.94,383.43a46.38,46.38,0,0,1,2.9,22.78,19.81,19.81,0,0,1-14.59-7.09" transform="translate(-367.6 -110.71)"/><path class="cls-4" d="M770.11,404.17c1.72.9,4.28,1.68,6,2.59,1.85-7.84,1.6-16.46-2.15-23.59" transform="translate(-367.6 -110.71)"/><path class="cls-4" d="M787.14,405.05a34.8,34.8,0,0,1,3.27,17.24,25.32,25.32,0,0,1-14-11.07" transform="translate(-367.6 -110.71)"/><path class="cls-4" d="M773.77,411.63A18.07,18.07,0,0,1,777.05,426a17.33,17.33,0,0,1-8.37,11.78c-2.22-1.63-3.35-4.24-4.39-6.8s-1.71-5.23-2.69-7.81A35.07,35.07,0,0,0,754.69,412" transform="translate(-367.6 -110.71)"/><path class="cls-4" d="M763.78,437.4a16.12,16.12,0,0,1-3.25,12.24,38.75,38.75,0,0,1-15.28-29.13" transform="translate(-367.6 -110.71)"/><path class="cls-4" d="M742.18,417.55a18.7,18.7,0,0,1-3.73,15.51,27.2,27.2,0,0,1-13.31-18.82" transform="translate(-367.6 -110.71)"/><path class="cls-4" d="M695.14,403.63a21.57,21.57,0,0,1-3.54,15.47,50.18,50.18,0,0,1-12-17.37" transform="translate(-367.6 -110.71)"/><path class="cls-4" d="M711.15,405.55c1.08,5.4-.35,10.36-3.36,15a27.58,27.58,0,0,1-9-12" transform="translate(-367.6 -110.71)"/><path class="cls-4" d="M723.2,413.43A24.48,24.48,0,0,1,720.46,428a13.14,13.14,0,0,1-8.68-8.2" transform="translate(-367.6 -110.71)"/><path class="cls-4" d="M672,392.74c1.38,8.91-2.93,18.18-10.3,23.36-2.86-1.25-4.47-4.77-5.13-7.82-1.45-6.77-.78-13.81-.09-20.7" transform="translate(-367.6 -110.71)"/><path class="cls-4" d="M654.56,398.72a11.68,11.68,0,0,1-6.75,10.8c-3-3-4.13-7.94-4.17-12.16" transform="translate(-367.6 -110.71)"/><path class="cls-4" d="M654.22,411.33c-4.33,6.76-14.41,13.2-21.66,16.65A37.31,37.31,0,0,1,630,407.19" transform="translate(-367.6 -110.71)"/><path class="cls-4" d="M636.5,427.93c-.4,3.38,2.32,8.82,5,11.32A32.62,32.62,0,0,0,657,418.1" transform="translate(-367.6 -110.71)"/><path class="cls-4" d="M683.09,417.78c.22,8.16-4.32,16.14-10.73,21.2a23.7,23.7,0,0,1-13.5-20.38" transform="translate(-367.6 -110.71)"/><path class="cls-4" d="M702.69,426.76a30.15,30.15,0,0,1-13,26.71,29.67,29.67,0,0,1-10.75-15.2" transform="translate(-367.6 -110.71)"/><path class="cls-4" d="M674,443.14a31.69,31.69,0,0,1-8.69,18,29.18,29.18,0,0,1-11.94-24.07" transform="translate(-367.6 -110.71)"/><path class="cls-4" d="M724.25,290.81c5-3.63,10.06-11.78,9.1-17.89,5,10.39,7.07,23.16,2.84,33.9,4.27-4.55,8-13.09,8.24-19.32" transform="translate(-367.6 -110.71)"/><path class="cls-4" d="M568.29,427.16v-.05c-.42-9.83,2.6-22.11,6-31.33" transform="translate(-367.6 -110.71)"/><path class="cls-4" d="M591,395.46c1,13.41-3.69,28.12-11.21,39.26" transform="translate(-367.6 -110.71)"/><path class="cls-4" d="M590.61,418.58c.67,4.68,5.18,11.11,9.26,13.52,6.37-6.61,12-17.44,12.71-26.58" transform="translate(-367.6 -110.71)"/><path class="cls-4" d="M606,396.06a18.46,18.46,0,0,1-12.61,16.19" transform="translate(-367.6 -110.71)"/><path class="cls-4" d="M569.45,421.25c2,6.12,8.91,18.7,15.2,19.64" transform="translate(-367.6 -110.71)"/><path class="cls-4" d="M581.74,442.27c1.59,6.1-1.1,13.05-5.7,17.35-4.28-2.39-7-8.19-8.35-12.89a20.56,20.56,0,0,1-.48-6c.15-4.64,1-10.08,1.2-13.34,0-.09-.09-.18-.12-.27a39.81,39.81,0,0,1-3.74-13.68c-1.15-12.05,2.69-25.57,14.14-34.58" transform="translate(-367.6 -110.71)"/><path class="cls-4" d="M586.1,457.94c-.65,9.27-8.44,20.32-16.46,25a38.64,38.64,0,0,1-6.64-11.1,37.52,37.52,0,0,1-2.74-10.32c-.63-6.81,3.29-15,6.94-20.83" transform="translate(-367.6 -110.71)"/><path class="cls-4" d="M578.4,478.35c-.66,3.15.23,9.58,2.48,11.88,10.16-2.31,20.34-13.7,21.55-24.05" transform="translate(-367.6 -110.71)"/><path class="cls-4" d="M595.22,482.78A15.5,15.5,0,0,0,598,492c8.16-2.05,14-12.45,17.1-19.53" transform="translate(-367.6 -110.71)"/><path class="cls-4" d="M590.71,430.12c-1.44,10.87.39,21.56,4.12,31.86,9.92-7.22,16.36-20.24,15.51-32.48" transform="translate(-367.6 -110.71)"/><path class="cls-4" d="M607.78,457.43a37.4,37.4,0,0,0,24.11-24.1" transform="translate(-367.6 -110.71)"/><path class="cls-4" d="M613.4,434.81a23,23,0,0,1,4-17.79" transform="translate(-367.6 -110.71)"/><path class="cls-4" d="M622.11,453.77c-.26,5.91-4.71,16.41-12.71,18.36a25.19,25.19,0,0,1-.13-13.67" transform="translate(-367.6 -110.71)"/><path class="cls-4" d="M619.05,474.78A30.79,30.79,0,0,0,635.63,455" transform="translate(-367.6 -110.71)"/><path class="cls-4" d="M626,454.79a28.42,28.42,0,0,0,18.73-14.58" transform="translate(-367.6 -110.71)"/><path class="cls-4" d="M610,485.44c-.47,3.05,1.7,8.34,4.28,10,6.29-1.71,14.38-7.88,16-14.19" transform="translate(-367.6 -110.71)"/><path class="cls-4" d="M630.84,470.67a9.55,9.55,0,0,0,1.92,8.62c6.93-1.84,12.36-8.61,14.52-14.47" transform="translate(-367.6 -110.71)"/><path class="cls-4" d="M640.87,450.53c-.92,3.87.16,10.19,3.73,12,4.46-1,9-6.38,9.53-10.19" transform="translate(-367.6 -110.71)"/><path class="cls-4" d="M629.57,495.58a23.27,23.27,0,0,0,22.9-17.5" transform="translate(-367.6 -110.71)"/><path class="cls-4" d="M681.63,452A85.72,85.72,0,0,1,683,466.3c-.08,4.79-2.4,9.91-4.8,14.06-6.38-2.87-12.41-9-13.2-15.92" transform="translate(-367.6 -110.71)"/><path class="cls-4" d="M671.5,480.44a15.61,15.61,0,0,1-6,15.75c-4.94-4.73-8.77-13.71-8.11-20.52" transform="translate(-367.6 -110.71)"/><path class="cls-4" d="M574.11,486.62a66.27,66.27,0,0,0,.06,13.94c.66,4.61.74,10.13,4,13.46C566.21,505.2,557,489.8,562.93,471.9" transform="translate(-367.6 -110.71)"/><path class="cls-4" d="M596.5,494.34a43.66,43.66,0,0,0-.47,11c.47,3.65,2,7.32,4.87,9.62-7.16-.65-18.76-5.81-23.27-11.41" transform="translate(-367.6 -110.71)"/><path class="cls-4" d="M618.06,498.22c.32,4.6-.29,9.76-.59,14.36a47.25,47.25,0,0,1-16.91-12.68" transform="translate(-367.6 -110.71)"/><path class="cls-4" d="M639.61,497.67c1.42,4.69-.71,11.12-3.1,15.4a26,26,0,0,1-16-12.36" transform="translate(-367.6 -110.71)"/><path class="cls-4" d="M662.28,498.14c2.46,6,1.83,13.11-.34,19.18-8.29-2.48-15.84-9.26-18-17.65" transform="translate(-367.6 -110.71)"/><path class="cls-4" d="M596.05,516.17a14.6,14.6,0,0,0,9,2.7" transform="translate(-367.6 -110.71)"/><path class="cls-4" d="M578.16,514c7.11,6.05,20.72,12.51,29.09,8.36a51.81,51.81,0,0,0,14.41,14.69,59.79,59.79,0,0,0,18.3,8.44" transform="translate(-367.6 -110.71)"/><path class="cls-4" d="M618.19,524.57c4,8.63,13.35,16.57,21.77,20.94" transform="translate(-367.6 -110.71)"/><path class="cls-4" d="M628.33,524.1c1.44,7.57,5.94,16.21,11.63,21.41" transform="translate(-367.6 -110.71)"/><path class="cls-4" d="M608.64,515.78c4.36,3.73,10.32,7.4,16,3.33" transform="translate(-367.6 -110.71)"/><path class="cls-4" d="M625.84,520.85c4,.37,9.2-.2,11.07-4.78" transform="translate(-367.6 -110.71)"/><path class="cls-4" d="M638.59,517.13c3.68,4.7,9.81,8.27,15.26,10.7,3.23-1.61,7.26-4.37,9.12-7.46" transform="translate(-367.6 -110.71)"/><path class="cls-4" d="M795.61,422.3c5.6,14.59,8.81,31.21,7,46.73,6.88-15.39,10.51-32.39,2.38-47.17" transform="translate(-367.6 -110.71)"/><path class="cls-4" d="M794.25,479.71c.86,15.61-.38,29.64-8.9,42.75,9.85-14,20.75-32.79,17.26-53.43" transform="translate(-367.6 -110.71)"/><path class="cls-4" d="M767.39,485.6A89.58,89.58,0,0,1,780.58,521c4.07-13.9,5.22-28.42-2.46-40.7a41.92,41.92,0,0,1,8.43,26.18c4.8-12.05,4-21.49.68-33.76" transform="translate(-367.6 -110.71)"/><path class="cls-4" d="M782.17,463.51a55.33,55.33,0,0,1,5.17,9.13,43,43,0,0,1,4,19.81,33,33,0,0,0,2.88-12.74,21.92,21.92,0,0,0-.61-6.12c-1.48-5.47-4.35-10.46-7.48-15.17" transform="translate(-367.6 -110.71)"/><path class="cls-4" d="M796.89,441.06a58.28,58.28,0,0,1-2.2,20.37,29.49,29.49,0,0,1-9-14.84" transform="translate(-367.6 -110.71)"/><path class="cls-4" d="M792.25,424.66a40.73,40.73,0,0,1-1.9,18.13A21.62,21.62,0,0,1,781,429" transform="translate(-367.6 -110.71)"/><path class="cls-4" d="M768.28,441c.41,5.57,4.39,10.14,8.16,14.26" transform="translate(-367.6 -110.71)"/><path class="cls-4" d="M780.9,435.87a44.66,44.66,0,0,1,.06,10.27,14.91,14.91,0,0,1-4.47,9" transform="translate(-367.6 -110.71)"/><path class="cls-4" d="M748.76,453.69a62.07,62.07,0,0,0,15.42,16,21.16,21.16,0,0,0,6.76-18" transform="translate(-367.6 -110.71)"/><path class="cls-4" d="M754.13,470.62c4.47,4.65,12.77,6.73,19.21,6.31,3-5.16,6.1-11.79,5.45-17.74" transform="translate(-367.6 -110.71)"/><path class="cls-4" d="M745.4,481.67a15.31,15.31,0,0,0,16.85-3.62" transform="translate(-367.6 -110.71)"/><path class="cls-4" d="M755.67,485.74a43.12,43.12,0,0,0,16.2,13.2" transform="translate(-367.6 -110.71)"/><path class="cls-4" d="M743.12,439.61a16.77,16.77,0,0,1-7.64,14.93,19.42,19.42,0,0,1-11.13-12.9" transform="translate(-367.6 -110.71)"/><path class="cls-4" d="M696.36,455.62c2.86,4.53,8.57,7.09,13.87,7.86,2.65-5,4.83-11.3,4.74-17" transform="translate(-367.6 -110.71)"/><path class="cls-4" d="M689.29,472.13c5.29,4.78,13,8.71,19.28,12,2.85-5.09,6.55-10.86,7.45-16.61" transform="translate(-367.6 -110.71)"/><path class="cls-4" d="M721,469.53c4,6.06,11.53,9.5,18.54,11.41,4.19-3.76,7.67-10.69,7.07-16.29" transform="translate(-367.6 -110.71)"/><path class="cls-4" d="M681.29,489.63c4.77,5,11.57,9,17.25,12.91,7.54-2.29,15.22-9.05,17.28-16.65" transform="translate(-367.6 -110.71)"/><path class="cls-4" d="M721.51,493.44c4.35,5,11,9.08,16.76,12.41,4.47-4.31,8.48-10.8,8.25-17" transform="translate(-367.6 -110.71)"/><path class="cls-4" d="M714.61,509.56c2.77,3.28,7.46,6.2,11,8.62.36-3.56,2.19-7.09,2.56-10.64" transform="translate(-367.6 -110.71)"/><path class="cls-4" d="M732.86,511.72c3.11,3.47,8.27,5.81,12.64,7.42,1.14-5.85,3.47-12.06,4.61-17.92" transform="translate(-367.6 -110.71)"/><path class="cls-4" d="M691.06,506.67c.38,5.37-2.11,10.58-6,14.33a31.25,31.25,0,0,1-15.61-14.49" transform="translate(-367.6 -110.71)"/><path class="cls-4" d="M640,545.51c9.19,8.63,13.15,22.74,18.2,34.3,3.68,8.44,10.17,17.08,18.48,19.82a17.06,17.06,0,0,0,6.93.83,16.71,16.71,0,0,0,9.27-3.65c9.6-7.73,11.23-26,9.57-40,.57-8.14,3.11-14.32,5.37-22.16,8.17,13,22,26.37,29.15,40,3.35,6.39,6.84,13.6,12.47,18.11a32.72,32.72,0,0,0,6,3.92c3.08,1.51,6.38,2.28,9.64,1.42a12.39,12.39,0,0,0,6.16-4.07,24.56,24.56,0,0,0,4.13-7.18c4.27-11.07,1.4-22.21-1.24-33.77-3.81-16.65.11-37.53,0-54.61" transform="translate(-367.6 -110.71)"/><path class="cls-4" d="M676.62,599.51s0,.08,0,.12c.48,5.38,6.87,28.1,8.6,32.91" transform="translate(-367.6 -110.71)"/><path class="cls-4" d="M692.9,596.87c0,8.7.72,27,.72,35.67" transform="translate(-367.6 -110.71)"/><path class="cls-4" d="M755.37,596.64h0c2.31,8.32,4.41,27.34,6.71,35.65" transform="translate(-367.6 -110.71)"/><path class="cls-4" d="M771.17,594c0,9.73,2.16,28.57,2.16,38.3" transform="translate(-367.6 -110.71)"/><path class="cls-4" d="M444.56,280.33a26.57,26.57,0,0,0,11.14-4,41.37,41.37,0,0,0,8.73-6.57,4.39,4.39,0,0,0,1.49-3,5.88,5.88,0,0,0-1.32-3.24,6.46,6.46,0,0,0-1.8-1.49,5.4,5.4,0,0,0-3.47-.73,3.58,3.58,0,0,1-1.46.28c-.75-.14-1.11-.95-1.45-1.63a10.36,10.36,0,0,0-8.19-5.53,9.13,9.13,0,0,0-4.56,4.34,10.1,10.1,0,0,0-.32,6.58,16.47,16.47,0,0,0-3.17,11.05,9.61,9.61,0,0,0,.94,3.64,6.15,6.15,0,0,0,2.89,2.63,10.43,10.43,0,0,1,.28-2.36,13.05,13.05,0,0,1,4.8-7.33" transform="translate(-367.6 -110.71)"/><path class="cls-4" d="M444.56,221.51a25.85,25.85,0,0,1,25.18-16.12,69.64,69.64,0,0,0-6.64,46" transform="translate(-367.6 -110.71)"/><path class="cls-4" d="M469.19,221.29a55.4,55.4,0,0,1,39.68-6.55,65.83,65.83,0,0,0-23.48,31" transform="translate(-367.6 -110.71)"/><path class="cls-4" d="M469.87,253.73a90,90,0,0,0,12.59-26.31,25.86,25.86,0,0,0-17.46,8.5" transform="translate(-367.6 -110.71)"/><path class="cls-4" d="M485.58,260.45a49.22,49.22,0,0,0,36.11-21,41.25,41.25,0,0,0-31.6.06" transform="translate(-367.6 -110.71)"/><path class="cls-4" d="M506.69,264.57a37.23,37.23,0,0,0,36.76-17.67,33,33,0,0,0-23-3.15" transform="translate(-367.6 -110.71)"/><path class="cls-4" d="M523.19,240.67a29,29,0,0,0,25.39-10.87,38.34,38.34,0,0,0-31.37-2.59" transform="translate(-367.6 -110.71)"/><path class="cls-4" d="M499.19,233.61a27.14,27.14,0,0,0,16-14.16" transform="translate(-367.6 -110.71)"/><path class="cls-4" d="M495.19,207.32a117.14,117.14,0,0,1,11.65-1.26,47.82,47.82,0,0,1,5.74.11c.91.07,1.82.18,2.73.34a24.59,24.59,0,0,1,13.13,6.12" transform="translate(-367.6 -110.71)"/><path class="cls-4" d="M508.13,218.25a47.73,47.73,0,0,0,10.82-.1,16.13,16.13,0,0,0,9.54-4.73" transform="translate(-367.6 -110.71)"/><path class="cls-4" d="M537.92,256.92a32.45,32.45,0,0,0,14.63,2.37c1-.07,2.21-.29,2.69-1.2a3.09,3.09,0,0,0-.37-2.74c-3-5.93-7.62-12-13.89-14.28,5.67,1.18,11.5,3.45,14.44,8.44a37.53,37.53,0,0,0-3.75-17.87A34.85,34.85,0,0,0,549,227a37.46,37.46,0,0,0-18.62-14.22" transform="translate(-367.6 -110.71)"/><path class="cls-4" d="M526.54,218.38a10.78,10.78,0,0,1,8.45,4.71" transform="translate(-367.6 -110.71)"/><path class="cls-4" d="M524.83,206.53a44.47,44.47,0,0,1,12.73,4,47.09,47.09,0,0,1,24,26.76c-2.95-1.84-6.88-3.81-9.84-5.66" transform="translate(-367.6 -110.71)"/><path class="cls-4" d="M529,198.59c6.58,1.27,13.57,6.85,16.2,13-2.1-.49-5.55-.63-7.68-1.1l-.11,0" transform="translate(-367.6 -110.71)"/><path class="cls-4" d="M532.42,197.76c6.28.34,14.54,2.68,19.61,6.4-5.88-7.69-12.32-15.2-20.58-20.28s-18.63-7.47-27.79-4.32a26.49,26.49,0,0,1,12.63-6.36,21.93,21.93,0,0,0-27.95,3l10.58-10.75c-7.9-3.1-20.48,1.8-26.79,7.47" transform="translate(-367.6 -110.71)"/><path class="cls-4" d="M468.2,202.08c5.24-2.66,10.54-5.35,16.24-6.78s11.93-1.5,17.27.95a76.65,76.65,0,0,0-19.21,18.64" transform="translate(-367.6 -110.71)"/><path class="cls-4" d="M497.87,194.19A128.37,128.37,0,0,1,514,191.93a51.49,51.49,0,0,1,7.87,0,96.22,96.22,0,0,0-15.14,12.24" transform="translate(-367.6 -110.71)"/><path class="cls-4" d="M515.49,205.41A36.8,36.8,0,0,1,529,198.5a32.78,32.78,0,0,1,3.4-.77,35.59,35.59,0,0,1,5.55-.53c-5.17-4.56-17.44-9-24-6" transform="translate(-367.6 -110.71)"/><path class="cls-4" d="M486.17,193.7c5.12-2.25,11.56-8.48,15.27-12.69" transform="translate(-367.6 -110.71)"/><path class="cls-4" d="M477,196.5a40.15,40.15,0,0,0,14.72-17.14A27.88,27.88,0,0,0,466,190.1" transform="translate(-367.6 -110.71)"/><path class="cls-4" d="M463.7,183.67a23,23,0,0,0,8.23-10.81,21.9,21.9,0,0,0,1-3.73,52.07,52.07,0,0,0-27.56,20.13,48.81,48.81,0,0,0-4,6.93" transform="translate(-367.6 -110.71)"/><path class="cls-4" d="M440.14,218.48a35.59,35.59,0,0,1,16.31-33.26,3.1,3.1,0,0,1,1.73-.61c1.09.06,1.79,1.16,2.22,2.17a20.36,20.36,0,0,1-1.23,18.2" transform="translate(-367.6 -110.71)"/><path class="cls-4" d="M424.24,179.79c2.59-12,13.91-28,25.44-32.29-7.18,5.65-10.25,15.15-12,24.14,0,.09,0,.18-.05.27" transform="translate(-367.6 -110.71)"/><path class="cls-4" d="M442.46,172.52c5.81-8.08,15.73-15.5,25.35-18.06-8.88,5.74-13.64,16.6-15.87,26.93" transform="translate(-367.6 -110.71)"/><path class="cls-4" d="M431.72,188.84a43.3,43.3,0,0,1,9.82-22.55c.2,2.09.38,4.18.58,6.27q.74,8.08,1.48,16.17" transform="translate(-367.6 -110.71)"/><path class="cls-4" d="M433,214.16a16.73,16.73,0,0,1-3.92-17.88l8.85,12.88" transform="translate(-367.6 -110.71)"/><path class="cls-4" d="M438.16,200.26a55.74,55.74,0,0,1-14.26-20.34,54.37,54.37,0,0,1-3.45-12.4,28.83,28.83,0,0,0-1.35,23.1" transform="translate(-367.6 -110.71)"/><path class="cls-4" d="M417.34,178.56c-2.56-4.52-5.93-10.8-6.7-15.93-1.34,6.72-3.7,13-2.44,19.67" transform="translate(-367.6 -110.71)"/><path class="cls-4" d="M395.86,198.93c-4.61-5.36-4.14-12.37-4.87-18,10,17.4,24.34,30.53,41.82,40.38" transform="translate(-367.6 -110.71)"/><path class="cls-4" d="M425.5,205.27a42.15,42.15,0,0,0-16.24-19.08c.82,8.53,6.52,20.55,13.91,24.88" transform="translate(-367.6 -110.71)"/><path class="cls-4" d="M430.83,230.48a104.84,104.84,0,0,1-35-31.55,26.22,26.22,0,0,0-.47,3.3,28.2,28.2,0,0,0,12,25.08" transform="translate(-367.6 -110.71)"/><path class="cls-4" d="M434.21,239.1c-10.7-4.61-22-9.86-33.86-7.82a45.8,45.8,0,0,0,28.46,23.11" transform="translate(-367.6 -110.71)"/><path class="cls-4" d="M431.31,278.87c-.78.26-1.56.55-2.32.86a46.61,46.61,0,0,0-23.66,21.44,15.17,15.17,0,0,1-2.36-6.88,20.57,20.57,0,0,1,1.91-10.54c2.57-5.49,7.07-9.83,11.81-13.62" transform="translate(-367.6 -110.71)"/><path class="cls-4" d="M412.62,270.38a42.17,42.17,0,0,1-16.13,7.87,43.05,43.05,0,0,1-25.77-1.49,39.6,39.6,0,0,1,13.9-10.7c6.92-3.24,15.88-5.15,27.05-3.94,2.11.23,4.29.57,6.57,1" transform="translate(-367.6 -110.71)"/><path class="cls-4" d="M411.83,260.72c-7.27-2.62-23.38-8.12-29.81-12.36a40.64,40.64,0,0,1-4.16-3.12,30.52,30.52,0,0,1-9.95-14.63,60.4,60.4,0,0,1,11.6,1.64,72.6,72.6,0,0,1,36.27,21.43" transform="translate(-367.6 -110.71)"/><path class="cls-4" d="M393.86,225.41c-3.67-.76-6.31-3.95-8.29-7.13a52.63,52.63,0,0,1-7.85-27.69,46.84,46.84,0,0,0,8.23,7.34,25.42,25.42,0,0,0,9.44,4.3h0" transform="translate(-367.6 -110.71)"/><path class="cls-4" d="M386,198.06a.69.69,0,0,0-.05-.13c-4-9.06-1.94-22.71,4.58-30.13-.17,4.26,4,11.54,6.13,15.23a28,28,0,0,1,9.52-25.68c-1,8.07.37,17,2,25l.12.6" transform="translate(-367.6 -110.71)"/><path class="cls-4" d="M379.54,232.11c-1.64-2-6.11-6.27-7.75-8.24a23.32,23.32,0,0,1,6.39-.68,24.81,24.81,0,0,1,18.11,8.65" transform="translate(-367.6 -110.71)"/><path class="cls-4" d="M378.18,223.13c-1.23-3.57-3.75-8.79-3.68-12.56a1.58,1.58,0,0,1,.5-1.37,1.56,1.56,0,0,1,1.13-.08,22.38,22.38,0,0,1,5.62,2.44" transform="translate(-367.6 -110.71)"/><path class="cls-4" d="M384.59,266c-4.55.29-10.84-1.74-14.19-4.84a40.78,40.78,0,0,1,10.15-5.86,38.58,38.58,0,0,1,6.3-2" transform="translate(-367.6 -110.71)"/><path class="cls-4" d="M377.81,245.29a19,19,0,0,0-8.09,6.37,18.81,18.81,0,0,0,10.83,3.61h.22" transform="translate(-367.6 -110.71)"/><path class="cls-4" d="M396.53,278.41c-1,5.21,2.17,12.69,6.41,15.88" transform="translate(-367.6 -110.71)"/><path class="cls-4" d="M429,279.77c.27,2.86,3.14,8.1,4.72,10.5l3.25-4.15a18,18,0,0,0,1.76,8.88,10.1,10.1,0,0,1,3.15-4.52l1.11,8.94,1.84-2.66,3.14-4.53" transform="translate(-367.6 -110.71)"/><path class="cls-4" d="M444.86,296.77c-.05,2.54.06,6.14,0,8.67l4.79-4.79c-1.42,5.75-2.81,12-.61,17.45a16.34,16.34,0,0,1,5.73-7,90.56,90.56,0,0,0-5.57,15.62c-1.21,5.41-1.39,11.16.42,16.4.77-2.16,1.64-4.29,2.6-6.37a80.71,80.71,0,0,1,6-10.8" transform="translate(-367.6 -110.71)"/><path class="cls-4" d="M543.31,258.61c2.74,1.09,6.28,5.93,7.82,8.31a25.62,25.62,0,0,1,3,7.9,12.38,12.38,0,0,1,.35,2.08,3.84,3.84,0,0,1-.4,2c-.88,1.62-3,2-4.86,2.12A40.44,40.44,0,0,1,524.34,274" transform="translate(-367.6 -110.71)"/><path class="cls-4" d="M524.32,278.28A17.58,17.58,0,0,1,525.48,298a53.92,53.92,0,0,0-7.93-13.89" transform="translate(-367.6 -110.71)"/><path class="cls-4" d="M554.56,276.9c4.55.79,11.17,3.32,14,7s4.6,8,6.38,12.22a117.82,117.82,0,0,0-15.45-10.24c-1.25-.7-2.52-1.38-3.8-2" transform="translate(-367.6 -110.71)"/><path class="cls-4" d="M550.12,285.48A77.44,77.44,0,0,0,573,310.93c.72.51,1.44,1,2.17,1.49-3.54-8.6-9-20-15.73-26.46" transform="translate(-367.6 -110.71)"/><path class="cls-4" d="M532.59,291.59A85.26,85.26,0,0,0,551.94,313a40.77,40.77,0,0,0,11.51,6.73,20.75,20.75,0,0,0,11.35.87,15.5,15.5,0,0,0,1.77-.5c-.48-1.3-1.57-3.67-2.8-4.3" transform="translate(-367.6 -110.71)"/><path class="cls-4" d="M574.8,320.61c5.87,5,12.91,14.79,16.25,21.73" transform="translate(-367.6 -110.71)"/><path class="cls-4" d="M570.64,325.49A43.29,43.29,0,0,0,588.84,344" transform="translate(-367.6 -110.71)"/><path class="cls-4" d="M562.24,324.74a54.34,54.34,0,0,0,22.14,25.1" transform="translate(-367.6 -110.71)"/><path class="cls-4" d="M573,311a9.75,9.75,0,0,1,2.78,4.76,14.23,14.23,0,0,1-2,0c-4.93-.37-9.47-3.29-13.41-6.42-8.53-6.77-16-14.74-23.44-22.69" transform="translate(-367.6 -110.71)"/><path class="cls-4" d="M452.67,336.94a75.17,75.17,0,0,0,.57,21c.19,1.13.41,2.27.65,3.39q.47-2.62.94-5.27h0l3.27-18.35" transform="translate(-367.6 -110.71)"/><path class="cls-4" d="M453.23,358a117.83,117.83,0,0,0-1.51,23.35,112.81,112.81,0,0,0,1,12.73c2.94-4.82,6.19-16.93,6.37-31" transform="translate(-367.6 -110.71)"/><path class="cls-4" d="M455.9,356.28a28.67,28.67,0,0,0,1.83,10.17c.42-1.14.84-2.27,1.25-3.42,1-2.83,2.08-5.67,3.13-8.51" transform="translate(-367.6 -110.71)"/><path class="cls-4" d="M459.25,362.81c-.4,3.62,1.28,8.74,2.19,12.27.8-4,3.76-8.72,4.57-12.76" transform="translate(-367.6 -110.71)"/><path class="cls-4" d="M466.28,356.84a50.09,50.09,0,0,0,.77,14.3,90.31,90.31,0,0,1,5.49-14.85" transform="translate(-367.6 -110.71)"/><path class="cls-4" d="M466.54,336.41a20.9,20.9,0,0,0,1.9,12,95,95,0,0,0,3.37-12.51" transform="translate(-367.6 -110.71)"/><path class="cls-4" d="M455.56,295.56a41.25,41.25,0,0,0,13.73,22.17,84.28,84.28,0,0,1-1.58-26.31" transform="translate(-367.6 -110.71)"/><path class="cls-4" d="M471.18,308.08a22.81,22.81,0,0,0,10.14,13.4,119.51,119.51,0,0,1-2.62-19.58" transform="translate(-367.6 -110.71)"/><path class="cls-4" d="M478.7,301.9c2.72,5.78,10.75,11,16.8,13a29.78,29.78,0,0,0-4-18" transform="translate(-367.6 -110.71)"/><path class="cls-4" d="M493.1,299.59c2.85,1.17,7.58,1.78,10.62,2.27a28.38,28.38,0,0,0-8.12-11.75" transform="translate(-367.6 -110.71)"/><path class="cls-4" d="M483.39,320.22l6.37,3.35a.64.64,0,0,0,.58.08c.18-.1.2-.34.21-.55a22.64,22.64,0,0,0-1.44-8.73" transform="translate(-367.6 -110.71)"/><path class="cls-4" d="M492.55,322.59a40.29,40.29,0,0,0,9.75,8.13,1.56,1.56,0,0,0,1.16.31c.6-.19.74-1,.74-1.6A24.34,24.34,0,0,0,499.35,315" transform="translate(-367.6 -110.71)"/><path class="cls-4" d="M499,311.09a36.19,36.19,0,0,0,15.25,9.11,28.48,28.48,0,0,0,.09-16.26" transform="translate(-367.6 -110.71)"/><path class="cls-4" d="M518.17,310.8a42.53,42.53,0,0,1,5.44,23.53,17.23,17.23,0,0,0,4.5-25.62" transform="translate(-367.6 -110.71)"/><path class="cls-4" d="M521.17,304.69a14.73,14.73,0,0,1,9.92,4.07,38,38,0,0,1,6.7,8.65,35.41,35.41,0,0,0-3.31-17.47" transform="translate(-367.6 -110.71)"/><path class="cls-4" d="M509.57,295.37a28.21,28.21,0,0,1,11.64,7.31c.56-4.32.57-12.65-2.05-16.12" transform="translate(-367.6 -110.71)"/><path class="cls-4" d="M505.5,329.67a18.75,18.75,0,0,1,7,8.19,48,48,0,0,0,4.56-17.38" transform="translate(-367.6 -110.71)"/><path class="cls-4" d="M488.13,328.85a38.52,38.52,0,0,1,14.93,19.87,29,29,0,0,0,2.35-13.81" transform="translate(-367.6 -110.71)"/><path class="cls-4" d="M476.89,325.15A17.71,17.71,0,0,1,482,340.68a38.62,38.62,0,0,0,5.91-8.12" transform="translate(-367.6 -110.71)"/><path class="cls-4" d="M463.93,323a23.62,23.62,0,0,1,6.78,11.76,29.81,29.81,0,0,0,2.74-11.25" transform="translate(-367.6 -110.71)"/><path class="cls-4" d="M473.17,344.88a39.73,39.73,0,0,1,11.56,23,49.37,49.37,0,0,0,3.41-25.22" transform="translate(-367.6 -110.71)"/><path class="cls-4" d="M488.3,352.91l.06.07a97.87,97.87,0,0,1,6.27,10.47,13.36,13.36,0,0,1,1.31,7.67A67.31,67.31,0,0,0,502.29,353" transform="translate(-367.6 -110.71)"/><path class="cls-4" d="M502.29,353c2.92,4,7,12.17,7.64,17,2.11-6.71,4.06-16.16,1.21-22.6" transform="translate(-367.6 -110.71)"/><path class="cls-4" d="M511.14,347.42a31.77,31.77,0,0,0,19.34,15.17,49.72,49.72,0,0,1-6.41-24" transform="translate(-367.6 -110.71)"/><path class="cls-4" d="M525.94,340.67a36.36,36.36,0,0,0,14.61,15.18,88.17,88.17,0,0,0-1-13.87,29.87,29.87,0,0,0-5.19-12.8" transform="translate(-367.6 -110.71)"/><path class="cls-4" d="M541,319.33c8.36,11.54,13.6,26.08,15.47,40.21-11.65-9.07-19.5-22.22-20.8-36.94" transform="translate(-367.6 -110.71)"/><path class="cls-4" d="M556.4,351.33c1.7,3,3.94,5.07,6.45,7.45,1.34-15-4.17-31.21-14.77-41.92" transform="translate(-367.6 -110.71)"/><path class="cls-4" d="M565.43,361.09c2.05,4.73,6,8.1,10.07,11.21-.49-10.9-3.72-22.44-10.24-31.19" transform="translate(-367.6 -110.71)"/><path class="cls-4" d="M570.53,372.61c1.63,2.73,1.58,6.26,1.71,9.43a26.06,26.06,0,0,1-12.45-17.21" transform="translate(-367.6 -110.71)"/><path class="cls-4" d="M544.12,358.29A50,50,0,0,1,558.28,375c-9.85-2.11-18.87-7.88-24.19-16.45" transform="translate(-367.6 -110.71)"/><path class="cls-4" d="M559,379.8c-.91,5.71,3,12.23,7.27,16.13" transform="translate(-367.6 -110.71)"/><path class="cls-4" d="M567.57,382.8c.36,2.86-.62,10.34-1.34,13.13" transform="translate(-367.6 -110.71)"/><path class="cls-4" d="M555.76,389.87a25.34,25.34,0,0,0,5.14,29.4c1.32-1.55,3.21-3.85,3.65-5.84a.11.11,0,0,0,0-.05" transform="translate(-367.6 -110.71)"/><path class="cls-4" d="M463.3,378.76a40.16,40.16,0,0,0,9.48,27,46.22,46.22,0,0,0,4.76-23.18,44.24,44.24,0,0,0-.62-5.39" transform="translate(-367.6 -110.71)"/><path class="cls-4" d="M477.19,379.51a13.35,13.35,0,0,0,.35,3c1.4,6,6.72,11.31,11.28,15.62a44.67,44.67,0,0,0,3.34-19.11,41.21,41.21,0,0,0-.49-4.82" transform="translate(-367.6 -110.71)"/><path class="cls-4" d="M517.88,371.5a29.32,29.32,0,0,0,12.9,14.33,22.55,22.55,0,0,0-2.5-16.5" transform="translate(-367.6 -110.71)"/><path class="cls-4" d="M519.94,386.58a29.8,29.8,0,0,0,15,12.31,28.3,28.3,0,0,0,6.85,1.65c-.86-5.36-7-17.25-10.37-21.53" transform="translate(-367.6 -110.71)"/><path class="cls-4" d="M513.35,398.79c6.55,6,20.39,11,29.23,11.52-2.19-3.09-5.43-8.29-7.63-11.42l-.07-.1" transform="translate(-367.6 -110.71)"/><path class="cls-4" d="M492,378.14a9.1,9.1,0,0,0,.16.91c2.5,11.54,24.32,18.62,24.32,18.62s-1.13-9.93-3.3-14" transform="translate(-367.6 -110.71)"/><path class="cls-4" d="M451.66,381.31c-3.54,8.09-6.17,20.17-5.41,30.15a31.9,31.9,0,0,0,1.43,7.56c1.8-3.55,4.65-10,7.05-16.21a100,100,0,0,0,4.06-12.13" transform="translate(-367.6 -110.71)"/><path class="cls-4" d="M446,411.48c-.5,5.25-4,13.82-.51,21,4.1-5.26,8.49-15.56,10.05-22.17l.06-.28" transform="translate(-367.6 -110.71)"/><path class="cls-4" d="M454.73,402.73v.08a48.41,48.41,0,0,0,.78,7.49,74.34,74.34,0,0,0,2.35,10,34,34,0,0,0,8.05-18.47" transform="translate(-367.6 -110.71)"/><path class="cls-4" d="M452.2,420.26c-.37,3.2,2.43,8.4,3.92,11.27a31.32,31.32,0,0,0,3.59-8.93" transform="translate(-367.6 -110.71)"/><path class="cls-4" d="M458.37,427.13c.47,1.66,2.31,3.87,3.4,5.2A41.76,41.76,0,0,0,464,422.07c.07-.63.11-1.27.14-1.91" transform="translate(-367.6 -110.71)"/><path class="cls-4" d="M463.93,422l.05.07c2.57,3.49,7.13,7.88,11.31,8.89-1-4.77-1.93-12.75-5.5-16.07" transform="translate(-367.6 -110.71)"/><path class="cls-4" d="M468,413.57a7,7,0,0,0,1.83,1.32c2,1,4.64,1.71,6.38,2.42,1.4-4.61,1.68-12.7,1.28-17.5" transform="translate(-367.6 -110.71)"/><path class="cls-4" d="M478.81,414.41c2.84,3.87,8.72,8.39,13.26,9.94a37.23,37.23,0,0,0-.16-13.76" transform="translate(-367.6 -110.71)"/><path class="cls-4" d="M445.46,432.47c-3.3,7.42-3.71,18.74-1,27.38a26.15,26.15,0,0,0,2.59,5.84,25.17,25.17,0,0,0,6.46-8.55,46.13,46.13,0,0,0,4.43-13.92" transform="translate(-367.6 -110.71)"/><path class="cls-4" d="M453.47,457.05l0,.09c1.53,3.05,6,8.4,8.8,10.19a40,40,0,0,0,4.43-13.55,44.29,44.29,0,0,0-.79-18.37" transform="translate(-367.6 -110.71)"/><path class="cls-4" d="M466.71,453.71l0,.07c1.47,3.93,5.92,7.44,9.46,9.65a30.31,30.31,0,0,0,4-9.52,30.8,30.8,0,0,0,.39-12.39" transform="translate(-367.6 -110.71)"/><path class="cls-4" d="M480.16,453.8l.06.11c1.86,2.94,6.51,5.68,9.54,7.31a56.52,56.52,0,0,0-.1-30.06" transform="translate(-367.6 -110.71)"/><path class="cls-4" d="M491.5,450.56l.08.13a40.91,40.91,0,0,0,9.19,9.33,62.75,62.75,0,0,0-2.21-33" transform="translate(-367.6 -110.71)"/><path class="cls-4" d="M510.83,420.08a49.57,49.57,0,0,0,27.38,21.05,181.62,181.62,0,0,1-12.79-29.61" transform="translate(-367.6 -110.71)"/><path class="cls-4" d="M508.38,435.41a79.42,79.42,0,0,0,20.41,13.82,24.77,24.77,0,0,0-5.12-11.34" transform="translate(-367.6 -110.71)"/><path class="cls-4" d="M506.29,446.48a33.64,33.64,0,0,0,21.19,17.93A36.66,36.66,0,0,0,522.32,450" transform="translate(-367.6 -110.71)"/><path class="cls-4" d="M536.35,430.13a66.31,66.31,0,0,0,9,7.89,22.31,22.31,0,0,0,11.1,4.13,73.9,73.9,0,0,1-15.35-24.94" transform="translate(-367.6 -110.71)"/><path class="cls-4" d="M530.8,454.87a29.85,29.85,0,0,0,19.61,9.05L542.73,444" transform="translate(-367.6 -110.71)"/><path class="cls-4" d="M522.09,470.57a33.8,33.8,0,0,0,21,8.15,78.07,78.07,0,0,1-9.75-14.22" transform="translate(-367.6 -110.71)"/><path class="cls-4" d="M481.14,465.72c.87,1.85,2.65,3.09,4.41,4.15a60.23,60.23,0,0,0,13.64,6,26.25,26.25,0,0,1-4.6-15.55" transform="translate(-367.6 -110.71)"/><path class="cls-4" d="M459.13,470.14a18.39,18.39,0,0,0,7.17,8.92,54,54,0,0,0,10.39,5.2,144.23,144.23,0,0,1-3.75-16.94" transform="translate(-367.6 -110.71)"/><path class="cls-4" d="M444.34,459.89c-1.6,5.31-2.47,14.48,0,19.43a22.11,22.11,0,0,0,12.16,10.73q.12-8.3.25-16.58" transform="translate(-367.6 -110.71)"/><path class="cls-4" d="M450.26,486.82c-1,4.8,2,14.89,5.41,18.38a13.83,13.83,0,0,0,1.34,1.2,15.25,15.25,0,0,0,12.1,3.06,1.57,1.57,0,0,0,.81-.33,1.71,1.71,0,0,0,.26-1.46,18.39,18.39,0,0,1,2.46-11.34" transform="translate(-367.6 -110.71)"/><path class="cls-4" d="M456.87,506.56c4.61,11.23,13.48,21.34,25.6,21.73.18-.56.36-1.12.53-1.69.84-2.62,1.66-5.23,2.49-7.86" transform="translate(-367.6 -110.71)"/><path class="cls-4" d="M483.11,526.64c3,1.16,7.59,2.49,10.72,2,2.46,10,8,20.7,11.75,30.3,2.77,7.05,2.21,16.87,6.95,22.78a21.58,21.58,0,0,0,7.18,5.78c4.09,2,8.75,2.63,12.92.88a12.84,12.84,0,0,0,1.74-.87c3.69-2.2,6.32-6,8-10.06,1.88-4.64,2.68-9.62,4-14.45s3.38-9.79,7.7-12.21c3-1.66,6.49-1.82,9.88-1.87,4-.06,8.42.12,11.4,2.81,3.16,2.81,3.7,7.43,4.6,11.56,1.73,7.88,4.34,16.53,9.69,22.57a12.79,12.79,0,0,0,3.12,2.52,19.31,19.31,0,0,0,8.38,2.48,10.92,10.92,0,0,0,7.09-2.31,15.65,15.65,0,0,0,4.15-4.69c2.32-4,3.08-8.74,3.79-13.33,1.57-10.11,3.89-23.19,5.46-33.29" transform="translate(-367.6 -110.71)"/><path class="cls-4" d="M519.68,587.57a305.2,305.2,0,0,0,7.46,44.61" transform="translate(-367.6 -110.71)"/><path class="cls-4" d="M535.75,632.51c-.16-14.62.69-30.12-1.28-44.87" transform="translate(-367.6 -110.71)"/><path class="cls-4" d="M592.69,588.38c.29,13,2.84,30,4.08,43.72" transform="translate(-367.6 -110.71)"/><path class="cls-4" d="M603.71,632c1.74-12.63,4.17-30.73,4.48-43.39" transform="translate(-367.6 -110.71)"/><path class="cls-4" d="M508.76,484.47a39.56,39.56,0,0,0,21.29,20.07,121.21,121.21,0,0,1-3.33-25.08" transform="translate(-367.6 -110.71)"/><path class="cls-4" d="M537.69,486.62a28.15,28.15,0,0,0,15.95,10.21l-2-21.66" transform="translate(-367.6 -110.71)"/></g></g></svg>