<svg xmlns="http://www.w3.org/2000/svg" xmlns:xlink="http://www.w3.org/1999/xlink" viewBox="0 0 292.07 283.82"><defs><style>.cls-1,.cls-10,.cls-11,.cls-9{fill:none;}.cls-2{clip-path:url(#clip-path);}.cls-3{fill:#fbb040;}.cls-4{fill:#f6c0a5;}.cls-5{fill:#da1c5c;}.cls-6{fill:#231f20;}.cls-7{fill:#00aeef;}.cls-8{fill:#fff;}.cls-10,.cls-11,.cls-9{stroke:#231f20;stroke-linecap:round;stroke-linejoin:round;}.cls-9{stroke-width:0.72px;}.cls-10{stroke-width:0.73px;}</style><clipPath id="clip-path" transform="translate(0 -0.18)"><circle class="cls-1" cx="142.1" cy="141.91" r="113.39"/></clipPath></defs><title>Asset 3</title><g id="Layer_2" data-name="Layer 2"><g id="Layer_2-2" data-name="Layer 2"><g class="cls-2"><path class="cls-3" d="M239.51.18l52.56,137.55L242.8,207.5c-4.55-9.61-9.82-22.83-15.65-32.51-1-1.72-3.42-6.09-4.94-7.4-2.82-2.44-8.32.93-11.43,2.62,2.11-1.71,3.69-3.26,3-7.88-1.35-9.24-5.06-17.82-4.33-26.79.33-4.11,5.9-6.25,7.43-10.09,1-2.42.52-5.14.11-7.71a251.58,251.58,0,0,1-3-28.19,2.12,2.12,0,0,0,.9-.35,3.57,3.57,0,0,0,1.26-2.42c.49-2.86-4-11.44-5.82-13.73-10.11-12.94-19.17-21.89-34.25-28.39S143.56,36.69,128,42c-10.18,3.46-19.25,9.65-27.23,16.86-7.79,7-16.7,18.72-23.57,26.93l-.25.29-.21.25a11.35,11.35,0,0,0-1.28-4.15,5,5,0,0,0-4.07-2.58,7.24,7.24,0,0,0-3.85,1.69Q63.73,84,60.08,87c-2.52,2-5.06,4.28-6.34,7.27-1,2.2-.64,6,.61,8.74A6.33,6.33,0,0,0,56,105.24,8.28,8.28,0,0,0,53,107a5.43,5.43,0,0,0-.8,6.18,16.75,16.75,0,0,0-9.85,2.51c-3.75,2.54-5.84,7-6.53,11.48a13.72,13.72,0,0,0,1,8.36c1.73,3.32,5.24,5.27,8.63,6.84,5.18,2.4,10.77,4.42,16.45,3.88S72.84,139.61,74,134c.34,6,1.37,12.27,1.35,21.4a.68.68,0,0,0,1.16.49c-5.64,8.56-17.73,18.66-25.12,25.68l-.11.19C37.51,174,9.08,172.17.36,171.48V.18Z" transform="translate(0 -0.18)"/><path class="cls-4" d="M206.5,217.77a5.63,5.63,0,0,1,.27,2.74,2.83,2.83,0,0,1-1.16,1.73c-1.32.87-1.67,1.13-4-.58-4.24-3.17-9.14-5.35-11.93-9.94A31.09,31.09,0,0,1,186,200.36a.19.19,0,0,0,0-.08c0-.35-.08-.67-.13-1a63.27,63.27,0,0,1-.51-8.28,3.82,3.82,0,0,1,1.17-2.79c5.07-4.85,10.94-10.44,17.17-14.1a38.74,38.74,0,0,1,3.72-1.93h0a7.5,7.5,0,0,0,2.5-1.31l.84-.68c3.11-1.69,8.61-5.06,11.43-2.62,1.52,1.31,3.9,5.68,4.94,7.4,5.83,9.68,11.1,22.9,15.65,32.51l6.72,76.14H239.45c-.94-2.46-11.88-44.84-12.83-47.3a16.15,16.15,0,0,0-1.77-3.67,15.56,15.56,0,0,0-2.76-2.74l-9.42-8C211,220.52,208.58,218.41,206.5,217.77Z" transform="translate(0 -0.18)"/><path class="cls-3" d="M239.45,283.64H202.24c-.9-7.6-3.74-55.1-8.21-61.32-2.29-3.21-6.19-6.67-10-7.84a36.62,36.62,0,0,0,2-14.12,31.09,31.09,0,0,0,3.69,11.36c2.79,4.59,7.69,6.77,11.93,9.94,2.3,1.71,2.65,1.45,4,.58a2.83,2.83,0,0,0,1.16-1.73,5.63,5.63,0,0,0-.27-2.74c2.08.64,4.51,2.75,6.17,4.16l9.42,8a15.56,15.56,0,0,1,2.76,2.74,16.15,16.15,0,0,1,1.77,3.67C227.57,238.8,238.51,281.18,239.45,283.64Z" transform="translate(0 -0.18)"/><path class="cls-4" d="M210.78,170.21l-.84.68a7.5,7.5,0,0,1-2.5,1.31h0a38.74,38.74,0,0,0-3.72,1.93c-1.8-1.42-5.11-.55-6.94.59s-3.48,2.85-5.63,3a18.72,18.72,0,0,1-3.45-.53c-3-.42-6.06,1-8.28,3.12a30.77,30.77,0,0,0-5.24,7.46c-1.37-6.16-2.93-12.39-6.1-17.85-1.85-3.21-5.55-6.17-7.36-9.4-5.84-10.36-5.93-32.12-5.26-44v-.1a61.22,61.22,0,0,0,19.52-5.1,6.2,6.2,0,0,0,3-2.37,4.74,4.74,0,0,0-.65-4.73,39.53,39.53,0,0,0-3.4-3.69,11.7,11.7,0,0,1-3.16-7.92c.11-5.82,5.36-10.37,10.86-12.27A27.16,27.16,0,0,1,209.38,87a11.13,11.13,0,0,0,2.43,2.17,3.36,3.36,0,0,0,2.2.42,251.58,251.58,0,0,0,3,28.19c.41,2.57.85,5.29-.11,7.71-1.53,3.84-7.1,6-7.43,10.09-.73,9,3,17.55,4.33,26.79C214.47,167,212.89,168.5,210.78,170.21Zm1.4-42.83c1.34.05,3.13-2.45,3.07-3-.24-2.21-1.6-2.08-2.89-2.39a13.37,13.37,0,0,0-7.9.94c-2.51,1-4.47,2.45-6.86,3.69s-9.43,4.87-9.26,5.23c.28.58,1.14.05,1.76-.15,2.7-.86,5.18-2.28,7.79-3.39a15.19,15.19,0,0,1,8.27-1.45A50.68,50.68,0,0,0,212.18,127.38Zm-10.41,3.9a4.29,4.29,0,0,0,3.18-1.61,4,4,0,0,1-4.43-.1l-.26,0a29.44,29.44,0,0,0-10.82,5.64c.95-.5,1.92-1,2.91-1.48a12,12,0,0,0,3.58,2.23,2,2,0,0,0,1.35.16,2.67,2.67,0,0,0,.66-.68,2.21,2.21,0,0,0,.3-.45,9.42,9.42,0,0,0,.71-3.56C200.05,131.29,200.66,131.36,201.77,131.28Z" transform="translate(0 -0.18)"/><path class="cls-5" d="M74,134c-.38-6.92.15-13.59,4.16-24.06l.06-.16c2.16-5.56,1.9-24.7,1.18-25.23-.57-.42-1.54.44-2.2,1.18C84.08,77.56,93,65.89,100.78,58.84c8-7.21,17-13.4,27.23-16.86,15.55-5.29,33-3.82,48.09,2.68s24.14,15.45,34.25,28.39c1.79,2.29,6.31,10.87,5.82,13.73a3.57,3.57,0,0,1-1.26,2.42,2.12,2.12,0,0,1-.9.35,3.36,3.36,0,0,1-2.2-.42A11.13,11.13,0,0,1,209.38,87a27.16,27.16,0,0,0-27.74-6.63c-5.5,1.9-10.75,6.45-10.86,12.27a11.7,11.7,0,0,0,3.16,7.92,39.53,39.53,0,0,1,3.4,3.69,4.74,4.74,0,0,1,.65,4.73,6.2,6.2,0,0,1-3,2.37,61.22,61.22,0,0,1-19.52,5.1,105.34,105.34,0,0,1-20.69.1c-2.26-2.64-3.4-2.86-6.37-4.66a13.87,13.87,0,0,0-10-2c-4.8,1-8.39,5.44-9.53,10.22-.07.28-.13.56-.18.85-2.5.08-5.88,2.16-6.86,4.46s-1.15,4.83-1.53,7.3-1.08,5-2.85,6.78c-2.34,2.33-5.94,2.7-9,4.08-5.26,2.41-9.2,7.06-11.88,12.26l-.12.17a.68.68,0,0,1-1.16-.49C75.38,146.31,74.35,140.08,74,134Z" transform="translate(0 -0.18)"/><path class="cls-5" d="M215.25,124.34c.06.59-1.73,3.09-3.07,3a50.68,50.68,0,0,1-6-.56,15.19,15.19,0,0,0-8.27,1.45c-2.61,1.11-5.09,2.53-7.79,3.39-.62.2-1.48.73-1.76.15-.17-.36,6.83-4,9.26-5.23s4.35-2.7,6.86-3.69a13.37,13.37,0,0,1,7.9-.94C213.65,122.26,215,122.13,215.25,124.34Z" transform="translate(0 -0.18)"/><path class="cls-6" d="M192.35,133.75c-1,.48-2,1-2.91,1.48a29.44,29.44,0,0,1,10.82-5.64l.26,0a4,4,0,0,0,4.43.1,4.29,4.29,0,0,1-3.18,1.61c-1.11.08-1.72,0-2.82.17a17.52,17.52,0,0,0-1.75.36A26.12,26.12,0,0,0,192.35,133.75Z" transform="translate(0 -0.18)"/><path class="cls-7" d="M202.24,283.64h-5.67c-2.56-9.42-7.57-58.43-14.22-65.28h-.46l.46-.58a12.8,12.8,0,0,0,1.71-3.29c3.78,1.17,7.68,4.63,10,7.84C198.5,228.54,201.34,276,202.24,283.64Z" transform="translate(0 -0.18)"/><path class="cls-5" d="M196.77,174.72c1.83-1.14,5.14-2,6.94-.59-6.23,3.66-12.1,9.25-17.17,14.1a3.82,3.82,0,0,0-1.17,2.79,63.27,63.27,0,0,0,.51,8.28c0,.33.08.66.13,1a.19.19,0,0,1,0,.08,36.62,36.62,0,0,1-2,14.12,12.8,12.8,0,0,1-1.71,3.29l-.46.58c-2.24,2.86-4.09,4.88-5.35,8.42a14.22,14.22,0,0,0-.88,7.7l-.77.18a8.28,8.28,0,0,0-1,2.51l-2,.29a15.67,15.67,0,0,0-3.27-1.45l1-1.51a20,20,0,0,0-6.86-2.51l-1.72.07c-.46-.63-.9-1.25-1.26-1.8a44.2,44.2,0,0,0-3.29-4.29c-5.46-4.64-12.58-7.06-19-10.29A27.75,27.75,0,0,1,127,206.5c-1-1.46-2-3-3-4.75-1.74-3.46-2.85-6.27-4.62-9.54s-3.2-7-2.43-10.64a13.8,13.8,0,0,1,4.67-7.19c2.19-1.92,4.69-3.43,7-5.2a40.3,40.3,0,0,0,13.64-19c2.52-7.5-3.46-27.23-7.41-33.63a105.34,105.34,0,0,0,20.69-.1v.1c-.67,11.87-.58,33.63,5.26,44,1.81,3.23,5.51,6.19,7.36,9.4,3.17,5.46,4.73,11.69,6.1,17.85a30.77,30.77,0,0,1,5.24-7.46c2.22-2.1,5.26-3.54,8.28-3.12a18.72,18.72,0,0,0,3.45.53C193.29,177.57,195,175.87,196.77,174.72Z" transform="translate(0 -0.18)"/><path class="cls-6" d="M199,131.45a9.42,9.42,0,0,1-.71,3.56c-.56,0-1.26-1-1.29-1.45a5.68,5.68,0,0,1,.25-1.75A17.52,17.52,0,0,1,199,131.45Z" transform="translate(0 -0.18)"/><path class="cls-8" d="M198.24,135a2.21,2.21,0,0,1-.3.45,2.67,2.67,0,0,1-.66.68,2,2,0,0,1-1.35-.16,12,12,0,0,1-3.58-2.23,26.12,26.12,0,0,1,4.85-1.94,5.68,5.68,0,0,0-.25,1.75C197,134.05,197.68,135,198.24,135Z" transform="translate(0 -0.18)"/><path class="cls-7" d="M126.34,223.53c2.95-1.48,7.39-2.78,10.57-2.57a1.38,1.38,0,0,1,1.26,1.08c.18.79.37,1.58.53,2.38,1.48-.93,5.56,1.22,6.54,2.66a6,6,0,0,1,.48.85c.9-.5,2.43-1.47,3.45-1.28a8.28,8.28,0,0,0,1.7,7.55c1.68,2.08,4,3.57,6.09,5.18,1.6,1.21,7.53,3.79,12.47,12.67l5.35-1.66,6.57-2.33a31.57,31.57,0,0,0-2.23-5.93c-.51-1.11-1-2.18-1.52-3.14-.56-1.11-1-2.09-1.37-2.79a9,9,0,0,1-.57-1.73,14.22,14.22,0,0,1,.88-7.7c1.26-3.54,3.11-5.56,5.35-8.42h.46c6.65,6.85,11.66,55.86,14.22,65.28H85.15c-1.57-10.11-3.28-60.49-6.92-70-.46-1.21-1-2.42-1.54-3.62a215,215,0,0,0,43.92,9.29,1.11,1.11,0,0,1,.37,0c1,0,2.42,1.24,3.22,1.81A8.22,8.22,0,0,1,126.34,223.53Z" transform="translate(0 -0.18)"/><path class="cls-4" d="M186,200.28c0-.32-.09-.65-.13-1C185.93,199.61,186,199.93,186,200.28Z" transform="translate(0 -0.18)"/><path class="cls-5" d="M179.12,242.13a31.57,31.57,0,0,1,2.23,5.93l-6.57,2.33c-.1-.35-.23-.71-.37-1.07l.21-.09a8.46,8.46,0,0,1,1.38-3.46l-.23-1.11a12.38,12.38,0,0,0-3.81-3.32l-1.77-.13a7.76,7.76,0,0,1,1.32-2.27l.81-1.22a15.41,15.41,0,0,1,3.15,2.6l1.24.3a9.7,9.7,0,0,1,.7-1.54l.19-.09C178.08,240,178.61,241,179.12,242.13Z" transform="translate(0 -0.18)"/><path class="cls-5" d="M177.6,239l-.19.09a9.7,9.7,0,0,0-.7,1.54l-1.24-.3a15.41,15.41,0,0,0-3.15-2.6c-.14-.09-.29-.19-.44-.27l2-.29a8.28,8.28,0,0,1,1-2.51l.77-.18a9,9,0,0,0,.57,1.73C176.55,236.9,177,237.88,177.6,239Z" transform="translate(0 -0.18)"/><path class="cls-5" d="M175.77,244.66l.23,1.11a8.46,8.46,0,0,0-1.38,3.46l-.21.09a31,31,0,0,0-4.47-7.09l0,0a6.31,6.31,0,0,1,.22-1l1.77.13A12.38,12.38,0,0,1,175.77,244.66Z" transform="translate(0 -0.18)"/><path class="cls-8" d="M174.78,250.39l-5.35,1.66c-4.94-8.88-10.87-11.46-12.47-12.67-2.13-1.61-4.41-3.1-6.09-5.18a8.28,8.28,0,0,1-1.7-7.55,8.39,8.39,0,0,1,7.27-.69,44.2,44.2,0,0,1,3.29,4.29c.36.55.8,1.17,1.26,1.8a29.47,29.47,0,0,0,2.44,2.91,92.05,92.05,0,0,1,6.51,7.27,31,31,0,0,1,4.47,7.09C174.55,249.68,174.68,250,174.78,250.39Z" transform="translate(0 -0.18)"/><path class="cls-5" d="M172.32,237.72l-.81,1.22a7.76,7.76,0,0,0-1.32,2.27,6.31,6.31,0,0,0-.22,1l0,0a92.05,92.05,0,0,0-6.51-7.27,29.47,29.47,0,0,1-2.44-2.91l1.72-.07a20,20,0,0,1,6.86,2.51l-1,1.51a15.67,15.67,0,0,1,3.27,1.45C172,237.53,172.18,237.63,172.32,237.72Z" transform="translate(0 -0.18)"/><path class="cls-7" d="M156.44,226a8.39,8.39,0,0,0-7.27.69c-1-.19-2.55.78-3.45,1.28a6,6,0,0,0-.48-.85c-1-1.44-5.06-3.59-6.54-2.66-.16-.8-.35-1.59-.53-2.38a1.38,1.38,0,0,0-1.26-1.08c-3.18-.21-7.62,1.09-10.57,2.57A8.22,8.22,0,0,0,124.2,221c-.8-.57-2.19-1.8-3.22-1.81a17.6,17.6,0,0,1,16.48-3.54C143.86,218.9,151,221.32,156.44,226Z" transform="translate(0 -0.18)"/><path class="cls-4" d="M108.71,120.88c.05-.29.11-.57.18-.85,1.14-4.78,4.73-9.18,9.53-10.22a13.87,13.87,0,0,1,10,2c3,1.8,4.11,2,6.37,4.66,3.95,6.4,9.93,26.13,7.41,33.63a40.3,40.3,0,0,1-13.64,19c-2.31,1.77-4.81,3.28-7,5.2a13.8,13.8,0,0,0-4.67,7.19c-.77,3.63.66,7.38,2.43,10.64s2.88,6.08,4.62,9.54c1,1.71,2,3.29,3,4.75-1.3,1.84-3.18,2.47-5.48,5.66a306,306,0,0,0-47.84-7.85,54,54,0,0,0-16.07-17,17,17,0,0,0-6.27-5.5l.11-.19c7.39-7,19.48-17.12,25.12-25.68l.12-.17c2.68-5.2,6.62-9.85,11.88-12.26,3-1.38,6.61-1.75,9-4.08,1.77-1.76,2.46-4.32,2.85-6.78s.54-5,1.53-7.3S106.21,121,108.71,120.88Zm19.54,2.59-.15-.07a39.42,39.42,0,0,1-6.13,2.26c-2,.74-4.11,1.87-5.13,3.8s-.54,4.75,1.45,5.64c1.26.57,2.77.24,4.09.67a8.83,8.83,0,0,1,3.21,2.38,5.24,5.24,0,0,0,3.48,1.79c1.35,0,2.66-1.47,2.07-2.68s-2.68-1.33-3-2.66a3.1,3.1,0,0,1,.75-2.29c.44-.72.76-1.7.22-2.31-.34-.38-.87-.48-1.3-.75a2.39,2.39,0,0,1-.93-2.23,6.52,6.52,0,0,1,.82-2.4C127.86,124.23,128.06,123.86,128.25,123.47Z" transform="translate(0 -0.18)"/><path class="cls-3" d="M137.46,215.67A17.6,17.6,0,0,0,121,219.21a1.11,1.11,0,0,0-.37,0c1.28-2.12,2-4.9.86-7.1,2.3-3.19,4.18-3.82,5.48-5.66A27.75,27.75,0,0,0,137.46,215.67Z" transform="translate(0 -0.18)"/><path class="cls-4" d="M131.14,137.26c.59,1.21-.72,2.66-2.07,2.68a5.24,5.24,0,0,1-3.48-1.79,8.83,8.83,0,0,0-3.21-2.38c-1.32-.43-2.83-.1-4.09-.67-2-.89-2.48-3.72-1.45-5.64s3.09-3.06,5.13-3.8a39.42,39.42,0,0,0,6.13-2.26l.15.07c-.19.39-.39.76-.59,1.15a6.52,6.52,0,0,0-.82,2.4,2.39,2.39,0,0,0,.93,2.23c.43.27,1,.37,1.3.75.54.61.22,1.59-.22,2.31a3.1,3.1,0,0,0-.75,2.29C128.46,135.93,130.52,136,131.14,137.26Z" transform="translate(0 -0.18)"/><path class="cls-7" d="M121.47,212.16c1.15,2.2.42,5-.86,7.1A215,215,0,0,1,76.69,210a57.62,57.62,0,0,0-3.06-5.66A306,306,0,0,1,121.47,212.16Z" transform="translate(0 -0.18)"/><path class="cls-8" d="M76.69,210c.56,1.2,1.08,2.41,1.54,3.62,3.64,9.56,5.35,59.94,6.92,70H77.94c0-9.79-4.18-59.33-8.67-68s-10-18.66-11.71-28.3a54,54,0,0,1,16.07,17A57.62,57.62,0,0,1,76.69,210Z" transform="translate(0 -0.18)"/><path class="cls-6" d="M79.41,84.59c.72.53,1,19.67-1.18,25.23.35-1.07-.78-2-2.07-2.82.16-1.07.3-2.23.43-3.43A74.29,74.29,0,0,0,76.85,87c0-.22-.06-.43-.1-.65h0a2.52,2.52,0,0,0,.21-.25l.25-.29C77.87,85,78.84,84.17,79.41,84.59Z" transform="translate(0 -0.18)"/><path class="cls-5" d="M76.16,107c1.29.77,2.42,1.75,2.07,2.82l-.06.16c-.89,1.9-2.7,5.68-4.56,5.42-5.29.69-10.57-.81-15.83-1.7a37.41,37.41,0,0,0-5.61-.55A5.43,5.43,0,0,1,53,107,8.28,8.28,0,0,1,56,105.24a17.37,17.37,0,0,1,2.58-.64A26.45,26.45,0,0,1,74.11,106C74.7,106.23,75.44,106.58,76.16,107Z" transform="translate(0 -0.18)"/><path class="cls-7" d="M.36,206.47v-35c8.72.69,37.15,2.51,50.93,10.32a17,17,0,0,1,6.27,5.5c1.69,9.64,7.22,19.6,11.71,28.3s8.68,58.25,8.67,68H.36Z" transform="translate(0 -0.18)"/><path class="cls-5" d="M76.85,87a74.29,74.29,0,0,1-.26,16.61h-.06c-6.08-1.53-16.12-2.2-22.18-.6-1.25-2.69-1.56-6.54-.61-8.74C55,91.23,57.56,89,60.08,87s4.92-3.87,7.47-5.68a7.24,7.24,0,0,1,3.85-1.69,5,5,0,0,1,4.07,2.58,11.35,11.35,0,0,1,1.28,4.15h0C76.79,86.53,76.82,86.74,76.85,87Z" transform="translate(0 -0.18)"/><path class="cls-6" d="M76.53,103.56h.06c-.13,1.2-.27,2.36-.43,3.43-.72-.42-1.46-.77-2-1a26.45,26.45,0,0,0-15.5-1.36,17.37,17.37,0,0,0-2.58.64A6.33,6.33,0,0,1,54.35,103C60.41,101.36,70.45,102,76.53,103.56Z" transform="translate(0 -0.18)"/><path class="cls-5" d="M73.61,115.4c1.86.26,3.67-3.52,4.56-5.42-4,10.47-4.54,17.14-4.16,24.06-1.17,5.57-6.49,11.63-12.16,12.18s-11.27-1.48-16.45-3.88c-3.39-1.57-6.9-3.52-8.63-6.84a13.72,13.72,0,0,1-1-8.36c.69-4.48,2.78-8.94,6.53-11.48a16.75,16.75,0,0,1,9.85-2.51,37.41,37.41,0,0,1,5.61.55C63,114.59,68.32,116.09,73.61,115.4Z" transform="translate(0 -0.18)"/><path class="cls-9" d="M128.1,123.4a39.42,39.42,0,0,1-6.13,2.26c-2,.74-4.11,1.87-5.13,3.8s-.54,4.75,1.45,5.64c1.26.57,2.77.24,4.09.67a8.83,8.83,0,0,1,3.21,2.38,5.24,5.24,0,0,0,3.48,1.79c1.35,0,2.66-1.47,2.07-2.68s-2.68-1.33-3-2.66a3.1,3.1,0,0,1,.75-2.29c.44-.72.76-1.7.22-2.31-.34-.38-.87-.48-1.3-.75a2.39,2.39,0,0,1-.93-2.23,6.52,6.52,0,0,1,.82-2.4c.2-.39.4-.76.59-1.15a15,15,0,0,0,1.32-3.44,5.56,5.56,0,0,0-.9-4.73,6.16,6.16,0,0,0-4.61-1.84,12.33,12.33,0,0,0-11.53,17.68" transform="translate(0 -0.18)"/><path class="cls-9" d="M67.92,186.34c4.64,1.44,9.78.18,13.93-2.31s7.5-6.12,10.69-9.78,6.33-7.41,10.23-10.3" transform="translate(0 -0.18)"/><path class="cls-9" d="M76.52,155.93c-5.64,8.56-17.73,18.66-25.12,25.68" transform="translate(0 -0.18)"/><path class="cls-9" d="M78.17,110c-4,10.47-4.54,17.14-4.16,24.06.34,6,1.37,12.27,1.35,21.4a.68.68,0,0,0,1.16.49l.12-.17c2.68-5.2,6.62-9.85,11.88-12.26,3-1.38,6.61-1.75,9-4.08,1.77-1.76,2.46-4.32,2.85-6.78s.54-5,1.53-7.3,4.36-4.38,6.86-4.46" transform="translate(0 -0.18)"/><path class="cls-9" d="M78.17,110c-.89,1.9-2.7,5.68-4.56,5.42-5.29.69-10.57-.81-15.83-1.7a37.41,37.41,0,0,0-5.61-.55,16.75,16.75,0,0,0-9.85,2.51c-3.75,2.54-5.84,7-6.53,11.48a13.72,13.72,0,0,0,1,8.36c1.73,3.32,5.24,5.27,8.63,6.84,5.18,2.4,10.77,4.42,16.45,3.88S72.84,139.61,74,134v0" transform="translate(0 -0.18)"/><path class="cls-9" d="M52.17,113.15A5.43,5.43,0,0,1,53,107,8.28,8.28,0,0,1,56,105.24a17.37,17.37,0,0,1,2.58-.64A26.45,26.45,0,0,1,74.11,106c.59.27,1.33.62,2,1,1.29.77,2.42,1.75,2.07,2.82" transform="translate(0 -0.18)"/><path class="cls-9" d="M76.75,86.31c0,.22.07.43.1.65a74.29,74.29,0,0,1-.26,16.61c-.13,1.2-.27,2.36-.43,3.43a.43.43,0,0,1,0,.12" transform="translate(0 -0.18)"/><path class="cls-9" d="M56,105.24A6.33,6.33,0,0,1,54.35,103c-1.25-2.69-1.56-6.54-.61-8.74C55,91.23,57.56,89,60.08,87s4.92-3.87,7.47-5.68a7.24,7.24,0,0,1,3.85-1.69,5,5,0,0,1,4.07,2.58,11.35,11.35,0,0,1,1.28,4.15" transform="translate(0 -0.18)"/><path class="cls-9" d="M77.21,85.77c.66-.74,1.63-1.6,2.2-1.18.72.53,1,19.67-1.18,25.23l-.06.16" transform="translate(0 -0.18)"/><path class="cls-9" d="M76.75,86.31l.21-.25" transform="translate(0 -0.18)"/><path class="cls-9" d="M54.35,103c6.06-1.6,16.1-.93,22.18.6" transform="translate(0 -0.18)"/><path class="cls-9" d="M76.75,86.31h0a2.52,2.52,0,0,0,.21-.25l.25-.29C84.08,77.56,93,65.89,100.78,58.84c8-7.21,17-13.4,27.23-16.86,15.55-5.29,33-3.82,48.09,2.68s24.14,15.45,34.25,28.39c1.79,2.29,6.31,10.87,5.82,13.73a3.57,3.57,0,0,1-1.26,2.42,2.12,2.12,0,0,1-.9.35,3.36,3.36,0,0,1-2.2-.42A11.13,11.13,0,0,1,209.38,87a27.16,27.16,0,0,0-27.74-6.63c-5.5,1.9-10.75,6.45-10.86,12.27a11.7,11.7,0,0,0,3.16,7.92,39.53,39.53,0,0,1,3.4,3.69,4.74,4.74,0,0,1,.65,4.73,6.2,6.2,0,0,1-3,2.37,61.22,61.22,0,0,1-19.52,5.1,105.34,105.34,0,0,1-20.69.1c-2.26-2.64-3.4-2.86-6.37-4.66a13.87,13.87,0,0,0-10-2c-4.8,1-8.39,5.44-9.53,10.22-.07.28-.13.56-.18.85-.86,4.52.08,9.25,1.65,13.59,2.36,6.48,6.49,12.68,12.72,15.63a8.14,8.14,0,0,0,5.38.89c1.8-.46,3.37-2.19,3.1-4" transform="translate(0 -0.18)"/><path class="cls-9" d="M85.15,283.64c-1.57-10.11-3.28-60.49-6.92-70-.46-1.21-1-2.42-1.54-3.62a57.62,57.62,0,0,0-3.06-5.66,54,54,0,0,0-16.07-17c1.69,9.64,7.22,19.6,11.71,28.3s8.68,58.25,8.67,68" transform="translate(0 -0.18)"/><path class="cls-9" d="M57.56,187.3a17,17,0,0,0-6.27-5.5C37.51,174,9.08,172.17.36,171.48" transform="translate(0 -0.18)"/><path class="cls-9" d="M56.24,206.88c-2.29-.13-3.85-2.24-5.34-4C46.16,197.3,7.66,194,.36,193.68" transform="translate(0 -0.18)"/><path class="cls-9" d="M.36,206.47c3.79.22,40.72,3.16,43.15,6.09s4.85,6.17,8.43,7.42c3.21,1.12,7.34.68,9.38,3.41" transform="translate(0 -0.18)"/><path class="cls-9" d="M73.63,204.31a306,306,0,0,1,47.84,7.85c1.15,2.2.42,5-.86,7.1A215,215,0,0,1,76.69,210h0" transform="translate(0 -0.18)"/><path class="cls-9" d="M120.61,219.26a1.11,1.11,0,0,1,.37,0c1,0,2.42,1.24,3.22,1.81a8.22,8.22,0,0,1,2.14,2.51c.93,1.56,1.69,3.5.9,5.15a6.35,6.35,0,0,1-2.87,2.46,34.06,34.06,0,0,1-5.56,2.64,11.23,11.23,0,0,1-6.07.45" transform="translate(0 -0.18)"/><path class="cls-9" d="M126.34,223.53c2.95-1.48,7.39-2.78,10.57-2.57a1.38,1.38,0,0,1,1.26,1.08c.18.79.37,1.58.53,2.38a32.68,32.68,0,0,1,.8,6.06,15.23,15.23,0,0,1-2.36,9.07" transform="translate(0 -0.18)"/><path class="cls-9" d="M138.7,224.42c1.48-.93,5.56,1.22,6.54,2.66a6,6,0,0,1,.48.85,13.14,13.14,0,0,1,.82,4.14c.31,3.74.63,6.38.94,10.12" transform="translate(0 -0.18)"/><path class="cls-9" d="M127,206.5c-1.3,1.84-3.18,2.47-5.48,5.66" transform="translate(0 -0.18)"/><path class="cls-9" d="M134.75,116.51c3.95,6.4,9.93,26.13,7.41,33.63a40.3,40.3,0,0,1-13.64,19c-2.31,1.77-4.81,3.28-7,5.2a13.8,13.8,0,0,0-4.67,7.19c-.77,3.63.66,7.38,2.43,10.64s2.88,6.08,4.62,9.54" transform="translate(0 -0.18)"/><path class="cls-9" d="M186,200.36a36.62,36.62,0,0,1-2,14.12,12.8,12.8,0,0,1-1.71,3.29l-.46.58c-2.24,2.86-4.09,4.88-5.35,8.42a14.22,14.22,0,0,0-.88,7.7,9,9,0,0,0,.57,1.73c.32.7.81,1.68,1.37,2.79.48,1,1,2,1.52,3.14a31.57,31.57,0,0,1,2.23,5.93l-6.57,2.33" transform="translate(0 -0.18)"/><path class="cls-9" d="M185.88,199.3c.05.31.1.63.13,1" transform="translate(0 -0.18)"/><path class="cls-9" d="M174.78,250.39c-.1-.35-.23-.71-.37-1.07a31,31,0,0,0-4.47-7.09,92.05,92.05,0,0,0-6.51-7.27,29.47,29.47,0,0,1-2.44-2.91c-.46-.63-.9-1.25-1.26-1.8a44.2,44.2,0,0,0-3.29-4.29,8.39,8.39,0,0,0-7.27.69,8.28,8.28,0,0,0,1.7,7.55c1.68,2.08,4,3.57,6.09,5.18,1.6,1.21,7.53,3.79,12.47,12.67Z" transform="translate(0 -0.18)"/><path class="cls-9" d="M155.45,116.51c-.67,11.87-.58,33.63,5.26,44,1.81,3.23,5.51,6.19,7.36,9.4,3.17,5.46,4.73,11.69,6.1,17.85a30.77,30.77,0,0,1,5.24-7.46c2.22-2.1,5.26-3.54,8.28-3.12a18.72,18.72,0,0,0,3.45.53c2.15-.13,3.81-1.83,5.63-3s5.14-2,6.94-.59" transform="translate(0 -0.18)"/><path class="cls-9" d="M205,194.75a22.29,22.29,0,0,0,.58-2.79" transform="translate(0 -0.18)"/><path class="cls-9" d="M196.16,197.25a7,7,0,0,0,3.62,2.15,4.7,4.7,0,0,0,4.3-2.47,8.46,8.46,0,0,0,.91-2.17" transform="translate(0 -0.18)"/><path class="cls-9" d="M196,207.28c2.84-.94,4.65-4.92,4.08-7.86" transform="translate(0 -0.18)"/><path class="cls-9" d="M199,205.06a7.84,7.84,0,0,1,5,2.07,9,9,0,0,1,2.08,4.29,6.05,6.05,0,0,1,0,2.9,2,2,0,0,1-.44.78,3.8,3.8,0,0,1-.83.71,1.89,1.89,0,0,1-1.84.1c-5-2.42-10.51-5.39-12.8-10.34-1.63-3.49-1.57-7.5-1.46-11.35a10.15,10.15,0,0,1,.45-3.38c1.1-3,4.56-4.31,7.63-5.25" transform="translate(0 -0.18)"/><path class="cls-9" d="M205.57,215.1c.25.69.64,1.67.93,2.67a5.63,5.63,0,0,1,.27,2.74,2.83,2.83,0,0,1-1.16,1.73c-1.32.87-1.67,1.13-4-.58-4.24-3.17-9.14-5.35-11.93-9.94A31.09,31.09,0,0,1,186,200.36a.19.19,0,0,0,0-.08c0-.32-.09-.65-.13-1a63.27,63.27,0,0,1-.51-8.28,3.82,3.82,0,0,1,1.17-2.79c5.07-4.85,10.94-10.44,17.17-14.1a38.74,38.74,0,0,1,3.72-1.93" transform="translate(0 -0.18)"/><path class="cls-9" d="M194.61,163.15a5.16,5.16,0,0,1,3.47-2.65" transform="translate(0 -0.18)"/><path class="cls-9" d="M210.5,170.36l.28-.15c3.11-1.69,8.61-5.06,11.43-2.62,1.52,1.31,3.9,5.68,4.94,7.4,5.83,9.68,11.1,22.9,15.65,32.51" transform="translate(0 -0.18)"/><path class="cls-9" d="M214.84,173.15c1.54-.37,3.23-.74,4.67-.05a6.84,6.84,0,0,1,2.57,2.73c1.34,2.11,2.59,4.29,3.76,6.51" transform="translate(0 -0.18)"/><path class="cls-9" d="M205,194.75h0a14.19,14.19,0,0,0,.33,3.39,2.51,2.51,0,0,0,1.54,1.13c.92.17,1.71-.62,2.31-1.33l4.19-5" transform="translate(0 -0.18)"/><path class="cls-9" d="M209.17,198A3.81,3.81,0,0,0,212,199.1a2.8,2.8,0,0,0,2.08-1.63" transform="translate(0 -0.18)"/><path class="cls-9" d="M212,199.1c-1.26,5.55-.07,11.66,3.36,15.57a17.65,17.65,0,0,0,13.88,5.88" transform="translate(0 -0.18)"/><path class="cls-9" d="M206.5,217.77c2.08.64,4.51,2.75,6.17,4.16l9.42,8a15.56,15.56,0,0,1,2.76,2.74,16.15,16.15,0,0,1,1.77,3.67c.95,2.46,11.89,44.84,12.83,47.3" transform="translate(0 -0.18)"/><path class="cls-9" d="M214,89.55h0a251.58,251.58,0,0,0,3,28.19c.41,2.57.85,5.29-.11,7.71-1.53,3.84-7.1,6-7.43,10.09-.73,9,3,17.55,4.33,26.79.67,4.62-.91,6.17-3,7.88l-.84.68a7.5,7.5,0,0,1-2.5,1.31h0a18.09,18.09,0,0,1-7.45.29,12.26,12.26,0,0,1-5-1.38c-1.5-.91-3.09-2.66-2.74-4.38" transform="translate(0 -0.18)"/><path class="cls-9" d="M212.18,127.38c1.34.05,3.13-2.45,3.07-3-.24-2.21-1.6-2.08-2.89-2.39a13.37,13.37,0,0,0-7.9.94c-2.51,1-4.47,2.45-6.86,3.69s-9.43,4.87-9.26,5.23c.28.58,1.14.05,1.76-.15,2.7-.86,5.18-2.28,7.79-3.39a15.19,15.19,0,0,1,8.27-1.45A50.68,50.68,0,0,0,212.18,127.38Z" transform="translate(0 -0.18)"/><path class="cls-9" d="M200.52,129.57a4,4,0,0,0,4.43.1,4.29,4.29,0,0,1-3.18,1.61c-1.11.08-1.72,0-2.82.17a17.52,17.52,0,0,0-1.75.36,26.12,26.12,0,0,0-4.85,1.94c-1,.48-2,1-2.91,1.48a29.44,29.44,0,0,1,10.82-5.64" transform="translate(0 -0.18)"/><path class="cls-9" d="M199,131.45a9.42,9.42,0,0,1-.71,3.56,2.21,2.21,0,0,1-.3.45,2.67,2.67,0,0,1-.66.68,2,2,0,0,1-1.35-.16,12,12,0,0,1-3.58-2.23h0" transform="translate(0 -0.18)"/><path class="cls-9" d="M197.2,131.81a5.68,5.68,0,0,0-.25,1.75c0,.49.73,1.45,1.29,1.45" transform="translate(0 -0.18)"/><path class="cls-9" d="M197,136.22a1,1,0,0,1,1,.49,2.15,2.15,0,0,1,.26,1.32,5.12,5.12,0,0,1-1.51,2.71,23.16,23.16,0,0,0-2.15,2.65" transform="translate(0 -0.18)"/><path class="cls-9" d="M189.71,146.13c2.75,3.2,4.8,7.61,4.22,11.78" transform="translate(0 -0.18)"/><path class="cls-9" d="M196.48,169.42a7.21,7.21,0,0,1,7.33.57" transform="translate(0 -0.18)"/><path class="cls-9" d="M145.72,227.93c.9-.5,2.43-1.47,3.45-1.28" transform="translate(0 -0.18)"/><path class="cls-9" d="M184.06,214.48c3.78,1.17,7.68,4.63,10,7.84,4.47,6.22,7.31,53.72,8.21,61.32" transform="translate(0 -0.18)"/><path class="cls-9" d="M226.36,235.25a7.08,7.08,0,0,0,9.51-1.71" transform="translate(0 -0.18)"/><path class="cls-9" d="M215,201.75a16.26,16.26,0,0,0,3.94-8.11" transform="translate(0 -0.18)"/><path class="cls-9" d="M182.35,218.36c6.65,6.85,11.66,55.86,14.22,65.28" transform="translate(0 -0.18)"/><path class="cls-9" d="M55.63,199.47c-4-10.75-44.6-19.56-55.27-23.73" transform="translate(0 -0.18)"/><path class="cls-9" d="M123.9,201.75c1,1.71,2,3.29,3,4.75a27.75,27.75,0,0,0,10.51,9.17c6.4,3.23,13.52,5.65,19,10.29" transform="translate(0 -0.18)"/><path class="cls-9" d="M120.91,219.26l.07,0a17.6,17.6,0,0,1,16.48-3.54" transform="translate(0 -0.18)"/><path class="cls-9" d="M174.65,222.49c-2.75,3.8-2.55,7.92-3,12.86" transform="translate(0 -0.18)"/><path class="cls-9" d="M159.73,225.41c4.55.55,8.85,2.31,10.72,4.52" transform="translate(0 -0.18)"/><path class="cls-10" d="M162.71,232a20,20,0,0,1,6.86,2.51" transform="translate(0 -0.18)"/><path class="cls-10" d="M174.89,234.65a8.28,8.28,0,0,0-1,2.51" transform="translate(0 -0.18)"/><path class="cls-10" d="M168.61,236a15.67,15.67,0,0,1,3.27,1.45c.15.08.3.18.44.27a15.41,15.41,0,0,1,3.15,2.6" transform="translate(0 -0.18)"/><path class="cls-11" d="M171.51,238.94a7.76,7.76,0,0,0-1.32,2.27,6.31,6.31,0,0,0-.22,1" transform="translate(0 -0.18)"/><path class="cls-11" d="M172,241.34a12.38,12.38,0,0,1,3.81,3.32" transform="translate(0 -0.18)"/><path class="cls-11" d="M176.27,242.25a11.54,11.54,0,0,1,.44-1.63,9.7,9.7,0,0,1,.7-1.54" transform="translate(0 -0.18)"/><path class="cls-11" d="M174.62,249.23a8.46,8.46,0,0,1,1.38-3.46" transform="translate(0 -0.18)"/><path class="cls-11" d="M177.79,245.83a14.6,14.6,0,0,1,1.33-3.7,1.63,1.63,0,0,1,.11-.23" transform="translate(0 -0.18)"/><path class="cls-11" d="M177.26,247.15a8.82,8.82,0,0,1,1.6,1.63" transform="translate(0 -0.18)"/></g></g></g></svg>