<svg xmlns="http://www.w3.org/2000/svg" viewBox="0 0 151.74 249.12"><defs><style>.cls-1{fill:#f0d1e4;}.cls-2{fill:#00a651;}.cls-3{fill:#bd80a7;}.cls-4{fill:#231f20;}.cls-5{fill:#da1c5c;}.cls-6{fill:none;stroke:#231f20;stroke-linecap:round;stroke-linejoin:round;stroke-width:0.28px;}</style></defs><title>Asset 4</title><g id="Layer_2" data-name="Layer 2"><g id="Layer_1-2" data-name="Layer 1"><path class="cls-1" d="M149.66,157.34c2.57,18,2.79,33.26.24,49.29a15.71,15.71,0,0,1-3.16,7.88,12.13,12.13,0,0,1-9.19,4.26c-3.07-.21-6.74-1.63-8-1.15-2.51,1-1,13.48-18.07,19.55a13.75,13.75,0,0,0-7.15.58v0a22,22,0,0,1-5.76-1h0a113.18,113.18,0,0,0,7.05-10.94c2.11,2.36,3.87,2.9,6.23,2.81s6-1,6.21-5.94c.52-10.47,1.92-13,3.55-20.5.66-3,1.45-6.23,3.66-8.41,1.16-1.15,2.66-1.94,3.75-3.17,1.83-2.06,2.23-5,2.18-7.77s.17-6.24.21-9A37.55,37.55,0,0,0,129.6,162c-.24-5.09-1.54-13-1.5-19,0-5.53-.11-12.31.77-16.82.35-1.79,1.59-3,2.19-4.36a25.88,25.88,0,0,1,4.57-7.35,14,14,0,0,1,1.28-3.12,7.84,7.84,0,0,1,2.16-2.41c.28-.21.58-.41.88-.6a18.74,18.74,0,0,0,1.55-1.09,3.22,3.22,0,0,0,1.41-2.13c-1.69-.4-2.23-.86-4-1-.46-.24-1.8-1-1.84-1.47a1,1,0,0,1,.42-1c.35-.32.31-.45.79-.49a14.32,14.32,0,0,1,4.2.49c1.42.28,2.95.1,4,1.1s.9,2.71,1.29,4.1a11.66,11.66,0,0,1,.15,5.63,17.77,17.77,0,0,0-.46,5.39,32,32,0,0,0,1.06,5.82,16.94,16.94,0,0,1,0,7.79c-.48,2.69-.64,5.26-1.05,8C146.61,145.3,148.79,150.74,149.66,157.34Z" transform="translate(-0.11 -0.11)"/><path class="cls-1" d="M142.91,105.13a3.22,3.22,0,0,1-1.41,2.13,18.74,18.74,0,0,1-1.55,1.09l0,0a15.67,15.67,0,0,0-2.92-1c-.64-.67-2.84-1-2.37-2.53s3.41-.87,4.32-.68C140.68,104.27,141.22,104.73,142.91,105.13Z" transform="translate(-0.11 -0.11)"/><path class="cls-1" d="M139.92,108.31l0,0c-.3.19-.6.39-.88.6a7.84,7.84,0,0,0-2.16,2.41l-.12-.07c-.73-.08-1.24-.36-2-.44-.38-.41-2.4-.44-2.65-.94a2.05,2.05,0,0,1-.35-1.6,1.68,1.68,0,0,1,1.4-1,15.93,15.93,0,0,1,3.78,0A15.67,15.67,0,0,1,139.92,108.31Z" transform="translate(-0.11 -0.11)"/><path class="cls-1" d="M136.91,111.36a14,14,0,0,0-1.28,3.12c-.23-.09-3.65-.4-3.89-2.31-.19-1.46,2-1.2,3.08-1.32.73.08,1.24.36,2,.44Z" transform="translate(-0.11 -0.11)"/><path class="cls-2" d="M73.28,111.64c2-.71,3.7-1.83,4.17-3.78.23-1,.08-2,.29-3s1-2,2-1.89A7.07,7.07,0,0,0,84,110.87c1.84.69,3.88.55,5.84.79,6.1.73,9.1-2.53,10.38-8.19.15-.64.14,3,0,6.26-.11,2.72-1.11,3.94-.45,7.2,1.67,8.29,4,14.8,8.2,20.42a38,38,0,0,0,3.18,3.74c2.75,2.85,6.53,4.46,9.57,7A29.78,29.78,0,0,1,129.6,162a37.55,37.55,0,0,1,1.81,11.85c0,2.75-.26,6.24-.21,9s-.35,5.71-2.18,7.77c-1.09,1.23-2.59,2-3.75,3.17-2.21,2.18-3,5.38-3.66,8.41-1.63,7.48-3,10-3.55,20.5-.25,4.9-3.85,5.85-6.21,5.94s-4.12-.45-6.23-2.81a36.86,36.86,0,0,0,3.78-8.58c.79-3,1.3-7.17.06-10.05a26.81,26.81,0,0,0-6.59-8.86,141.94,141.94,0,0,0-26.3-18.56,4.25,4.25,0,0,0-2.38-.74,4.41,4.41,0,0,0-1.86.81,67.27,67.27,0,0,0-10.56,7.77A23.69,23.69,0,0,0,55,199.68c-1.58,9.28.39,19.46,4.75,28.44-1.43,1.75-5.28,1.71-7,.29s-2.6-3.67-3.23-5.84-1-4.59-2.51-6.26c-7.13-7.79-14.3-7.79-18.93-15.9-3.11-5.45-4.21-12-4.22-18.31,0-7.12,3.66-10.36-.59-17.76a19.64,19.64,0,0,1,1.27-21c.44-.6.93-1.18,1.41-1.77a10.17,10.17,0,0,0,2.63-5C29,132.94,25.93,130,24,127c-2.54-4-2.77-8.77-1.63-13.35-.51,2.47,1,5.4,3.11,7a4.37,4.37,0,0,0,.44.31,3.87,3.87,0,0,0,4.05.34c1.3-.83,1.62-2.6,1.46-4.13a38.1,38.1,0,0,1,0-10.34c1,2.29,1.07,4.29,2,6.58a4,4,0,0,0,2.37,2c2.2.09,5.21-4.81,3.29-16.36,3.59,5,4.71,10.36,10.89,10.7a6.8,6.8,0,0,0,3.38-.5c2.64-1.31,3-4.86,3-7.8A3.8,3.8,0,0,1,58,104.72a19,19,0,0,0,.11,3.93c.57,2.34,2.9,3.91,5.26,4.33a18.79,18.79,0,0,0,7.14-.58A22.63,22.63,0,0,0,73.28,111.64Z" transform="translate(-0.11 -0.11)"/><path class="cls-1" d="M87.87,94.74a33.75,33.75,0,0,1,15.66,5.44c4.11,2.89,7.76,8.75,8.1,16.07.41,8.64-2.92,11.8-3.62,21.08l0,0c-4.18-5.62-6.53-12.13-8.2-20.42-.66-3.26.34-4.48.45-7.2.14-3.23.15-6.9,0-6.26-1.28,5.66-4.28,8.92-10.38,8.19-2-.24-4-.1-5.84-.79A7.07,7.07,0,0,1,79.76,103c-1-.11-1.81.9-2,1.89s-.06,2-.29,3c-.47,2-2.21,3.07-4.17,3.78.26-4.07,1.36-6.75,1.6-9.26a11.29,11.29,0,0,0-.73-6.11A31.18,31.18,0,0,1,87.87,94.74Z" transform="translate(-0.11 -0.11)"/><path class="cls-3" d="M111.49,237.17l-.57.2a7.84,7.84,0,0,0-1.83.5c-.25.16-.24.56-.74.6s-.64-.28-1-.36c-.61-.12-1.34,0-1.95-.16-.35-.07-.7-.12-1.06-.17v0A13.75,13.75,0,0,1,111.49,237.17Z" transform="translate(-0.11 -0.11)"/><path class="cls-1" d="M109.46,207.19c1.24,2.88.73,7-.06,10.05a36.86,36.86,0,0,1-3.78,8.58,113.18,113.18,0,0,1-7.05,10.94Q97,239,95.24,241.11c-3.08,3.82-6.95,7.72-11.86,7.95a15,15,0,0,1-10.45-3.78A47,47,0,0,1,66.65,239a53.71,53.71,0,0,1-6.9-10.83c-4.36-9-6.33-19.16-4.75-28.44a23.69,23.69,0,0,1,6.77-12.07,67.27,67.27,0,0,1,10.56-7.77,4.41,4.41,0,0,1,1.86-.81,4.25,4.25,0,0,1,2.38.74,141.94,141.94,0,0,1,26.3,18.56A26.81,26.81,0,0,1,109.46,207.19Zm-7.29-4c-2.28-1-10.59.69-14.1,3.58a20.84,20.84,0,0,0,7.4-1.31C97.47,204.65,100.13,203.18,102.17,203.18ZM94.8,214a8.75,8.75,0,0,0,5.79-2.46,11.3,11.3,0,0,1-11.33.09A8,8,0,0,0,94.8,214Zm-6.63,26.66c1.9-1.07,2.6-3.59,4.68-4.28a25.21,25.21,0,0,0-6.14,1.33,12.81,12.81,0,0,1-7.7-.09,15.76,15.76,0,0,0-5.85-.77c2.28,1.33,3.13,3.19,5.09,3.9a13.32,13.32,0,0,0,5.45.5C85,241.25,87.05,241.33,88.17,240.69ZM70.26,215.12a7.62,7.62,0,0,0,5.66-2.6c-3,2.35-8,2.31-11.3.38A7.23,7.23,0,0,0,70.26,215.12ZM59.6,203.61c6.22.84,9.18,3.69,17.13,3.75A29.89,29.89,0,0,0,59.6,203.61Z" transform="translate(-0.11 -0.11)"/><path class="cls-4" d="M88.07,206.76c3.51-2.89,11.82-4.59,14.1-3.58-2,0-4.7,1.47-6.7,2.27A20.84,20.84,0,0,1,88.07,206.76Z" transform="translate(-0.11 -0.11)"/><path class="cls-4" d="M100.59,211.57A8.75,8.75,0,0,1,94.8,214a8,8,0,0,1-5.54-2.37A11.3,11.3,0,0,0,100.59,211.57Z" transform="translate(-0.11 -0.11)"/><path class="cls-5" d="M92.85,236.41c-2.08.69-2.78,3.21-4.68,4.28-1.12.64-3.18.56-4.47.59a13.32,13.32,0,0,1-5.45-.5c-2-.71-2.81-2.57-5.09-3.9a15.76,15.76,0,0,1,5.85.77,12.81,12.81,0,0,0,7.7.09A25.21,25.21,0,0,1,92.85,236.41Z" transform="translate(-0.11 -0.11)"/><path class="cls-1" d="M85.69,77.46c1.86,5.82-.35,13.18,2.18,17.28a31.18,31.18,0,0,0-13.72,1.53C72.77,87.88,67.89,76,67.43,67.49a46.65,46.65,0,0,0-.9-8.68c-.07-.27-.15-.55-.25-.83,0,0,0,0,0,0a69,69,0,0,0-1.55-9c-.24-1-.61-2.29,0-3.17s2.5-1.43,3.45-1.49a8.26,8.26,0,0,1,4.35.88c1,.72.82,2.65.83,3.9.45,4.68,1.07,10.05,3.94,13.77C78.34,64.22,83.39,70.3,85.69,77.46Z" transform="translate(-0.11 -0.11)"/><path class="cls-1" d="M74.15,96.27a11.29,11.29,0,0,1,.73,6.11c-.24,2.51-1.34,5.19-1.6,9.26a22.63,22.63,0,0,1-2.75.76,18.79,18.79,0,0,1-7.14.58c-2.36-.42-4.69-2-5.26-4.33a19,19,0,0,1-.11-3.93,3.8,3.8,0,0,0-1.63-3.38c0,2.94-.38,6.49-3,7.8a6.8,6.8,0,0,1-3.38.5c-6.18-.34-7.3-5.66-10.89-10.7C41,110.49,38,115.39,35.81,115.3a4,4,0,0,1-2.37-2c-1-2.29-1.06-4.29-2-6.58a38.1,38.1,0,0,0,0,10.34c.16,1.53-.16,3.3-1.46,4.13a3.87,3.87,0,0,1-4.05-.34,4.37,4.37,0,0,1-.44-.31l0,0a65.33,65.33,0,0,1,3.61-18.45c2.52-3.33,6.27-7.27,9.77-9.39a32.36,32.36,0,0,1,10.3-3.75A29.82,29.82,0,0,1,74.15,96.27Z" transform="translate(-0.11 -0.11)"/><path class="cls-4" d="M75.92,212.52a7.62,7.62,0,0,1-5.66,2.6,7.23,7.23,0,0,1-5.64-2.22C68,214.83,72.87,214.87,75.92,212.52Z" transform="translate(-0.11 -0.11)"/><path class="cls-1" d="M67.43,67.49c.46,8.49,5.34,20.39,6.72,28.78a29.82,29.82,0,0,0-25-7.35,32.36,32.36,0,0,0-10.3,3.75c-3.5,2.12-7.25,6.06-9.77,9.39A38.64,38.64,0,0,1,37.2,88.29c3.35-3.47,5-8.84,5.64-13.62s2-10.61,1.28-15.39c-.91-6.44-2.14-13.64-1.06-20.06a108.31,108.31,0,0,1,4.21-16.63c1.36-4.05,2.44-8.32,2-12.57a35.57,35.57,0,0,1-.62-6c.14-2,1.22-2.81,3.12-3.44A5.38,5.38,0,0,1,56.49,1c1.43,1.1,1.57,3.25,1.7,5s0,3.6.16,5.4c.26,3.13,1.24,7.48,1.52,10.61.84,9.1,1.86,18,3.14,27.29.37,2.67,2.37,5.9,3.27,8.64,0,0,0,0,0,0,.1.28.18.56.25.83A46.65,46.65,0,0,1,67.43,67.49Z" transform="translate(-0.11 -0.11)"/><path class="cls-4" d="M76.73,207.36c-8-.06-10.91-2.91-17.13-3.75A29.89,29.89,0,0,1,76.73,207.36Z" transform="translate(-0.11 -0.11)"/><path class="cls-1" d="M16.84,87h0c2.35-1.28,2.55-.1,2.7.49.23.92-1.07,3.08-1.94,4.61-2.18,3.85-5.47,9.06-2.36,11.29,2.94-.17,2.3-3.91,3.61-5.78.88-1.27,2-2.41,3.54-2.46a1.6,1.6,0,0,1,1.66,1.09c.05.36-.46.77-.63,1.1-1.06,2-2.34,4.14-2.43,6.34-.08,2-1.05,3.59-1.74,5.5-.92,2.51-.23,3-3.24,5a4.93,4.93,0,0,0-1.65,3.58,5.48,5.48,0,0,0,1,2.7,46.87,46.87,0,0,0,3.8,4.62,39.9,39.9,0,0,1,3.43,4.32c2.16,2.94,3.12,8.43,3.3,12.08h0c-.48.59-1,1.17-1.41,1.77a19.64,19.64,0,0,0-1.27,21c4.25,7.4.58,10.64.59,17.76,0,6.35,1.11,12.86,4.22,18.31,4.63,8.11,11.8,8.11,18.93,15.9,1.53,1.67,1.88,4.09,2.51,6.26S51,227,52.72,228.41s5.6,1.46,7-.29A53.71,53.71,0,0,0,66.65,239a11,11,0,0,1-4.29.75h0v-.06a11.33,11.33,0,0,0-8.63-1.33c-4.32-.62-7-2.31-10.16-5.28a22.76,22.76,0,0,1-5.92-10.12,1.65,1.65,0,0,0-2.06-1.13c-4.12,1.24-8.51,2.27-12.45.77-3.74-1.43-6-4.41-8.14-7.78-7.13-11.2-7.2-25.89-7.33-38.55C7.34,146.6,1.52,140.38,1.6,120c0-2.72-2.11-6.65-1.06-9.68,1.33-3.81.34-6.22.28-9.27a22.85,22.85,0,0,1,1.45-8.74C3.35,89.48,5,86.57,7.92,85.56A4.64,4.64,0,0,1,9.52,85a.59.59,0,0,1,.53.39,2.09,2.09,0,0,1,.16,1,2,2,0,0,1-.37,1l2.87.61a15.5,15.5,0,0,0,2.28-4,2.65,2.65,0,0,1,2.18-.62c.53.08.69,1.13.48,2.15A7.68,7.68,0,0,1,16.84,87Z" transform="translate(-0.11 -0.11)"/><path class="cls-3" d="M62.34,239.64v.06a18.72,18.72,0,0,0-3.09,0c-.37.11-.85.63-1.72.38s-.67-.82-1.07-1a18,18,0,0,0-2.75-.75A11.33,11.33,0,0,1,62.34,239.64Z" transform="translate(-0.11 -0.11)"/><path class="cls-1" d="M13.75,82.37c.62.15,1.43,1,1.24,1.57a15.5,15.5,0,0,1-2.28,4l-2.87-.61a2,2,0,0,0,.37-1,2.09,2.09,0,0,0-.16-1l.06,0a17.73,17.73,0,0,0,1.89-2C12.55,82.85,13,82.18,13.75,82.37Z" transform="translate(-0.11 -0.11)"/><path class="cls-6" d="M76.73,207.36c-8-.06-10.91-2.91-17.13-3.75A29.89,29.89,0,0,1,76.73,207.36Z" transform="translate(-0.11 -0.11)"/><path class="cls-6" d="M102.17,203.18c-2,0-4.7,1.47-6.7,2.27a20.84,20.84,0,0,1-7.4,1.31C91.58,203.87,99.89,202.17,102.17,203.18Z" transform="translate(-0.11 -0.11)"/><path class="cls-6" d="M89.26,211.66a11.3,11.3,0,0,0,11.33-.09A8.75,8.75,0,0,1,94.8,214,8,8,0,0,1,89.26,211.66Z" transform="translate(-0.11 -0.11)"/><path class="cls-6" d="M64.62,212.9c3.33,1.93,8.25,2,11.3-.38a7.62,7.62,0,0,1-5.66,2.6A7.23,7.23,0,0,1,64.62,212.9Z" transform="translate(-0.11 -0.11)"/><path class="cls-6" d="M78.66,230.37a4.8,4.8,0,0,1,1.53.72c.31.3.43.57.72.9a3.3,3.3,0,0,0,1.71.58,2.86,2.86,0,0,0,2.09-.58c.43-.51.23-.57.81-.89.39-.22,1.06-.14,1.45-.36a2.19,2.19,0,0,0,.88-2.37,8.86,8.86,0,0,0-1.13-2.44A17.32,17.32,0,0,1,87,209.4" transform="translate(-0.11 -0.11)"/><path class="cls-6" d="M92.85,236.41c-2.08.69-2.78,3.21-4.68,4.28-1.12.64-3.18.56-4.47.59a13.32,13.32,0,0,1-5.45-.5c-2-.71-2.81-2.57-5.09-3.9a15.76,15.76,0,0,1,5.85.77,12.81,12.81,0,0,0,7.7.09A25.21,25.21,0,0,1,92.85,236.41Z" transform="translate(-0.11 -0.11)"/><path class="cls-6" d="M105.62,225.82a36.86,36.86,0,0,0,3.78-8.58c.79-3,1.3-7.17.06-10.05a26.81,26.81,0,0,0-6.59-8.86,141.94,141.94,0,0,0-26.3-18.56,4.25,4.25,0,0,0-2.38-.74,4.41,4.41,0,0,0-1.86.81,67.27,67.27,0,0,0-10.56,7.77A23.69,23.69,0,0,0,55,199.68c-1.58,9.28.39,19.46,4.75,28.44A53.71,53.71,0,0,0,66.65,239a47,47,0,0,0,6.28,6.33,15,15,0,0,0,10.45,3.78c4.91-.23,8.78-4.13,11.86-7.95Q97,239,98.57,236.76A113.18,113.18,0,0,0,105.62,225.82Z" transform="translate(-0.11 -0.11)"/><path class="cls-6" d="M53.71,238.31a11.33,11.33,0,0,1,8.63,1.33" transform="translate(-0.11 -0.11)"/><path class="cls-6" d="M59.75,228.12c-1.43,1.75-5.28,1.71-7,.29s-2.6-3.67-3.23-5.84-1-4.59-2.51-6.26c-7.13-7.79-14.3-7.79-18.93-15.9-3.11-5.45-4.21-12-4.22-18.31,0-7.12,3.66-10.36-.59-17.76a19.64,19.64,0,0,1,1.27-21c.44-.6.93-1.18,1.41-1.77a10.17,10.17,0,0,0,2.63-5C29,132.94,25.93,130,24,127c-2.54-4-2.77-8.77-1.63-13.35" transform="translate(-0.11 -0.11)"/><path class="cls-6" d="M25.91,141.56c-.18-3.65-1.14-9.14-3.3-12.08a39.9,39.9,0,0,0-3.43-4.32,46.87,46.87,0,0,1-3.8-4.62,5.48,5.48,0,0,1-1-2.7A4.93,4.93,0,0,1,16,114.26c3-2,2.32-2.52,3.24-5,.69-1.91,1.66-3.5,1.74-5.5.09-2.2,1.37-4.34,2.43-6.34.17-.33.68-.74.63-1.1a1.6,1.6,0,0,0-1.66-1.09c-1.54,0-2.66,1.19-3.54,2.46-1.31,1.87-.67,5.61-3.61,5.78-3.11-2.23.18-7.44,2.36-11.29.87-1.53,2.17-3.69,1.94-4.61-.15-.59-.35-1.77-2.7-.49" transform="translate(-0.11 -0.11)"/><path class="cls-6" d="M135.63,114.48c-.23-.09-3.65-.4-3.89-2.31-.19-1.46,2-1.2,3.08-1.32-.38-.41-2.4-.44-2.65-.94a2.05,2.05,0,0,1-.35-1.6,1.68,1.68,0,0,1,1.4-1,15.93,15.93,0,0,1,3.78,0c-.64-.67-2.84-1-2.37-2.53s3.41-.87,4.32-.68c-.46-.24-1.8-1-1.84-1.47a1,1,0,0,1,.42-1c.35-.32.31-.45.79-.49a14.32,14.32,0,0,1,4.2.49c1.42.28,2.95.1,4,1.1s.9,2.71,1.29,4.1a11.66,11.66,0,0,1,.15,5.63,17.77,17.77,0,0,0-.46,5.39,32,32,0,0,0,1.06,5.82,16.94,16.94,0,0,1,0,7.79c-.48,2.69-.64,5.26-1.05,8-.89,5.83,1.29,11.27,2.16,17.87" transform="translate(-0.11 -0.11)"/><path class="cls-6" d="M108,137.33c.7-9.28,4-12.44,3.62-21.08-.34-7.32-4-13.18-8.1-16.07a33.75,33.75,0,0,0-15.66-5.44,31.18,31.18,0,0,0-13.72,1.53,29.82,29.82,0,0,0-25-7.35,32.36,32.36,0,0,0-10.3,3.75c-3.5,2.12-7.25,6.06-9.77,9.39l-.08.1" transform="translate(-0.11 -0.11)"/><path class="cls-6" d="M105.62,225.82c2.11,2.36,3.87,2.9,6.23,2.81s6-1,6.21-5.94c.52-10.47,1.92-13,3.55-20.5.66-3,1.45-6.23,3.66-8.41,1.16-1.15,2.66-1.94,3.75-3.17,1.83-2.06,2.23-5,2.18-7.77s.17-6.24.21-9A37.55,37.55,0,0,0,129.6,162a29.78,29.78,0,0,0-8.86-13.92c-3-2.53-6.82-4.14-9.57-7a38,38,0,0,1-3.18-3.74c-4.18-5.62-6.53-12.13-8.2-20.42-.66-3.26.34-4.48.45-7.2.14-3.23.15-6.9,0-6.26-1.28,5.66-4.28,8.92-10.38,8.19-2-.24-4-.1-5.84-.79A7.07,7.07,0,0,1,79.76,103c-1-.11-1.81.9-2,1.89s-.06,2-.29,3c-.47,2-2.21,3.07-4.17,3.78a22.63,22.63,0,0,1-2.75.76,18.79,18.79,0,0,1-7.14.58c-2.36-.42-4.69-2-5.26-4.33a19,19,0,0,1-.11-3.93,3.8,3.8,0,0,0-1.63-3.38c0,2.94-.38,6.49-3,7.8a6.8,6.8,0,0,1-3.38.5c-6.18-.34-7.3-5.66-10.89-10.7C41,110.49,38,115.39,35.81,115.3a4,4,0,0,1-2.37-2c-1-2.29-1.06-4.29-2-6.58a38.1,38.1,0,0,0,0,10.34c.16,1.53-.16,3.3-1.46,4.13a3.87,3.87,0,0,1-4.05-.34,4.37,4.37,0,0,1-.44-.31c-2.07-1.55-3.62-4.48-3.11-7" transform="translate(-0.11 -0.11)"/><path class="cls-6" d="M98.58,236.77a22,22,0,0,0,5.76,1c.36.05.71.1,1.06.17.61.13,1.34,0,1.95.16.36.08.36.42,1,.36s.49-.44.74-.6a7.84,7.84,0,0,1,1.83-.5l.57-.2c17-6.07,15.56-18.59,18.07-19.55,1.25-.48,4.92.94,8,1.15a12.13,12.13,0,0,0,9.19-4.26,15.71,15.71,0,0,0,3.16-7.88c2.55-16,2.33-31.26-.24-49.29" transform="translate(-0.11 -0.11)"/><path class="cls-6" d="M104.34,237.75a13.75,13.75,0,0,1,7.15-.58h0" transform="translate(-0.11 -0.11)"/><path class="cls-6" d="M66.28,58a69,69,0,0,0-1.55-9c-.24-1-.61-2.29,0-3.17s2.5-1.43,3.45-1.49a8.26,8.26,0,0,1,4.35.88c1,.72.82,2.65.83,3.9.45,4.68,1.07,10.05,3.94,13.77,1.09,1.41,6.14,7.49,8.44,14.65,1.86,5.82-.35,13.18,2.18,17.28l0,.05" transform="translate(-0.11 -0.11)"/><path class="cls-6" d="M25.5,120.51a65.33,65.33,0,0,1,3.61-18.45A38.64,38.64,0,0,1,37.2,88.29c3.35-3.47,5-8.84,5.64-13.62s2-10.61,1.28-15.39c-.91-6.44-2.14-13.64-1.06-20.06a108.31,108.31,0,0,1,4.21-16.63c1.36-4.05,2.44-8.32,2-12.57a35.57,35.57,0,0,1-.62-6c.14-2,1.22-2.81,3.12-3.44A5.38,5.38,0,0,1,56.49,1c1.43,1.1,1.57,3.25,1.7,5s0,3.6.16,5.4c.26,3.13,1.24,7.48,1.52,10.61.84,9.1,1.86,18,3.14,27.29.37,2.67,2.37,5.9,3.27,8.64,0,0,0,0,0,0,.1.28.18.56.25.83a46.65,46.65,0,0,1,.9,8.68c.46,8.49,5.34,20.39,6.72,28.78" transform="translate(-0.11 -0.11)"/><path class="cls-6" d="M4.88,96.55A32,32,0,0,1,5.94,92.1a8.16,8.16,0,0,1,2.18-3.2c.43-.36.9-.67,1.3-1.05a3.8,3.8,0,0,0,.42-.48,2,2,0,0,0,.37-1,2.09,2.09,0,0,0-.16-1A.59.59,0,0,0,9.52,85a4.64,4.64,0,0,0-1.6.53c-2.88,1-4.57,3.92-5.65,6.77a22.85,22.85,0,0,0-1.45,8.74c.06,3.05,1.05,5.46-.28,9.27-1,3,1.07,7,1.06,9.68-.08,20.36,5.74,26.58,6.05,56.2.13,12.66.2,27.35,7.33,38.55,2.15,3.37,4.4,6.35,8.14,7.78,3.94,1.5,8.33.47,12.45-.77a1.65,1.65,0,0,1,2.06,1.13A22.76,22.76,0,0,0,43.55,233c3.18,3,5.84,4.66,10.16,5.28a18,18,0,0,1,2.75.75c.4.22.35.83,1.07,1s1.35-.27,1.72-.38a18.72,18.72,0,0,1,3.09,0h0a11,11,0,0,0,4.29-.75" transform="translate(-0.11 -0.11)"/><path class="cls-6" d="M7.88,98.23a15.61,15.61,0,0,1,3-7.79c.59-.79,1.23-1.62,1.83-2.46a15.5,15.5,0,0,0,2.28-4c.19-.6-.62-1.42-1.24-1.57s-1.2.48-1.75,1a17.73,17.73,0,0,1-1.89,2" transform="translate(-0.11 -0.11)"/><path class="cls-6" d="M10.76,99.79a24,24,0,0,1,2-6c1-1.86,3-4.84,4.08-6.71a7.68,7.68,0,0,0,.81-1.57c.21-1,.05-2.07-.48-2.15a2.65,2.65,0,0,0-2.18.62" transform="translate(-0.11 -0.11)"/><path class="cls-6" d="M137,107.33a15.67,15.67,0,0,1,2.92,1" transform="translate(-0.11 -0.11)"/><path class="cls-6" d="M134.82,110.85c.73.08,1.24.36,2,.44" transform="translate(-0.11 -0.11)"/><path class="cls-6" d="M129.62,162.31c0-.1,0-.21,0-.31-.24-5.09-1.54-13-1.5-19,0-5.53-.11-12.31.77-16.82.35-1.79,1.59-3,2.19-4.36a25.88,25.88,0,0,1,4.57-7.35,14,14,0,0,1,1.28-3.12,7.84,7.84,0,0,1,2.16-2.41c.28-.21.58-.41.88-.6a18.74,18.74,0,0,0,1.55-1.09,3.22,3.22,0,0,0,1.41-2.13c-1.69-.4-2.23-.86-4-1" transform="translate(-0.11 -0.11)"/><path class="cls-6" d="M50.6,53A36.82,36.82,0,0,1,58,52" transform="translate(-0.11 -0.11)"/><path class="cls-6" d="M75.25,84.9a14.6,14.6,0,0,1,5.68.75" transform="translate(-0.11 -0.11)"/><path class="cls-6" d="M74.15,96.27a11.29,11.29,0,0,1,.73,6.11c-.24,2.51-1.34,5.19-1.6,9.26v0" transform="translate(-0.11 -0.11)"/><path class="cls-6" d="M135.63,127a2,2,0,0,1,.74-2.33,2.6,2.6,0,0,1,2.52-.12,3.73,3.73,0,0,1,1.75,1.92" transform="translate(-0.11 -0.11)"/><path class="cls-6" d="M18.09,130.31a2.7,2.7,0,0,0,1.3,2.9,2.73,2.73,0,0,0,3.15-.47" transform="translate(-0.11 -0.11)"/><path class="cls-6" d="M3.23,111.62a9.78,9.78,0,0,1,7.22,1.94" transform="translate(-0.11 -0.11)"/><path class="cls-6" d="M146.09,116.13a6.41,6.41,0,0,0-3.83-1.95" transform="translate(-0.11 -0.11)"/><path class="cls-6" d="M131.51,173.64a13.13,13.13,0,0,1,6.12,4.76" transform="translate(-0.11 -0.11)"/></g></g></svg>