<svg xmlns="http://www.w3.org/2000/svg" viewBox="0 0 215.23 106.59"><defs><style>.cls-1{fill:#da1c5c;}.cls-2{fill:#fff;}.cls-3{fill:#f0d1e4;}.cls-4{fill:#bd80a7;}.cls-5{fill:none;stroke:#231f20;stroke-linecap:round;stroke-linejoin:round;stroke-width:0.99px;}</style></defs><title>Asset 4</title><g id="Layer_2" data-name="Layer 2"><g id="Layer_4" data-name="Layer 4"><path class="cls-1" d="M208.75,30.36c5.25,6,7.68,14.82,4.69,22.2-1.21-2.67-3.57-6.24-9-3.49-2.61,1.33-3.12,5.37-5.86,6.33-5.29,1.86-10.84-6-15.83-3.4-3.53,1.84-3.71,7.75-7.46,9.08-5.17,1.84-9.09-7.2-14.49-6.24-3.8.69-5.47,6-9.27,6.67-2.33.4-4.2-1-6.05-2.7-2.1-1.91-4.18-4.14-6.85-4.35-4.35-.35-7.27,4.7-11.49,5.86-7.36,2-13.11-8.35-20.73-8.16-3.93.09-7.54,3.06-11.43,2.47-2.25-.33-4.14-1.81-6.13-2.92C85.08,49.58,85,48.89,80.75,48c-3.49-.7-10.18,2.1-13.68,1.4-4.8-1-7.1-6-11.9-7-3.76-.75-11.31-.39-14.17-3-2.45-2.24-4-6.5-7.18-7.42-3.57-1-7.68,1.72-10.94-.07-3.82-2.09-3.05-8.45-6.5-11.13-2.65-2-12.65-.22-13.46-3.45h0a14.91,14.91,0,0,1,.89-3c1.77-4.41,11.28-10,16-11C27,1.8,37.1,1.62,44.48,1.25,84.8-.8,124.73.76,164.92,12.9c7.62,2.31,15.45,4.39,23.21,6.19S203.51,24.37,208.75,30.36Z"/><path class="cls-2" d="M213.44,52.56C219.13,70.39,200.15,91,191.28,95c-5.23,2.31-10.14-.52-14.52,3.15-2.28,1.91-4.15,4.71-7.09,5.19-4.12.67-7.69-2.7-11.84-3.21-5.83-.72-10,5.5-15.8,6-6.64.51-8.78-2.42-11.08-3.08-5.16-1.47-9.22,2.85-14.58,2.67-6.93-.24-9.53-3-16.21-4.93C94,99,90,101.12,84.36,98c-3.57-2-7-5.55-11.9-6.37-3-.49-9,1-11.91,0C57.33,90.58,55,85.22,52.35,83c-3-2.48-7.51-1.17-11.29-2.05-4.79-1.11-7.68-6.47-11.56-9.49-2.4-1.87-9.28-3.82-13.07-8C13.18,60,13,54.26,11.1,52.47,3,44.86-3.45,33.38,3.35,21.36-.21,32.5,4.73,39.85,12.8,47.46c1.89,1.79,2.08,7.54,5.33,11.08,3.79,4.13,10.67,6.08,13.07,7.95,3.88,3,6.77,8.38,11.56,9.49,3.78.88,8.31-.43,11.29,2.06,2.61,2.18,5,7.54,8.2,8.62,2.87,1,8.93-.5,11.91,0,4.92.82,8.33,4.4,11.9,6.36,5.63,3.09,9.62.92,15.8,2.67,6.68,1.88,9.28,4.68,16.21,4.92,5.36.18,9.42-4.14,14.58-2.67,2.3.66,4.44,3.59,11.08,3.08,5.85-.45,10-6.67,15.8-6,4.15.51,7.72,3.89,11.84,3.22,2.94-.48,4.81-3.28,7.09-5.19,4.38-3.67,9.29-.85,14.52-3.16C201.85,86,214.93,67.1,213.44,52.56Z"/><path class="cls-3" d="M213.44,52.56C214.93,67.1,201.85,86,193,89.94c-5.23,2.31-10.14-.51-14.52,3.16-2.28,1.91-4.15,4.71-7.09,5.19-4.12.67-7.69-2.71-11.84-3.22-5.83-.72-9.95,5.5-15.8,6-6.64.51-8.78-2.42-11.08-3.08-5.16-1.47-9.22,2.85-14.58,2.67-6.93-.24-9.53-3-16.21-4.92-6.18-1.75-10.17.42-15.8-2.67-3.57-2-7-5.54-11.9-6.36-3-.5-9,1-11.91,0C59,85.58,56.66,80.22,54.05,78c-3-2.49-7.51-1.18-11.29-2.06C38,74.87,35.08,69.51,31.2,66.49c-2.4-1.87-9.28-3.82-13.07-7.95C14.88,55,14.69,49.25,12.8,47.46c-8.07-7.61-13-15-9.45-26.1a1.26,1.26,0,0,0,0,.27C2.75,25,5.92,29.08,8.59,34c.81,1.5.82,4.11,1.7,5.81,1.58,3,6.12,7.78,9.51,8.35s7,1.42,9.33,3.95c2.56,2.77,3.12,7.1,6.06,9.48,5.36,4.34,13.31-1,20.13.08,8.26,1.32,13.59,11.88,21.9,11,2.82-.29,5.42-1.93,8.25-1.83,6.73.24,9.81,9.6,16.4,11,6,1.28,11.34-4.59,17.44-4.61,8,0,13.77,9.84,21.73,9,6.4-.65,10.92-8.09,17.34-7.71,2.8.17,5.24,1.84,7.8,3s6.73,1.5,8.85-.34c1.53-1.33,3.27-4.16,4.8-5.49,3.85-3.34,7.48,2.19,12.55,1.75,3.39-.29,7.42-3,9.78-5.46C204.3,69.81,212.87,56.17,213.44,52.56Z"/><path class="cls-2" d="M213.44,52.56c-1.23-2.67-5.46-1.55-7.35.71s-3.17,5.36-6,6.32c-5.38,1.86-11-6-16.1-3.39-3.59,1.83-3.77,7.74-7.58,9.07-5.26,1.84-9.25-7.2-14.73-6.23-3.87.68-5.57,6-9.44,6.66-3.71.63-6.29-3.25-9.42-5.51l2.64-1.38c1.85,1.67,3.72,3.1,6.05,2.7,3.8-.66,5.47-6,9.27-6.67,5.4-1,9.32,8.08,14.49,6.24,3.75-1.33,3.93-7.24,7.46-9.08,5-2.59,10.54,5.26,15.83,3.4,2.74-1,3.25-5,5.86-6.33C209.87,46.32,212.23,49.89,213.44,52.56Z"/><path class="cls-3" d="M206.09,53.27c1.89-2.26,6.12-3.38,7.35-.71-2.14,2.22-9.37,12.75-11.52,15-2.36,2.45-5,5.06-8.42,5.35-5.07.44-10.83-4.31-14.67-1-1.53,1.33-2,3.57-3.57,4.9-2.12,1.84-5.4,1.3-8,.15s-5-2.82-7.81-3c-6.42-.38-10.93,7.06-17.33,7.71-8,.8-13.73-9-21.73-9-6.11,0-11.47,5.88-17.44,4.61-6.59-1.4-9.67-10.76-16.41-11-2.82-.1-5.43,1.54-8.24,1.82-8.31.85-13.65-9.71-21.9-11C49.62,56,41.67,61.32,36.3,57c-2.93-2.37-3.49-6.7-6-9.48-2.34-2.52-5.94-3.37-9.33-3.94s-5.15-2.87-7.3-5.56c-.78-1-1.23-4.92-2.22-6.34C8.82,28,3,24.79,3.31,21.63a1.26,1.26,0,0,1,0-.27l.13-.09A3.8,3.8,0,0,0,5.12,22.6c3.07,1.4,7,.36,9.73,2.4,3.51,2.68,2.73,9,6.61,11.14,3.31,1.79,7.5-1,11.12.07,3.22.92,4.81,5.18,7.31,7.42,2.9,2.6,10.57,2.24,14.4,3,4.88,1,7.22,6,12.1,7,3.55.7,10.36-2.1,13.91-1.4,4.32.85,4.4,1.55,8.26,3.67,2,1.12,4,2.59,6.23,2.93,4,.58,7.64-2.39,11.63-2.48,7.75-.19,13.59,10.17,21.08,8.16,4.29-1.15,7.26-6.21,11.68-5.86a7.3,7.3,0,0,1,3.69,1.54c3.13,2.26,5.71,6.14,9.42,5.51,3.87-.66,5.57-6,9.44-6.66,5.48-1,9.47,8.07,14.73,6.23,3.81-1.33,4-7.24,7.58-9.07,5.07-2.59,10.72,5.25,16.1,3.39C202.92,58.63,204.2,55.52,206.09,53.27Z"/><path class="cls-4" d="M213.44,52.56c-.57,3.61-9.14,17.25-11.28,19.48-2.36,2.45-6.39,5.17-9.78,5.46-5.07.44-8.7-5.09-12.55-1.75-1.53,1.33-3.27,4.16-4.8,5.49-2.12,1.84-6.28,1.49-8.85.34s-5-2.81-7.8-3c-6.42-.38-10.94,7.06-17.34,7.71-8,.81-13.72-9-21.73-9-6.1,0-11.47,5.89-17.44,4.61-6.59-1.4-9.67-10.76-16.4-11-2.83-.1-5.43,1.54-8.25,1.83-8.31.84-13.64-9.72-21.9-11-6.82-1.08-14.77,4.26-20.13-.08-2.94-2.38-3.5-6.71-6.06-9.48-2.33-2.53-5.94-3.37-9.33-3.95s-7.93-5.3-9.51-8.35c-.88-1.7-.89-4.31-1.7-5.81-2.67-4.93-5.84-9-5.28-12.38C3,24.79,8.82,28,11.4,31.65c1,1.42,1.44,5.36,2.22,6.34,2.15,2.69,3.9,5,7.3,5.56s7,1.42,9.33,3.94c2.56,2.78,3.12,7.11,6,9.48,5.37,4.35,13.32-1,20.14.09,8.25,1.32,13.59,11.88,21.9,11,2.81-.28,5.42-1.92,8.24-1.82,6.74.24,9.82,9.6,16.41,11,6,1.27,11.33-4.6,17.44-4.61,8,0,13.77,9.83,21.73,9,6.4-.65,10.91-8.09,17.33-7.71,2.8.16,5.25,1.83,7.81,3s5.84,1.69,8-.15c1.54-1.33,2-3.57,3.57-4.9,3.84-3.34,9.6,1.41,14.67,1,3.39-.29,6.06-2.9,8.42-5.35C204.07,65.31,211.3,54.78,213.44,52.56Z"/><path class="cls-2" d="M145.51,58.81l-2.64,1.38a7.3,7.3,0,0,0-3.69-1.54c-4.42-.35-7.39,4.71-11.68,5.86-7.49,2-13.33-8.35-21.08-8.16-4,.09-7.67,3.06-11.63,2.48-2.28-.34-4.2-1.81-6.23-2.93-3.86-2.12-3.94-2.82-8.26-3.67-3.55-.7-10.36,2.1-13.91,1.4-4.88-1-7.22-6-12.1-7-3.83-.76-11.5-.4-14.4-3-2.5-2.24-4.09-6.5-7.31-7.42-3.62-1-7.81,1.72-11.12-.07C17.58,34,18.36,27.68,14.85,25c-2.69-2-6.66-1-9.73-2.4a3.8,3.8,0,0,1-1.64-1.33,5.31,5.31,0,0,1-.6-3.92h0c.81,3.23,10.81,1.41,13.46,3.45,3.45,2.68,2.68,9,6.5,11.13,3.26,1.79,7.37-1,10.94.07,3.16.92,4.73,5.18,7.18,7.42,2.86,2.61,10.41,2.25,14.17,3,4.8,1,7.1,6,11.9,7,3.5.7,10.19-2.1,13.68-1.4,4.25.85,4.33,1.54,8.13,3.67,2,1.11,3.88,2.59,6.13,2.92,3.89.59,7.5-2.38,11.43-2.47,7.62-.19,13.37,10.17,20.73,8.16,4.22-1.16,7.14-6.21,11.49-5.86C141.33,54.67,143.41,56.9,145.51,58.81Z"/><path class="cls-5" d="M3.35,21.36C-.21,32.5,4.73,39.85,12.8,47.46c1.89,1.79,2.08,7.54,5.33,11.08,3.79,4.13,10.67,6.08,13.07,7.95,3.88,3,6.77,8.38,11.56,9.49,3.78.88,8.31-.43,11.29,2.06,2.61,2.18,5,7.54,8.2,8.62,2.87,1,8.93-.5,11.91,0,4.92.82,8.33,4.4,11.9,6.36,5.63,3.09,9.62.92,15.8,2.67,6.68,1.88,9.28,4.68,16.21,4.92,5.36.18,9.42-4.14,14.58-2.67,2.3.66,4.44,3.59,11.08,3.08,5.85-.45,10-6.67,15.8-6,4.15.51,7.72,3.89,11.84,3.22,2.94-.48,4.81-3.28,7.09-5.19,4.38-3.67,9.29-.85,14.52-3.16,8.87-3.92,22-22.84,20.46-37.38"/><path class="cls-5" d="M213.44,52.56c3-7.38.56-16.21-4.69-22.2s-12.87-9.46-20.62-11.27-15.59-3.88-23.21-6.19C124.73.76,84.8-.8,44.48,1.25,37.1,1.62,27,1.8,19.77,3.34c-4.72,1-14.23,6.57-16,11a14.91,14.91,0,0,0-.89,3,5.31,5.31,0,0,0,.6,3.92A3.8,3.8,0,0,0,5.12,22.6c3.07,1.4,7,.36,9.73,2.4,3.51,2.68,2.73,9,6.61,11.14,3.31,1.79,7.5-1,11.12.07,3.22.92,4.81,5.18,7.31,7.42,2.9,2.6,10.57,2.24,14.4,3,4.88,1,7.22,6,12.1,7,3.55.7,10.36-2.1,13.91-1.4,4.32.85,4.4,1.55,8.26,3.67,2,1.12,4,2.59,6.23,2.93,4,.58,7.64-2.39,11.63-2.48,7.75-.19,13.59,10.17,21.08,8.16,4.29-1.15,7.26-6.21,11.68-5.86a7.3,7.3,0,0,1,3.69,1.54c3.13,2.26,5.71,6.14,9.42,5.51,3.87-.66,5.57-6,9.44-6.66,5.48-1,9.47,8.07,14.73,6.23,3.81-1.33,4-7.24,7.58-9.07,5.07-2.59,10.72,5.25,16.1,3.39,2.78-1,4.06-4.07,6-6.32S212.21,49.89,213.44,52.56Z"/><path class="cls-5" d="M3.31,21.63C3,24.79,8.82,28,11.4,31.65c1,1.42,1.44,5.36,2.22,6.34,2.15,2.69,3.9,5,7.3,5.56s7,1.42,9.33,3.94c2.56,2.78,3.12,7.11,6,9.48,5.37,4.35,13.32-1,20.14.09,8.25,1.32,13.59,11.88,21.9,11,2.81-.28,5.42-1.92,8.24-1.82,6.74.24,9.82,9.6,16.41,11,6,1.27,11.33-4.6,17.44-4.61,8,0,13.77,9.83,21.73,9,6.4-.65,10.91-8.09,17.33-7.71,2.8.16,5.25,1.83,7.81,3s5.84,1.69,8-.15c1.54-1.33,2-3.57,3.57-4.9,3.84-3.34,9.6,1.41,14.67,1,3.39-.29,6.06-2.9,8.42-5.35,2.15-2.22,9.38-12.75,11.52-15"/><path class="cls-5" d="M3.35,21.36c-6.8,12-.32,23.5,7.75,31.11C13,54.26,13.18,60,16.43,63.55c3.79,4.13,10.67,6.08,13.07,8,3.88,3,6.77,8.38,11.56,9.49,3.78.88,8.31-.43,11.29,2.05,2.61,2.18,5,7.54,8.2,8.62,2.87,1,8.93-.49,11.91,0,4.92.82,8.33,4.41,11.9,6.37,5.63,3.09,9.62.92,15.8,2.66,6.68,1.89,9.28,4.69,16.21,4.93,5.36.18,9.42-4.14,14.58-2.67,2.3.66,4.44,3.59,11.08,3.08,5.85-.45,10-6.67,15.8-6,4.15.51,7.72,3.88,11.84,3.21,2.94-.48,4.81-3.28,7.09-5.19,4.38-3.67,9.29-.84,14.52-3.15,8.87-3.92,27.85-24.56,22.16-42.39"/><path class="cls-5" d="M2.92,17.36c.81,3.23,10.81,1.41,13.46,3.45,3.45,2.68,2.68,9,6.5,11.13,3.26,1.79,7.37-1,10.94.07,3.16.92,4.73,5.18,7.18,7.42,2.86,2.61,10.41,2.25,14.17,3,4.8,1,7.1,6,11.9,7,3.5.7,10.19-2.1,13.68-1.4,4.25.85,4.33,1.54,8.13,3.67,2,1.11,3.88,2.59,6.13,2.92,3.89.59,7.5-2.38,11.43-2.47,7.62-.19,13.37,10.17,20.73,8.16,4.22-1.16,7.14-6.21,11.49-5.86,2.67.21,4.75,2.44,6.85,4.35,1.85,1.67,3.72,3.1,6.05,2.7,3.8-.66,5.47-6,9.27-6.67,5.4-1,9.32,8.08,14.49,6.24,3.75-1.33,3.93-7.24,7.46-9.08,5-2.59,10.54,5.26,15.83,3.4,2.74-1,3.25-5,5.86-6.33,5.4-2.75,7.76.82,9,3.49"/><path class="cls-5" d="M3.35,21.36a1.26,1.26,0,0,0,0,.27C2.75,25,5.92,29.08,8.59,34c.81,1.5.82,4.11,1.7,5.81,1.58,3,6.12,7.78,9.51,8.35s7,1.42,9.33,3.95c2.56,2.77,3.12,7.1,6.06,9.48,5.36,4.34,13.31-1,20.13.08,8.26,1.32,13.59,11.88,21.9,11,2.82-.29,5.42-1.93,8.25-1.83,6.73.24,9.81,9.6,16.4,11,6,1.28,11.34-4.59,17.44-4.61,8,0,13.77,9.84,21.73,9,6.4-.65,10.92-8.09,17.34-7.71,2.8.17,5.24,1.84,7.8,3s6.73,1.5,8.85-.34c1.53-1.33,3.27-4.16,4.8-5.49,3.85-3.34,7.48,2.19,12.55,1.75,3.39-.29,7.42-3,9.78-5.46,2.14-2.23,10.71-15.87,11.28-19.48"/></g></g></svg>