<svg xmlns="http://www.w3.org/2000/svg" viewBox="0 0 852.09 221.7"><defs><style>.cls-1{fill:#fbb040;}.cls-2{fill:none;stroke:#231f20;stroke-linecap:round;stroke-linejoin:round;stroke-width:0.99px;}.cls-3{fill:#00a651;}</style></defs><title>Asset 3</title><g id="Layer_2" data-name="Layer 2"><g id="Layer_3" data-name="Layer 3"><path class="cls-1" d="M850.64,109.73V283.32H.25V127.09H1.86C20.29,112,56.75,111.36,86.52,115.74s59.52,12.37,89.79,9.56c25.13-2.33,47.73-12,73.11-12.69,29.14-.81,56.26,10.31,85.43,10.45,30.38.16,57.95-11.54,88.23-13.08,37.89-1.92,73.69,12.21,111.7,12.36,38.66.17,75.27-14.13,113.76-11.92C675.62,112,700.79,121.65,728,121c23-.54,43.64-8.38,65.16-13.47C814.13,102.57,834.15,100.7,850.64,109.73Z" transform="translate(-0.25 -61.62)"/><path class="cls-2" d="M1.86,127.09C20.29,112,56.75,111.36,86.52,115.74s59.52,12.37,89.79,9.56c25.13-2.33,47.73-12,73.11-12.69,29.14-.81,56.26,10.31,85.43,10.45,30.38.16,57.95-11.54,88.23-13.08,37.89-1.92,73.69,12.21,111.7,12.36,38.66.17,75.27-14.13,113.76-11.92C675.62,112,700.79,121.65,728,121c23-.54,43.64-8.38,65.16-13.47,21-5,41-6.83,57.52,2.2.4.21.8.44,1.2.67" transform="translate(-0.25 -61.62)"/></g><g id="Layer_2-2" data-name="Layer 2"><path class="cls-3" d="M188.49,173.81a13.91,13.91,0,0,1-4.51,14.9c-4.45,3.49-10.92,4.1-14.6,8.39-1.94,2.25-2.8,5.2-4,7.91s-5.51,9.5-8.32,10.54H157a30.62,30.62,0,0,1-.86-5.17l.17,0c1.95-5.1,5-14.41,12.81-18,10.58-4.88,21.41-7.64,19.53-17.91A4.7,4.7,0,0,0,188.49,173.81Z" transform="translate(-0.25 -61.62)"/><path class="cls-3" d="M188.62,174.44c1.88,10.27-9,13-19.53,17.91-7.79,3.6-10.86,12.91-12.81,18l-.17,0a52,52,0,0,1-.17-6.42c.35-2.79,2.13-6.39,4.37-9.83A31.16,31.16,0,0,1,171.79,187c3.85-1,7.91-1.53,11.39-3.46C186.47,181.72,189.17,178.08,188.62,174.44Z" transform="translate(-0.25 -61.62)"/><path class="cls-3" d="M160.31,194.13c-2.24,3.44-4,7-4.37,9.83a67.38,67.38,0,0,1,1.7-13.13h0c3.41-3.71,6.86-7.47,9.32-11.87s3.89-9.58,2.95-14.53c-.57-3-2-5.85-1.95-8.9,0-2.37,3-11.56,3-13.94.14-11.66-5.84-18.39,2.85-29.91a19.44,19.44,0,0,0-3.12,15.65c1.22,5.1,4.54,9.88,4,15.1-.39,3.64-2.66,6.92-2.82,10.59-.24,5.9,5,10.85,5.28,16.75s-4.44,10.78-8.89,14.71A51.71,51.71,0,0,0,160.31,194.13Z" transform="translate(-0.25 -61.62)"/><path class="cls-3" d="M174.4,111c-.18.23-.36.46-.52.69-8.69,11.52-2.71,18.25-2.85,29.91,0,2.38-3,11.57-3,13.94,0,3.05,1.38,5.91,1.95,8.9.94,4.95-.48,10.13-2.95,14.53s-5.91,8.16-9.32,11.87h0a39.8,39.8,0,0,1,1.23-4.27c1.84-5.19,4.75-10.11,5.33-15.58.48-4.58-.69-9-2.51-13.3h0c-.4-3,1.66-6.58,3.11-9.21,1.59-2.86,3.51-5.68,3.89-8.93s-.91-6.64-1.38-10A20.84,20.84,0,0,1,174.4,111Z" transform="translate(-0.25 -61.62)"/><path class="cls-3" d="M161.7,157.68c1.82,4.28,3,8.72,2.51,13.3-.58,5.47-3.49,10.39-5.33,15.58a39.8,39.8,0,0,0-1.23,4.27h0a67.38,67.38,0,0,0-1.7,13.13,52,52,0,0,0,.17,6.42,30.62,30.62,0,0,0,.86,5.17c-1,0-2,0-3,.13-1.8-6.51-3.23-12.58-2.08-19.24.82-4.73,3.09-9.1,4.12-13.78,1.94-8.85-.67-18-3.19-26.67s-9.76-26.28,5.34-42c-4.58,6.18-7.51,14-6.3,21.58.79,4.92,3.22,9.4,5.62,13.77,1.47,2.69,3,5.47,4.18,8.32Z" transform="translate(-0.25 -61.62)"/><path class="cls-3" d="M152.86,156c2.52,8.7,5.13,17.82,3.19,26.67-1,4.68-3.3,9.05-4.12,13.78-1.15,6.66.28,12.73,2.08,19.24a32.86,32.86,0,0,0-4.55.69l0-.08a83.51,83.51,0,0,0-5.37-15.46l.13-.06c-.89-5.18,1.15-10.81,2.9-16.32a46.75,46.75,0,0,0,2-8.27c1.46-12.43-4.9-24.64-4.26-37.13A33.88,33.88,0,0,1,158.2,114C143.1,129.71,150.35,147.3,152.86,156Z" transform="translate(-0.25 -61.62)"/><path class="cls-3" d="M137.71,189.44a84.17,84.17,0,0,1,11.73,26.85l0,.08c-.6.13-1.18.28-1.76.45l0-.14c-3.29-7.37-14.51-19-21-23.81s-12-10.67-14-18.5c-1.44-5.65-2.18-11.57-.6-17.19,4.61-16.41-5.48-26.36,2-43.17-2.23,10.36,2.22,21,2.29,31.55,0,6.74-1.64,13.81,1,20,2.11,5,6.62,8.48,10.57,12.2l1.14,1.1A68.52,68.52,0,0,1,137.71,189.44Z" transform="translate(-0.25 -61.62)"/><path class="cls-3" d="M147.66,216.68l0,.14c-.57.15-1.13.32-1.69.51-4.61-4.82-12.56-10.15-18.25-13.57-9-5.4-14.87-14.72-19.21-24.25-2.3-5.07-4.3-10.53-3.78-16.07.73-7.7,6.22-14.55,6-22.28-.11-3.45-1.39-6.78-1.62-10.23-.38-5.94,2.36-11.59,5-16.92-7.53,16.81,2.56,26.76-2,43.17-1.58,5.62-.84,11.54.6,17.19,2,7.83,7.52,13.68,14,18.5S144.37,209.31,147.66,216.68Z" transform="translate(-0.25 -61.62)"/><path class="cls-3" d="M138.58,145.84c6.52,12.47,12,25.6,8.48,38.6h0c-1.75,5.51-3.79,11.14-2.9,16.32l-.13.06a82.85,82.85,0,0,0-6.36-11.39c0-9,2.79-15.39.26-21.72s-6.47-12.27-7.45-19c-.75-5.15.27-10.36.9-15.52s2.14-17.69-9.24-24.47A18.76,18.76,0,0,1,135,127.4c-.28,3.9-.58,7.88.51,11.63A34.87,34.87,0,0,0,138.58,145.84Z" transform="translate(-0.25 -61.62)"/><path class="cls-3" d="M138,167.72c2.53,6.33-.25,12.76-.26,21.72a68.52,68.52,0,0,0-8.6-10.56l.21-.21c1.91-7.63-7.81-27.62-4.54-38.44,1.44-4.75,3-9,3.56-13.92.79-6.49-1-13.54-6.16-17.62,11.38,6.78,9.86,19.31,9.24,24.47s-1.65,10.37-.9,15.52C131.5,155.45,135.43,161.37,138,167.72Z" transform="translate(-0.25 -61.62)"/><path class="cls-2" d="M146.08,217.41l-.07-.08c-4.61-4.82-12.56-10.15-18.25-13.57-9-5.4-14.87-14.72-19.21-24.25-2.3-5.07-4.3-10.53-3.78-16.07.73-7.7,6.22-14.55,6-22.28-.11-3.45-1.39-6.78-1.62-10.23-.38-5.94,2.36-11.59,5-16.92-2.23,10.36,2.22,21,2.29,31.55,0,6.74-1.64,13.81,1,20,2.11,5,6.62,8.48,10.57,12.2l1.14,1.1a68.52,68.52,0,0,1,8.6,10.56,84.17,84.17,0,0,1,11.73,26.85" transform="translate(-0.25 -61.62)"/><path class="cls-2" d="M147.66,216.68c-3.29-7.37-14.51-19-21-23.81s-12-10.67-14-18.5c-1.44-5.65-2.18-11.57-.6-17.19,4.61-16.41-5.48-26.36,2-43.17" transform="translate(-0.25 -61.62)"/><path class="cls-2" d="M129.32,178.67c1.91-7.63-7.81-27.62-4.54-38.44,1.44-4.75,3-9,3.56-13.92.79-6.49-1-13.54-6.16-17.62A18.76,18.76,0,0,1,135,127.4c-.28,3.9-.58,7.88.51,11.63a34.87,34.87,0,0,0,3.12,6.81c6.52,12.47,12,25.6,8.48,38.6" transform="translate(-0.25 -61.62)"/><path class="cls-2" d="M161.7,157.68c1.82,4.28,3,8.72,2.51,13.3-.58,5.47-3.49,10.39-5.33,15.58a39.8,39.8,0,0,0-1.23,4.27h0a67.38,67.38,0,0,0-1.7,13.13,52,52,0,0,0,.17,6.42,30.62,30.62,0,0,0,.86,5.17v0" transform="translate(-0.25 -61.62)"/><path class="cls-2" d="M144.2,200.77c-.89-5.18,1.15-10.81,2.9-16.32a46.75,46.75,0,0,0,2-8.27c1.46-12.43-4.9-24.64-4.26-37.13A33.88,33.88,0,0,1,158.2,114c-4.58,6.18-7.51,14-6.3,21.58.79,4.92,3.22,9.4,5.62,13.77,1.47,2.69,3,5.47,4.18,8.32" transform="translate(-0.25 -61.62)"/><path class="cls-2" d="M174.4,111a20.84,20.84,0,0,0-7.08,18.55c.47,3.34,1.78,6.63,1.38,10s-2.3,6.07-3.89,8.93c-1.45,2.63-3.51,6.22-3.11,9.21h0a5,5,0,0,0,.17.77" transform="translate(-0.25 -61.62)"/><path class="cls-2" d="M155.88,204.59q0-.3.06-.63c.35-2.79,2.13-6.39,4.37-9.83a51.71,51.71,0,0,1,8-9.64c4.45-3.93,9.16-8.78,8.89-14.71s-5.52-10.85-5.28-16.75c.16-3.67,2.43-6.95,2.82-10.59.56-5.22-2.76-10-4-15.1a19.44,19.44,0,0,1,3.12-15.65" transform="translate(-0.25 -61.62)"/><path class="cls-2" d="M158.66,196.31a9.93,9.93,0,0,1,1.65-2.18A31.16,31.16,0,0,1,171.79,187c3.85-1,7.91-1.53,11.39-3.46,3.29-1.83,6-5.47,5.44-9.11a4.7,4.7,0,0,0-.13-.63,13.91,13.91,0,0,1-4.51,14.9c-4.45,3.49-10.92,4.1-14.6,8.39-1.94,2.25-2.8,5.2-4,7.91s-5.51,9.5-8.32,10.54l-.09,0" transform="translate(-0.25 -61.62)"/><path class="cls-2" d="M143.48,218.3c.83-.36,1.67-.68,2.53-1,.56-.19,1.12-.36,1.69-.51s1.16-.32,1.76-.45a32.86,32.86,0,0,1,4.55-.69c1-.09,2-.13,3-.13h.1a34,34,0,0,1,5.6.5" transform="translate(-0.25 -61.62)"/><path class="cls-2" d="M122.18,108.69c11.38,6.78,9.86,19.31,9.24,24.47s-1.65,10.37-.9,15.52c1,6.77,4.91,12.69,7.45,19s-.25,12.76-.26,21.72v.12" transform="translate(-0.25 -61.62)"/><path class="cls-2" d="M158.2,114c-15.1,15.71-7.85,33.3-5.34,42s5.13,17.82,3.19,26.67c-1,4.68-3.3,9.05-4.12,13.78-1.15,6.66.28,12.73,2.08,19.24,0,0,0,0,0,0" transform="translate(-0.25 -61.62)"/><path class="cls-2" d="M174.4,111c-.18.23-.36.46-.52.69-8.69,11.52-2.71,18.25-2.85,29.91,0,2.38-3,11.57-3,13.94,0,3.05,1.38,5.91,1.95,8.9.94,4.95-.48,10.13-2.95,14.53s-5.91,8.16-9.32,11.87" transform="translate(-0.25 -61.62)"/><path class="cls-2" d="M156.28,210.36c1.95-5.1,5-14.41,12.81-18,10.58-4.88,21.41-7.64,19.53-17.91,0-.21-.08-.42-.13-.63" transform="translate(-0.25 -61.62)"/><path class="cls-3" d="M663.53,161.6a19.08,19.08,0,0,0,8.56,19.57c6.63,4,15.55,3.82,21.25,9.07,3,2.76,4.66,6.64,6.72,10.14s9.05,12.05,13.05,13h.13a42.29,42.29,0,0,0,.34-7.19h-.24c-3.48-6.63-9.17-18.82-20.37-22.47-15.21-4.93-30.41-6.94-29.51-21.24A5.3,5.3,0,0,1,663.53,161.6Z" transform="translate(-0.25 -61.62)"/><path class="cls-3" d="M663.46,162.48c-.9,14.3,14.3,16.31,29.51,21.24,11.2,3.65,16.89,15.84,20.37,22.47h.24a72,72,0,0,0-.81-8.77c-.93-3.75-3.94-8.37-7.55-12.69-4.51-3.71-12.45-7.2-16.79-7.85-5.42-.79-11-.8-16.09-2.87C667.57,172.05,663.3,167.53,663.46,162.48Z" transform="translate(-0.25 -61.62)"/><path class="cls-3" d="M705.22,184.73c3.61,4.32,6.62,8.94,7.55,12.69a92.52,92.52,0,0,0-4.44-17.62h0l0,0c-5.25-4.51-10.56-9.07-14.62-14.67s-6.86-12.42-6.38-19.32c.3-4.17,1.75-8.3,1.22-12.45-.41-3.22-6-15.26-6.4-18.5-2.08-15.87,5-26-8.73-40.3a26.68,26.68,0,0,1,6.79,20.82c-.84,7.15-4.59,14.2-3,21.22,1.12,4.9,4.75,9,5.56,14,1.28,8-5.07,15.6-4.49,23.68s7.8,14,14.5,18.61A70.59,70.59,0,0,1,705.22,184.73Z" transform="translate(-0.25 -61.62)"/><path class="cls-3" d="M672.56,73.72c.28.29.57.57.82.86,13.71,14.29,6.65,24.43,8.73,40.3.43,3.24,6,15.28,6.4,18.5.53,4.15-.92,8.28-1.22,12.45-.48,6.9,2.3,13.72,6.38,19.32s9.37,10.16,14.62,14.67l0,0a55.66,55.66,0,0,0-2.36-5.62c-3.35-6.77-8.11-13-9.79-20.37-1.39-6.16-.52-12.4,1.27-18.53h0c.06-4.14-3.33-8.7-5.73-12.05-2.63-3.64-5.71-7.17-6.75-11.54s.16-9.2.26-13.82A28.61,28.61,0,0,0,672.56,73.72Z" transform="translate(-0.25 -61.62)"/><path class="cls-3" d="M697.43,135.28c-1.79,6.13-2.66,12.37-1.27,18.53,1.68,7.36,6.44,13.6,9.79,20.37a55.66,55.66,0,0,1,2.36,5.62h0a92.52,92.52,0,0,1,4.44,17.62,72,72,0,0,1,.81,8.77,42.29,42.29,0,0,1-.34,7.19c1.35-.16,2.71-.27,4.06-.3,1.4-9.17,2.36-17.67-.28-26.56-1.89-6.31-5.69-11.9-7.85-18.11-4.07-11.75-2-24.6,0-36.86s9-37.4-14.08-56.36c7.25,7.68,12.5,17.83,12.08,28.39-.28,6.83-2.86,13.33-5.42,19.67-1.57,3.91-3.17,7.94-4.35,12Z" transform="translate(-0.25 -61.62)"/><path class="cls-3" d="M709.2,131.55c-2,12.26-4.1,25.11,0,36.86,2.16,6.21,6,11.8,7.85,18.11,2.64,8.89,1.68,17.39.28,26.56a44.18,44.18,0,0,1,6.31.2l0-.11a114.84,114.84,0,0,1,4.81-21.94l-.19-.06c.38-7.21-3.31-14.55-6.59-21.77a64.51,64.51,0,0,1-4.11-10.94c-4-16.71,2.69-34.38-.2-51.29a46.51,46.51,0,0,0-22.23-32C718.25,94.15,711.21,119.3,709.2,131.55Z" transform="translate(-0.25 -61.62)"/><path class="cls-3" d="M735.26,174.68a113.35,113.35,0,0,0-6.82,16.55,114.84,114.84,0,0,0-4.81,21.94l0,.11c.84.08,1.65.19,2.47.33l0-.2c3.29-10.58,16.7-28.21,24.74-35.84s14.62-16.49,16.08-27.48c1.05-7.94,1.1-16.12-2-23.53-8.94-21.61,3.2-36.8-9.79-58.49,4.72,13.75.37,28.91,2,43.36,1,9.2,4.47,18.56,1.91,27.44-2.07,7.16-7.65,12.63-12.43,18.34l-1.38,1.68A94.43,94.43,0,0,0,735.26,174.68Z" transform="translate(-0.25 -61.62)"/><path class="cls-3" d="M726.11,213.41l0,.2c.8.11,1.59.25,2.39.42,5.5-7.32,15.47-15.87,22.67-21.45,11.36-8.81,17.88-22.47,22.25-36.16,2.32-7.28,4.16-15,2.55-22.51-2.24-10.37-10.83-18.82-11.71-29.4-.41-4.72.79-9.46.55-14.2-.45-8.16-5.1-15.41-9.6-22.24,13,21.69.85,36.88,9.79,58.49,3.06,7.41,3,15.59,2,23.53-1.46,11-8,19.86-16.08,27.48S729.4,202.83,726.11,213.41Z" transform="translate(-0.25 -61.62)"/><path class="cls-3" d="M727,115.4c-6.87,18-12.24,36.83-5.31,54l-.05,0c3.28,7.22,7,14.56,6.59,21.77l.19.06a113.35,113.35,0,0,1,6.82-16.55c-1.46-12.21-6.29-20.52-3.87-29.56s6.83-17.77,7.07-27.15c.19-7.14-2-14.08-3.74-21s-5.78-23.76,8.63-34.84A25.76,25.76,0,0,0,729,89.69c1,5.26,2.06,10.64,1.19,15.93C729.55,109.3,728.34,111.91,727,115.4Z" transform="translate(-0.25 -61.62)"/><path class="cls-3" d="M731.39,145.12c-2.42,9,2.41,17.35,3.87,29.56a94.43,94.43,0,0,1,10-15.79l-.32-.25c-3.84-10.09,6.17-38.9,0-53.12-2.73-6.24-5.48-11.77-7.1-18.39-2.13-8.72-.76-18.62,5.54-25C728.94,73.2,733,90,734.72,97s3.93,13.87,3.74,21C738.22,127.35,733.82,136.06,731.39,145.12Z" transform="translate(-0.25 -61.62)"/><path class="cls-2" d="M728.39,214.15a1.25,1.25,0,0,1,.08-.12c5.5-7.32,15.47-15.87,22.67-21.45,11.36-8.81,17.88-22.47,22.25-36.16,2.32-7.28,4.16-15,2.55-22.51-2.24-10.37-10.83-18.82-11.71-29.4-.41-4.72.79-9.46.55-14.2-.45-8.16-5.1-15.41-9.6-22.24,4.72,13.75.37,28.91,2,43.36,1,9.2,4.47,18.56,1.91,27.44-2.07,7.16-7.65,12.63-12.43,18.34l-1.38,1.68a94.43,94.43,0,0,0-10,15.79,113.35,113.35,0,0,0-6.82,16.55,114.84,114.84,0,0,0-4.81,21.94" transform="translate(-0.25 -61.62)"/><path class="cls-2" d="M726.11,213.41c3.29-10.58,16.7-28.21,24.74-35.84s14.62-16.49,16.08-27.48c1.05-7.94,1.1-16.12-2-23.53-8.94-21.61,3.2-36.8-9.79-58.49" transform="translate(-0.25 -61.62)"/><path class="cls-2" d="M745,158.64c-3.84-10.09,6.17-38.9,0-53.12-2.73-6.24-5.48-11.77-7.1-18.39-2.13-8.72-.76-18.62,5.54-25A25.76,25.76,0,0,0,729,89.69c1,5.26,2.06,10.64,1.19,15.93-.62,3.68-1.83,6.29-3.15,9.78-6.87,18-12.24,36.83-5.31,54" transform="translate(-0.25 -61.62)"/><path class="cls-2" d="M697.43,135.28c-1.79,6.13-2.66,12.37-1.27,18.53,1.68,7.36,6.44,13.6,9.79,20.37a55.66,55.66,0,0,1,2.36,5.62h0a92.52,92.52,0,0,1,4.44,17.62,72,72,0,0,1,.81,8.77,42.29,42.29,0,0,1-.34,7.19s0,0,0,.05" transform="translate(-0.25 -61.62)"/><path class="cls-2" d="M728.25,191.17c.38-7.21-3.31-14.55-6.59-21.77a64.51,64.51,0,0,1-4.11-10.94c-4-16.71,2.69-34.38-.2-51.29a46.51,46.51,0,0,0-22.23-32c7.25,7.68,12.5,17.83,12.08,28.39-.28,6.83-2.86,13.33-5.42,19.67-1.57,3.91-3.17,7.94-4.35,12" transform="translate(-0.25 -61.62)"/><path class="cls-2" d="M672.56,73.72a28.61,28.61,0,0,1,12.65,24.14c-.1,4.62-1.35,9.32-.26,13.82s4.12,7.9,6.75,11.54c2.4,3.35,5.79,7.91,5.73,12.05h0a6.59,6.59,0,0,1-.11,1.08" transform="translate(-0.25 -61.62)"/><path class="cls-2" d="M713,198.26a7,7,0,0,0-.18-.84c-.93-3.75-3.94-8.37-7.55-12.69a70.59,70.59,0,0,0-12.46-11.84c-6.7-4.64-13.9-10.49-14.5-18.61s5.77-15.68,4.49-23.68c-.81-5-4.44-9.08-5.56-14-1.61-7,2.14-14.07,3-21.22a26.68,26.68,0,0,0-6.79-20.82" transform="translate(-0.25 -61.62)"/><path class="cls-2" d="M707.83,187.43a13.6,13.6,0,0,0-2.61-2.7c-4.51-3.71-12.45-7.2-16.79-7.85-5.42-.79-11-.8-16.09-2.87-4.77-2-9-6.48-8.88-11.53a5.3,5.3,0,0,1,.07-.88,19.08,19.08,0,0,0,8.56,19.57c6.63,4,15.55,3.82,21.25,9.07,3,2.76,4.66,6.64,6.72,10.14s9.05,12.05,13.05,13a.28.28,0,0,0,.13,0" transform="translate(-0.25 -61.62)"/><path class="cls-2" d="M732.07,214.94c-1.19-.36-2.38-.66-3.6-.91-.8-.17-1.59-.31-2.39-.42s-1.63-.25-2.47-.33a44.18,44.18,0,0,0-6.31-.2c-1.35,0-2.71.14-4.06.3h-.13a47.59,47.59,0,0,0-7.55,1.59" transform="translate(-0.25 -61.62)"/><path class="cls-2" d="M743.35,62.12C728.94,73.2,733,90,734.72,97s3.93,13.87,3.74,21c-.24,9.38-4.64,18.09-7.07,27.15s2.41,17.35,3.87,29.56l0,.16" transform="translate(-0.25 -61.62)"/><path class="cls-2" d="M695.12,75.19c23.13,19,16.09,44.11,14.08,56.36s-4.1,25.11,0,36.86c2.16,6.21,6,11.8,7.85,18.11,2.64,8.89,1.68,17.39.28,26.56,0,0,0,0,0,0" transform="translate(-0.25 -61.62)"/><path class="cls-2" d="M672.56,73.72c.28.29.57.57.82.86,13.71,14.29,6.65,24.43,8.73,40.3.43,3.24,6,15.28,6.4,18.5.53,4.15-.92,8.28-1.22,12.45-.48,6.9,2.3,13.72,6.38,19.32s9.37,10.16,14.62,14.67" transform="translate(-0.25 -61.62)"/><path class="cls-2" d="M713.34,206.19c-3.48-6.63-9.17-18.82-20.37-22.47-15.21-4.93-30.41-6.94-29.51-21.24,0-.29,0-.59.07-.88" transform="translate(-0.25 -61.62)"/></g></g></svg>