<svg xmlns="http://www.w3.org/2000/svg" viewBox="0 0 850.27 226.94"><defs><style>.cls-1{fill:#00aeef;}.cls-2{fill:none;stroke:#231f20;stroke-linecap:round;stroke-linejoin:round;stroke-width:0.99px;}</style></defs><title>Asset 1</title><g id="Layer_2" data-name="Layer 2"><g id="Layer_1-2" data-name="Layer 1"><g id="Layer_1-2-2" data-name="Layer 1-2"><path class="cls-1" d="M483,22.78c44-8.44,87.34-26,131.94-21.59,41.65,4.14,78.53,27,118.21,40s91,13,116.68-19.15h.14l-.14,204.91H.5L.64,32.37.58,32.3C61.58-22,152.67,12.94,235.33,17.78S401.67,38.41,483,22.78Z"/><path class="cls-2" d="M.5,32.37l.08-.07C61.58-22,152.67,12.94,235.33,17.78s166.34,20.63,247.62,5c44-8.44,87.34-26,131.94-21.59,41.65,4.14,78.53,27,118.21,40s91,13,116.68-19.15"/></g></g></g></svg>