<svg xmlns="http://www.w3.org/2000/svg" viewBox="0 0 757.07 273.01"><defs><style>.cls-1{fill:#da1c5c;}.cls-2{fill:#fbb040;}.cls-3{fill:#fff;}.cls-4{fill:#231f20;}.cls-5,.cls-9{fill:none;stroke:#231f20;stroke-linecap:round;stroke-linejoin:round;}.cls-5{stroke-width:0.99px;}.cls-6{fill:#f0d1e4;}.cls-7{fill:#00aeef;}.cls-8{fill:#be1e2d;}.cls-9{stroke-width:0.28px;}</style></defs><title>Asset 1</title><g id="Layer_2" data-name="Layer 2"><g id="Layer_1-2" data-name="Layer 1"><path class="cls-1" d="M223.81,82.56l0-.38a8.1,8.1,0,0,1-5.52-1.43c-1.48-1.06-2.57-2.6-4-3.77-3-2.52-7.12-3.16-11-3.22A17.08,17.08,0,0,0,195,76.24a13,13,0,0,0,4.49,6.8,18.91,18.91,0,0,0,6.71,3,22.4,22.4,0,0,0,6.61.46C215.35,86.31,221.41,84,223.81,82.56Zm9.7-31.18c20.56-.62,39.9,9.33,60.25,12.33,11.74,1.72,23.7,1.12,35.48,2.54,13,1.56,25.37,4.87,38.45,5.67a364.12,364.12,0,0,0,37.72.27c14.37-.55,28.34-3.64,42.11-6.81,7.52-1.73,18.36-3.47,25.66-.95-2.79,2.46-4.88,10.06-4.5,13.77v.1a335.2,335.2,0,0,0,124.65-9.21c8.72-2.34,17.41-5,26.39-6A46,46,0,0,1,646.61,69c14.65-3.25,29.38-6.11,44.26-8,25-3.21,50.64-3.67,75.4,1.3,4.64.94,9.32,2.09,13.41,4.46s7.6,6.13,8.67,10.74c-7.55-2.84-17.2-.26-24.79,2.53s-14.66,6.83-22.35,9.31a58.63,58.63,0,0,1-32.87.84c-4.88-1.3-9.85-3.26-14.81-2.34-5.89,1.09-10.22,5.89-14.93,9.59A46,46,0,0,1,647.5,107c-4.25-.28-8.59-1.14-12.68,0s-7.81,5.26-6.64,9.35c-4.64-.49-7.42-5.92-6.8-10.54A31.5,31.5,0,0,1,627.45,92h0c-30.67,33.52-65.66,63.83-108.24,78.71a353.1,353.1,0,0,1-47.37,13.46l-.15-.77s-25.94-15.66-38.66-23-33.27-14.19-56.76-21-48.89-4.73-48.89-4.73c-8.72,0-16.58-5.14-23.31-10.69S290.93,112,282.84,108.77c-7.46-3-15.72-3.18-23.76-3.61s-19.95-5.15-28-3.7c-7.31,1.32-25.22.4-31.54-3.66a29.39,29.39,0,0,1-12.62-18c-1.56-6.82-1.73-12.43-5.22-18.49-4.55-7.88-15-11.67-23.93-13.39-37.28-7.19-74.43-16.86-111.7-19.8,2.67-1.25,36.1-.11,53.62.41C144.06,29.86,190.35,32.94,233.51,51.38Z" transform="translate(-31.78)"/><path class="cls-2" d="M33.23,46A13.74,13.74,0,0,1,33,36.47c1.76-4.82,7.89-7.95,13-8.33,37.27,2.94,74.42,12.61,111.7,19.8,8.94,1.72,19.38,5.51,23.93,13.39,3.49,6.06,3.66,11.67,5.22,18.49a29.39,29.39,0,0,0,12.62,18c6.32,4.06,24.23,5,31.54,3.66,8.07-1.45,20,3.26,28,3.7s16.3.59,23.76,3.61c8.09,3.27,14.48,9.57,21.21,15.12s14.59,10.65,23.31,10.69c0,0,25.41-2.12,48.89,4.73s44,13.7,56.76,21,38.66,23,38.66,23l.15.77c-7.05,1.44-14.28,2.62-21.9,3.56-32.39,4-69.84,5.42-101.71-1.66l-.17.12c-7.35-10.58-15.7-20.31-25.82-28.27-5.52-4.33-11.5-8.09-16.94-12.51l.07-.09c6.72-1.05,14.84.71,21.52,3.11l.83-1.68-15.48-7.62c-6.78-3.34-13.85-6.92-18.18-13.12l-2.71.77a34.31,34.31,0,0,1-2.63-9.29l.13-.27c-10-5-25.3-8.35-37.62-9.64L236,106.74c-1.91-.1-4.37.17-4.89,2a4.26,4.26,0,0,0,.71,3c7,13.2,15.86,25.3,24.7,37.35q6.49,8.87,13,17.74c-.89-.69-3-.75-4.62-.43l-.2-1.83c-16.87-10.8-36.52-15.73-55.71-21.83-6.36-2-12.68-4.17-18.82-6.7-11.2-4.62-21.51-11.07-31.71-17.6-11.83-7.57-26.49-16.32-38.7-23.26C100.61,84.34,81.06,73.3,59.5,68.64c-5.85-1.26-11.91-2.08-17.23-4.82A17.48,17.48,0,0,1,33.23,46Z" transform="translate(-31.78)"/><path class="cls-2" d="M269.55,166.88q-6.51-8.87-13-17.74c-8.84-12-17.7-24.15-24.7-37.35a4.26,4.26,0,0,1-.71-3c.52-1.84,3-2.11,4.89-2l15.18.79c12.32,1.29,27.61,4.69,37.62,9.64l-.13.27a34.31,34.31,0,0,0,2.63,9.29c2.61,6.12,6.72,12.23,10.8,15.94,1,.93,2.08,1.83,3.15,2.69,5.44,4.42,11.42,8.18,16.94,12.51,10.12,8,18.47,17.69,25.82,28.27,8.12,11.68,15,24.4,21.77,36.93l17.46,32.43c1.46,2.71,2.94,5.51,3.22,8.57s-1,6.47-3.72,7.82c-3,1.44-6.49.12-9.38-1.45-8.09-4.39-14.95-10.68-21.72-16.91L335.4,234.9c-3.9-3.58-7.8-7.17-11.95-10.46q-3.42-2.72-7-5.14a19.72,19.72,0,0,1-5-4.07c-1.31-1.7-2.39-6.6-3.29-8.54-1.8-3.89-8.07-6.37-11.64-10.59-1.89-2.22-2.61-5.31-4.73-7.31-1.83-1.74-4.4-2.4-6.62-3.61-3.64-2-6.22-5.45-8.67-8.8Z" transform="translate(-31.78)"/><path class="cls-2" d="M328,244.61c2.24,3.29,2.55,8.3-.48,10.88-3.37,2.88-8.5,1.3-12.58-.41L288.39,244c-6.26-2.62-12.56-5.27-18.21-9-6.39-4.27-11.77-9.85-17.1-15.39-2.66-2.77-5.35-5.58-7.16-9-1.7-3.18-2.56-6.76-4.32-9.91-2.65-4.71-7.1-8.07-10.88-11.93-11-11.27-16.74-30.91-21.72-45.87l0-.07c19.19,6.1,38.84,11,55.71,21.83l.2,1.83a4.82,4.82,0,0,0-1.47.51,129.52,129.52,0,0,0,55.3,70.26C322.16,239.3,325.77,241.32,328,244.61Z" transform="translate(-31.78)"/><path class="cls-2" d="M327.7,146.7l-.83,1.68c-6.68-2.4-14.8-4.16-21.52-3.11l-.07.09c-1.07-.86-2.13-1.76-3.15-2.69-4.08-3.71-8.19-9.82-10.8-15.94L294,126c4.33,6.2,11.4,9.78,18.18,13.12Z" transform="translate(-31.78)"/><path class="cls-2" d="M214.58,81.23a17.32,17.32,0,0,0-6-1.92c-.84-.14-1.68-.25-2.51-.35s-1.52-.18-2.29-.3a23.31,23.31,0,0,1-5-1.16v0c0,2.44,1.95,4.27,3.39,5.08a9.33,9.33,0,0,0,2.44,1,14.73,14.73,0,0,0,2.28.41,14.56,14.56,0,0,0,2.09.08,8.58,8.58,0,0,0,1.67-.21A8.82,8.82,0,0,0,214.58,81.23Zm9.19,1,0,.38c-2.4,1.45-8.46,3.75-11,4a22.4,22.4,0,0,1-6.61-.46,18.91,18.91,0,0,1-6.71-3,13,13,0,0,1-4.49-6.8,17.08,17.08,0,0,1,8.28-2.48c3.91.06,8,.7,11,3.22,1.39,1.17,2.48,2.71,4,3.77A8.1,8.1,0,0,0,223.77,82.18Z" transform="translate(-31.78)"/><path class="cls-3" d="M214.58,81.23a8.82,8.82,0,0,1-4,2.62,8.58,8.58,0,0,1-1.67.21v0a3.22,3.22,0,0,0,.8-2.38,3.61,3.61,0,0,0-1.19-2.34A17.32,17.32,0,0,1,214.58,81.23Z" transform="translate(-31.78)"/><path class="cls-4" d="M209.74,81.65a3.22,3.22,0,0,1-.8,2.38v0a14.56,14.56,0,0,1-2.09-.08,14.73,14.73,0,0,1-2.28-.41,3.47,3.47,0,0,1-1.66-2.23,3.56,3.56,0,0,1,.84-2.68c.77.12,1.53.21,2.29.3s1.67.21,2.51.35A3.61,3.61,0,0,1,209.74,81.65Zm-3.68-.83a1,1,0,0,0-.13-.62.85.85,0,0,0-.51-.38.79.79,0,0,0-.93.49.81.81,0,0,0,.12.78,1,1,0,0,0,.59.34.94.94,0,0,0,.63-.14A.68.68,0,0,0,206.06,80.82Z" transform="translate(-31.78)"/><path class="cls-3" d="M205.93,80.2a1,1,0,0,1,.13.62.68.68,0,0,1-.23.47.94.94,0,0,1-.63.14,1,1,0,0,1-.59-.34.81.81,0,0,1-.12-.78.79.79,0,0,1,.93-.49A.85.85,0,0,1,205.93,80.2Z" transform="translate(-31.78)"/><path class="cls-3" d="M202.91,81.34a3.47,3.47,0,0,0,1.66,2.23,9.33,9.33,0,0,1-2.44-1c-1.44-.81-3.36-2.64-3.39-5.08v0a23.31,23.31,0,0,0,5,1.16A3.56,3.56,0,0,0,202.91,81.34Z" transform="translate(-31.78)"/><path class="cls-5" d="M348.21,186c31.87,7.08,69.32,5.67,101.71,1.66,7.62-.94,14.85-2.12,21.9-3.56a353.1,353.1,0,0,0,47.37-13.46c42.58-14.88,77.57-45.19,108.24-78.71,4.86-5.3,9.6-10.69,14.25-16.1" transform="translate(-31.78)"/><path class="cls-5" d="M616.66,76c10-2.39,19.94-4.78,30-7,14.65-3.25,29.38-6.11,44.26-8,25-3.21,50.64-3.67,75.4,1.3,4.64.94,9.32,2.09,13.41,4.46s7.6,6.13,8.67,10.74c-7.55-2.84-17.2-.26-24.79,2.53s-14.66,6.83-22.35,9.31a58.63,58.63,0,0,1-32.87.84c-4.88-1.3-9.85-3.26-14.81-2.34-5.89,1.09-10.22,5.89-14.93,9.59A46,46,0,0,1,647.5,107c-4.25-.28-8.59-1.14-12.68,0s-7.81,5.26-6.64,9.35c-4.64-.49-7.42-5.92-6.8-10.54A31.5,31.5,0,0,1,627.45,92" transform="translate(-31.78)"/><path class="cls-5" d="M442.34,74.21q13.08,2.58,26.33,4.09a335.2,335.2,0,0,0,124.65-9.21c8.72-2.34,17.41-5,26.39-6A46,46,0,0,1,646.61,69h0" transform="translate(-31.78)"/><path class="cls-5" d="M233.51,51.38c20.56-.62,39.9,9.33,60.25,12.33,11.74,1.72,23.7,1.12,35.48,2.54,13,1.56,25.37,4.87,38.45,5.67a364.12,364.12,0,0,0,37.72.27c14.37-.55,28.34-3.64,42.11-6.81,7.52-1.73,18.36-3.47,25.66-.95-2.79,2.46-4.88,10.06-4.5,13.77" transform="translate(-31.78)"/><path class="cls-5" d="M46.05,28.14c2.67-1.25,36.1-.11,53.62.41,44.39,1.31,90.68,4.39,133.84,22.83,3.74,1.6,6.22,4,10.25,4.57,9.94,1.35,18.31,2.63,27.24,7.2,6.17,3.16,11.61,7.57,17.56,11.12s12.77,6.28,19.65,5.53" transform="translate(-31.78)"/><path class="cls-5" d="M195,76.24a17.08,17.08,0,0,1,8.28-2.48c3.91.06,8,.7,11,3.22,1.39,1.17,2.48,2.71,4,3.77a8.1,8.1,0,0,0,5.52,1.43l.22,0" transform="translate(-31.78)"/><path class="cls-5" d="M195,76.24a13,13,0,0,0,4.49,6.8,18.91,18.91,0,0,0,6.71,3,22.4,22.4,0,0,0,6.61.46c2.56-.21,8.62-2.51,11-4l.22-.14" transform="translate(-31.78)"/><path class="cls-5" d="M196.14,76.18a11.86,11.86,0,0,0,2.61,1.32,23.31,23.31,0,0,0,5,1.16c.77.12,1.53.21,2.29.3s1.67.21,2.51.35a17.32,17.32,0,0,1,6,1.92,9.07,9.07,0,0,1,1.23.82" transform="translate(-31.78)"/><path class="cls-5" d="M198.74,77.53c0,2.44,1.95,4.27,3.39,5.08a9.33,9.33,0,0,0,2.44,1,14.73,14.73,0,0,0,2.28.41,14.56,14.56,0,0,0,2.09.08,8.58,8.58,0,0,0,1.67-.21,8.82,8.82,0,0,0,4-2.62" transform="translate(-31.78)"/><path class="cls-5" d="M203.76,78.65h0a3.56,3.56,0,0,0-.84,2.68,3.47,3.47,0,0,0,1.66,2.23" transform="translate(-31.78)"/><path class="cls-5" d="M208.54,79.3a0,0,0,0,1,0,0,3.61,3.61,0,0,1,1.19,2.34,3.22,3.22,0,0,1-.8,2.38" transform="translate(-31.78)"/><path class="cls-5" d="M205.42,79.82a.79.79,0,0,0-.93.49.81.81,0,0,0,.12.78,1,1,0,0,0,.59.34.94.94,0,0,0,.63-.14.68.68,0,0,0,.23-.47,1,1,0,0,0-.13-.62A.85.85,0,0,0,205.42,79.82Z" transform="translate(-31.78)"/><path class="cls-5" d="M188,70.11a30.65,30.65,0,0,1,31.34,3.21c4.67,3.49,8.36,8.32,13.54,11" transform="translate(-31.78)"/><path class="cls-5" d="M190,78.29a36.79,36.79,0,0,0,15.4,14c6.38,3,17,3.89,23.84,2.4a37.18,37.18,0,0,1,12.92-.57c4,.55,7.8,2.08,11.63,3.39s7.86,2.61,11.86,2,14.43,1.26,16.15,1.91c4.81,1.84,24.87,12.33,25.94,13.83" transform="translate(-31.78)"/><path class="cls-5" d="M145,54.41A112.3,112.3,0,0,1,162,63a42.26,42.26,0,0,1,14.18,14.3c3,5.15,3.25,12.68,5.83,18,5.87,12.22,22.26,21.07,36.56,26.93" transform="translate(-31.78)"/><path class="cls-5" d="M188.12,93c3.48,6.15,10.4,9.39,17,11.9s13.66,4.85,18.37,10.11" transform="translate(-31.78)"/><path class="cls-5" d="M142.11,63.83a42.55,42.55,0,0,1,19.56,14.5c5.07,6.77,8.91,15.69,14,22.47A90.67,90.67,0,0,0,225,134c7.78,2,16.24,3.19,22.34,8.42" transform="translate(-31.78)"/><path class="cls-5" d="M74.4,49.74a102.54,102.54,0,0,0,37.17,19.71C124,72.94,132.9,72.87,142.86,81c6.36,5.22,13.63,16,19,22.27A94.83,94.83,0,0,0,197.34,129" transform="translate(-31.78)"/><path class="cls-5" d="M67.33,57.84c29.39,11.59,59.25,23.45,84.08,43,9.25,7.29,17.75,15.61,27.73,21.88,22.56,14.18,50.91,16.81,73.39,31.1" transform="translate(-31.78)"/><path class="cls-5" d="M43.05,54.06c31.3,9.13,99.77,46.33,124.48,67.6" transform="translate(-31.78)"/><path class="cls-5" d="M36.28,50.67A13.27,13.27,0,0,1,33.23,46,13.74,13.74,0,0,1,33,36.47c1.76-4.82,7.89-7.95,13-8.33,37.27,2.94,74.42,12.61,111.7,19.8,8.94,1.72,19.38,5.51,23.93,13.39,3.49,6.06,3.66,11.67,5.22,18.49a29.39,29.39,0,0,0,12.62,18c6.32,4.06,24.23,5,31.54,3.66,8.07-1.45,20,3.26,28,3.7s16.3.59,23.76,3.61c8.09,3.27,14.48,9.57,21.21,15.12s14.59,10.65,23.31,10.69c0,0,25.41-2.12,48.89,4.73s44,13.7,56.76,21,38.66,23,38.66,23" transform="translate(-31.78)"/><path class="cls-5" d="M251.21,107.53c12.32,1.29,27.61,4.69,37.62,9.64a30.22,30.22,0,0,1,7.19,4.69c2,1.89,3.52,4.29,5.37,6.36s4.28,3.87,7.06,3.95" transform="translate(-31.78)"/><path class="cls-5" d="M294,126c4.33,6.2,11.4,9.78,18.18,13.12l15.48,7.62.82.41" transform="translate(-31.78)"/><path class="cls-5" d="M305.35,145.27c6.72-1.05,14.84.71,21.52,3.11q1.14.41,2.22.84a51.31,51.31,0,0,0,23.73,3.14" transform="translate(-31.78)"/><path class="cls-5" d="M319.58,155.75c8-.94,19.08,1.82,27.08,3,11,1.58,22.12,0,33.2-.15s35.48,6,47,10.3" transform="translate(-31.78)"/><path class="cls-5" d="M331.55,166.07c19.52,1,50.13,3.37,83.12,10.2" transform="translate(-31.78)"/><path class="cls-5" d="M338.55,173.71c17.43,3,54.5,12.51,103.7,11.09" transform="translate(-31.78)"/><path class="cls-5" d="M33.24,45.93s0,0,0,.08a17.48,17.48,0,0,0,9,17.81c5.32,2.74,11.38,3.56,17.23,4.82,21.56,4.66,41.11,15.7,60.29,26.59,12.21,6.94,26.87,15.69,38.7,23.26,10.2,6.53,20.51,13,31.71,17.6,6.14,2.53,12.46,4.68,18.82,6.7,19.19,6.1,38.84,11,55.71,21.83" transform="translate(-31.78)"/><path class="cls-5" d="M251.21,107.53,236,106.74c-1.91-.1-4.37.17-4.89,2a4.26,4.26,0,0,0,.71,3c7,13.2,15.86,25.3,24.7,37.35q6.49,8.87,13,17.74l7,9.5c2.45,3.35,5,6.8,8.67,8.8,2.22,1.21,4.79,1.87,6.62,3.61,2.12,2,2.84,5.09,4.73,7.31,3.57,4.22,9.84,6.7,11.64,10.59.9,1.94,2,6.84,3.29,8.54a19.72,19.72,0,0,0,5,4.07q3.61,2.43,7,5.14c4.15,3.29,8.05,6.88,11.95,10.46l20.27,18.63c6.77,6.23,13.63,12.52,21.72,16.91,2.89,1.57,6.42,2.89,9.38,1.45,2.76-1.35,4-4.76,3.72-7.82s-1.76-5.86-3.22-8.57l-17.46-32.43c-6.74-12.53-13.65-25.25-21.77-36.93-7.35-10.58-15.7-20.31-25.82-28.27-5.52-4.33-11.5-8.09-16.94-12.51-1.07-.86-2.13-1.76-3.15-2.69-4.08-3.71-8.19-9.82-10.8-15.94a34.31,34.31,0,0,1-2.63-9.29" transform="translate(-31.78)"/><path class="cls-5" d="M209,142.86c5,15,10.68,34.6,21.72,45.87,3.78,3.86,8.23,7.22,10.88,11.93,1.76,3.15,2.62,6.73,4.32,9.91,1.81,3.39,4.5,6.2,7.16,9,5.33,5.54,10.71,11.12,17.1,15.39,5.65,3.76,11.95,6.41,18.21,9L315,255.08c4.08,1.71,9.21,3.29,12.58.41,3-2.58,2.72-7.59.48-10.88s-5.85-5.31-9.25-7.39A129.52,129.52,0,0,1,263.46,167a4.82,4.82,0,0,1,1.47-.51c1.59-.32,3.73-.26,4.62.43l.1.08" transform="translate(-31.78)"/><path class="cls-5" d="M113.12,56.33c14.12,4.12,28.1,11.21,37.41,22.6,3.79,4.63,6.87,10.48,10.53,15.2a151.45,151.45,0,0,0,14.15,15.65" transform="translate(-31.78)"/><path class="cls-5" d="M190.89,84.19a31,31,0,0,0,24.88,14.46" transform="translate(-31.78)"/><path class="cls-6" d="M382.38,38.64l.08,0a31.13,31.13,0,0,1,3,7.53,11.77,11.77,0,0,1-.73,7.09c-1.69,3.58-5.14,6.14-7.25,9.49a17.94,17.94,0,0,0-2.67,8,8.81,8.81,0,0,0,.91,4.47l.11,0a9.29,9.29,0,0,0,1.55,3.19c1.39,1.78,3.1,3.1,4.4,5s2.43,4.93,1.5,7.51l.06,0a33.83,33.83,0,0,0-5.12,12,98.14,98.14,0,0,0-1.85,14.21,17.26,17.26,0,0,1-2.14,6.79,4.42,4.42,0,0,0-.85,2,7,7,0,0,0,.64,2.19,8.76,8.76,0,0,1,.06,3.23,13.33,13.33,0,0,0,.84,6.48,7,7,0,0,0,4.81,4.16,2.47,2.47,0,0,0,2.23-.46,2.63,2.63,0,0,0,.59-1.75c.11-2.16-.64-4.26-1.06-6.38-.87-4.48-.12-9.88.47-14.4,1.07-6.13,4.84-11.44,6.8-17.35a63.34,63.34,0,0,1,2.14-6.5c.92-2,2.17-3,3-5.08,1.41-3.65,1.08-9.25.43-13.11a20.57,20.57,0,0,0-1.38-4.59l4-.2A47.24,47.24,0,0,0,398,64.68c.89-1.9,1.24-4.16,2-6.1s1.71-3.6,2.37-5.61,1.06-4.73.23-6.68h0a2,2,0,0,1-1.65-1.62l0-.76a7,7,0,0,1-1.7-.27,11.66,11.66,0,0,0-1.63-.47c-.74-.09-1.5.1-2.23,0a4.24,4.24,0,0,1-1.82-1,7.39,7.39,0,0,1-1.81-2c-.88-1.52-.72-3.74-1.49-5.32-.45-.94-1.2-1.31-1.95-2A4.55,4.55,0,0,1,386.9,30a3.82,3.82,0,0,0-.22-1.52c-.24-.46-.74-.72-1-1.14a2.87,2.87,0,0,1-.12-2.32,4,4,0,0,0,.19-2.33,3.79,3.79,0,0,1-2.7,2c-.62.11-1.25,0-1.88.12a4.11,4.11,0,0,0-2.52,1.31,5.75,5.75,0,0,0-1.08,2.63,73.28,73.28,0,0,0-1.74,10.84A40.86,40.86,0,0,1,374,48.34c-.51,1.34-1.24,2-1.82,3.71-.82,2.46-1.16,4.76-2,7.8-.8,2.88-3,8.57-3.81,10.9a9,9,0,0,1-4.49,3.38,22.53,22.53,0,0,1-5.12,1.25c-.53.18.18.63.62.74a6.68,6.68,0,0,0,1.34.12c3.8.23,7.43-1.94,8-1.25.15.19-.05,1-.21,1.2a3.91,3.91,0,0,0-.58,1.06.52.52,0,0,0,.32.59.58.58,0,0,0,.54-.22c.14-.16,1.3-1.64,1.53-1.83,1.83-1.46,1.52-4.27,1.69-4.49,1.4-4.2,3.58-8,5.67-12.34,1.06-2.19,2.61-4.16,3.06-6.55.33-1.76.9-4.19,1.17-6C380.32,43.9,381.68,41.26,382.38,38.64Z" transform="translate(-31.78)"/><path class="cls-2" d="M397,42.45a2.62,2.62,0,0,1-1.78-.93,3.79,3.79,0,0,1-.31-2.52c.12,1.07.79,2.91,2.1,3.43ZM388.74,7.9a7.88,7.88,0,0,0,.35-1.17A9.35,9.35,0,0,1,389.66,4c.52-.93,1.95-1.42,2.92-1.84,0,.64,2.05.78,3.44,2,1,.89,1.44,2.79,1.69,3.84a3.12,3.12,0,0,1,.09.44c0,.13.05.27.07.4a6.27,6.27,0,0,1,.09.86,18.21,18.21,0,0,1-.73,5.9c-.11.45-.24.92-.36,1.39a24.27,24.27,0,0,0-1.12,8.11,22.34,22.34,0,0,0,7.07,14.58,14.93,14.93,0,0,1-3.56-5.53,38.11,38.11,0,0,0,3.14,3.91A6.13,6.13,0,0,1,400.88,35c1.27,2.17,2.61,4.41,4.64,5.89a7.56,7.56,0,0,1,1.5,1.24,1.89,1.89,0,0,1,.41.78,8.4,8.4,0,0,1-.12,2.11v.08a3.39,3.39,0,0,0,1.85,2.77l.22.12a9.39,9.39,0,0,0,3.14.76,6.17,6.17,0,0,1-2.91-2.18,3.92,3.92,0,0,0,2.67,1,6.7,6.7,0,0,1-3.17-2.61,5.17,5.17,0,0,0,3.48,1,12.42,12.42,0,0,1-2.39-1.34A4.46,4.46,0,0,1,409,43.15a3,3,0,0,1-.29-.77c-.17-.78,0-1.6-.21-2.38a3.32,3.32,0,0,0-1.41-2.11h0a4,4,0,0,0,1.1.37l.25.06a5.34,5.34,0,0,1,3.06,2.18A6.81,6.81,0,0,0,408,37.15h0a4,4,0,0,0-.23-1.21,3.35,3.35,0,0,0-.9-1.39,20.26,20.26,0,0,1-1.81-1.35,3.41,3.41,0,0,1-.8-2.41c0-.87.46-2.44,0-3.31-1.15-3.08-1.28-6.45-1.63-9.72a42.7,42.7,0,0,0-1.76-9.67C399.82,5,397.38.44,394.41.47,394,0,392.62.16,392,.18a7.17,7.17,0,0,0-5.41,3A11.42,11.42,0,0,0,385,7.06a25.32,25.32,0,0,0,.73,15.66,4,4,0,0,1-.19,2.33,2.87,2.87,0,0,0,.12,2.32c.29.42.79.68,1,1.14A3.82,3.82,0,0,1,386.9,30a4.55,4.55,0,0,0,1.42,2.71c.75.73,1.5,1.1,1.95,2,.77,1.58.61,3.8,1.49,5.32a7.39,7.39,0,0,0,1.81,2,4.24,4.24,0,0,0,1.82,1c.73.15,1.49,0,2.23,0a11.66,11.66,0,0,1,1.63.47,7,7,0,0,0,1.7.27,15.27,15.27,0,0,0,4.83-.86,15.55,15.55,0,0,1-3,.41,5.27,5.27,0,0,1-3-.5,2.66,2.66,0,0,0,1.57-.59,18.6,18.6,0,0,1-2.46.23v0a7.61,7.61,0,0,1-1.81-2.88h0a3.72,3.72,0,0,0,1.65,1.61c-.74-.7-.82-2-1.23-3a5,5,0,0,1-.62-1.54,5.22,5.22,0,0,0-.27-1.67c-.31-.71-1-1.16-1.46-1.79a12.29,12.29,0,0,1-1-2.28c-.34-.76-1.13-2-1.32-2.34s-.58-1.21-.75-1.55a4.31,4.31,0,0,1-.13-2.82,9.55,9.55,0,0,0,.43-2.84c-.12-1.66-1.95-2.65-2.45-4.23-.75-2.38-2-4.59-1.83-7.07,0-.13,0-.26,0-.38a10.59,10.59,0,0,1,.46-1.55C388.66,8.15,388.7,8,388.74,7.9Z" transform="translate(-31.78)"/><path class="cls-6" d="M392.26,9.77l-.81-.11c-.05.17-.44.3-.61.35a3.08,3.08,0,0,1-.39.07l-.28,0h-.39c-.49,0-1-.21-1.49-.26l-.14,0c0,.12,0,.25,0,.38-.21,2.48,1.08,4.69,1.83,7.07a5.87,5.87,0,0,0,1.23,1.1A2.84,2.84,0,0,0,393,19a4.28,4.28,0,0,0,1.77-.36A7.71,7.71,0,0,0,396.87,17c.12-.47.25-.94.36-1.39a18.21,18.21,0,0,0,.73-5.9l-.92.06c-.45,0-.88.23-1.31.3a2,2,0,0,1-.49,0l-.27-.05-.32-.1c-.17-.08-.62-.15-.68-.32a1.63,1.63,0,0,1,1-.54h0a1.63,1.63,0,0,1,.31,0l0-.73a2,2,0,0,1-.5,0,.51.51,0,0,1-.41-.42,3.75,3.75,0,0,1,1.76-.23,2.89,2.89,0,0,1,.91.18,4.79,4.79,0,0,1,.82.6,3.12,3.12,0,0,0-.09-.44C397.46,7,397,5.1,396,4.21c-1.39-1.25-3.42-1.39-3.44-2-1,.42-2.4.91-2.92,1.84a9.35,9.35,0,0,0-.57,2.71,7.88,7.88,0,0,1-.35,1.17,3.13,3.13,0,0,1,1.89-.41c.49.12,1,.17,1.31.57l0,0a2.27,2.27,0,0,1,.32,1.42A2.28,2.28,0,0,1,392.26,9.77Zm-1.33,5c.27-.08.5-.47.74-.62s.76,0,1.15,0,.76-.14,1.08,0a3.9,3.9,0,0,1,.71.42,1.31,1.31,0,0,0,.46.26v0a4.75,4.75,0,0,1-1.72.67,2.18,2.18,0,0,1-1.24-.06c-.39-.15-1-.34-1.16-.74Z" transform="translate(-31.78)"/><path class="cls-6" d="M388.15,9.82l.14,0a3.47,3.47,0,0,1,1.35-.69l.18,0a2.27,2.27,0,0,1,.52,0l.14-.95a1,1,0,0,0-.21-.07,2.39,2.39,0,0,0-1.64.2h0A10.59,10.59,0,0,0,388.15,9.82Z" transform="translate(-31.78)"/><path class="cls-2" d="M388.61,8.27h0a2.39,2.39,0,0,1,1.64-.2,1,1,0,0,1,.21.07,2.87,2.87,0,0,0,.59.17c.3,0,.73,0,.86-.25h0c-.29-.4-.82-.45-1.31-.57a3.13,3.13,0,0,0-1.89.41C388.7,8,388.66,8.15,388.61,8.27Z" transform="translate(-31.78)"/><path class="cls-3" d="M389.47,9.57a.57.57,0,0,1,.17-.41h0a3.47,3.47,0,0,0-1.35.69c.49.05,1,.22,1.49.26h0A.57.57,0,0,1,389.47,9.57Z" transform="translate(-31.78)"/><path class="cls-7" d="M389.64,9.16a.57.57,0,0,0-.17.41.57.57,0,0,0,.31.52h.39l.28,0h0a.56.56,0,0,0,.3-.5.61.61,0,0,0-.19-.43l-.22,0a2.27,2.27,0,0,0-.52,0l-.18,0Zm.16.35a.21.21,0,0,1-.08-.17.21.21,0,0,1,.21-.21.22.22,0,0,1,.2.14.32.32,0,1,1-.35.32A.19.19,0,0,1,389.8,9.51Z" transform="translate(-31.78)"/><path class="cls-3" d="M389.72,9.34a.21.21,0,0,0,.08.17.21.21,0,0,0,.13.05.21.21,0,0,0,.21-.22.17.17,0,0,0,0-.07.22.22,0,0,0-.2-.14A.21.21,0,0,0,389.72,9.34Z" transform="translate(-31.78)"/><path class="cls-4" d="M389.8,9.51a.19.19,0,0,0,0,.08.33.33,0,1,0,.35-.32.17.17,0,0,1,0,.07.21.21,0,0,1-.21.22A.21.21,0,0,1,389.8,9.51Z" transform="translate(-31.78)"/><path class="cls-6" d="M390.56,9.14a1.48,1.48,0,0,1,.89.52l.81.11a2.28,2.28,0,0,0,0-.26A2.27,2.27,0,0,0,392,8.09l0,0h0c-.13.28-.56.29-.86.25a2.87,2.87,0,0,1-.59-.17l-.14.95Z" transform="translate(-31.78)"/><path class="cls-6" d="M391.16,18.37a5.87,5.87,0,0,1-1.23-1.1c.5,1.58,2.33,2.57,2.45,4.23a9.55,9.55,0,0,1-.43,2.84,4.31,4.31,0,0,0,.13,2.82c.17.34.56,1.22.75,1.55s1,1.58,1.32,2.34a12.29,12.29,0,0,0,1,2.28c.45.63,1.15,1.08,1.46,1.79a5.22,5.22,0,0,1,.27,1.67,5,5,0,0,0,.62,1.54c.41.93.49,2.27,1.23,3a3.72,3.72,0,0,1-1.65-1.61h0a7.61,7.61,0,0,0,1.81,2.88v0a18.6,18.6,0,0,0,2.46-.23,2.66,2.66,0,0,1-1.57.59,5.27,5.27,0,0,0,3,.5,15.55,15.55,0,0,0,3-.41l.74.18c.15-.35.28-.7.41-1.06l.09-.07a7.56,7.56,0,0,0-1.5-1.24c-2-1.48-3.37-3.72-4.64-5.89a6.13,6.13,0,0,0,1.52,3.15,38.11,38.11,0,0,1-3.14-3.91,14.93,14.93,0,0,0,3.56,5.53,22.34,22.34,0,0,1-7.07-14.58A24.27,24.27,0,0,1,396.87,17a7.71,7.71,0,0,1-2.07,1.57A4.28,4.28,0,0,1,393,19,2.84,2.84,0,0,1,391.16,18.37Z" transform="translate(-31.78)"/><path class="cls-3" d="M390.45,10.07h0a3.08,3.08,0,0,0,.39-.07c.17,0,.56-.18.61-.35a1.48,1.48,0,0,0-.89-.52.61.61,0,0,1,.19.43A.56.56,0,0,1,390.45,10.07Z" transform="translate(-31.78)"/><path class="cls-8" d="M390.93,14.78v0a18.28,18.28,0,0,1,4.12.13v0a1.31,1.31,0,0,1-.46-.26,3.9,3.9,0,0,0-.71-.42c-.32-.18-.71,0-1.08,0s-.8-.23-1.15,0S391.2,14.7,390.93,14.78Z" transform="translate(-31.78)"/><path class="cls-8" d="M390.94,14.8c.12.4.77.59,1.16.74a2.18,2.18,0,0,0,1.24.06,4.75,4.75,0,0,0,1.72-.67A18.28,18.28,0,0,0,390.94,14.8Z" transform="translate(-31.78)"/><path class="cls-3" d="M394,9.67c.06.17.51.24.68.32l.32.1h0a.59.59,0,0,1-.25-.48.63.63,0,0,1,.23-.47A1.63,1.63,0,0,0,394,9.67Z" transform="translate(-31.78)"/><path class="cls-2" d="M394.31,7.94a.51.51,0,0,0,.41.42,2,2,0,0,0,.5,0l.39,0a2.35,2.35,0,0,1,2.26.55c0-.13,0-.27-.07-.4a4.79,4.79,0,0,0-.82-.6,2.89,2.89,0,0,0-.91-.18A3.75,3.75,0,0,0,394.31,7.94Z" transform="translate(-31.78)"/><path class="cls-6" d="M394.91,39a3.79,3.79,0,0,0,.31,2.52,2.62,2.62,0,0,0,1.78.93v0C395.7,41.91,395,40.07,394.91,39Z" transform="translate(-31.78)"/><path class="cls-7" d="M395,9.13a.63.63,0,0,0-.23.47.59.59,0,0,0,.25.48h0l.27.05a2,2,0,0,0,.49,0h0a.61.61,0,0,0,.27-.5.57.57,0,0,0-.19-.43l-.21,0a2,2,0,0,0-.34,0,1.63,1.63,0,0,0-.31,0Zm.1.41a.24.24,0,0,1-.07-.16.21.21,0,0,1,.4-.08.33.33,0,0,1,.31.32.33.33,0,0,1-.33.33.32.32,0,0,1-.32-.33S395.05,9.56,395.05,9.54Z" transform="translate(-31.78)"/><path class="cls-3" d="M395,9.38a.24.24,0,0,0,.07.16.24.24,0,0,0,.14.05.22.22,0,0,0,.21-.21.19.19,0,0,0,0-.08.21.21,0,0,0-.4.08Z" transform="translate(-31.78)"/><path class="cls-4" d="M395.05,9.54s0,.05,0,.08a.32.32,0,0,0,.32.33.33.33,0,0,0,.33-.33.33.33,0,0,0-.31-.32.19.19,0,0,1,0,.08.22.22,0,0,1-.21.21A.24.24,0,0,1,395.05,9.54Z" transform="translate(-31.78)"/><path class="cls-6" d="M395.22,8.37l0,.73a2,2,0,0,1,.34,0l.21,0a3,3,0,0,1,1.23.64l.92-.06a6.27,6.27,0,0,0-.09-.86,2.35,2.35,0,0,0-2.26-.55Z" transform="translate(-31.78)"/><path class="cls-3" d="M395.73,10.1h0c.43-.07.86-.25,1.31-.3a3,3,0,0,0-1.23-.64.57.57,0,0,1,.19.43A.61.61,0,0,1,395.73,10.1Z" transform="translate(-31.78)"/><path class="cls-6" d="M401,43.9l0,.76a2,2,0,0,0,1.65,1.62,1.87,1.87,0,0,0,.53,0,2.93,2.93,0,0,0,1.48-.49,4,4,0,0,0,1-1,7.3,7.3,0,0,0,.91-1.64l-.74-.18A15.27,15.27,0,0,1,401,43.9Z" transform="translate(-31.78)"/><path class="cls-6" d="M404.64,48.16c0,.73-.76,3.12-.72,4.22.06,2.14.59,3.7.73,6.44.23,4.83.48,10.46.63,13l3.2-.14c.71-3.85,1.73-18,1-21.88h0a3.51,3.51,0,0,1-3.57,0A3.46,3.46,0,0,1,404.64,48.16Z" transform="translate(-31.78)"/><path class="cls-6" d="M404.25,30.78a3.41,3.41,0,0,0,.8,2.41,20.26,20.26,0,0,0,1.81,1.35,3.35,3.35,0,0,1,.9,1.39,36.1,36.1,0,0,0-1.54-6.72,3.9,3.9,0,0,0-.7-1.2,1.55,1.55,0,0,0-1.23-.54C404.71,28.34,404.27,29.91,404.25,30.78Z" transform="translate(-31.78)"/><path class="cls-2" d="M404.58,45.86a3.15,3.15,0,0,0,.06,2.3A3.46,3.46,0,0,0,406,49.74a3.51,3.51,0,0,0,3.57,0,3.13,3.13,0,0,0,.62-.48,4.5,4.5,0,0,1-.64.11A5.09,5.09,0,0,1,407,49,2.38,2.38,0,0,1,405.75,48a1.93,1.93,0,0,1,.19-1.77A3.78,3.78,0,0,1,407.3,45h0a8.4,8.4,0,0,0,.12-2.11,1.89,1.89,0,0,0-.41-.78l-.09.07c-.13.36-.26.71-.41,1.06a7.3,7.3,0,0,1-.91,1.64,4,4,0,0,1-1,1Z" transform="translate(-31.78)"/><path class="cls-6" d="M405.94,46.19a1.93,1.93,0,0,0-.19,1.77A2.38,2.38,0,0,0,407,49a5.09,5.09,0,0,0,2.5.39v-.06c0-.3-.12-1.1-.12-1.4l-.22-.12a3.39,3.39,0,0,1-1.85-2.77V45h0A3.78,3.78,0,0,0,405.94,46.19Z" transform="translate(-31.78)"/><path class="cls-9" d="M376,125.22a.88.88,0,0,1-.67-1" transform="translate(-31.78)"/><path class="cls-9" d="M392.1,90.57a1.68,1.68,0,0,1-1.87-1,5,5,0,0,1-.26-2.28" transform="translate(-31.78)"/><path class="cls-9" d="M394,85.54a1.55,1.55,0,0,0-.64-1.27,1.57,1.57,0,0,0-1.41-.2" transform="translate(-31.78)"/><path class="cls-9" d="M383.24,90.84c.93-2.58-.19-5.67-1.5-7.51s-3-3.17-4.4-5a9.29,9.29,0,0,1-1.55-3.19,8,8,0,0,1-.2-3.35" transform="translate(-31.78)"/><path class="cls-9" d="M389.78,66.81a29.47,29.47,0,0,1,3.11,5.49,20.57,20.57,0,0,1,1.38,4.59c.65,3.86,1,9.46-.43,13.11-.81,2.09-2.06,3-3,5.08a63.34,63.34,0,0,0-2.14,6.5c-2,5.91-5.73,11.22-6.8,17.35-.59,4.52-1.34,9.92-.47,14.4.42,2.12,1.17,4.22,1.06,6.38a2.63,2.63,0,0,1-.59,1.75,2.47,2.47,0,0,1-2.23.46,7,7,0,0,1-4.81-4.16,13.33,13.33,0,0,1-.84-6.48,8.76,8.76,0,0,0-.06-3.23,7,7,0,0,1-.64-2.19,4.42,4.42,0,0,1,.85-2,17.26,17.26,0,0,0,2.14-6.79,98.14,98.14,0,0,1,1.85-14.21,33.83,33.83,0,0,1,5.12-12c.23-.32.47-.64.71-.95" transform="translate(-31.78)"/><path class="cls-9" d="M398,64.63v.05a47.24,47.24,0,0,1-1.09,7.42l-4,.2h0" transform="translate(-31.78)"/><path class="cls-9" d="M397,66.29a7.57,7.57,0,0,0,1-1.61c.89-1.9,1.24-4.16,2-6.1s1.71-3.6,2.37-5.61,1.06-4.73.23-6.68" transform="translate(-31.78)"/><path class="cls-9" d="M398.51,58.06a4.75,4.75,0,0,0-.88,2.49" transform="translate(-31.78)"/><path class="cls-9" d="M382.46,38.67a31.13,31.13,0,0,1,3,7.53,11.77,11.77,0,0,1-.73,7.09c-1.69,3.58-5.14,6.14-7.25,9.49a17.94,17.94,0,0,0-2.67,8,8.81,8.81,0,0,0,.91,4.47" transform="translate(-31.78)"/><path class="cls-9" d="M385.47,38.68c-.71,1.89.35,4.11,2,5.27a10.64,10.64,0,0,0,5.78,1.59,6.77,6.77,0,0,0,2.42-.23,2.61,2.61,0,0,0,1.72-1.61" transform="translate(-31.78)"/><path class="cls-9" d="M370,71.3c1.4-4.2,3.58-8,5.67-12.34,1.06-2.19,2.61-4.16,3.06-6.55.33-1.76.9-4.19,1.17-6,.38-2.55,1.74-5.19,2.44-7.81a10.85,10.85,0,0,0,.42-3.27" transform="translate(-31.78)"/><path class="cls-9" d="M385.72,22.72a3.79,3.79,0,0,1-2.7,2c-.62.11-1.25,0-1.88.12a4.11,4.11,0,0,0-2.52,1.31,5.75,5.75,0,0,0-1.08,2.63,73.28,73.28,0,0,0-1.74,10.84A40.86,40.86,0,0,1,374,48.34c-.51,1.34-1.24,2-1.82,3.71-.82,2.46-1.16,4.76-2,7.8-.8,2.88-3,8.57-3.81,10.9" transform="translate(-31.78)"/><path class="cls-9" d="M407.77,36s0-.06,0-.09a36.1,36.1,0,0,0-1.54-6.72,3.9,3.9,0,0,0-.7-1.2,1.55,1.55,0,0,0-1.23-.54" transform="translate(-31.78)"/><path class="cls-9" d="M404.29,27.47c.42.87,0,2.44,0,3.31a3.41,3.41,0,0,0,.8,2.41,20.26,20.26,0,0,0,1.81,1.35,3.35,3.35,0,0,1,.9,1.39,4,4,0,0,1,.23,1.21" transform="translate(-31.78)"/><path class="cls-9" d="M407.64,37a2.44,2.44,0,0,1,.34.14,6.81,6.81,0,0,1,3.49,3.34,5.34,5.34,0,0,0-3.06-2.18l-.25-.06a4,4,0,0,1-1.1-.37,1.19,1.19,0,0,1-.36-.31" transform="translate(-31.78)"/><path class="cls-9" d="M407.3,45a3.78,3.78,0,0,0-1.36,1.21,1.93,1.93,0,0,0-.19,1.77A2.38,2.38,0,0,0,407,49a5.09,5.09,0,0,0,2.5.39,4.5,4.5,0,0,0,.64-.11,3.13,3.13,0,0,1-.62.48,3.51,3.51,0,0,1-3.57,0,3.46,3.46,0,0,1-1.31-1.58,3.15,3.15,0,0,1-.06-2.3" transform="translate(-31.78)"/><path class="cls-9" d="M409.52,49.78c.69,3.85-.33,18-1,21.88l-3.2.14c-.15-2.52-.4-8.15-.63-13-.14-2.74-.67-4.3-.73-6.44,0-1.1.76-3.49.72-4.22" transform="translate(-31.78)"/><path class="cls-9" d="M409.5,49.35c0-.3-.12-1.1-.12-1.4h0" transform="translate(-31.78)"/><path class="cls-9" d="M409,43.15c-.23-1.4-.53-3.8-.8-4.9" transform="translate(-31.78)"/><path class="cls-9" d="M394.41.47c3,0,5.41,4.51,6.49,7.61a42.7,42.7,0,0,1,1.76,9.67c.35,3.27.48,6.64,1.63,9.72" transform="translate(-31.78)"/><path class="cls-9" d="M400.2,18.86a18.6,18.6,0,0,0,1.38,10.2" transform="translate(-31.78)"/><path class="cls-9" d="M405.33,36.73a14.62,14.62,0,0,1-6.48-9.86" transform="translate(-31.78)"/><path class="cls-9" d="M406.93,42.16c-.13.36-.26.71-.41,1.06a7.3,7.3,0,0,1-.91,1.64,4,4,0,0,1-1,1,2.93,2.93,0,0,1-1.48.49,1.87,1.87,0,0,1-.53,0,2,2,0,0,1-1.65-1.62" transform="translate(-31.78)"/><path class="cls-9" d="M398.89,42.57a7.61,7.61,0,0,1-1.81-2.88,3.8,3.8,0,0,1-.18-1.31" transform="translate(-31.78)"/><path class="cls-9" d="M397,42.43c-1.31-.52-2-2.36-2.1-3.43a3.79,3.79,0,0,0,.31,2.52,2.62,2.62,0,0,0,1.78.93,9.67,9.67,0,0,0,1.17.12,5.77,5.77,0,0,0,.72,0,18.6,18.6,0,0,0,2.46-.23,2.66,2.66,0,0,1-1.57.59,5.27,5.27,0,0,0,3,.5,15.55,15.55,0,0,0,3-.41,15.27,15.27,0,0,1-4.83.86,7,7,0,0,1-1.7-.27,11.66,11.66,0,0,0-1.63-.47c-.74-.09-1.5.1-2.23,0a4.24,4.24,0,0,1-1.82-1,7.39,7.39,0,0,1-1.81-2c-.88-1.52-.72-3.74-1.49-5.32-.45-.94-1.2-1.31-1.95-2A4.55,4.55,0,0,1,386.9,30a3.82,3.82,0,0,0-.22-1.52c-.24-.46-.74-.72-1-1.14a2.87,2.87,0,0,1-.12-2.32,4,4,0,0,0,.19-2.33" transform="translate(-31.78)"/><path class="cls-9" d="M406.72,37.74a1.66,1.66,0,0,1,.33.15A3.32,3.32,0,0,1,408.46,40c.18.78,0,1.6.21,2.38a3,3,0,0,0,.29.77,4.46,4.46,0,0,0,1.24,1.46A12.42,12.42,0,0,0,412.59,46a5.17,5.17,0,0,1-3.48-1,6.7,6.7,0,0,0,3.17,2.61,3.92,3.92,0,0,1-2.67-1,6.17,6.17,0,0,0,2.91,2.18,9.39,9.39,0,0,1-3.14-.76l-.22-.12a3.39,3.39,0,0,1-1.85-2.77V45a8.4,8.4,0,0,0,.12-2.11,1.89,1.89,0,0,0-.41-.78,7.56,7.56,0,0,0-1.5-1.24c-2-1.48-3.37-3.72-4.64-5.89a6.13,6.13,0,0,0,1.52,3.15,38.11,38.11,0,0,1-3.14-3.91,14.93,14.93,0,0,0,3.56,5.53,22.34,22.34,0,0,1-7.07-14.58A24.27,24.27,0,0,1,396.87,17c.12-.47.25-.94.36-1.39a18.21,18.21,0,0,0,.73-5.9,6.27,6.27,0,0,0-.09-.86c0-.13,0-.27-.07-.4a3.12,3.12,0,0,0-.09-.44C397.46,7,397,5.1,396,4.21c-1.39-1.25-3.42-1.39-3.44-2-1,.42-2.4.91-2.92,1.84a9.35,9.35,0,0,0-.57,2.71,7.88,7.88,0,0,1-.35,1.17c0,.12-.08.25-.13.37a10.59,10.59,0,0,0-.46,1.55c0,.12,0,.25,0,.38-.21,2.48,1.08,4.69,1.83,7.07.5,1.58,2.33,2.57,2.45,4.23a9.55,9.55,0,0,1-.43,2.84,4.31,4.31,0,0,0,.13,2.82c.17.34.56,1.22.75,1.55s1,1.58,1.32,2.34a12.29,12.29,0,0,0,1,2.28c.45.63,1.15,1.08,1.46,1.79a5.22,5.22,0,0,1,.27,1.67,5,5,0,0,0,.62,1.54c.41.93.49,2.27,1.23,3a3.72,3.72,0,0,1-1.65-1.61" transform="translate(-31.78)"/><path class="cls-9" d="M394.41.47C394,0,392.62.16,392,.18a7.17,7.17,0,0,0-5.41,3A11.42,11.42,0,0,0,385,7.06a25.32,25.32,0,0,0,.73,15.66" transform="translate(-31.78)"/><path class="cls-9" d="M389.63,26.24a4.56,4.56,0,0,0,.35,3.82c.59,1.18,1.45,2.21,2.1,3.37a5.12,5.12,0,0,1,.71,3.79" transform="translate(-31.78)"/><path class="cls-9" d="M397.81,8.5h0a4.79,4.79,0,0,0-.82-.6,2.89,2.89,0,0,0-.91-.18,3.75,3.75,0,0,0-1.76.23" transform="translate(-31.78)"/><path class="cls-9" d="M397.87,8.89a2.35,2.35,0,0,0-2.26-.55l-.39,0a2,2,0,0,1-.5,0,.51.51,0,0,1-.41-.42" transform="translate(-31.78)"/><path class="cls-9" d="M388.72,7.91h0a3.13,3.13,0,0,1,1.89-.41c.49.12,1,.17,1.31.57l0,0a2.27,2.27,0,0,1,.32,1.42,2.28,2.28,0,0,1,0,.26,3.64,3.64,0,0,1-.64,1.65,4.8,4.8,0,0,0-.36.52.82.82,0,0,0-.09.61.44.44,0,0,0,.46.34" transform="translate(-31.78)"/><path class="cls-9" d="M392.24,12.46a.43.43,0,0,0-.63.17" transform="translate(-31.78)"/><path class="cls-9" d="M394,12.74a.53.53,0,0,0-.69-.15" transform="translate(-31.78)"/><path class="cls-9" d="M395.43,14.93a.88.88,0,0,1-.36,0,1.31,1.31,0,0,1-.46-.26,3.9,3.9,0,0,0-.71-.42c-.32-.18-.71,0-1.08,0s-.8-.23-1.15,0-.47.54-.74.62a.27.27,0,0,1-.13,0" transform="translate(-31.78)"/><path class="cls-9" d="M395.06,14.93a18.28,18.28,0,0,0-4.12-.13" transform="translate(-31.78)"/><path class="cls-9" d="M395.06,14.93a4.75,4.75,0,0,1-1.72.67,2.18,2.18,0,0,1-1.24-.06c-.39-.15-1-.34-1.16-.74" transform="translate(-31.78)"/><path class="cls-9" d="M396.87,17h0a7.71,7.71,0,0,1-2.07,1.57A4.28,4.28,0,0,1,393,19a2.84,2.84,0,0,1-1.87-.6,5.87,5.87,0,0,1-1.23-1.1" transform="translate(-31.78)"/><path class="cls-9" d="M395,9.13a1.63,1.63,0,0,0-1,.54" transform="translate(-31.78)"/><path class="cls-9" d="M397,9.81a3,3,0,0,0-1.23-.64l-.21,0a2,2,0,0,0-.34,0,1.63,1.63,0,0,0-.31,0" transform="translate(-31.78)"/><path class="cls-9" d="M397,9.81c-.45,0-.88.23-1.31.3a2,2,0,0,1-.49,0l-.27-.05-.32-.1c-.17-.08-.62-.15-.68-.32" transform="translate(-31.78)"/><path class="cls-9" d="M388.29,9.84a3.47,3.47,0,0,1,1.35-.69l.18,0a2.27,2.27,0,0,1,.52,0l.22,0a1.48,1.48,0,0,1,.89.52" transform="translate(-31.78)"/><path class="cls-9" d="M388.29,9.84c.49.05,1,.22,1.49.26h.39l.28,0a3.08,3.08,0,0,0,.39-.07c.17,0,.56-.18.61-.35" transform="translate(-31.78)"/><path class="cls-9" d="M391.93,8.07c-.13.28-.56.29-.86.25a2.87,2.87,0,0,1-.59-.17,1,1,0,0,0-.21-.07,2.39,2.39,0,0,0-1.64.2" transform="translate(-31.78)"/><path class="cls-9" d="M389.64,9.16a.57.57,0,0,0-.17.41.57.57,0,0,0,.31.52" transform="translate(-31.78)"/><path class="cls-9" d="M390.45,10.07a.56.56,0,0,0,.3-.5.61.61,0,0,0-.19-.43h0" transform="translate(-31.78)"/><path class="cls-9" d="M395,9.12h0a.63.63,0,0,0-.23.47.59.59,0,0,0,.25.48" transform="translate(-31.78)"/><path class="cls-9" d="M395.73,10.1a.61.61,0,0,0,.27-.5.57.57,0,0,0-.19-.43" transform="translate(-31.78)"/><path class="cls-9" d="M370,71.3c-.17.22.14,3-1.69,4.49-.23.19-1.39,1.67-1.53,1.83a.58.58,0,0,1-.54.22.52.52,0,0,1-.32-.59,3.91,3.91,0,0,1,.58-1.06c.16-.19.36-1,.21-1.2-.56-.69-4.19,1.48-8,1.25a6.68,6.68,0,0,1-1.34-.12c-.44-.11-1.15-.56-.62-.74a22.53,22.53,0,0,0,5.12-1.25,9,9,0,0,0,4.49-3.38" transform="translate(-31.78)"/></g></g></svg>